<svg width="57" height="83" viewBox="0 0 57 83" fill="none" xmlns="http://www.w3.org/2000/svg">
<path d="M30.9505 39.4105C30.9037 39.3034 30.8597 39.1964 30.8173 39.0859C30.8493 39.1092 30.8821 39.1315 30.9145 39.1543C30.9329 39.244 30.9533 39.3317 30.9749 39.4184C30.9669 39.4164 30.9601 39.4125 30.9521 39.4105C30.9521 39.4105 30.9513 39.4105 30.9505 39.4105Z" fill="url(#paint0_linear_20_583)"/>
<path d="M7.56604 54.2778C7.58181 54.2139 7.59716 54.15 7.61334 54.0855C7.61251 54.1376 7.60753 54.1891 7.60753 54.2407C7.59342 54.253 7.57973 54.2649 7.56604 54.2778Z" fill="url(#paint1_linear_20_583)"/>
<path d="M38.0454 51.292C38.1107 51.2207 38.1737 51.1473 38.2406 51.0775C38.3376 50.9759 38.4334 50.8738 38.5284 50.7712C38.3841 50.9432 38.2326 51.1082 38.0731 51.2663C38.0642 51.2752 38.0542 51.2836 38.0454 51.292Z" fill="url(#paint2_linear_20_583)"/>
<path d="M38.0075 25.7057C37.9201 25.6621 37.8327 25.6185 37.7454 25.5749C38.161 22.9811 38.7843 20.3824 39.7831 18.0498C40.0184 17.5007 40.2786 16.9754 40.5704 16.4739C40.778 16.689 41.0205 16.8659 41.2173 17.0086C41.2686 17.0458 41.3215 17.08 41.3748 17.1132C41.0818 17.6157 40.8104 18.1415 40.5643 18.6787C39.9651 19.9879 39.515 21.3735 39.1386 22.8022C38.8873 23.7567 38.6973 24.732 38.5217 25.7117C38.4484 25.7439 38.3742 25.7731 38.2989 25.7825C38.1971 25.7954 38.1009 25.7523 38.0075 25.7057Z" fill="url(#paint3_linear_20_583)"/>
<path d="M40.5314 15.5641C40.3558 15.0507 40.3101 14.4575 40.4059 13.9357C40.5189 13.3192 40.7634 12.7617 41.05 12.2428C41.3318 11.7329 41.6769 11.2517 42.105 10.9251C42.1323 10.9043 42.1615 10.8835 42.1896 10.8627C42.2782 10.8572 42.3671 10.8508 42.4545 10.8528C43.0145 10.8662 43.4758 11.1278 43.9159 11.5436C44.3508 11.9544 44.7729 12.4599 44.9661 13.1081C45.027 13.3118 45.0635 13.5348 45.0803 13.7553C45.0795 13.7578 45.0791 13.7602 45.0783 13.7627C45.0743 13.7816 45.0703 13.8019 45.0659 13.8202C44.9777 14.2033 44.7777 14.6017 44.5733 14.909C44.3616 15.2271 44.1095 15.5348 43.8329 15.8015C43.2814 16.3669 42.5619 16.8783 41.8461 16.8069C41.7126 16.7182 41.5835 16.6191 41.4609 16.5205C41.1242 16.2499 40.7795 15.9561 40.5314 15.5641Z" fill="url(#paint4_linear_20_583)"/>
<path d="M46.3077 10.9167C46.0347 11.1764 45.7645 11.4415 45.5044 11.72C45.387 11.8459 45.2254 12.0049 45.104 12.1848C45.0146 12.0223 44.918 11.8662 44.811 11.725C44.7701 11.6709 44.724 11.6199 44.6811 11.5674C45.3096 11.0436 45.8263 10.2725 46.2251 9.49245C46.6832 8.59549 47.0508 7.64054 47.4207 6.68559C47.428 6.66676 47.4043 6.65635 47.3967 6.67419C47.0015 7.57958 46.5445 8.45474 46.009 9.24367C45.7433 9.63566 45.4647 10.0168 45.1681 10.3731C44.9156 10.6764 44.641 10.9444 44.3713 11.2215C44.2999 11.1486 44.2282 11.0777 44.1528 11.0104C44.7012 10.2066 45.1453 9.2749 45.5244 8.34027C45.8884 7.4438 46.1128 6.51661 46.3205 5.55125C46.4247 5.0656 46.5401 4.58144 46.7201 4.12899C46.9117 3.64731 47.1718 3.21071 47.4412 2.79147C47.4833 2.72606 47.5254 2.66113 47.5674 2.59621C47.6087 2.55211 47.6476 2.50503 47.6901 2.46242C48.1017 2.05011 48.5507 1.70668 48.9823 1.33006C49.2088 1.13233 49.4353 0.924192 49.6421 0.695738C49.7315 0.597122 49.8124 0.489083 49.8946 0.383033C49.9692 0.250718 50.0517 0.132284 50.1435 0.0376313C50.1684 0.0118622 50.1952 0.0143349 50.2193 0.0262284C50.2233 0.0227594 50.2269 0.0183129 50.2309 0.0153396C50.2786 -0.0238098 50.3455 0.015824 50.3395 0.0906538C50.3067 0.49751 50.0886 0.860264 49.8493 1.17197C49.7495 1.44106 49.6605 1.7166 49.5848 1.99709C49.3992 2.68393 49.2798 3.39406 49.1791 4.10619C49.0813 4.79898 49.0176 5.49724 48.9334 6.19053C48.8749 6.82832 48.7627 7.46164 48.6044 8.07316C48.5939 8.11479 48.5851 8.15642 48.5743 8.19755C48.3426 8.5603 48.1017 8.91363 47.8416 9.25012C47.3686 9.85966 46.8488 10.4023 46.3077 10.9167Z" fill="url(#paint5_linear_20_583)"/>
<path d="M45.8978 5.67613C45.6962 6.64149 45.4301 7.56373 45.0661 8.45524C44.7306 9.27688 44.3214 10.0549 44.0011 10.8855C43.9767 10.8662 43.9538 10.8443 43.929 10.826C44.0144 10.66 44.0769 10.4662 44.1174 10.326C44.214 9.991 44.2448 9.62972 44.2689 9.27738C44.3202 8.52164 44.3158 7.75353 44.5811 7.05281C44.5971 7.01069 44.5438 6.9859 44.527 7.02654C44.2805 7.62766 44.2007 8.29568 44.0809 8.94536C44.0168 9.29324 43.9362 9.63865 43.8216 9.96671C43.7719 10.1089 43.721 10.2546 43.6596 10.3899C43.6292 10.4568 43.5939 10.5198 43.5578 10.5822C43.5462 10.5763 43.5358 10.5673 43.5245 10.5614C43.365 10.4771 43.1991 10.4276 43.0311 10.3929C43.1085 10.0549 43.1622 9.71001 43.1943 9.3537C43.3129 8.03055 43.2099 6.68708 43.446 5.37929C43.6933 4.00807 44.2621 2.85987 45.1972 2.04219C45.6124 1.67894 46.0714 1.32809 46.5407 1.0813C47.0378 0.820138 47.54 0.596626 48.0182 0.280458C48.1236 0.210584 48.2202 0.39097 48.156 0.498507C48.1244 0.551532 48.0907 0.602077 48.0582 0.65411C47.8979 1.08624 47.6606 1.47378 47.4522 1.87518C47.3444 2.08282 47.2434 2.29889 47.1444 2.51594C47.0618 2.64479 46.9784 2.77214 46.8987 2.90396C46.647 3.32024 46.4217 3.76377 46.2585 4.24397C46.1014 4.70583 45.9988 5.19147 45.8978 5.67613Z" fill="url(#paint6_linear_20_583)"/>
<path d="M49.6709 10.1203C49.2745 10.5401 48.854 10.8919 48.4051 11.219C47.9501 11.5505 47.4812 11.8414 46.9966 12.1016C46.5208 12.3563 46.0094 12.5709 45.5705 12.9163C45.5248 12.9525 45.4783 12.9951 45.4314 13.0397C45.3933 12.8717 45.344 12.7086 45.2803 12.552C45.4366 12.4232 45.5817 12.2374 45.7079 12.1095C45.9496 11.8647 46.2014 11.6377 46.4499 11.4043C47.3156 10.5906 48.1113 9.69216 48.7927 8.64058C48.8003 8.62868 48.8075 8.6163 48.8151 8.6044C49.43 8.30954 50.1002 8.19109 50.7836 8.2912C50.9824 8.32044 51.0581 8.64701 50.8986 8.79964C50.4693 9.20997 50.0829 9.68423 49.6709 10.1203Z" fill="url(#paint7_linear_20_583)"/>
<path d="M31.8408 26.7742C31.5498 26.6736 31.2692 26.5016 31.0103 26.3113C30.9858 26.2935 30.9606 26.2741 30.9357 26.2553C30.6131 25.6953 30.4551 24.9584 30.3898 24.2805C30.3381 23.8518 30.3273 23.4143 30.3513 23.0029C30.3746 22.606 30.4515 22.1471 30.6014 21.7943C30.6087 21.7774 30.6171 21.7596 30.6247 21.7422C30.6255 21.7398 30.6263 21.7373 30.6271 21.7348C30.7622 21.5891 30.9129 21.4593 31.0708 21.3631C31.5722 21.0584 32.1598 21.0519 32.7037 21.1248C33.2545 21.1986 33.7347 21.4018 34.1475 21.8696C34.212 21.9424 34.273 22.0227 34.3339 22.1025C34.3427 22.1417 34.3523 22.1818 34.3603 22.22C34.4882 22.8216 34.4702 23.4643 34.39 24.0734C34.3082 24.6933 34.1748 25.3058 33.913 25.8489C33.715 26.2603 33.4024 26.6166 33.0428 26.8465C32.9575 26.8505 32.8725 26.8569 32.7867 26.8589C32.4717 26.8663 32.147 26.8797 31.8408 26.7742Z" fill="url(#paint8_linear_20_583)"/>
<path d="M26.0587 42.2307C26.1589 41.8372 26.2736 41.4492 26.405 41.0761C27.3578 38.3648 28.8585 36.0169 29.8878 33.3532C30.4116 31.9979 30.8582 30.6103 31.1536 29.1509C31.2826 28.5131 31.3804 27.8604 31.4482 27.2068C31.5488 27.2524 31.6514 27.2935 31.758 27.3242C31.9708 27.3857 32.1829 27.4025 32.3937 27.3921C32.3272 28.0577 32.2177 28.7118 32.0702 29.361C31.4081 32.2779 30.1928 35.0272 28.8352 37.5283C28.1502 38.79 27.4572 40.0507 26.9265 41.4249C26.7942 41.7679 26.6684 42.1093 26.5565 42.4577C26.4531 42.4066 26.3493 42.3561 26.2439 42.3095C26.1826 42.2818 26.1208 42.2565 26.0587 42.2307Z" fill="url(#paint9_linear_20_583)"/>
<path d="M35.0471 11.5317C35.0411 11.615 35.0355 11.6977 35.0295 11.781C34.9906 12.3142 34.9357 12.8519 34.8062 13.3643C34.6843 13.8455 34.498 14.294 34.3028 14.735C33.9148 15.6116 33.5608 16.4744 33.3244 17.4343C33.0783 18.4344 32.8807 19.4884 32.8297 20.5375C32.738 20.5222 32.6462 20.5123 32.554 20.5043C32.5131 20.0737 32.4638 19.6455 32.4498 19.2104C32.4333 18.699 32.4442 18.1856 32.4702 17.6757C32.5223 16.6479 32.6786 15.624 32.8971 14.6314C32.9015 14.6121 32.8787 14.5997 32.8734 14.6195C32.6089 15.6265 32.3427 16.6315 32.1748 17.6722C32.0289 18.5771 31.9732 19.5762 32.1363 20.491C32.0754 20.4924 32.0141 20.4905 31.954 20.4944C31.7976 20.5053 31.6409 20.536 31.4854 20.5777C31.4978 20.3438 31.4698 20.091 31.4545 19.8998C31.4213 19.4761 31.3732 19.0538 31.3203 18.6331C31.2152 17.7996 31.1407 16.9631 31.1391 16.1186C31.1379 15.6538 31.1603 15.1924 31.1948 14.732C31.21 14.6929 31.2269 14.6552 31.2425 14.6161C31.469 14.0382 31.7407 13.4837 32.0538 12.9718C32.3792 12.3979 32.7223 11.8375 33.0374 11.2522C33.3616 10.6506 33.6711 10.0341 33.9196 9.37848C34.0214 9.11038 34.1104 8.83534 34.1881 8.55535C34.1885 8.1257 34.2326 7.67673 34.4358 7.35462C34.4731 7.29515 34.5441 7.32339 34.5565 7.39227C34.5577 7.39822 34.5577 7.40417 34.5585 7.41012C34.5825 7.42201 34.603 7.44283 34.607 7.48297C34.6206 7.63015 34.6142 7.78575 34.5946 7.94532C34.595 8.0925 34.5938 8.23968 34.6034 8.38736C34.6254 8.7293 34.6739 9.07322 34.7276 9.40921C34.8303 10.05 34.9641 10.6818 35.0327 11.331C35.0395 11.3974 35.0415 11.4643 35.0471 11.5317Z" fill="url(#paint10_linear_20_583)"/>
<path d="M34.4478 20.1534C34.2722 20.4394 34.1191 20.7352 33.9864 21.0455C33.8453 20.9275 33.6974 20.822 33.5351 20.7466C33.5235 20.7412 33.5111 20.7387 33.499 20.7332C33.5074 20.6574 33.5171 20.5811 33.5323 20.5073C33.5632 20.3571 33.6077 20.208 33.6509 20.0628C33.7511 19.7273 33.885 19.4081 34.0325 19.1019C34.3079 18.529 34.6225 17.9769 34.7789 17.3317C34.7893 17.2881 34.7372 17.2604 34.7251 17.3045C34.5267 18.0389 34.095 18.5914 33.7111 19.1821C33.5323 19.4577 33.3531 19.7456 33.2361 20.0707C33.1872 20.2065 33.1247 20.4002 33.0938 20.5935C33.0657 20.5861 33.0369 20.5821 33.0084 20.5752C33.2393 19.7005 33.3768 18.7877 33.5916 17.9071C33.8249 16.9511 34.1464 16.0566 34.5384 15.185C34.7352 14.7479 34.932 14.3083 35.0759 13.8395C35.2254 13.3529 35.3095 12.8395 35.3592 12.3231C35.3749 12.16 35.3857 11.996 35.3977 11.8325C35.447 11.5911 35.4943 11.3483 35.532 11.106C35.6045 10.6377 35.6486 10.155 35.7733 9.70503C35.7789 9.63961 35.7825 9.5742 35.7893 9.50879C35.8029 9.37597 35.9733 9.3279 36.0106 9.46815C36.1805 10.1044 36.4198 10.6947 36.6343 11.3072C36.8367 11.8855 36.9734 12.5312 37.072 13.1482C37.2936 14.5372 37.0655 15.854 36.4799 17.0582C35.9232 18.2084 35.0991 19.0934 34.4478 20.1534Z" fill="url(#paint11_linear_20_583)"/>
<path d="M30.7885 14.8658C30.6963 16.2083 30.7717 17.5374 30.9452 18.8645C30.9949 19.2456 31.051 19.6247 31.0895 20.0078C31.1096 20.2085 31.1116 20.4662 31.1528 20.6931C31.0194 20.7521 30.8927 20.8284 30.7717 20.9176C30.7629 20.8453 30.7528 20.7749 30.7396 20.7095C30.6142 20.0851 30.3632 19.4939 30.1608 18.9037C29.9544 18.3025 29.7772 17.692 29.6321 17.0641C29.489 16.4447 29.3808 15.8312 29.3275 15.1894C29.2722 14.5224 29.2566 13.8499 29.174 13.1864C29.1431 12.9396 29.3804 12.7676 29.5408 12.9158C30.0915 13.4257 30.5111 14.0823 30.7921 14.8202C30.7913 14.8361 30.7897 14.8509 30.7885 14.8658Z" fill="url(#paint12_linear_20_583)"/>
<path d="M30.196 62.0705C30.2384 61.7712 30.3018 61.4758 30.3667 61.1835C30.3759 61.1413 30.3863 61.0997 30.3968 61.0576C30.6737 60.6711 31.0445 60.3772 31.4301 60.2449C31.9227 60.0754 32.4358 60.0774 32.9412 60.1433C33.4378 60.2077 33.944 60.3554 34.3797 60.6666C34.4074 60.6864 34.4359 60.7082 34.4643 60.729C34.5104 60.8232 34.5569 60.9168 34.597 61.0125C34.8531 61.6285 34.8856 62.2544 34.7982 62.9308C34.712 63.5993 34.5521 64.2981 34.1825 64.8159C34.0663 64.979 33.9248 65.1242 33.7757 65.2471C33.7737 65.2476 33.7713 65.2481 33.7693 65.2481C33.7536 65.2525 33.7376 65.258 33.7224 65.2619C33.4077 65.3477 33.0294 65.3189 32.7135 65.2421C32.3864 65.1623 32.0477 65.0345 31.7267 64.86C31.0754 64.5345 30.3811 64.0097 30.0825 63.2227C30.0885 63.1345 30.0974 63.0468 30.1022 62.965C30.1202 62.6657 30.1543 62.3654 30.196 62.0705Z" fill="url(#paint13_linear_20_583)"/>
<path d="M37.4279 64.1162C37.0227 64.0126 36.6195 63.8907 36.2246 63.7366C35.8892 63.6053 35.5677 63.4338 35.2426 63.2718C35.2607 63.1593 35.2771 63.0478 35.2891 62.9338C36.1212 63.1494 36.9954 63.191 37.8408 63.1603C38.6516 63.131 39.4184 62.9358 40.2044 62.7039C40.5996 62.5869 40.9988 62.4828 41.4065 62.4645C41.8406 62.4447 42.2747 62.5205 42.7007 62.6147C42.7673 62.6295 42.8334 62.6444 42.8995 62.6593C42.9508 62.6835 43.0021 62.7034 43.0531 62.7296C43.5417 62.9819 43.9994 63.3079 44.4728 63.5993C44.7209 63.752 44.9766 63.9001 45.2375 64.0166C45.3502 64.0667 45.4656 64.1038 45.5802 64.143C45.7097 64.1613 45.8331 64.195 45.9442 64.25C45.9742 64.2649 45.9855 64.2951 45.9883 64.3268C45.9927 64.3298 45.9975 64.3313 46.0015 64.3343C46.052 64.3675 46.0556 64.4596 45.9991 64.4884C45.6941 64.6455 45.3321 64.5806 44.9966 64.4676C44.7577 64.4864 44.5197 64.5206 44.2836 64.5711C43.7068 64.695 43.144 64.9022 42.5893 65.1301C42.0498 65.3521 41.5223 65.6143 40.9888 65.8512C40.507 66.09 40.0024 66.2679 39.4921 66.3859C39.4577 66.3943 39.4236 66.4047 39.3891 66.4121C39.0208 66.3324 38.6548 66.2377 38.2925 66.1138C37.6339 65.8893 37.001 65.5806 36.3782 65.2357C36.0639 65.0617 35.7473 64.8937 35.425 64.7421C35.2795 64.6737 35.0899 64.5736 34.9039 64.527C34.9773 64.3526 35.0426 64.1737 35.0923 63.9898C35.1112 63.9195 35.126 63.8456 35.1428 63.7733C35.8138 64.2089 36.6082 64.4056 37.3526 64.4695C38.2083 64.5429 39.0629 64.4894 39.9182 64.4393C39.9351 64.4383 39.9314 64.4076 39.915 64.4076C39.0837 64.4076 38.2436 64.3248 37.4279 64.1162Z" fill="url(#paint14_linear_20_583)"/>
<path d="M38.3031 61.4521C37.7584 61.4689 37.245 61.6989 36.7255 61.8768C36.4473 61.9719 36.1632 62.0477 35.8754 62.0795C35.7507 62.0928 35.6224 62.1067 35.497 62.1037C35.4349 62.1022 35.3731 62.0938 35.3118 62.0839C35.3106 62.0686 35.3122 62.0527 35.311 62.0373C35.2954 61.8237 35.2517 61.6196 35.1968 61.4204C35.4737 61.344 35.7451 61.2395 36.0144 61.1052C37.0129 60.6066 37.9204 59.8573 38.9637 59.4936C40.0575 59.1125 41.145 59.1864 42.1707 59.8167C42.626 60.0967 43.0942 60.4297 43.4918 60.8232C43.9134 61.24 44.3111 61.681 44.7628 62.0512C44.8626 62.133 44.78 62.3233 44.673 62.3044C44.6205 62.295 44.568 62.2826 44.5159 62.2717C44.1319 62.302 43.7435 62.2276 43.3591 62.191C43.1599 62.1721 42.9583 62.1647 42.7567 62.1597C42.626 62.131 42.4953 62.1008 42.3639 62.0765C41.9482 62.0002 41.5253 61.9655 41.1061 62.0155C40.7025 62.0636 40.3081 62.183 39.9149 62.3024C39.1316 62.5408 38.3488 62.689 37.5416 62.7153C36.7977 62.7395 36.0493 62.6637 35.3062 62.7088C35.3086 62.6731 35.313 62.6379 35.3146 62.6023C35.4733 62.6166 35.6409 62.5929 35.7599 62.5701C36.0445 62.5165 36.3163 62.3783 36.578 62.2375C37.1404 61.9348 37.6851 61.5656 38.3104 61.5219C38.348 61.5205 38.34 61.4511 38.3031 61.4521Z" fill="url(#paint15_linear_20_583)"/>
<path d="M36.0987 65.6217C37.0887 66.1783 38.106 66.6178 39.1778 66.8611C39.1898 66.8636 39.2022 66.8656 39.2143 66.8686C39.7161 67.3978 40.1181 68.0713 40.3706 68.8622C40.4444 69.0926 40.2476 69.33 40.0632 69.2284C39.5674 68.9554 39.0467 68.7601 38.5409 68.5183C38.0539 68.2859 37.6038 67.995 37.1581 67.6615C36.7063 67.3235 36.2766 66.9513 35.8618 66.5469C35.4546 66.15 35.0593 65.6951 34.6052 65.3814C34.5579 65.3487 34.5054 65.3184 34.4513 65.2887C34.5527 65.1673 34.6453 65.0365 34.7267 64.8928C34.8926 65.0018 35.0934 65.0717 35.2449 65.1485C35.5331 65.2956 35.8145 65.4622 36.0987 65.6217Z" fill="url(#paint16_linear_20_583)"/>
<path d="M8.05072 28.2782C8.77821 26.9149 10.4532 26.5076 11.5443 27.4288C11.3539 26.0576 12.2898 24.6695 13.4045 24.4797C14.5192 24.2894 15.6523 25.169 16.1461 26.4188C16.4039 27.071 16.4988 27.7985 16.4644 28.5235C17.1734 26.79 18.717 25.5442 20.3018 25.6834C20.5704 24.8018 21.4133 24.2562 22.152 24.4857C22.8908 24.7151 23.4251 25.6889 23.3244 26.6225C24.0956 25.2107 25.6071 24.4862 26.9467 24.8871C28.2862 25.288 29.3624 26.787 29.5256 28.4784C29.6891 30.1702 28.9283 31.9404 27.7026 32.7199C28.4261 33.3825 28.3195 34.8409 27.7491 35.7022C27.1792 36.5635 26.3054 37.0021 25.4997 37.4976C24.8187 37.9164 24.1666 38.404 23.5429 38.9427C23.4808 38.1349 23.2022 37.3965 22.7753 36.7751C22.5076 36.3856 22.1853 36.0501 21.8542 35.7458C21.5308 35.4485 21.1748 35.1734 20.7933 35.0059C20.3443 34.8092 19.8633 34.7948 19.3996 34.9019C19.4092 34.8875 19.4184 34.8726 19.428 34.8587C19.5291 34.7121 19.6353 34.5718 19.7455 34.4355C19.9547 34.1769 20.1579 33.9157 20.3848 33.6798C20.8566 33.1902 21.3997 32.7937 21.9853 32.5554C22.033 32.5361 22.0021 32.4503 21.9552 32.4672C21.34 32.6897 20.7496 32.9761 20.1948 33.3765C19.9651 33.542 19.7383 33.7234 19.5335 33.9345C19.5864 33.8562 19.6373 33.7749 19.6918 33.6986C19.9808 33.2952 20.2842 32.8998 20.6085 32.5395C21.2811 31.7917 22.0586 31.2025 22.8916 30.7704C22.9236 30.7535 22.9032 30.6955 22.8707 30.7094C21.9993 31.0737 21.1805 31.6004 20.4241 32.2457C20.0401 32.5732 19.6846 32.9315 19.3583 33.3443C19.1992 33.5455 19.0445 33.7527 18.9022 33.9717C18.8088 34.1149 18.6805 34.2834 18.5911 34.4598C18.537 34.379 18.4793 34.3042 18.42 34.2309C18.4212 34.2299 18.422 34.2294 18.4228 34.2284C18.4236 34.2299 18.4248 34.2314 18.4256 34.2328C18.5518 34.1332 18.6232 33.9553 18.7086 33.8077C18.7887 33.6684 18.8717 33.5306 18.9571 33.3958C19.121 33.1367 19.295 32.8864 19.4754 32.6441C20.8017 30.8591 22.5529 29.582 24.488 29.1558C24.5369 29.1449 24.5265 29.0542 24.4772 29.0612C23.9104 29.1405 23.3505 29.2792 22.8042 29.4834C21.8326 29.8471 20.8782 30.3754 20.067 31.1386C19.6637 31.5177 19.2962 31.9533 18.9571 32.4181C18.7847 32.6545 18.6252 32.9053 18.4741 33.1624C18.3474 33.378 18.1695 33.6372 18.1113 33.9063C17.9342 33.7531 17.7342 33.6302 17.5245 33.5495C17.5354 33.5287 17.5474 33.5098 17.5542 33.4821C17.749 32.7219 17.9759 31.9424 18.2833 31.2392C18.6064 30.5003 19.0344 29.8288 19.5407 29.2688C19.5683 29.2381 19.5343 29.1831 19.505 29.2118C18.4521 30.2599 17.5045 31.645 17.1586 33.2898C17.1454 33.3522 17.153 33.4077 17.1682 33.4578C16.872 33.4181 16.5722 33.4682 16.302 33.653C16.1429 33.7621 15.989 33.9226 15.8038 33.9548C15.6311 33.9846 15.4659 33.8904 15.3108 33.8097C15.2262 33.7655 15.1421 33.7294 15.0575 33.6981C15.0851 33.6045 15.0819 33.488 15.0803 33.3736C15.0779 33.1619 15.0687 32.9503 15.0603 32.7392C15.0443 32.3195 15.0062 31.8948 14.9537 31.4795C14.8495 30.6499 14.6759 29.8407 14.4302 29.0582C14.421 29.029 14.3869 29.0478 14.3945 29.077C14.599 29.8377 14.6623 30.643 14.6835 31.4409C14.6939 31.8378 14.6903 32.2338 14.6959 32.6302C14.6987 32.8319 14.7024 33.0341 14.704 33.2358C14.7052 33.3631 14.7096 33.4895 14.724 33.6144C14.6543 33.605 14.5829 33.6015 14.5108 33.603C14.5252 33.3864 14.5124 33.1595 14.5076 32.9444C14.5023 32.712 14.4715 32.4786 14.4386 32.2501C14.3733 31.7947 14.2723 31.3398 14.1176 30.9175C14.1019 30.8749 14.0518 30.9022 14.0643 30.9453C14.1889 31.3779 14.2318 31.8289 14.2302 32.2863C14.2294 32.5133 14.2142 32.7392 14.2126 32.9657C14.211 33.1823 14.217 33.4072 14.1997 33.6228C14.1993 33.6293 14.2013 33.6342 14.2013 33.6407C13.9773 33.6977 13.7628 33.8101 13.5741 33.9697C13.2959 34.2046 13.1139 34.6823 12.7632 34.7517C12.5848 34.7869 12.4008 34.7522 12.2213 34.7497C12.063 34.7472 11.9042 34.7527 11.7463 34.771C11.7383 34.772 11.7303 34.774 11.7226 34.775C11.6922 34.6303 11.6481 34.4871 11.612 34.3463C11.5727 34.1927 11.5278 34.0401 11.4946 33.884C11.4236 33.551 11.3868 33.2189 11.3819 32.8745C11.3811 32.8081 11.2906 32.8106 11.2882 32.876C11.2761 33.2224 11.2705 33.5713 11.2745 33.9177C11.2765 34.0931 11.2757 34.268 11.2922 34.4425C11.3046 34.5763 11.317 34.7205 11.3447 34.8558C11.1459 34.9147 10.9527 34.9995 10.7759 35.1254C10.7098 35.1724 10.6496 35.2255 10.5927 35.282C10.5631 35.1026 10.4821 34.9256 10.4164 34.7676C10.335 34.5718 10.2476 34.3776 10.153 34.1912C9.97106 33.8329 9.74499 33.5049 9.51332 33.1946C9.03874 32.5593 8.51206 32.0048 7.92325 31.537C7.90121 31.5196 7.87756 31.5578 7.8988 31.5776C8.44231 32.0811 8.93052 32.6912 9.31891 33.381C9.51371 33.7264 9.67525 34.0931 9.84159 34.4598C9.92576 34.6452 10.0039 34.8335 10.0785 35.0248C10.1402 35.1824 10.1907 35.3672 10.2809 35.505C10.2809 35.5074 10.2809 35.5104 10.2805 35.5129C10.2793 35.5466 10.2781 35.5808 10.2769 35.6145C10.2757 35.6452 10.2797 35.6754 10.2833 35.7057C10.2596 35.7508 10.2388 35.7993 10.2176 35.8469C10.1582 35.6749 10.0789 35.5079 10.0015 35.3627C9.88127 35.1372 9.753 34.9252 9.6059 34.7254C9.3125 34.327 8.99746 33.9593 8.64754 33.6367C8.61748 33.6089 8.58381 33.6649 8.61267 33.6942C8.93974 34.0232 9.22632 34.4236 9.43155 34.8815C9.52534 35.0912 9.61152 35.3107 9.68487 35.5327C9.72495 35.6531 9.76303 35.775 9.80191 35.896C9.83999 36.0159 9.86484 36.1487 9.91454 36.2617C9.92857 36.2934 9.94741 36.3182 9.96825 36.339C9.91254 36.397 9.84559 36.4411 9.74739 36.4664C9.60109 36.504 9.4552 36.5313 9.31491 36.5992C9.02191 36.7404 8.76137 36.9981 8.583 37.3177C8.48881 37.4862 8.41266 37.674 8.36657 37.8713C8.32208 38.0616 8.31807 38.2633 8.27157 38.4521C8.16776 38.8723 7.74168 39.015 7.55009 39.3664C7.5084 39.4432 7.47835 39.5245 7.4543 39.6077C7.38896 39.571 7.31601 39.5547 7.24547 39.5354C7.15448 39.5101 7.06229 39.4908 6.9705 39.4704C6.79454 39.4308 6.61618 39.408 6.43821 39.3842C6.07948 39.3361 5.71352 39.3094 5.35278 39.3133C5.31791 39.3138 5.3095 39.3778 5.34637 39.3817C5.71593 39.4253 6.06104 39.5502 6.41216 39.6939C6.58812 39.7658 6.76207 39.8431 6.94044 39.9055C7.08433 39.9561 7.23985 40.0275 7.39136 40.0225C7.38936 40.0721 7.38936 40.1221 7.38976 40.1722C7.26711 40.1172 7.12883 40.0944 7.00337 40.0631C6.85266 40.0255 6.69674 39.9883 6.54322 39.971C6.25183 39.9383 5.95201 39.9383 5.65981 39.9358C5.06659 39.9303 4.47177 39.9804 3.88377 40.076C3.85611 40.0805 3.86253 40.1305 3.88978 40.1285C4.4822 40.0844 5.07221 40.1137 5.66021 40.2113C5.95441 40.2599 6.2378 40.3456 6.52799 40.4175C6.66347 40.4507 6.80015 40.4809 6.93563 40.5136C7.07592 40.5473 7.22462 40.6107 7.36731 40.6152C7.38375 40.6157 7.39778 40.6112 7.41221 40.6078C7.43185 40.8387 7.44949 41.0721 7.4058 41.2956C7.32884 41.6886 7.01138 41.9165 6.95567 42.3313C6.9216 42.5831 6.96369 42.8224 7.04826 43.0459C6.98413 43.0539 6.9212 43.0662 6.86348 43.0737C6.66468 43.0999 6.46226 43.0568 6.26225 43.0652C5.86544 43.0821 5.47743 43.2218 5.09826 43.3571C5.0734 43.3661 5.08583 43.4156 5.11028 43.4102C5.48184 43.3294 5.85741 43.258 6.23539 43.3021C6.42899 43.3249 6.61537 43.3978 6.80856 43.4211C6.88953 43.431 6.9713 43.432 7.05267 43.4414C7.08433 43.4448 7.12001 43.4448 7.15127 43.4538C7.18494 43.4637 7.21541 43.4795 7.24707 43.4924C7.2595 43.4989 7.27152 43.5038 7.28434 43.5058C7.28595 43.5063 7.28716 43.5073 7.28876 43.5073L7.28836 43.5058H7.28955C7.32883 43.5648 7.36932 43.6223 7.41141 43.6778C7.36612 43.6753 7.32122 43.6768 7.27994 43.6763C7.14647 43.6758 7.01178 43.6743 6.87831 43.6827C6.32397 43.7169 5.76363 43.8279 5.21731 43.9478C4.6778 44.0663 4.14511 44.2303 3.61843 44.4181C3.57393 44.434 3.59557 44.5276 3.64006 44.5148C4.25773 44.3304 4.88743 44.2189 5.52073 44.1604C6.07507 44.1094 6.6294 44.1456 7.18414 44.1679C7.24386 44.1703 7.31481 44.1803 7.38455 44.1822C7.28114 44.5108 7.30398 44.9063 7.43305 45.2368C7.6539 45.8037 8.06395 46.2274 8.32528 46.7671C8.4279 46.9782 8.5313 47.1873 8.64874 47.3786C8.41426 47.9995 8.20704 48.6438 8.05233 49.2979C7.94691 49.7439 7.83067 50.1775 7.69118 50.5993C7.32964 50.8064 6.94966 50.9561 6.54483 51.023C5.51632 51.1925 4.4333 50.7524 3.68737 49.8614C2.94104 48.9704 2.54743 47.6477 2.64883 46.3711C1.91613 46.1352 1.34497 45.2764 1.29847 44.3423C1.25197 43.4082 1.73456 42.4696 2.438 42.1247C1.30448 41.8704 0.677994 40.1013 1.09244 38.7722C1.50689 37.4431 2.69493 36.6527 3.84649 36.618C4.20964 36.6071 4.56798 36.6646 4.9199 36.7657C3.9471 35.7072 3.35188 34.0921 3.51301 32.4934C3.77555 29.9036 5.96605 27.8679 8.05072 28.2782Z" fill="url(#paint17_linear_20_583)"/>
<path d="M18.1343 51.8114C18.0137 51.2846 17.8257 50.7791 17.7399 50.2405C17.7027 50.0071 17.6886 49.7727 17.7147 49.5363C17.7283 49.4144 17.7624 49.2934 17.7808 49.1725C17.897 49.1785 18.0121 49.181 18.1223 49.18C18.1335 49.18 18.1448 49.1785 18.156 49.1785C18.3243 50.4788 18.8791 51.7544 19.2053 53.0265C19.4418 53.9493 19.5881 54.9562 19.3917 55.9112C19.1548 57.0624 18.4823 57.9385 17.8333 58.7686C17.6738 58.9728 17.3796 58.8137 17.465 58.5149C18.1051 56.269 17.0842 54.0375 16.8092 51.8367C16.6914 50.8916 16.701 49.9293 16.9154 49.0174C17.0906 49.0799 17.2742 49.12 17.4586 49.1438C17.3804 49.4486 17.4301 49.8797 17.463 50.1161C17.5363 50.6419 17.7211 51.126 17.8742 51.6206C18.2001 52.6742 18.3351 53.8169 18.4374 54.9329C18.4398 54.9602 18.473 54.9537 18.4714 54.927C18.4069 53.8784 18.3676 52.8308 18.1343 51.8114Z" fill="url(#paint18_linear_20_583)"/>
<path d="M25.2217 46.7636C25.0017 46.8067 24.7816 46.8439 24.5628 46.8954C24.4373 46.8979 24.3115 46.8954 24.184 46.8821C23.5014 46.8107 22.8781 46.4901 22.309 46.0337C22.4032 45.7135 22.4681 45.379 22.5034 45.0425C22.507 45.0098 22.5082 44.9766 22.511 44.9434C22.6084 44.9335 22.6889 44.882 22.7932 44.8186C22.9254 44.7378 23.0601 44.6664 23.2 44.6094C23.212 44.6045 23.2248 44.602 23.2373 44.597C23.3663 44.6015 23.489 44.6248 23.6148 44.6624C23.9311 44.7581 24.2077 44.9746 24.455 45.2304C24.4762 45.2522 24.5083 45.212 24.4894 45.1872C24.2638 44.8944 24.0024 44.6104 23.6954 44.4558C23.812 44.4285 23.9287 44.4033 24.0453 44.3904C24.5752 44.3324 25.1115 44.4048 25.637 44.5197C25.6414 44.4672 25.6474 44.4152 25.653 44.3631C25.1023 44.1897 24.5468 44.037 23.9748 44.0395C23.6513 44.041 23.3443 44.0757 23.0332 44.1902C22.8785 44.2472 22.725 44.317 22.5827 44.4117C22.5643 44.4241 22.5495 44.4365 22.533 44.4489C22.5326 44.1971 22.5154 43.9449 22.4721 43.703C22.4448 43.5514 22.4048 43.4047 22.3595 43.2605C23.2293 42.7962 24.1419 42.4998 25.1287 42.5895C25.1905 42.595 25.251 42.6074 25.3119 42.6163C25.374 42.6455 25.4358 42.6728 25.4955 42.699C25.7308 42.8016 25.9713 42.8809 26.2118 42.9622C26.338 43.0048 26.4651 43.0425 26.5925 43.0801C26.9449 43.2818 27.282 43.5311 27.6026 43.8135C28.2696 44.4008 28.8977 45.1099 29.2199 46.0609C29.3065 46.3166 29.052 46.5743 28.8704 46.3984C28.163 45.7135 27.1778 46.1283 26.4234 46.439C26.2523 46.5099 26.0799 46.5758 25.9067 46.6348C25.6779 46.6695 25.4506 46.7185 25.2217 46.7636Z" fill="url(#paint19_linear_20_583)"/>
<path d="M17.4139 46.7988C17.5538 46.4905 17.6664 46.1991 17.9165 46.0059C17.9498 45.9801 17.9859 45.9613 18.0204 45.938C18.0781 45.9083 18.1326 45.8731 18.1839 45.8309C18.2885 45.7695 18.3935 45.71 18.4953 45.6421C18.8933 45.3765 19.2216 45.0029 19.5587 44.6366C19.9134 44.2516 20.2942 43.9062 20.7387 43.699C21.1664 43.5003 21.5973 43.3739 21.9905 43.0746C22.0186 43.0533 22.0442 43.0276 22.0715 43.0048C22.2013 43.6569 22.223 44.3745 22.1488 45.0222C22.1196 45.2799 22.0687 45.5321 22.0025 45.7779C21.9977 45.7739 21.9933 45.77 21.9885 45.766C21.9833 45.7809 21.9801 45.7963 21.9749 45.8111C21.8009 46.2983 21.554 46.7002 21.2498 47.0238C21.0794 47.332 20.8786 47.612 20.6554 47.8618C20.303 48.0778 19.9451 48.2736 19.5667 48.4143C19.115 48.5823 18.6404 48.67 18.1687 48.672C17.945 48.673 17.7209 48.6546 17.4989 48.619C17.2391 48.5773 17.0015 48.4881 16.7542 48.3965C16.951 47.8459 17.1746 47.3261 17.4139 46.7988Z" fill="url(#paint20_linear_20_583)"/>
<path d="M9.17428 47.2597C8.8961 48.0099 8.70051 48.8147 8.39187 49.5467C8.18104 50.0467 7.98423 50.5571 7.7746 51.0586C7.76017 51.1255 7.74574 51.1929 7.73091 51.2598C7.45795 52.5047 7.19582 53.754 6.89761 54.9899C6.83388 55.2546 7.07237 55.5336 7.26917 55.3338C8.73257 53.8501 10.4056 52.8129 12.1852 52.0418C12.9035 51.7306 13.6098 51.3817 14.2639 50.8971C14.8263 50.4803 15.288 49.9471 15.7405 49.3846C15.9029 49.1051 16.048 48.8098 16.1634 48.4872C16.2039 48.3742 16.244 48.2622 16.2841 48.1502C15.9871 48.3469 15.6616 48.4926 15.3297 48.5635C14.5597 48.728 13.7757 48.7498 12.9965 48.7766C12.9368 48.7786 12.9216 48.6661 12.9829 48.6611C13.7096 48.6046 14.4828 48.559 15.1638 48.2111C15.4684 48.0555 15.7706 47.891 16.054 47.6814C16.1983 47.5748 16.3338 47.4504 16.474 47.336C16.5266 47.2934 16.5819 47.2601 16.6368 47.2265C16.6961 47.0867 16.7582 46.948 16.8252 46.8107C16.945 46.5659 17.0645 46.3186 17.2212 46.107C17.0801 46.1055 16.9394 46.0911 16.7999 46.0703C16.1706 45.9752 15.561 45.7541 14.9513 45.5475C14.9293 45.5401 14.9385 45.4925 14.9609 45.4989C15.553 45.66 16.1654 45.8176 16.7751 45.7606C17.0384 45.7358 17.2993 45.6734 17.5563 45.5975C17.7374 45.5445 17.9146 45.4687 18.097 45.4325C18.2108 45.3721 18.3238 45.3091 18.4309 45.2298C18.6241 45.0871 18.7964 44.9003 18.9603 44.7105C19.2838 44.3363 19.5564 43.875 19.9051 43.5375C19.9247 43.5187 19.9468 43.5023 19.9668 43.4835C20.0482 43.315 20.1364 43.15 20.2037 42.9805C20.35 42.6123 20.4759 42.2084 20.548 41.807C20.6895 41.021 20.6137 40.2093 20.4626 39.4352C20.4534 39.3877 20.5187 39.3644 20.5304 39.412C20.73 40.2376 20.8522 41.0904 20.8262 41.9542C20.815 42.3234 20.7552 42.6876 20.6442 43.03C20.7632 42.9785 20.8823 42.9275 21.0029 42.8814C21.0679 42.7857 21.1352 42.6926 21.1997 42.5964C21.3545 42.367 21.4915 42.1266 21.5913 41.8536C21.7881 41.3159 21.8475 40.7371 21.8158 40.1518C21.8122 40.0844 21.8928 40.0681 21.9008 40.1369C21.9733 40.745 21.9725 41.3788 21.8394 41.974C21.7974 42.1618 21.7388 42.3491 21.6659 42.5261C21.8286 42.4056 21.9817 42.2654 22.126 42.1058C22.3116 41.9012 22.4812 41.6588 22.6311 41.3952C22.8094 40.8907 22.9553 40.3614 23.0728 39.8208C23.0748 39.7385 23.078 39.6563 23.0796 39.574C23.092 38.85 23.0351 38.0244 22.7385 37.3846C22.5461 36.9698 22.2679 36.6274 21.9709 36.3256C21.6527 36.0025 21.31 35.6734 20.9184 35.5005C20.3704 35.2587 19.7427 35.2834 19.1908 35.4906C18.7952 35.6392 18.4028 35.8459 18.0461 36.1185C17.9743 36.1863 17.9022 36.2537 17.832 36.3241C17.4436 36.7131 17.129 37.1393 16.8596 37.6616C16.7194 37.9342 16.565 38.1993 16.4456 38.4872C16.3265 38.7747 16.2404 39.0725 16.1606 39.3802C16.1281 39.5046 16.1225 39.6518 16.0836 39.7697C16.0432 39.8931 15.9133 39.9402 15.8235 39.9893C15.5954 40.1142 15.3602 40.2172 15.1293 40.3332C14.6691 40.5641 14.2002 40.7718 13.7633 41.0671C13.3488 41.3471 12.9536 41.746 12.6566 42.2005C12.5131 42.4195 12.3857 42.6549 12.2999 42.9166C12.2049 43.207 12.1832 43.5613 11.9492 43.7377C11.8778 43.7912 11.7973 43.8289 11.7151 43.8626C11.1611 44.1381 10.6457 44.658 10.2417 45.1932C9.78994 45.7963 9.44964 46.5168 9.17428 47.2597ZM7.61187 54.0855C7.61107 54.1376 7.60626 54.1891 7.60626 54.2406C7.59304 54.253 7.57941 54.2649 7.56618 54.2773C7.58181 54.2134 7.59664 54.1494 7.61187 54.0855Z" fill="url(#paint21_linear_20_583)"/>
<path d="M10.6694 35.7547C10.8762 35.4742 11.1788 35.3216 11.473 35.2418C11.7873 35.1571 12.1039 35.1353 12.4246 35.1432C12.7497 35.1511 13.0282 35.1045 13.2679 34.8092C13.4936 34.5312 13.6571 34.2314 13.9549 34.0584C14.2331 33.8969 14.5458 33.8409 14.8484 33.9122C15.143 33.9816 15.4011 34.22 15.7045 34.2408C16.0236 34.2626 16.2484 33.987 16.5266 33.8483C17.0589 33.5822 17.6698 33.8686 18.0786 34.3146C18.3115 34.5688 18.481 34.8721 18.6297 35.1923C18.5231 35.2433 18.4233 35.3097 18.3163 35.382C18.1379 35.5025 17.9612 35.6209 17.7888 35.7537C17.4393 36.0238 17.1327 36.3464 16.8673 36.7379C16.5996 37.1334 16.3895 37.566 16.2484 38.0521C16.1759 38.3024 16.1053 38.5551 16.0256 38.8019C15.9518 39.0304 15.9025 39.293 15.8111 39.5135C15.6232 39.5601 15.4364 39.6394 15.2576 39.7172C15.0512 39.8064 14.8464 39.8976 14.6468 40.0091C14.2632 40.2227 13.8976 40.4749 13.5501 40.7688C12.9096 41.311 12.3785 41.9537 11.9813 42.7843C11.8931 42.9681 11.8366 43.2526 11.6662 43.3343C11.5207 43.4042 11.37 43.4439 11.2306 43.5345C10.9263 43.7323 10.6754 44.0103 10.4353 44.3101C10.3576 44.4072 10.2834 44.5068 10.208 44.6059C10.1155 44.7016 10.0245 44.8022 9.93669 44.9132C9.74269 45.1585 9.57275 45.4261 9.41403 45.7041C9.26773 45.9028 9.12343 46.1035 9.00238 46.326C8.91059 46.4945 8.81921 46.6774 8.75067 46.8657C8.68293 46.7314 8.61839 46.5941 8.55186 46.4598C8.40676 46.1689 8.2328 45.9147 8.05564 45.654C7.88729 45.4068 7.70612 45.1357 7.65962 44.8086C7.62114 44.54 7.65642 44.1966 7.86926 44.0519C7.98349 43.9741 8.00313 43.8091 7.90413 43.7C7.68568 43.4597 7.46322 43.1817 7.34538 42.8447C7.29648 42.7055 7.26562 42.5543 7.28607 42.4022C7.31733 42.1708 7.46243 42.0156 7.56744 41.8328C7.7446 41.5235 7.77867 41.1791 7.76344 40.8095C7.74941 40.4789 7.67926 40.1172 7.75983 39.7926C7.85402 39.4139 8.19672 39.2633 8.40275 38.9937C8.63763 38.686 8.60596 38.3123 8.71178 37.9387C8.80998 37.5923 9.0092 37.2919 9.26452 37.1036C9.53067 36.9069 9.85413 36.9421 10.1171 36.7518C10.4193 36.5313 10.4445 36.059 10.6694 35.7547Z" fill="url(#paint22_linear_20_583)"/>
<path d="M32.6035 40.3862C32.5891 40.3684 32.6131 40.3382 32.6288 40.3545C33.0573 40.807 33.6168 40.9244 34.1591 41.0126C34.705 41.1013 35.2522 41.1578 35.8021 41.186C36.3151 41.2123 36.857 41.1529 37.3609 41.2896C37.5906 41.3521 37.8194 41.4576 37.993 41.6608C38.0106 41.6816 38.0278 41.7039 38.0443 41.7267C38.1958 41.5067 38.3742 41.2946 38.571 41.139C38.0379 40.2846 37.2907 39.6156 36.5224 39.3222C35.5055 38.9342 34.5239 39.1865 33.4885 39.2311C32.3759 39.2791 31.3694 38.7756 30.4611 38.0194C30.2214 37.8202 29.9657 38.1656 30.1168 38.452C30.3826 38.9565 30.5413 39.5532 30.787 40.077C31.0207 40.5745 31.2796 41.0517 31.6139 41.4551C32.2011 42.1643 32.917 42.4537 33.6785 42.6782C34.5575 43.0618 35.4931 43.2139 36.4234 43.2704C36.5865 43.3061 36.7496 43.3403 36.9112 43.3854C37.037 43.4205 37.1545 43.4656 37.2647 43.5192C37.3617 43.0211 37.5685 42.5374 37.7842 42.1489C37.7637 42.1127 37.7393 42.085 37.694 42.0409C37.605 41.9532 37.5056 41.8957 37.3986 41.8496C37.1809 41.7564 36.9472 41.7386 36.72 41.7118C36.2181 41.6534 35.7195 41.5855 35.2221 41.4819C34.7503 41.3843 34.2778 41.2807 33.8136 41.137C33.3679 40.9992 32.9338 40.7936 32.6035 40.3862ZM30.9754 39.4179C30.9674 39.4159 30.9606 39.4119 30.9525 39.41C30.9517 39.41 30.9505 39.4104 30.9505 39.4104C30.9036 39.3034 30.8596 39.1964 30.8171 39.0859C30.8491 39.1091 30.882 39.1314 30.9145 39.1542C30.9333 39.2434 30.9537 39.3312 30.9754 39.4179Z" fill="url(#paint23_linear_20_583)"/>
<path d="M41.9897 45.1476C41.993 45.1465 41.9963 45.1448 41.9992 45.1436C41.9971 45.147 41.9951 45.1504 41.9934 45.1537C41.9926 45.1515 41.9914 45.1492 41.9897 45.1476Z" fill="url(#paint24_linear_20_583)"/>
<path d="M40.3446 49.3955C40.1903 49.9843 39.9414 50.5373 39.6099 51.0021C38.9093 51.9853 38.0443 52.7168 37.1933 53.4819C37.1665 53.5057 37.1356 53.4567 37.1617 53.4314C37.9765 52.6499 38.7938 51.801 39.3373 50.7023C39.5943 50.183 39.8259 49.6339 39.9546 49.0437C40.0127 48.7771 40.0488 48.4986 40.1322 48.2419C40.1566 48.1675 40.1867 48.0868 40.2231 48.0085C40.1747 48.0089 40.1265 48.0095 40.0788 48.0119C39.8628 48.0238 39.6468 48.054 39.4315 48.0917C39.3417 48.4222 39.2159 48.7409 39.0339 49.0576C38.5557 49.8901 37.9521 50.5765 37.3729 51.2965C36.2606 52.6796 35.3371 54.2421 34.6605 56.0078C34.5483 56.3007 34.8806 56.4642 35.0317 56.2635C35.776 55.2734 36.7196 54.9359 37.7 54.4508C38.5609 54.0251 39.3061 53.3357 39.9133 52.472C40.4977 51.6404 40.9663 50.5987 41.1278 49.5075C41.1867 49.1091 41.2116 48.6616 41.1851 48.2196C41.0897 48.1755 40.9939 48.1309 40.8965 48.0986C40.8063 48.0689 40.7126 48.0501 40.6184 48.0352C40.5923 48.1963 40.5534 48.3578 40.5258 48.51C40.4716 48.8063 40.4203 49.1061 40.3446 49.3955ZM38.5289 50.7712C38.3846 50.9432 38.2331 51.1082 38.0735 51.2663C38.0647 51.2752 38.0547 51.2836 38.0459 51.292C38.1112 51.2207 38.1741 51.1473 38.2411 51.0775C38.3385 50.9759 38.4343 50.8738 38.5289 50.7712Z" fill="url(#paint25_linear_20_583)"/>
<path d="M42.7797 36.6631C42.6254 37.6071 42.4591 38.5417 42.1476 39.4293C42.0655 39.6632 41.9729 39.8926 41.8691 40.1136C41.8771 40.0819 41.8859 40.0502 41.8935 40.018C42.1853 38.8004 42.2487 37.5328 42.0398 36.2869C41.8378 35.0822 41.4731 33.93 40.9299 32.8973C40.9139 32.8666 40.8798 32.9013 40.8943 32.9315C41.1752 33.5098 41.3885 34.1288 41.5404 34.776C41.8013 35.89 41.8226 37.0917 41.7111 38.2379C41.6566 38.7994 41.5725 39.3569 41.4338 39.8966C41.3532 40.2098 41.2626 40.522 41.1464 40.8179C41.1247 40.8729 41.1011 40.9328 41.0774 40.9923C41.1488 40.7257 41.1773 40.4283 41.1937 40.1895C41.2306 39.6558 41.1801 39.129 41.071 38.6116C40.8554 37.5893 40.4225 36.6427 39.9391 35.779C39.9199 35.7448 39.8814 35.7839 39.8982 35.8181C40.3207 36.6621 40.6293 37.5908 40.7436 38.5769C40.7985 39.0512 40.8085 39.5294 40.7712 40.0071C40.7536 40.2351 40.7235 40.4645 40.6782 40.6865C40.6438 40.855 40.5876 41.0126 40.5371 41.1732C40.2975 40.9536 40.0205 40.7936 39.7311 40.693C39.5054 40.3718 39.2453 40.0849 38.9727 39.8495C37.9354 38.955 36.6696 38.5378 35.6748 37.5635C34.9276 36.832 34.2967 35.776 34.2883 34.5544C34.2839 33.9177 34.4679 33.3259 34.6182 32.7268C34.803 31.9894 34.7749 31.3779 34.5793 30.6504C34.4238 30.0711 34.2522 29.4898 34.2807 28.8694C34.3068 28.3054 34.5148 27.7687 34.8214 27.3559C35.5092 26.4297 36.4892 26.1581 37.4676 26.2786C37.5246 26.2855 37.5807 26.2924 37.6368 26.2994C37.6388 26.2845 37.6412 26.2696 37.6436 26.2548C37.7402 26.3004 37.8376 26.343 37.937 26.3742C38.1406 26.4386 38.319 26.4193 38.4937 26.3485C38.7547 26.3336 39.014 26.2806 39.2782 26.1507C39.7868 25.901 40.259 25.5402 40.8065 25.4272C41.7613 25.2305 42.7593 25.7116 43.4395 26.5373C44.2908 27.5705 44.6203 29.0725 44.5947 30.5141C44.5898 30.7793 44.5682 31.0394 44.5369 31.2971C44.5181 31.3264 44.4969 31.3526 44.478 31.3824C43.5028 32.9245 43.0884 34.7779 42.7797 36.6631Z" fill="url(#paint26_linear_20_583)"/>
<path d="M40.8269 41.4934C40.8427 41.4769 40.8597 41.4628 40.8742 41.4442C40.8622 41.4663 40.8518 41.4899 40.8394 41.5109C40.8348 41.5054 40.8315 41.4989 40.8269 41.4934Z" fill="url(#paint27_linear_20_583)"/>
<path d="M52.4063 46.4891C50.5705 46.451 48.875 45.4346 47.1154 44.9152C45.5807 44.4623 43.8223 44.4509 42.4907 45.6363C42.4671 45.6571 42.4503 45.6814 42.4382 45.7066C42.3997 45.6536 42.3601 45.6026 42.3196 45.5525L42.3208 45.552C42.625 45.2641 42.9108 44.9653 43.2311 44.7016C43.5437 44.4444 43.8704 44.2165 44.2115 44.0222C44.9061 43.6267 45.64 43.3552 46.3743 43.097C46.4003 43.0881 46.3875 43.0351 46.3619 43.0415C45.5847 43.2353 44.8039 43.427 44.0467 43.7224C43.3265 44.0034 42.5613 44.3924 42.0342 45.0906C42.0342 45.0906 42.033 45.0911 42.0326 45.0921C42.0318 45.0931 42.0314 45.0941 42.0306 45.0951C42.0174 45.1124 42.0025 45.1278 41.9897 45.1461C41.9528 45.0961 41.916 45.046 41.8819 44.9915C41.7737 44.8161 41.6859 44.6347 41.6121 44.4474C42.3336 44.4528 42.9922 44.042 43.5685 43.5257C44.1766 42.981 44.6884 42.2952 45.2476 41.6807C45.7771 41.0989 46.3306 40.5503 46.9154 40.0557C48.0846 39.0671 49.3881 38.3104 50.7328 37.7677C50.7569 37.7578 50.7412 37.7157 50.718 37.7236C49.9677 37.9843 49.2334 38.3114 48.5219 38.7053C47.2721 39.3981 46.0621 40.2743 44.9939 41.3363C44.4191 41.9072 43.8904 42.5504 43.292 43.0846C42.7945 43.5286 42.2302 43.8433 41.629 43.994C41.6069 43.986 41.5833 43.9836 41.5576 43.995C41.5292 44.0054 41.5023 44.0207 41.4759 44.0371C41.4538 43.9548 41.4346 43.8711 41.4177 43.7863C41.7993 43.7031 42.1973 43.4657 42.5328 43.2343C42.8675 43.0033 43.1777 42.7248 43.4732 42.423C44.0744 41.809 44.6047 41.0781 45.0243 40.2654C45.034 40.247 45.0127 40.2267 45.0019 40.2445C44.5522 41.0122 44.0018 41.6663 43.3569 42.1792C43.0326 42.4369 42.6859 42.6436 42.334 42.8368C42.1653 42.929 41.9969 43.0197 41.8242 43.0995C41.667 43.1723 41.5019 43.2288 41.3464 43.3081C41.3368 43.212 41.3287 43.1143 41.3239 43.0157C41.3027 42.6054 41.2245 42.2427 41.077 41.9181C41.2145 41.8115 41.3424 41.6257 41.4402 41.5003C41.7448 41.1093 41.9889 40.6321 42.1965 40.1563C42.9813 38.3574 43.1505 36.3182 43.6435 34.3964C43.8507 33.5882 44.1481 32.8369 44.5025 32.1193C44.5141 32.1054 44.5253 32.0906 44.5373 32.0772C45.6989 30.7184 47.0429 29.5969 48.5343 28.8719C49.8931 28.2113 51.4804 27.9422 52.6672 29.2223C53.1859 29.7818 53.5586 30.5286 53.7005 31.3641C53.8681 32.3522 53.6837 33.3374 54.2288 34.1853C54.4637 34.5501 54.7459 34.8677 54.9563 35.2567C55.1615 35.6363 55.2509 36.0372 55.3479 36.4718C55.4818 37.069 55.6621 37.342 56.1046 37.627C56.4237 37.8321 56.7399 38.0586 56.8907 38.4843C57.2249 39.4288 56.7231 40.3209 56.3179 41.0796C55.8229 42.0068 55.5275 43.0683 55.0417 44.0019C54.4469 45.1456 53.5534 45.9812 52.5474 46.4886C52.5005 46.4881 52.4532 46.4901 52.4063 46.4891Z" fill="url(#paint28_linear_20_583)"/>
<path d="M47.7926 58.8077C47.2531 58.9247 46.7357 59.0907 46.1869 58.9539C45.7072 58.8345 45.2591 58.5495 44.8867 58.1595C44.5023 57.7561 44.1921 57.2556 43.9668 56.6991C43.7175 56.0816 43.677 55.4305 43.5235 54.7788C43.3419 54.0077 42.818 53.589 42.3791 53.0518C42.0128 52.6028 41.7687 52.0651 41.7014 51.4273C41.5671 50.1567 42.0433 49.0273 42.3852 47.8692C42.5836 47.5391 42.7014 47.1447 42.7058 46.721C42.7443 46.7948 42.7719 46.8751 42.8265 46.9341C42.877 46.9881 42.9407 47.0257 42.9972 47.0703C43.1119 47.16 43.2257 47.2522 43.3351 47.3513C43.5564 47.552 43.764 47.783 43.9508 48.0313C44.3412 48.5501 44.6209 49.2092 44.764 49.8936C44.7708 49.9258 44.8113 49.9203 44.8065 49.8861C44.7019 49.1482 44.4694 48.4768 44.1376 47.8528C43.9652 47.5292 43.7584 47.2443 43.5247 46.9866C43.4806 46.938 43.4353 46.8934 43.3896 46.8483C43.4598 46.8607 43.5303 46.8691 43.6001 46.8845C43.8786 46.946 44.154 47.0337 44.4245 47.1368C46.4531 47.9098 48.1265 50.0313 48.6917 52.5637C48.7005 52.6023 48.7502 52.5954 48.7426 52.5547C48.6047 51.8139 48.3831 51.0958 48.0836 50.4317C47.551 49.2513 46.7818 48.2557 45.8735 47.5069C45.4094 47.1239 44.9071 46.8037 44.3821 46.5708C44.1211 46.4549 43.8474 46.3741 43.5752 46.3092C43.4586 46.2814 43.3183 46.2383 43.1776 46.2145C43.5111 46.0084 43.8915 45.9633 44.2722 45.9856C45.2887 46.0445 46.3445 46.2968 47.2596 46.8617C48.2203 47.4549 49.0456 48.3796 49.539 49.5665C49.5523 49.5982 49.5927 49.5774 49.5807 49.5447C49.3182 48.8395 48.9478 48.2037 48.5013 47.6586C47.7049 46.6853 46.6479 45.9905 45.5709 45.6268C45.0911 45.4647 44.5268 45.3106 43.982 45.3161C44.3917 45.1971 44.8169 45.152 45.2394 45.1674C47.082 45.2353 48.7514 46.2809 50.5291 46.7507C51.2505 46.9415 52.0077 47.0153 52.7376 46.9083C54.1721 48.0724 54.7032 50.681 53.9597 52.6157C53.6976 53.2976 53.2895 53.8055 52.8871 54.3615C52.441 54.9775 52.2574 55.5995 52.146 56.4033C51.9848 57.5658 51.6967 58.7636 50.6213 58.9856C49.6737 59.1804 48.747 58.6011 47.7926 58.8077Z" fill="url(#paint29_linear_20_583)"/>
<path d="M24.2572 49.3747C24.4191 48.7241 24.5807 48.0734 24.7542 47.4282C24.9326 47.3984 25.1097 47.3598 25.2865 47.3181C25.3294 47.3077 25.3723 47.2964 25.4152 47.2859C25.2388 48.1933 25.0324 49.0928 24.8179 49.9833C24.8031 50.0452 24.7871 50.1072 24.7719 50.1691C24.7109 50.0769 24.65 49.9843 24.5883 49.8931C24.474 49.7231 24.3658 49.5492 24.2572 49.3747Z" fill="url(#paint30_linear_20_583)"/>
<path d="M23.9517 52.0453C23.8086 52.0364 23.6627 52.0532 23.5196 52.078C23.52 52.0765 23.5208 52.075 23.5212 52.073C23.1661 52.0854 22.8069 52.1459 22.4847 52.1623C21.7652 52.1984 21.0513 52.0478 20.4028 51.6493C19.7503 51.2484 19.1109 50.5819 18.6736 49.8668C18.5434 49.6537 18.4087 49.4183 18.28 49.1735C18.656 49.1587 19.03 49.0992 19.3967 48.9961C19.634 49.1314 19.8841 49.2196 20.1415 49.3148C20.2441 49.3524 20.3475 49.3866 20.4509 49.4218C20.4545 49.45 20.4585 49.4783 20.4677 49.5065C20.4898 49.5759 20.5194 49.6418 20.5515 49.7048C20.612 49.8227 20.6814 49.9332 20.7555 50.0378C20.9078 50.2528 21.087 50.4327 21.2774 50.5943C21.2946 50.6092 21.3122 50.5789 21.2966 50.5626C21.1283 50.3802 20.988 50.1637 20.8637 49.9342C20.8048 49.8252 20.7519 49.7117 20.7026 49.5952C20.6878 49.5605 20.6717 49.5268 20.6557 49.4927C20.8433 49.5551 21.0309 49.617 21.2169 49.6844C21.9672 49.9555 22.6779 50.2657 23.3156 50.8426C23.3468 50.8708 23.3817 50.8128 23.3516 50.7831C22.7556 50.1983 22.0955 49.7142 21.376 49.4C21.0064 49.2389 20.6345 49.0798 20.2605 48.9371C20.1503 48.895 20.0412 48.8534 19.9326 48.8132C20.3158 48.6581 20.6878 48.4544 21.0245 48.1789C21.0481 48.1596 21.069 48.1358 21.0922 48.115C22.1059 48.3375 23.1091 48.7706 23.8887 49.4966C23.9056 49.5283 23.9168 49.562 23.9356 49.5933C24.0575 49.7954 24.1829 49.9957 24.3168 50.1859C24.4511 50.3762 24.5978 50.5541 24.7441 50.7301C24.7898 50.7851 24.8383 50.8341 24.888 50.8812C25.0888 51.3178 25.2351 51.8089 25.3048 52.3684C25.3433 52.6791 25.0447 52.7698 24.8928 52.5845C24.7409 52.3991 24.5669 52.2777 24.3797 52.1984C24.2475 52.1102 24.1048 52.0547 23.9517 52.0453Z" fill="url(#paint31_linear_20_583)"/>
<path d="M2.95659 69.8608C4.05164 68.6194 5.29659 67.6169 6.64616 66.8512C8.93204 65.5543 11.434 64.9215 13.9034 64.363C13.9331 64.2842 13.9904 64.2193 14.0826 64.1871C15.2895 63.7663 16.3925 63.2534 17.405 62.3089C18.4572 61.3282 19.4163 60.1879 20.2721 58.95C21.58 57.0584 22.5876 54.8983 23.3492 52.6058C23.5216 52.5944 23.6971 52.5503 23.8559 52.5493C23.9328 52.5493 24.0134 52.5617 24.0927 52.584C23.8422 53.3576 23.5601 54.1153 23.2314 54.8537C21.9203 57.8018 20.1511 60.4946 18.0159 62.5894C17.6323 62.9655 17.219 63.358 16.7829 63.7153C16.9705 63.6638 17.1565 63.6063 17.3405 63.5424C17.4267 63.4908 17.516 63.4462 17.601 63.3922C18.7097 62.6865 19.7097 61.7881 20.6088 60.7231C21.578 59.5759 22.4927 58.3613 23.433 57.1788C23.7196 56.8186 24.0178 56.4747 24.3212 56.1387C24.4463 55.9707 24.5882 55.82 24.6827 55.7006C25.0996 55.1743 25.5237 54.6569 25.9646 54.1614C26.846 53.1698 27.7663 52.2549 28.7547 51.4308C30.6899 49.8168 32.611 48.169 34.6548 46.7661C35.1759 46.4083 35.6917 46.0604 36.2392 45.7671C36.5948 45.5763 36.9888 45.3944 37.3864 45.3285C37.3535 45.0569 37.3575 44.7799 37.3888 44.5039C37.5087 44.1699 37.5816 43.8066 37.6862 43.4647C37.7916 43.1198 37.9183 42.7902 38.079 42.479C38.2382 42.1708 38.4269 41.8903 38.6306 41.6261C38.6726 41.5716 38.7159 41.5191 38.7596 41.4681C38.7624 41.4735 38.766 41.4785 38.7688 41.4839C38.8722 41.4066 38.9817 41.3412 39.1023 41.2961C39.2855 41.2282 39.4739 41.1995 39.6615 41.201C39.9717 41.3729 40.2695 41.5791 40.5128 41.8705C40.6784 42.0682 40.8014 42.3065 40.8868 42.5697C40.9826 42.8645 41.0022 43.1896 41.0644 43.4969C41.1782 44.0608 41.3774 44.6079 41.6512 45.0817C41.7991 45.3379 41.9762 45.554 42.1534 45.7785C42.3426 46.0178 42.4396 46.2869 42.4548 46.6224C42.4672 46.8959 42.436 47.1754 42.3686 47.4401C42.3249 47.4971 42.2788 47.5516 42.2283 47.5987C42.0143 47.8003 41.7377 47.896 41.4479 47.9346C41.3397 47.8192 41.2131 47.7285 41.0776 47.6735C40.779 47.5536 40.4699 47.5174 40.1573 47.5332C39.9016 47.5466 39.6498 47.5902 39.4049 47.6641C38.8374 47.4619 38.2927 47.1353 37.9023 46.6189C37.4682 46.6293 37.0449 46.6016 36.6124 46.6972C36.1503 46.7993 35.707 47.0312 35.2757 47.2557C34.2696 47.7795 33.2708 48.3935 32.334 49.0853C31.4025 49.7737 30.5079 50.5249 29.6429 51.3352C28.7651 52.1573 27.9691 53.1331 27.151 54.0429C26.7013 54.543 26.2636 55.0583 25.8287 55.5782C25.6247 55.8225 25.4227 56.0693 25.2235 56.3191C25.0058 56.6828 24.785 57.0431 24.5521 57.3919C23.8078 58.5084 22.9833 59.5828 22.1107 60.5482C21.3291 61.4124 20.4577 62.1587 19.5919 62.8872C19.0191 63.3689 18.4183 63.8055 17.7958 64.1851C17.6427 64.2976 17.4856 64.4026 17.3257 64.5018C17.3621 64.4938 17.3986 64.4869 17.4355 64.479C18.6472 64.2079 19.8132 63.7123 20.9784 63.2277C23.2871 62.2663 25.7525 61.5403 28.2028 61.5185C28.7415 61.5135 29.2742 61.5537 29.8045 61.6473C29.7764 61.8203 29.756 61.9952 29.7395 62.1672C29.7195 62.3773 29.7103 62.6018 29.7175 62.8223C29.1908 62.7316 28.6557 62.6806 28.1254 62.6672C26.9085 62.636 25.7085 62.8035 24.5132 63.0716C22.1636 63.5983 19.9366 64.7704 17.5702 65.1936C16.9457 65.3051 16.2963 65.3298 15.6647 65.3001C14.4377 65.758 13.1395 66.0226 11.9338 66.3403C9.21303 67.0574 6.44896 68.044 4.21958 70.1863C3.71134 70.675 3.23195 71.2082 2.769 71.7622C3.69891 71.1398 4.72101 70.6903 5.6882 70.333C6.08261 70.1626 6.47941 70.001 6.88063 69.8608C7.938 69.4911 9.02263 69.2681 10.1101 69.2314C10.2075 69.218 10.3053 69.2086 10.4027 69.1967C10.4456 69.2864 10.5225 69.3553 10.6163 69.3479C11.5246 69.2755 12.4368 69.1789 13.3479 69.1823C14.2349 69.1853 15.1155 69.2899 15.9941 69.4296C16.71 69.5431 17.4199 69.7017 18.1253 69.885C18.0984 70.1437 18.1642 70.4277 18.2127 70.6834C18.2985 71.1339 18.4095 71.5814 18.5514 72.01C18.8384 72.8772 19.2075 73.7028 19.652 74.4615C19.6797 74.5086 19.7306 74.4546 19.7082 74.408C19.3462 73.6548 19.0532 72.851 18.8492 72.0115C18.7462 71.5873 18.6596 71.1596 18.5866 70.726C18.5534 70.5278 18.5257 70.3291 18.5001 70.1293C18.4933 70.0778 18.4852 70.0253 18.4764 69.9718C19.549 70.2666 20.6084 70.6383 21.6561 71.057C21.6529 71.3648 21.7295 71.675 21.7964 71.9709C21.8898 72.3827 22.0109 72.7856 22.16 73.1716C22.4582 73.9437 22.8614 74.6147 23.3636 75.2019C23.3697 75.2093 23.3797 75.1965 23.3741 75.189C22.934 74.5736 22.5748 73.8471 22.3235 73.0864C22.1961 72.6998 22.0966 72.3004 22.0293 71.8911C21.9904 71.6547 21.9756 71.4089 21.9415 71.1705C23.0434 71.6215 24.1304 72.1265 25.2022 72.6642C25.2022 72.8549 25.2427 73.0517 25.2884 73.2207C25.3774 73.5497 25.498 73.8565 25.6247 74.1652C25.7557 74.4843 25.8824 74.8074 26.0395 75.1088C26.1882 75.3937 26.3774 75.6459 26.5746 75.8803C26.5991 75.9096 26.64 75.8575 26.6163 75.8278C26.2403 75.3536 25.9946 74.6831 25.8303 74.0577C25.7485 73.746 25.6652 73.4347 25.585 73.1225C25.5597 73.0249 25.5417 72.9243 25.5229 72.8247C25.6307 72.8797 25.7397 72.9322 25.8471 72.9872C26.7754 73.466 27.6949 73.9764 28.6056 74.5116C28.594 74.8089 28.6741 75.0939 28.7547 75.3788C28.8505 75.7183 28.9808 76.0429 29.1154 76.3605C29.3836 76.9929 29.7067 77.595 30.0674 78.152C30.089 78.1852 30.1311 78.1451 30.1099 78.1114C29.7527 77.5434 29.471 76.9225 29.2637 76.25C29.1607 75.9165 29.0846 75.5721 29.0092 75.2277C28.9683 75.0414 28.9379 74.859 28.8922 74.6831C29.9287 75.3 30.9532 75.9487 31.9625 76.6321C31.9184 76.9399 32.0334 77.2917 32.1252 77.5707C32.2322 77.8953 32.3553 78.2105 32.4932 78.5167C32.7673 79.1273 33.1012 79.6947 33.488 80.2036C33.5085 80.2304 33.5449 80.1972 33.5253 80.1679C33.1677 79.6322 32.8735 79.0391 32.6587 78.3968C32.5521 78.0772 32.4699 77.7471 32.4022 77.4121C32.3669 77.2372 32.3421 77.036 32.2887 76.8566C33.4094 77.6257 34.5133 78.431 35.5943 79.273C35.6392 79.3081 35.6889 79.2288 35.6444 79.1902C34.6095 78.2848 33.5537 77.4334 32.4755 76.6257C32.6796 76.6376 32.8836 76.6465 33.0876 76.6678C33.593 76.7203 34.1013 76.7867 34.6003 76.9007C34.6251 76.9062 34.6284 76.8601 34.6047 76.8531C34.1377 76.7198 33.6716 76.5959 33.1958 76.5216C32.9569 76.4844 32.7172 76.4537 32.4775 76.4259C32.3793 76.4146 32.2807 76.4027 32.1837 76.3784C32.1569 76.3714 32.1316 76.3596 32.1056 76.3501C31.52 75.92 30.9296 75.4988 30.3267 75.0973C29.9636 74.8555 29.5976 74.6221 29.2301 74.3922C29.3635 74.3733 29.497 74.353 29.6309 74.3391C30.085 74.2921 30.5408 74.2519 30.9969 74.2435C31.9148 74.2257 32.8367 74.3456 33.7361 74.5676C33.7674 74.5755 33.7722 74.5156 33.7417 74.5071C32.8707 74.2599 31.9865 74.1062 31.0947 74.0398C30.6558 74.0071 30.2145 73.9868 29.7752 74.0155C29.4569 74.0369 29.1279 74.1087 28.804 74.13C27.8981 73.576 26.9799 73.0561 26.0516 72.565C26.0648 72.5611 26.0784 72.5576 26.0912 72.5536C26.2985 72.4927 26.5037 72.4233 26.7113 72.3663C27.1414 72.2479 27.5771 72.1493 28.0136 72.0754C28.9114 71.9228 29.8237 71.8866 30.7267 71.9793C30.7612 71.9828 30.7672 71.9183 30.7328 71.9134C29.8494 71.7875 28.9615 71.7523 28.0741 71.8281C27.6232 71.8668 27.1767 71.9347 26.733 72.0397C26.5141 72.0913 26.2977 72.1542 26.0804 72.2137C25.9241 72.2563 25.7509 72.2687 25.5938 72.3247C24.5136 71.7667 23.4202 71.2478 22.3163 70.7627C22.4365 70.7166 22.556 70.667 22.6754 70.617C23.1404 70.4222 23.6154 70.2592 24.0952 70.1318C25.0655 69.8741 26.058 69.7567 27.05 69.8186C27.0909 69.8211 27.0989 69.7438 27.0572 69.7393C26.0989 69.6348 25.1293 69.6501 24.1773 69.831C23.6971 69.9222 23.2246 70.053 22.7592 70.2255C22.5464 70.3043 22.3363 70.395 22.1223 70.4683C22.0257 70.5015 21.9275 70.5248 21.8297 70.5516C21.2461 70.3008 20.6613 70.0555 20.0729 69.8221C19.8416 69.7304 19.6095 69.6412 19.3763 69.554C19.6797 69.4004 19.9819 69.2428 20.2881 69.0991C20.9956 68.7666 21.7327 68.5287 22.4854 68.4226C22.5079 68.4197 22.5023 68.379 22.4806 68.3805C21.7179 68.433 20.9723 68.6233 20.2348 68.8597C19.8681 68.9772 19.5045 69.108 19.147 69.2631C19.0612 69.3003 18.9758 69.3374 18.8917 69.3761C17.7285 68.9633 16.5428 68.6283 15.3428 68.4668C14.7536 68.3875 14.154 68.3315 13.5547 68.3225C16.6455 67.3056 19.8913 66.9003 23.0666 67.2635C27.1727 67.7333 31.2783 69.6556 34.2756 73.2321C35.1182 74.2376 35.8701 75.3545 36.4898 76.584C37.1675 77.929 37.6858 79.3795 38.1925 80.8315C38.2818 81.0882 38.1051 81.3563 37.8882 81.3335C36.0356 81.1387 34.3285 82.339 32.5541 82.781C30.6486 83.2558 28.7427 82.9094 26.9057 82.2141C24.7409 81.3945 22.736 79.8617 20.8954 78.262C19.9166 77.4111 18.9618 76.527 18.0604 75.5528C17.1778 74.5988 16.3849 73.5284 15.5115 72.5621C14.8185 71.7949 14.0081 71.0055 13.1246 70.5511C13.0437 70.5308 12.9627 70.5104 12.8809 70.4916C11.9635 70.279 11.0416 70.1814 10.1077 70.223C8.10676 70.3122 6.13791 70.9783 4.29613 71.9208C3.76985 72.1899 3.24959 72.4773 2.73293 72.7737C2.41147 72.9585 2.02267 73.2697 1.63908 73.3991C1.49359 73.5195 1.3485 73.6414 1.2046 73.7658C0.955289 74.1023 0.683125 74.466 0.346835 74.6137C0.184502 74.685 -0.0327356 74.5369 0.00414002 74.2965C0.0726806 73.8495 0.295535 73.5299 0.509975 73.1711C0.753675 72.7628 1.02583 72.3797 1.29438 71.9966C1.81986 71.2488 2.36698 70.5293 2.95659 69.8608Z" fill="url(#paint32_linear_20_583)"/>
<defs>
<linearGradient id="paint0_linear_20_583" x1="30.8961" y1="39.0859" x2="30.8961" y2="39.4184" gradientUnits="userSpaceOnUse">
<stop stop-color="#440C0D"/>
<stop offset="1" stop-color="white"/>
</linearGradient>
<linearGradient id="paint1_linear_20_583" x1="7.58969" y1="54.0855" x2="7.58969" y2="54.2778" gradientUnits="userSpaceOnUse">
<stop stop-color="#440C0D"/>
<stop offset="1" stop-color="white"/>
</linearGradient>
<linearGradient id="paint2_linear_20_583" x1="38.2869" y1="50.7712" x2="38.2869" y2="51.292" gradientUnits="userSpaceOnUse">
<stop stop-color="#440C0D"/>
<stop offset="1" stop-color="white"/>
</linearGradient>
<linearGradient id="paint3_linear_20_583" x1="39.5601" y1="16.4739" x2="39.5601" y2="25.7848" gradientUnits="userSpaceOnUse">
<stop stop-color="#440C0D"/>
<stop offset="1" stop-color="white"/>
</linearGradient>
<linearGradient id="paint4_linear_20_583" x1="42.7186" y1="10.8524" x2="42.7186" y2="16.8136" gradientUnits="userSpaceOnUse">
<stop stop-color="#440C0D"/>
<stop offset="1" stop-color="white"/>
</linearGradient>
<linearGradient id="paint5_linear_20_583" x1="47.2464" y1="0" x2="47.2464" y2="12.1848" gradientUnits="userSpaceOnUse">
<stop stop-color="#440C0D"/>
<stop offset="1" stop-color="white"/>
</linearGradient>
<linearGradient id="paint6_linear_20_583" x1="45.6039" y1="0.264801" x2="45.6039" y2="10.8855" gradientUnits="userSpaceOnUse">
<stop stop-color="#440C0D"/>
<stop offset="1" stop-color="white"/>
</linearGradient>
<linearGradient id="paint7_linear_20_583" x1="48.1325" y1="8.25629" x2="48.1325" y2="13.0397" gradientUnits="userSpaceOnUse">
<stop stop-color="#440C0D"/>
<stop offset="1" stop-color="white"/>
</linearGradient>
<linearGradient id="paint8_linear_20_583" x1="32.3962" y1="21.0864" x2="32.3962" y2="26.8638" gradientUnits="userSpaceOnUse">
<stop stop-color="#440C0D"/>
<stop offset="1" stop-color="white"/>
</linearGradient>
<linearGradient id="paint9_linear_20_583" x1="29.2262" y1="27.2068" x2="29.2262" y2="42.4577" gradientUnits="userSpaceOnUse">
<stop stop-color="#440C0D"/>
<stop offset="1" stop-color="white"/>
</linearGradient>
<linearGradient id="paint10_linear_20_583" x1="33.0931" y1="7.32224" x2="33.0931" y2="20.5777" gradientUnits="userSpaceOnUse">
<stop stop-color="#440C0D"/>
<stop offset="1" stop-color="white"/>
</linearGradient>
<linearGradient id="paint11_linear_20_583" x1="35.0819" y1="9.38342" x2="35.0819" y2="21.0455" gradientUnits="userSpaceOnUse">
<stop stop-color="#440C0D"/>
<stop offset="1" stop-color="white"/>
</linearGradient>
<linearGradient id="paint12_linear_20_583" x1="30.1621" y1="12.8608" x2="30.1621" y2="20.9176" gradientUnits="userSpaceOnUse">
<stop stop-color="#440C0D"/>
<stop offset="1" stop-color="white"/>
</linearGradient>
<linearGradient id="paint13_linear_20_583" x1="32.4622" y1="60.1017" x2="32.4622" y2="65.3143" gradientUnits="userSpaceOnUse">
<stop stop-color="#440C0D"/>
<stop offset="1" stop-color="white"/>
</linearGradient>
<linearGradient id="paint14_linear_20_583" x1="40.4722" y1="62.4613" x2="40.4722" y2="66.4121" gradientUnits="userSpaceOnUse">
<stop stop-color="#440C0D"/>
<stop offset="1" stop-color="white"/>
</linearGradient>
<linearGradient id="paint15_linear_20_583" x1="40.0023" y1="59.2612" x2="40.0023" y2="62.7202" gradientUnits="userSpaceOnUse">
<stop stop-color="#440C0D"/>
<stop offset="1" stop-color="white"/>
</linearGradient>
<linearGradient id="paint16_linear_20_583" x1="37.4189" y1="64.8928" x2="37.4189" y2="69.2526" gradientUnits="userSpaceOnUse">
<stop stop-color="#440C0D"/>
<stop offset="1" stop-color="white"/>
</linearGradient>
<linearGradient id="paint17_linear_20_583" x1="15.2559" y1="24.4332" x2="15.2559" y2="51.0588" gradientUnits="userSpaceOnUse">
<stop stop-color="#440C0D"/>
<stop offset="1" stop-color="white"/>
</linearGradient>
<linearGradient id="paint18_linear_20_583" x1="18.1086" y1="49.0174" x2="18.1086" y2="58.8604" gradientUnits="userSpaceOnUse">
<stop stop-color="#440C0D"/>
<stop offset="1" stop-color="white"/>
</linearGradient>
<linearGradient id="paint19_linear_20_583" x1="25.7732" y1="42.5735" x2="25.7732" y2="46.8963" gradientUnits="userSpaceOnUse">
<stop stop-color="#440C0D"/>
<stop offset="1" stop-color="white"/>
</linearGradient>
<linearGradient id="paint20_linear_20_583" x1="19.4727" y1="43.0048" x2="19.4727" y2="48.672" gradientUnits="userSpaceOnUse">
<stop stop-color="#440C0D"/>
<stop offset="1" stop-color="white"/>
</linearGradient>
<linearGradient id="paint21_linear_20_583" x1="14.9841" y1="35.3271" x2="14.9841" y2="55.4017" gradientUnits="userSpaceOnUse">
<stop stop-color="#440C0D"/>
<stop offset="1" stop-color="white"/>
</linearGradient>
<linearGradient id="paint22_linear_20_583" x1="12.9547" y1="33.7458" x2="12.9547" y2="46.8657" gradientUnits="userSpaceOnUse">
<stop stop-color="#440C0D"/>
<stop offset="1" stop-color="white"/>
</linearGradient>
<linearGradient id="paint23_linear_20_583" x1="34.3213" y1="37.9604" x2="34.3213" y2="43.5192" gradientUnits="userSpaceOnUse">
<stop stop-color="#440C0D"/>
<stop offset="1" stop-color="white"/>
</linearGradient>
<linearGradient id="paint24_linear_20_583" x1="41.9945" y1="45.1436" x2="41.9945" y2="45.1537" gradientUnits="userSpaceOnUse">
<stop stop-color="#440C0D"/>
<stop offset="1" stop-color="white"/>
</linearGradient>
<linearGradient id="paint25_linear_20_583" x1="37.9167" y1="48.0085" x2="37.9167" y2="56.3522" gradientUnits="userSpaceOnUse">
<stop stop-color="#440C0D"/>
<stop offset="1" stop-color="white"/>
</linearGradient>
<linearGradient id="paint26_linear_20_583" x1="39.4368" y1="25.3833" x2="39.4368" y2="41.1732" gradientUnits="userSpaceOnUse">
<stop stop-color="#440C0D"/>
<stop offset="1" stop-color="white"/>
</linearGradient>
<linearGradient id="paint27_linear_20_583" x1="40.8506" y1="41.4442" x2="40.8506" y2="41.5109" gradientUnits="userSpaceOnUse">
<stop stop-color="#440C0D"/>
<stop offset="1" stop-color="white"/>
</linearGradient>
<linearGradient id="paint28_linear_20_583" x1="49.0385" y1="28.319" x2="49.0385" y2="46.4894" gradientUnits="userSpaceOnUse">
<stop stop-color="#440C0D"/>
<stop offset="1" stop-color="white"/>
</linearGradient>
<linearGradient id="paint29_linear_20_583" x1="47.9865" y1="45.1645" x2="47.9865" y2="59.0263" gradientUnits="userSpaceOnUse">
<stop stop-color="#440C0D"/>
<stop offset="1" stop-color="white"/>
</linearGradient>
<linearGradient id="paint30_linear_20_583" x1="24.8362" y1="47.2859" x2="24.8362" y2="50.1691" gradientUnits="userSpaceOnUse">
<stop stop-color="#440C0D"/>
<stop offset="1" stop-color="white"/>
</linearGradient>
<linearGradient id="paint31_linear_20_583" x1="21.7941" y1="48.115" x2="21.7941" y2="52.68" gradientUnits="userSpaceOnUse">
<stop stop-color="#440C0D"/>
<stop offset="1" stop-color="white"/>
</linearGradient>
<linearGradient id="paint32_linear_20_583" x1="21.2287" y1="41.2009" x2="21.2287" y2="83" gradientUnits="userSpaceOnUse">
<stop stop-color="#440C0D"/>
<stop offset="1" stop-color="white"/>
</linearGradient>
</defs>
</svg>
