<svg width="136" height="163" viewBox="0 0 136 163" fill="none" xmlns="http://www.w3.org/2000/svg">
<path d="M29.949 76.7363C29.2145 76.1569 28.6217 75.5924 27.9677 75.1965C27.1579 74.7059 26.3578 74.6445 25.8364 75.951C25.3207 75.3899 24.8959 74.8238 24.3964 74.4046C23.053 73.2757 22.397 73.3612 21.2551 74.6071C20.5309 74.2436 19.8788 73.7878 19.1881 73.6027C18.3571 73.3803 17.8479 74.1215 17.4488 75.0346C17.134 74.8396 16.8637 74.72 16.6352 74.5208C16.0584 74.0178 15.4881 74.1249 15.0645 74.6569C14.6416 75.1882 14.2071 75.1882 13.7436 74.9325C12.8308 74.4303 12.1034 74.6055 11.4507 75.531C11.273 75.7825 10.8829 75.9261 10.5984 75.8979C9.38052 75.78 8.16585 75.5858 6.95052 75.4065C6.05255 75.2737 5.53566 75.7012 5.68436 76.8027C5.87489 78.213 6.17549 79.659 6.67566 80.9439C7.17389 82.2247 7.97724 83.3254 8.69305 84.5871C8.17293 87.1628 8.17294 87.1628 10.2708 88.5258C10.2244 88.8363 10.1787 89.1758 10.1234 89.5119C9.92576 90.7222 10.3152 91.3779 11.3072 91.4759C11.5923 91.5041 11.8788 91.4817 12.1652 91.4792C12.4053 91.4767 12.6454 91.4701 12.986 91.4626C12.9448 91.8743 12.9023 92.2072 12.8797 92.5425C12.8064 93.6482 13.1108 94.084 13.9831 94.069C14.3468 94.0624 14.7221 94.0201 15.0652 93.8914C15.4861 93.7329 15.9676 93.6175 16.1466 94.1662C16.267 94.5347 16.0674 95.11 15.9238 95.5433C15.7237 96.1492 15.4417 96.7103 15.1347 97.4317C15.0214 97.4615 14.7858 97.4972 14.565 97.5869C13.5434 97.9994 12.395 98.143 11.9238 99.6795C11.8408 99.9509 11.4752 100.057 11.2737 100.286C10.7169 100.919 10.2553 101.764 9.6097 102.169C8.97371 102.567 8.22571 102.694 7.72748 103.422C7.64895 103.538 7.59487 103.737 7.4996 103.769C6.29329 104.175 5.40111 105.199 4.39499 106.033C3.26592 106.969 1.93087 107.515 0.695588 108.257C-0.0981074 108.732 -0.237791 109.515 0.407207 110.348C1.24403 111.43 2.11497 112.512 3.38952 112.723C3.5852 112.756 3.77703 112.833 3.96049 112.886C3.93796 115.731 4.90288 115.765 6.881 115.232C6.87842 116.664 7.89806 117.103 8.57009 117.892C8.72458 118.073 9.11598 118.077 9.34385 117.978C9.71849 117.815 10.0481 117.5 10.4407 117.219C11.4089 118.884 12.4774 117.964 13.4533 117.612C13.8827 117.885 14.2528 118.281 14.6339 118.314C15.0059 118.345 15.3889 118.005 15.8241 117.802C16.6236 119.313 17.4327 118.204 18.3101 117.842C19.5022 119.469 20.5618 118.384 21.6876 117.573C22.1267 118.102 22.5354 118.264 23.183 117.91C23.8029 117.573 24.5753 117.016 25.3342 117.787C25.9136 117.466 26.5322 117.222 27.0575 116.797C27.36 116.552 27.5731 116.312 27.9857 116.266C28.473 116.212 28.9268 115.818 29.3974 115.578C30.2445 115.145 31.2506 115.189 31.9464 114.299C31.996 114.235 32.101 114.192 32.1705 114.209C33.9645 114.658 34.9822 113.079 36.1557 111.908C36.2484 111.815 36.352 111.74 36.5541 111.569C37.2017 112.692 37.8828 113.778 38.4769 114.934C38.9191 115.795 39.5146 116.291 40.2587 116.508C40.6192 116.614 41.006 116.554 41.5712 116.576C41.3086 116.154 41.2339 115.947 41.1071 115.843C38.3803 113.589 37.0691 110.236 36.5496 106.391C36.2896 104.462 36.3649 102.476 36.2741 100.517C36.1035 96.8348 36.1055 93.1726 36.8979 89.6232C37.2938 87.8493 37.6987 86.068 38.2291 84.3597C38.8457 82.375 40.0044 80.8128 41.2082 79.4141C42.5316 77.8768 44.0682 76.6309 45.5172 75.267C45.5603 75.2264 45.6652 75.2886 45.6775 75.2903C45.044 77.944 44.4087 80.6077 43.7714 83.2764C42.7537 83.1195 42.0321 81.9807 40.9352 82.3941C41.5249 83.6292 42.5516 83.7122 43.4695 84.4095C43.4 84.9507 43.3215 85.5649 43.2191 86.3593C42.1094 86.0024 41.1296 85.687 40.1602 85.3749C39.8512 85.7592 39.9742 86.0646 40.2864 86.2381C41.111 86.6972 41.9497 87.1139 42.9629 87.6409C42.8773 87.494 42.9649 87.5754 42.9668 87.6576C43.0125 89.6813 42.7685 89.922 41.1946 89.4331C40.7679 89.3003 40.3392 89.1758 39.8853 89.0405C39.6137 89.6813 39.6909 90.0772 40.2336 90.2499C40.6726 90.3893 41.1135 90.5221 41.5577 90.6284C41.951 90.7222 42.3488 90.7736 42.9706 90.8832C41.4026 92.1159 39.6941 91.2053 37.987 91.9042C39.1612 93.048 40.3469 92.291 41.4618 92.9891C41.212 93.4232 40.9964 93.7984 40.7885 94.1587C40.4949 94.0035 40.2375 93.7362 40.0225 93.776C39.1457 93.9371 38.2831 94.1952 37.4141 94.4127C36.8097 94.5638 36.8091 94.5604 36.8071 95.7441C37.8622 95.5325 38.9159 95.3208 40.1029 95.0834C40.0199 95.5017 39.9896 95.74 39.9253 95.9624C39.4843 97.4956 38.932 98.9872 38.6127 100.564C37.9413 103.876 38.4524 106.985 40.1834 109.762C41.2191 111.424 42.1171 113.184 42.4718 115.254C42.7061 116.62 42.7228 118.036 42.952 119.403C43.4586 122.43 44.6443 125.003 46.4184 127.202C47.9118 129.052 49.579 130.371 51.6459 130.811C53.0499 131.11 54.2523 132.094 55.5166 132.872C57.5063 134.095 59.5893 134.927 61.7927 134.732C64.0142 134.535 66.1513 133.884 67.87 132.018C68.9199 130.878 69.7149 129.493 69.5739 127.533C70.4339 126.926 71.3036 126.312 72.338 125.583C72.2942 126.27 72.264 126.742 72.2215 127.402C72.6972 127.685 73.2019 127.984 73.7548 128.312C73.9595 129.649 73.0184 131.351 74.4211 132.181C74.4417 133.498 74.414 134.62 74.5002 135.732C74.5318 136.141 74.7584 136.702 75.0248 136.888C75.6145 137.303 75.7329 137.847 75.6454 138.572C75.639 138.622 75.6357 138.675 75.6345 138.726C75.583 140.906 75.899 141.581 77.3982 142.49C77.8141 144.164 77.2264 146.357 78.9335 147.222C79.1942 148.426 79.3751 149.542 79.6815 150.604C80.0748 151.966 80.1185 151.948 81.3828 151.894C81.9261 153.49 82.2949 155.372 84.0696 155.758C83.872 156.579 84.1096 157.293 84.7816 157.894C85.6596 158.679 86.3954 158.313 87.1118 157.65C87.7491 158.409 88.3091 159.173 88.9477 159.808C89.6281 160.487 90.3561 161.105 91.1118 161.635C91.7968 162.116 92.4218 163.021 93.3552 162.537C93.7362 161.503 93.3552 160.487 93.2811 159.481C93.1833 158.146 93.0024 156.816 92.9284 155.48C92.9104 155.152 93.0951 154.668 93.3101 154.5C93.968 153.985 94.089 153.26 93.9854 152.373C93.9255 151.858 93.8405 151.342 93.8322 150.828C93.8276 150.55 93.892 150.14 94.0439 150.017C95.3294 148.977 95.5271 147.586 94.79 145.817C95.7253 145.246 96.0214 144.367 95.8302 143.062C95.7337 142.406 95.8624 141.559 96.1411 141.01C96.5847 140.136 96.6194 139.319 96.3864 138.369C96.2667 137.881 96.2171 137.367 96.1431 136.909C97.865 135.526 98.0337 134.797 97.2477 132.41C98.4051 131.163 98.5403 129.248 96.3388 127.168C96.4849 127.051 96.6214 126.958 96.7443 126.842C97.5238 126.102 97.6004 125.302 96.9587 124.36C96.6362 123.887 96.275 123.455 95.8798 122.937C96.7552 121.896 96.8518 120.742 95.9538 119.278C97.1119 119.566 98.006 119.877 98.9117 119.998C102.491 120.476 105.826 119.693 109.022 117.636C111.12 116.286 112.522 114.129 114.068 112.088C114.512 111.503 115.027 111.005 115.462 110.412C116.661 108.778 117.89 107.172 119.003 105.447C120.103 103.74 120.243 101.619 120.146 99.3549C122.243 98.5838 124.452 98.0235 126.043 95.8836C127.591 93.8034 128.072 91.0816 128.714 88.2909C128.842 89.0562 128.813 89.0446 128.683 89.6099C128.611 89.9212 128.658 90.2806 128.652 90.6176C128.92 90.6251 129.27 90.7687 129.439 90.6101C129.778 90.2905 130.045 90.1752 130.401 90.5437C130.456 90.601 130.611 90.6317 130.629 90.5968C131.142 89.6091 131.966 90.2399 132.629 90.1005C133.713 89.8714 134.412 89.2604 134.647 87.8858C134.681 87.6908 134.737 87.5032 134.768 87.3712C135.615 87.3181 136.437 87.4019 137.197 87.1819C138.044 86.937 138.362 86.0148 138.221 84.7838C138.744 84.8685 139.095 84.9432 139.447 84.9797C140.883 85.1308 141.882 84.2916 142.222 82.5742C142.365 81.8578 142.701 81.5856 143.239 81.4876C144.294 81.2967 145.088 80.6567 145.219 79.224C145.272 78.6355 145.111 78.0071 145.052 77.4402C145.562 76.9579 146.121 76.5553 146.549 75.995C147.13 75.2347 147.065 74.7649 146.36 74.1083C145.694 73.489 144.987 72.9428 144.278 72.3477C143.996 70.2708 143.996 70.2708 140.885 68.4878C140.999 66.611 140.248 65.6266 137.382 64.9907C137.502 62.9687 137.077 62.5055 135.522 61.8846C133.253 60.979 130.984 61.2438 128.621 61.2587C127.817 59.2142 126.661 57.54 124.894 56.1264C125.465 55.9728 125.79 55.8674 126.121 55.7985C127.102 55.5951 127.358 55.3021 127.541 54.0794C127.608 53.6337 127.635 53.1763 127.684 52.6874C128.827 52.2275 130.257 52.1736 130.054 49.9863C132.143 49.2774 132.843 48.5362 132.607 46.0792C133.951 45.4882 135.549 45.1121 135.127 42.5464C137.843 41.2764 137.843 41.2764 137.501 37.7062C139.288 36.6039 139.534 35.807 138.836 33.3126C139.613 31.9123 141.164 30.7469 139.759 28.6045C140.34 27.0414 140.904 25.5191 141.473 24.0017C141.524 23.8656 141.671 23.7618 141.679 23.6315C141.715 22.9284 141.927 22.0751 141.686 21.5538C141.39 20.9155 140.734 21.4376 140.237 21.5339C138.918 21.7887 137.597 22.0286 136.286 22.3274C135.773 22.4445 135.285 22.7026 134.728 22.9193C133.72 21.0234 132.791 22.481 131.791 23.0131C131.439 22.7931 131.073 22.564 130.595 22.2652C130.033 22.8321 129.446 23.4248 128.804 24.0723C127.29 22.7317 126.753 24.7222 125.743 25.5274C123.904 24.1901 123.407 26.4155 122.448 27.6341C121.406 26.7409 120.685 27.4008 120.05 28.3729C119.616 29.0378 119.206 29.7275 118.806 30.3725C118.458 30.126 118.081 29.642 117.803 29.7109C117.313 29.8321 116.816 30.1982 116.446 30.6315C115.98 31.1769 115.64 31.8924 115.25 32.5282C115.178 32.4776 115.086 32.4494 115.044 32.3763C114.845 32.0202 114.66 31.6525 114.47 31.2889C114.171 31.5869 113.787 31.8127 113.59 32.197C112.729 33.8729 111.926 35.5962 112.127 37.7701C111.535 38.1138 110.975 38.2167 110.439 37.8166C109.234 36.9151 107.943 36.4885 106.576 36.3847C106.468 36.3764 106.361 36.2694 106.204 36.1797C106.807 34.9421 107.443 33.77 107.963 32.5166C108.235 31.86 108.385 31.0748 108.445 30.3235C108.55 29.0195 108.141 28.3986 107.025 27.9985C107.145 27.6216 107.245 27.2448 107.382 26.892C107.688 26.0985 107.706 25.3207 107.324 24.528C107.007 23.8705 106.867 23.1915 107.129 22.4586C107.192 22.2793 107.181 22.0543 107.203 21.8501C107.413 19.9816 107.244 19.6214 105.848 18.969C105.937 16.6937 105.908 16.6265 104.46 15.8471C104.538 13.6258 104.594 11.3755 102.58 10.0673C102.646 9.74519 102.715 9.40651 102.786 9.06867C103.045 7.83352 102.697 6.57846 101.765 6.06713C100.945 5.61806 100.578 4.90502 100.338 3.90478C100.123 3.01162 99.8142 2.14752 99.5078 1.29089C99.2786 0.650901 98.9207 0.515597 98.4083 0.857587C96.7945 1.93502 96.0375 3.84834 95.4041 5.85546C95.137 6.7013 95.0533 7.64343 94.8672 8.53493C94.7662 9.01886 94.6246 9.48786 94.4784 10.0531C94.172 9.93361 93.9448 9.86388 93.7292 9.7568C92.2596 9.02883 91.1827 10.0266 91.3172 12.0071C91.3519 12.516 91.4195 13.0231 91.4762 13.5685C91.2869 13.6689 91.1427 13.7412 91.0011 13.8225C90.0227 14.3828 89.7388 15.1166 90.1051 16.4107C90.3098 17.1328 90.6406 17.8027 90.9129 18.4917C89.3893 19.9194 89.3416 20.2074 90.2267 22.4262C90.3922 22.8413 90.5357 23.2704 90.6831 23.6763C89.2354 25.0883 89.2341 25.3132 90.6323 28.6252C89.0204 30.1185 90.3684 31.5778 90.8396 33.0229C89.6377 34.4457 89.6377 34.4457 90.8183 37.4256C89.3796 38.7795 90.4269 40.4538 90.6342 42.133C89.939 42.4285 89.2316 42.7456 88.5145 43.0303C86.6844 43.7575 85.2689 45.1943 84.0136 46.9665C82.0954 49.6734 81.3075 52.9314 81.1646 56.5248C81.1511 56.8585 81.2405 57.227 81.3493 57.545C81.8559 59.0308 81.8521 59.152 81.012 60.2477C80.1617 61.3567 79.5353 62.6217 79.0616 64.0735C78.7899 64.9061 78.1391 65.5278 77.59 66.3487C77.1575 65.9752 76.7082 65.6955 76.3664 65.2754C73.592 61.8663 70.1751 60.5009 66.5021 60.0535C65.6338 59.948 64.6991 60.1381 63.8719 60.4718C62.5736 60.9956 61.3531 61.7958 60.076 62.4075C58.8677 62.9861 57.6402 63.5149 56.4017 63.9888C53.3646 65.1501 51.1908 67.6976 49.2603 70.7124C48.5111 71.882 47.568 72.8507 46.7563 73.8576C46.4126 73.7372 46.1782 73.6401 45.9388 73.5812C45.8757 73.5654 45.7946 73.6625 45.727 73.7181C43.3453 75.7078 40.9121 77.6228 39.1818 80.5886C38.52 81.7234 37.8853 82.8846 37.1818 84.1355C36.9829 83.8359 36.7872 83.591 36.6385 83.308C35.8113 81.7391 35.0582 80.1014 34.1518 78.6097C33.6072 77.7141 32.8579 76.9944 32.146 76.2847C31.642 75.7817 30.426 76.1336 29.949 76.7363ZM127.589 51.0455C127.843 50.7027 128.098 50.3599 128.524 49.7846C126.217 49.5945 124.41 48.4424 122.56 47.4463C121.875 47.0777 121.462 46.5581 121.521 45.4832C121.804 45.5164 122.098 45.4632 122.334 45.5927C124.527 46.788 126.886 46.7881 129.161 47.3832C129.696 47.5227 130.372 47.5733 130.821 46.6503C128.047 45.6484 125.23 45.4906 122.375 44.3435C123.159 43.4445 123.763 42.7522 124.428 41.9894C126.683 43.8952 129.183 44.2065 131.737 44.1717C132.256 44.165 132.776 44.2015 133.295 44.2181C133.402 43.8678 133.508 43.5184 133.638 43.0884C130.77 42.851 127.939 43.1565 125.216 41.1635C125.919 40.3018 126.509 39.578 127.025 38.9455C127.408 39.1813 127.648 39.4004 127.91 39.4759C128.829 39.7416 129.751 40.0254 130.683 40.1757C132.069 40.399 133.459 40.4056 134.799 39.891C135.012 39.8088 135.178 39.5515 135.366 39.3755C135.339 39.2452 135.312 39.1148 135.285 38.9845C132.873 39.0833 130.468 39.0982 128.122 38.049C128.641 36.7981 129.367 36.2527 130.553 36.6537C131.465 36.9625 132.421 37.0438 133.512 37.2563C132.56 35.7713 131.201 36.4752 130.136 35.5464C130.429 35.1363 130.675 34.791 130.936 34.4241C132.113 35.3214 133.276 35.4194 134.471 35.2508C135.653 35.084 136.838 34.9421 138.106 34.7794C138.154 36.6553 136.578 36.1415 135.862 37.0961C136.162 38.0366 136.484 39.0468 136.874 40.267C135.798 40.6447 134.885 40.9659 133.837 41.3336C133.897 41.8599 133.953 42.4517 134.034 43.0394C134.141 43.8106 133.939 44.2281 133.284 44.1758C132.891 44.3543 132.508 44.5958 132.101 44.6996C131.184 44.9328 131.029 45.2068 131.277 46.373C131.569 47.7401 131.427 48.083 130.37 48.4324C130.105 48.5204 129.816 48.4963 129.538 48.532C128.84 48.6217 128.698 48.8466 128.788 49.7033C128.941 51.1692 128.797 51.3227 127.577 50.9924C127.01 51.2281 126.42 51.424 126.311 52.362C124.735 51.6838 123.017 51.5195 122.5 49.1355C124.231 49.7846 125.91 50.4155 127.589 51.0455ZM117.192 31.2873C117.328 31.2034 117.463 31.1187 117.649 31.0042C117.864 31.7239 118.055 32.3655 118.28 33.1192C119.78 31.9073 119.736 29.2303 121.621 28.4683C121.672 29.1847 121.714 29.7732 121.761 30.4298C123.326 29.5466 123.137 27.0929 124.659 26.5135C124.914 26.9418 125.142 27.3237 125.373 27.7096C126.341 26.9908 126.64 25.4776 127.943 25.0086C127.932 25.4892 127.923 25.9067 127.911 26.4164C129.205 25.9806 129.591 24.5006 130.668 23.8805C130.659 24.4433 130.725 24.8592 130.636 25.2086C130 27.737 129.918 30.3443 130.076 32.9914C130.12 33.721 130.009 34.3087 129.254 34.5121C128.994 33.824 128.743 33.1591 128.442 32.363C128.134 33.1981 128.518 33.78 128.615 34.4033C128.671 34.7611 128.708 35.2824 128.553 35.4982C127.928 36.3673 127.225 37.1467 126.379 38.1652C126.238 34.268 126.275 30.7386 126.902 26.9534C126.165 27.8889 125.902 28.6377 125.848 29.7624C125.744 31.9223 125.539 34.0838 125.599 36.2445C125.654 38.2541 125.368 39.8735 123.881 40.8265C123.821 40.8646 123.735 40.8414 123.532 40.8563C123.508 39.8918 123.456 38.9314 123.469 37.9752C123.484 36.9434 123.563 35.9166 123.61 34.8864C123.655 33.9086 123.714 32.9308 123.732 31.9513C123.749 31.0034 124.3 30.1019 123.829 28.8618C123.639 29.3075 123.494 29.5383 123.436 29.8022C122.706 33.1533 122.717 36.6238 122.753 40.0794C122.775 42.1944 122.298 43.3474 120.627 44.2372C120.574 43.0303 120.497 41.845 120.475 40.6613C120.452 39.4245 120.45 38.1843 120.5 36.9517C120.549 35.7697 120.754 34.5976 120.746 33.4172C120.737 32.2335 121.342 31.1519 120.938 29.906C120.098 31.8542 120.058 34.0722 119.868 36.1988C119.67 38.4035 119.749 40.658 119.704 42.9896C119.142 42.3679 118.708 41.7105 118.159 41.322C117.319 40.7269 117.037 39.8768 116.981 38.7662C116.878 36.7359 117.081 34.7586 117.418 32.8021C117.517 32.2277 117.581 31.6981 117.185 31.2541C116.446 33.7468 116.078 36.3266 116.377 39.2601C115.219 38.3611 113.962 38.7554 113.004 37.7892C113.062 36.2013 113.08 34.6781 114.087 33.4612C114.285 34.2365 114.452 34.8898 114.708 35.89C115.107 35.1595 115.349 34.7238 115.586 34.2838C116.121 33.2861 116.656 32.2858 117.192 31.2873ZM77.3029 90.689C77.469 90.2009 77.536 89.7419 77.2521 89.233C76.8253 88.4685 76.4854 87.626 76.0393 86.8814C75.021 85.1814 74.2634 83.3129 73.9672 81.2569C73.1491 75.5708 74.8961 71.1822 78.2795 67.4187C78.1205 69.8583 79.4008 71.6122 79.7922 73.8078C78.9727 73.5787 78.3046 73.3919 77.6731 73.2151C77.2733 73.8235 77.5057 74.1622 77.9164 74.3307C78.5408 74.5872 79.1813 74.7756 79.8179 74.979C80.1649 75.0902 80.506 75.1915 80.7185 75.8033C79.8166 75.7335 79.0172 75.575 78.2344 75.6381C77.4562 75.7012 76.5653 75.6165 75.9235 76.8143C76.3477 76.8541 76.591 76.943 76.8066 76.8857C78.0226 76.5653 79.2148 76.7686 80.4398 77.0384C81.077 77.1787 81.395 77.4584 81.5952 78.1532C81.7001 78.5176 81.8269 78.8729 81.9905 79.3751C80.9966 79.3784 80.1449 79.3626 79.2946 79.3875C77.3036 79.4473 77.3036 79.4556 76.8961 80.1769C77.1105 80.245 77.2901 80.3446 77.469 80.3512C78.9798 80.4085 80.4912 80.4749 82.0007 80.4791C82.5305 80.4807 82.9631 80.5164 83.1382 81.3772C82.8775 81.4785 82.6593 81.6005 82.4295 81.6453C81.1897 81.8902 79.946 82.1093 78.7056 82.3517C78.291 82.4331 77.7845 82.4082 77.8153 83.3868C79.2476 83.269 80.6399 83.1552 82.0767 83.0374C81.5914 84.5547 80.6625 85.5126 79.3519 85.7392C78.721 85.8488 78.6065 86.1435 78.871 86.986C79.5347 86.8067 80.1758 86.6332 80.7017 86.4913C80.7951 88.1863 80.882 89.7767 80.9702 91.3671C81.0616 93.0173 81.1504 94.6675 82.0664 96.0579C78.8607 97.5778 78.8607 97.5778 79.0989 98.6718C80.0761 98.27 81.0423 97.7944 82.0439 97.4831C82.9361 97.2059 83.0146 97.3329 83.4961 98.7108C82.8073 99.1748 82.0973 99.6256 81.4111 100.126C80.9734 100.445 80.4468 100.748 80.7404 101.725C81.9164 100.98 83.0648 100.276 84.192 99.5235C84.5402 99.291 84.8447 99.1798 85.2232 99.4155C85.621 99.6629 86.0343 99.8679 86.6587 100.211C85.9718 100.778 85.4581 101.232 84.9206 101.636C84.4385 101.999 83.9094 102.269 83.4382 102.65C83.0004 103.003 82.6123 103.451 82.8852 104.405C84.4919 103.226 86.0355 102.094 87.6294 100.925C88.4198 101.331 88.5544 101.59 88.3619 102.526C88.3117 102.772 88.2383 103.024 88.1269 103.231C87.5875 104.231 87.0223 105.208 86.4842 106.209C86.2241 106.693 85.6332 107.048 86.1031 108.067C86.7945 107.21 87.4195 106.435 88.181 105.49C88.4353 106.895 88.6039 108.064 88.864 109.203C89.1292 110.367 89.4839 111.501 89.9075 113.04C88.8582 112.534 88.1051 112.175 87.3545 111.808C87.014 111.641 86.6245 111.232 86.3503 111.325C85.5785 111.589 84.9914 111.09 84.3748 110.719C83.7401 110.338 83.126 109.889 82.5292 109.415C80.1984 107.562 78.2112 105.346 76.7622 102.261C75.2353 99.008 75.7683 94.426 77.8038 92.2288C78.3799 91.607 79.0081 91.0609 79.6293 90.5097C80.2157 89.9892 80.2415 89.844 79.7297 88.9027C79.294 89.2397 78.8601 89.5933 78.4114 89.9153C78.0464 90.1777 77.6634 90.4034 77.2888 90.645C77.0371 91.4568 76.5292 91.9631 75.9782 92.6139C75.6847 91.0484 75.4272 89.6721 75.1156 88.0103C75.9685 89.0529 76.6361 89.8714 77.3029 90.689ZM117.936 88.5955C117.855 88.9865 117.84 89.1791 117.779 89.3426C117.373 90.4317 117.277 91.5357 117.474 92.7683C117.67 93.9918 117.851 95.1805 118.279 96.341C118.542 97.0523 118.349 98.0434 118.654 98.7008C119.548 100.633 119.107 102.317 118.336 103.923C117.351 105.972 116.191 107.851 114.688 109.37C113.939 110.126 113.215 110.976 112.64 111.939C110.439 115.624 107.405 117.517 103.874 118.301C102.735 118.553 101.505 118.262 100.371 118.533C98.8776 118.89 97.5354 118.257 96.1978 117.692C93.5631 116.579 91.7819 114.185 90.5492 111.091C89.6789 108.907 89.2908 106.58 89.1942 104.189C89.1685 103.546 89.3358 102.899 89.4137 102.26C90.9644 103.133 92.4102 103.947 93.8824 104.776C93.7131 106.479 92.6754 108.126 93.3449 110.104C94.0568 109.962 93.986 109.399 94.0214 108.892C94.1212 107.443 94.3606 106.053 95.0591 104.793C95.332 104.893 95.5888 104.988 95.9216 105.11C95.7929 105.574 95.6835 105.946 95.5856 106.323C95.2174 107.742 94.9941 109.193 95.1067 110.714C95.144 111.216 95.2676 111.628 95.791 111.585C96.0626 109.373 96.333 107.176 96.6008 104.999C97.4118 104.956 98.1154 104.92 98.8293 104.882C98.6471 106.875 98.4733 108.712 98.3137 110.552C98.2493 111.291 98.3317 111.985 98.8641 112.494C99.3552 112.341 99.267 111.928 99.2915 111.435C99.3913 109.435 99.5161 107.432 99.7601 105.459C99.9223 104.151 100.042 104.154 101.311 104.085C101.273 104.911 101.18 105.73 101.212 106.546C101.271 108.037 101.389 109.528 101.515 111.016C101.555 111.48 101.707 111.929 102.283 111.795C102.283 111.573 102.289 111.381 102.283 111.189C102.219 108.925 101.94 106.656 102.289 104.403C102.525 102.879 102.739 102.568 104.154 102.1C103.931 104.795 104.111 107.458 104.45 110.118C104.578 111.124 105.231 112.188 106.151 112.527C105.538 110.778 105.051 109.164 105.143 107.396C105.231 105.686 104.656 103.92 105.216 102.181C105.665 102.499 106.045 102.768 106.402 103.021C106.89 108.479 107.077 109.237 108.18 110.059C108.2 109.837 108.253 109.645 108.229 109.467C107.982 107.63 107.69 105.8 107.476 103.959C107.331 102.713 107.427 102.627 108.463 102.273C109.37 103.314 109.702 105.092 111.401 105.55C110.621 103.959 109.983 102.658 109.32 101.307C109.736 100.767 110.11 100.279 110.475 99.8048C111.306 101.152 111.631 102.742 112.617 103.764C113.135 103.523 113.166 103.139 112.919 102.65C112.324 101.476 111.727 100.304 111.06 98.993C111.176 98.7648 111.353 98.4145 111.57 97.9886C112.404 99.0337 112.733 100.435 113.734 101.184C114.139 100.673 114.007 100.237 113.741 99.7841C113.449 99.2844 113.14 98.7938 112.883 98.2667C112.279 97.0316 112.296 96.9967 113.253 96.2347C114.126 97.2009 114.981 98.1464 115.835 99.0918C115.916 99.003 115.997 98.915 116.079 98.8262C115.937 97.1594 114.478 96.5551 113.95 95.1382C115.237 93.0223 116.531 90.9006 117.936 88.5955ZM119.841 84.2376C119.832 84.1165 119.823 83.9953 119.814 83.8741C119.97 83.7479 120.119 83.5263 120.285 83.5105C121.05 83.4375 121.829 83.2914 122.584 83.415C123.839 83.6217 125.081 83.9978 126.323 84.3422C126.64 84.4302 126.939 84.5091 126.979 84.031C126.995 83.8384 126.746 83.4599 126.571 83.3968C125.624 83.0556 124.671 82.7003 123.704 82.5144C122.461 82.2754 121.204 82.1923 119.835 82.0272C119.875 81.6926 119.823 81.2585 119.969 81.0668C120.69 80.1213 121.378 79.0671 122.471 78.7799C123.696 78.4587 124.932 78.1972 126.168 77.9399C126.595 77.8511 127.068 77.9158 127.201 77.0102C125.827 76.9247 124.515 76.8965 123.283 77.3306C122.045 77.7672 120.879 78.4944 119.66 79.1045C120.03 77.8295 120.838 76.6292 121.836 75.7418C122.738 74.94 123.724 74.3938 124.8 74.0659C125.225 73.9364 125.66 73.7829 125.561 72.9138C123.59 73.2807 121.861 74.1514 120.254 75.5169C120.625 74.6935 121.029 73.9356 121.523 73.289C122.048 72.6033 122.654 72.0165 123.234 71.3989C123.756 70.8427 124.625 70.9199 125.076 69.8442C123.005 69.7786 121.766 71.3981 120.341 72.6092C120.584 71.9077 120.941 71.32 121.186 70.6618C121.677 69.3395 122.511 68.5169 123.514 67.901C123.731 67.7673 124.004 67.6793 124.141 67.4594C124.298 67.2062 124.332 66.8285 124.46 66.3612C122.51 67.0178 121.166 68.2529 120.258 70.2883C120.139 69.9488 120.017 69.5619 120.114 69.4275C120.971 68.2347 121.592 66.7455 122.804 65.9843C123.126 65.7818 123.538 65.5643 123.444 64.6346C122.679 65.1011 121.944 65.3925 121.368 65.9437C120.793 66.4932 120.377 67.3025 119.878 68.0163C119.593 67.2942 119.59 66.6168 119.77 65.8117C120.249 63.6576 120.987 61.7111 122.049 59.9389C122.515 59.1628 122.943 58.5303 123.839 59.0374C123.955 58.4581 124.05 57.9849 124.182 57.3225C124.663 57.5931 125.145 57.7027 125.436 58.0621C126.083 58.859 126.807 59.6791 127.19 60.6719C128.201 63.2899 129.3 65.8839 129.653 68.8165C129.825 70.241 130.093 71.6579 130.397 73.0532C130.813 74.9649 130.779 76.8342 130.472 78.7301C130.14 80.7796 129.364 82.5692 128.621 84.3779C128.095 85.6587 127.731 86.9819 127.528 88.4237C127.266 90.2955 126.904 92.1906 125.996 93.7163C124.512 96.2115 122.367 97.2748 119.981 97.6674C118.647 94.9207 118.236 93.1551 118.552 91.4078C119.04 91.7531 119.492 92.1117 119.969 92.3989C120.385 92.6488 120.753 93.3859 121.345 92.8422C120.648 91.4153 120.493 91.2709 118.583 90.2773C118.761 89.7601 118.937 89.2488 119.079 88.8363C120.459 88.7549 121.347 90.0996 122.645 90.4076C122.574 89.9012 122.607 89.5343 122.497 89.443C121.546 88.6453 120.57 87.8966 119.493 87.0483C119.575 86.7021 119.685 86.2381 119.787 85.8081C121.713 85.5168 123.252 86.9055 124.953 87.4409C125.007 87.172 125.096 86.9595 125.054 86.903C123.635 85.0187 121.683 84.7996 119.841 84.2376ZM56.6817 73.8725C56.5439 73.9182 56.4068 73.9647 56.2691 74.0103C56.3193 76.1544 57.2166 78.0951 57.7065 80.2931C57.0138 80.0698 56.4326 79.8823 55.9234 79.7179C55.8133 79.1584 55.8011 78.6197 55.608 78.2138C55.1876 77.3289 54.672 76.5138 54.2008 75.6663C53.9369 75.1907 53.6826 74.7067 53.3537 74.095C52.8342 75.3833 53.6015 76.1187 53.886 76.9438C54.1776 77.7896 54.6598 78.5367 55.0711 79.3518C53.8893 79.7478 53.2205 78.7758 52.5001 78.0245C51.7792 77.2725 51.0949 76.4623 50.4126 75.6978C49.8995 76.1834 50.0424 76.5321 50.3566 76.9297C50.9552 77.6875 51.5301 78.4753 52.159 79.3087C51.3717 79.8897 50.7434 80.1221 49.9922 79.4954C49.2475 78.8745 48.4402 78.3765 47.5069 77.7166C47.5004 79.4357 48.7454 79.6722 49.3189 80.6766C49.1348 80.9016 48.9591 81.1639 48.7473 81.3673C47.7888 82.2837 47.0498 83.4516 46.6881 84.8843C46.3334 86.2871 46.1319 87.7663 45.9427 89.2314C45.7051 91.0725 45.1857 92.7592 44.5928 94.3878C44.1017 94.3828 43.5725 93.7461 43.3652 94.6086C43.1702 95.4212 43.989 95.3009 44.1988 95.9077C44.1435 96.2007 44.0707 96.5842 44.0192 96.8581C42.6983 97.2598 41.4759 97.6317 40.0096 98.0775C40.9919 95.7284 41.9529 93.8159 43.3009 92.2487C43.9504 91.4933 44.5934 90.7272 45.1998 89.9178C45.6472 89.3202 45.5802 89.121 44.9108 88.6478C44.5735 89.0371 44.2342 89.4289 43.7328 90.0075C43.7598 89.3883 43.747 89.0421 43.7946 88.7117C44.0192 87.1454 44.2033 85.5641 44.5097 84.026C44.9063 82.0388 45.3318 80.0508 45.8866 78.1341C46.242 76.9064 46.7016 75.6281 47.3865 74.691C48.3025 73.4376 49.4535 72.444 50.5581 71.4329C51.3839 70.6776 52.3901 70.4601 53.4039 70.2368C54.9971 69.8857 56.5529 69.3096 58.1397 68.9145C59.2456 68.6397 60.3779 68.3102 61.4979 68.3583C63.2256 68.4322 64.8356 69.1926 66.3811 70.3248C67.0879 70.8428 67.449 71.9343 68.3309 72.0688C69.3357 73.7107 70.6187 75.1309 70.983 77.2808C71.0384 77.607 71.1439 77.9208 71.2366 78.281C72.2994 77.3049 72.2994 77.3049 71.3074 74.4112C71.6158 73.9539 71.9228 73.499 72.3052 72.9312C72.6837 73.1595 73.0615 73.3878 73.451 73.6227C72.4384 76.7313 72.5929 79.7843 73.0789 82.8597C71.2868 80.5994 69.5179 78.3682 67.8307 76.2407C67.0377 76.3021 67.0222 76.7869 67.0493 77.4435C67.1458 79.7777 67.187 82.1135 67.2495 84.446C66.645 84.0185 66.1288 83.6533 65.6421 83.3088C65.6492 81.9442 66.6006 80.8808 66.1429 79.2846C65.1754 80.5222 65.2398 82.438 63.9788 83.4906C63.9363 82.0172 63.9324 80.8377 63.8591 79.6615C63.7876 78.5234 64.114 77.3812 63.8082 76.0963C63.2218 76.6964 63.1819 77.4128 63.16 78.1192C63.1214 79.356 63.1181 80.5961 63.0815 81.8338C63.0615 82.5119 63.1104 83.2341 62.6457 83.7894C61.207 80.7912 60.4004 77.6361 60.1268 74.1398C59.8577 74.3822 59.6884 74.4569 59.6839 74.5507C59.5706 76.9413 60.0779 79.2348 60.7171 81.8437C59.991 81.2776 59.3138 81.0219 59.0042 80.4542C58.1886 78.9567 57.5687 77.3074 57.1838 75.5426C57.057 74.9724 56.851 74.4287 56.6817 73.8725ZM108.561 46.0136C106.823 42.8004 104.239 42.221 101.648 41.4523C101.926 40.8887 102.095 40.4845 102.309 40.1226C102.899 39.1182 103.391 37.9063 104.688 38.2831C104.804 38.3163 104.95 38.0839 105.095 38.0142C105.454 37.8423 105.835 37.5103 106.18 37.5701C107.14 37.7369 108.089 38.0465 109.035 38.3462C109.784 38.5828 110.525 38.87 111.262 39.1696C111.659 39.3307 112.04 39.5656 112.496 39.8021C113.201 39.3888 113.781 39.2751 114.601 39.8478C115.731 40.6364 116.788 41.6001 117.87 42.4991C117.966 42.5787 118.04 42.7248 118.095 42.8585C118.437 43.6902 118.748 44.5444 119.115 45.3595C119.661 46.5731 120.144 47.8655 120.845 48.9272C121.458 49.856 121.859 50.8205 122.072 51.9461C122.303 53.1605 122.482 54.3899 122.75 55.591C122.979 56.6219 122.695 57.3375 122.203 58.1094C121.424 59.3313 120.713 60.6328 120.06 61.9709C119.694 62.7213 119.503 63.612 119.21 64.5093C118.679 63.104 118.189 61.8091 117.652 60.3905C117.985 60.0452 118.394 59.6517 118.774 59.2159C119.147 58.7884 119.461 58.307 119.227 57.3831C118.56 58.0754 118.029 58.6747 117.458 59.2076C116.896 59.7314 116.326 60.1979 116.434 61.2762C116.45 61.4272 116.208 61.6098 116.053 61.8223C115.211 60.6677 114.409 59.6218 114.117 58.0389C114.979 56.5796 115.869 55.0888 116.734 53.5747C116.815 53.432 116.737 53.1406 116.73 52.7878C115.196 53.6411 114.666 55.4225 113.835 56.9813C113.304 55.9745 113.121 55.1892 113.583 54.0944C114.217 52.5927 114.836 51.1418 115.922 50.0834C116.076 49.934 116.088 49.558 116.234 49.0508C115.143 49.3646 114.592 50.149 114.088 50.8861C113.559 51.6606 113.21 52.6334 112.759 53.5681C111.833 52.0158 111.572 51.6954 112.432 49.4924C112.663 48.9031 113.012 48.3926 113.276 47.8232C113.42 47.5135 113.499 47.1541 113.607 46.8171C113.525 46.7548 113.443 46.6926 113.362 46.6303C112.385 47.3608 112.001 48.7528 111.354 49.8585C110.471 48.6607 110.429 48.5005 110.914 47.2969C111.152 46.7092 111.487 46.1879 111.741 45.6102C111.838 45.391 111.834 45.098 111.875 44.8382C111.799 44.7834 111.722 44.7286 111.646 44.673C111.034 45.6052 110.423 46.5382 109.821 47.4563C108.921 46.6527 109.615 45.5131 109.19 44.5336C108.998 44.9868 108.854 45.3255 108.561 46.0136ZM101.657 46.6627C101.549 46.6336 101.441 46.6046 101.333 46.5755C101.23 47.0479 101.071 47.5119 101.036 47.995C100.942 49.275 100.878 50.5624 100.851 51.8498C100.84 52.3969 100.793 52.7729 100.188 52.655C99.5058 50.7135 99.7305 48.4465 98.8518 46.5116C98.5145 48.5918 99.2522 50.6412 99.1151 52.86C98.8621 53.0061 98.5879 53.1647 98.2306 53.3714C97.6796 51.2978 97.2155 49.5489 96.6728 47.5061C96.0826 48.7985 96.5351 49.7265 96.7533 50.6529C96.996 51.6847 97.2606 52.709 97.6024 54.0836C97.0913 53.8619 96.7675 53.8312 96.5666 53.6154C95.7858 52.7754 95.3835 51.6199 94.9986 50.4611C94.8795 50.1017 94.8383 49.6244 94.2351 49.7398C94.2956 51.1808 95.0018 52.3836 95.3577 53.8428C93.7684 53.4585 92.6361 54.3069 91.6448 55.4673C90.8292 56.4219 90.0246 56.8162 88.7629 56.6161C89.0088 55.5885 89.2174 54.5418 89.509 53.5357C90.0658 51.6141 91.0726 50.1183 92.3239 48.8574C93.4807 47.692 94.6336 46.5183 95.7421 45.2823C96.4688 44.4713 97.1331 43.5632 98.1283 43.2868C98.5428 43.1714 99.0314 43.32 99.4015 43.1166C100.463 42.5339 101.547 42.6476 102.627 42.9556C104.708 43.5491 106.649 44.5145 107.982 46.8403C108.31 47.4123 108.541 48.1436 108.966 48.5403C109.704 49.231 110.173 50.1781 110.582 51.1011C111.328 52.7837 111.949 54.565 112.5 56.3613C113.214 58.6888 113.943 60.9806 115.417 62.8068C114.639 63.9814 113.901 65.0945 113.23 66.108C112.594 64.828 112.077 63.4576 111.317 62.3486C110.551 61.2288 109.544 60.3697 108.643 59.3969C109.7 57.8206 109.7 57.8206 109.557 57.1308C108.879 57.7566 108.253 58.3344 107.693 58.8507C107.021 58.5328 106.4 58.2397 105.653 57.887C107.413 56.9838 108.29 56.0201 108.441 54.746C107.228 55.0597 106.744 56.6659 105.492 56.973C105.456 56.3779 105.309 55.7512 105.409 55.2066C105.628 54.0138 105.985 52.8683 106.256 51.6913C106.327 51.3883 106.289 51.0422 106.311 50.4478C105.103 51.5909 105.306 53.3979 104.614 54.575C102.966 53.2186 102.78 53.7084 103.324 51.2497C103.521 50.3557 103.615 49.421 103.756 48.5046C102.544 49.6286 102.657 51.4937 101.908 53.2834C101.315 50.8554 101.943 48.7271 101.657 46.6627ZM86.7121 74.0701C86.2743 74.2535 85.9074 74.4552 85.5218 74.5532C85.1704 74.6428 84.6902 74.2884 84.5248 75.057C85.435 75.8033 86.3027 75.4322 87.1099 75.0446C87.7047 76.6707 87.6139 78.2296 87.5373 79.849C87.3963 82.8249 87.5096 85.7974 89.8366 87.7646C89.8869 87.807 89.8901 87.9423 89.9145 88.0344C88.7275 89.2828 88.6284 91.0102 89.8495 92.1366C90.6999 92.921 91.7272 93.5029 92.7385 93.8482C93.341 94.0541 93.9133 94.255 94.4424 94.6559C96.1154 95.9243 97.7807 97.1337 99.7524 97.557C101.191 97.8658 102.581 98.0858 103.98 97.5612C104.339 97.4267 104.705 97.3146 105.089 97.1843C105.164 98.0003 105.077 98.7224 104.491 98.7581C102.992 98.8478 101.432 99.1018 99.9899 98.6909C98.0028 98.1256 96.051 97.1586 94.1752 96.0911C91.8856 94.7879 89.5714 93.5121 87.6139 91.3671C85.733 89.3052 84.4533 86.8408 83.7388 83.8749C83.5759 83.1976 83.6557 82.6489 84.0432 82.1849C84.6522 81.4544 85.2296 80.67 85.8978 80.035C86.3368 79.6183 86.3394 79.3186 85.986 78.6869C85.3081 79.2763 84.6927 79.8117 84.0149 80.401C83.3738 78.9957 82.6895 77.6261 82.1102 76.1909C81.3976 74.4262 80.8022 72.5901 80.1012 70.8178C79.3409 68.8946 79.0693 66.9837 79.798 65.0115C80.0207 64.4097 80.2383 63.8046 80.4571 63.2003C81.2869 60.9051 82.7893 59.6202 84.6503 58.9785C85.659 58.6307 86.7198 58.4846 87.7645 58.3062C88.6361 58.1576 89.5187 58.0937 90.4012 57.9916C89.9583 60.2535 89.5386 62.3943 89.1009 64.6305C88.2615 63.9067 87.4974 63.1969 86.6947 62.5694C85.9177 61.9626 85.144 61.2977 84.2447 61.0645C84.1894 61.179 84.1347 61.2936 84.0793 61.409C85.6551 62.8898 87.2303 64.3707 88.8061 65.8507C86.9445 65.9794 85.5985 63.9116 83.7285 64.2013C84.9309 65.7544 86.7134 65.9163 88.0194 67.1738C87.5148 68.8224 87.4755 68.8414 86.3213 68.2662C85.7826 67.9981 85.2406 67.7341 84.6883 67.5225C84.4926 67.4469 84.2621 67.5308 83.9081 67.5499C84.5853 69.1129 86.0503 68.6099 86.732 69.7479C86.667 70.5282 86.3162 70.6884 85.7838 70.5199C85.1459 70.3173 84.5061 70.1297 83.8669 69.9355C83.5141 69.8276 83.2045 69.8143 83.1697 70.4949C84.0928 71.4645 85.3551 71.2022 86.4276 71.9277C86.5132 72.5768 86.6059 73.2749 86.7121 74.0701ZM114.062 86.5851C113.638 88.0676 113.1 89.3584 112.907 90.7388C112.403 94.3446 110.69 97.0349 109.005 99.7484C108.626 100.359 108.019 100.808 107.443 101.136C106.396 101.736 105.972 101.371 106.007 99.9318C106.045 98.3887 106.095 96.8324 106.3 95.3233C106.433 94.3413 106.722 93.3128 107.17 92.5135C108.323 90.4566 108.768 88.0593 109.184 85.6762C109.387 84.5174 109.666 83.5105 110.304 82.7111C111.239 81.5407 111.628 80.0889 111.81 78.4744C111.953 77.2061 112.001 75.8556 112.394 74.72C112.844 73.4226 113.077 72.1144 113.207 70.7315C113.274 70.0168 113.382 69.3071 113.504 68.6057C114.005 65.737 115.729 64.0245 117.311 61.8082C117.585 62.6541 117.815 63.2028 117.942 63.7838C118.303 65.4332 118.706 67.08 118.935 68.756C119.205 70.7407 119.564 72.7561 119.196 74.7607C118.907 76.3362 118.663 77.9482 118.199 79.4382C117.412 81.9641 116.111 84.0857 114.614 86.1676C114.171 85.0719 113.702 84.1629 112.654 83.8425C112.461 85.413 113.628 85.7866 114.062 86.5851ZM50.8104 124.216C51.1091 123.856 51.2713 123.664 51.4316 123.468C52.0064 122.763 52.5729 122.046 53.158 121.355C53.5114 120.939 53.9157 120.796 54.363 121.229C54.0611 121.939 53.7406 122.631 53.4663 123.353C53.1889 124.084 52.802 124.827 53.3421 125.948C54.0862 124.199 54.739 122.665 55.4052 121.1C55.7174 121.212 55.9659 121.251 56.1764 121.387C56.9842 121.91 57.0402 122.176 56.6096 123.205C56.4023 123.702 56.1532 124.177 56 124.7C55.8571 125.187 55.6646 125.745 56.2073 126.307C56.7197 125.104 57.205 123.963 57.7283 122.733C58.1957 123 58.5826 123.22 58.9624 123.436C58.6463 124.994 58.0927 126.369 59.0042 128.123C59.158 127.558 59.2687 127.276 59.3099 126.976C59.4329 126.072 59.4857 125.145 59.6582 124.26C59.7226 123.928 60.0039 123.51 60.2511 123.435C61.1046 123.179 61.9872 123.056 62.8581 122.883C62.7725 122.804 62.6766 123.056 62.6096 123.32C62.2639 124.679 61.8597 126.019 61.6041 127.408C61.3904 128.57 61.9073 129.157 62.8459 129.023C63.084 128.989 63.3267 128.943 63.5655 128.965C64.9675 129.098 66.3322 128.914 67.6698 128.436C67.9054 128.351 68.1642 128.359 68.533 128.307C67.9099 130.076 67.2553 131.485 65.7335 131.808C65.4703 131.865 65.2533 132.173 64.9952 132.307C63.4104 133.131 61.7284 133.714 60.0245 133.236C58.0721 132.688 56.1352 131.963 54.3347 130.675C53.42 130.021 52.3283 129.78 51.3176 129.346C50.8928 129.164 50.4557 129.011 50.0508 128.769C48.5696 127.885 47.3685 126.538 46.298 124.987C44.8516 122.891 44.0399 120.479 43.8847 117.64C45.465 119.931 47.5287 120.846 49.8564 121.357C49.5255 122.042 49.2365 122.589 48.99 123.166C48.7473 123.733 48.2928 124.241 48.5915 125.189C49.5584 123.777 50.2349 122.214 51.5681 121.154C51.3949 122.292 50.3939 122.759 50.8104 124.216ZM72.8375 113.576C74.0355 114.423 75.1304 115.199 76.2981 116.024C76.3535 115.8 76.4977 115.545 76.4468 115.375C75.9576 113.741 74.6367 113.375 73.554 112.473C73.7896 111.919 74.0046 111.414 74.2885 110.746C74.8208 111.123 75.2997 111.512 75.8108 111.809C76.293 112.088 76.8086 112.271 77.3094 112.496C77.3596 112.376 77.4105 112.257 77.4607 112.138C76.9869 110.572 75.487 110.578 74.7094 109.582C74.9843 107.263 75.2501 105.024 75.516 102.783C76.694 105.655 78.5897 107.552 80.3638 109.448C80.3586 110.255 80.4018 110.931 80.3393 111.588C80.2479 112.548 80.2132 113.57 79.9209 114.432C79.1324 116.76 78.0458 118.843 76.3226 120.255C75.3132 121.082 74.2395 121.803 73.2888 122.724C72.0091 123.963 70.7616 125.279 69.263 126.056C68.0496 126.685 66.9077 127.908 65.3975 127.138C65.3383 127.108 65.2218 127.143 65.1787 127.202C64.3785 128.313 63.4773 127.306 62.4693 127.546C63.1143 124.375 63.8938 121.657 65.9273 119.629C66.0876 120.865 65.8443 122.041 66.4899 123.129C67.1555 122.077 66.795 120.881 66.9077 119.77C67.3518 119.874 67.7612 119.97 68.1681 120.065C68.4597 120.79 68.4545 121.784 69.3016 121.925C69.7033 121.648 69.6319 121.275 69.478 120.859C69.3209 120.434 69.1497 120.007 69.0486 119.561C68.7899 118.418 68.8581 118.262 69.8687 117.489C69.9614 119.333 70.739 120.601 71.9312 121.512C72.3245 120.885 72.3766 120.69 72.132 120.261C71.9408 119.925 71.6254 119.689 71.4658 119.338C71.0847 118.501 70.7635 117.622 70.4249 116.777C70.7577 116.366 70.9798 116.091 71.2572 115.748C72.0998 117.036 72.9515 118.188 74.0091 119.126C74.0284 117.318 72.833 116.389 72.0741 114.984C72.311 114.544 72.5717 114.065 72.8375 113.576ZM68.0432 78.4122C68.3477 78.6811 68.5684 78.8239 68.7365 79.0339C69.3834 79.8432 70.02 80.6658 70.6483 81.4984C71.1047 82.1035 71.5887 82.6887 71.9795 83.3578C73.0487 85.1889 73.7831 87.2417 74.3174 89.3824C74.7648 91.1754 74.9077 92.9891 74.7371 94.8916C74.4867 97.6923 74.4938 100.539 74.3612 103.363C74.2325 106.098 73.9383 108.768 72.8864 111.216C71.787 113.777 69.9189 115.3 68.1944 117.209C67.9988 116.808 67.7496 116.52 67.7265 116.214C67.5932 114.458 67.5417 112.705 68.0232 111.022C68.5182 109.291 69.1883 107.599 69.4291 105.801C69.7683 103.271 70.4197 101.074 71.9653 99.4031C72.3515 98.9856 72.5131 98.5232 72.1095 97.9496C70.8568 97.953 70.8755 97.9488 70.629 96.3957C70.3296 94.5131 70.0464 92.6222 69.6595 90.7637C69.3242 89.1525 69.3235 88.8446 70.3528 87.9116C70.7056 87.592 71.1517 87.4384 71.5257 87.1504C71.6789 87.0325 71.7542 86.7586 71.9325 86.4324C69.7728 86.9603 69.6949 87.0259 69.2456 88.6088C68.1539 85.9592 67.6711 81.9317 68.0432 78.4122ZM46.8812 104.386C46.542 103.739 46.4035 103.418 46.2227 103.14C45.6002 102.186 45.1329 101.139 45.0833 99.902C45.0099 98.0858 45.1341 96.3227 45.642 94.5978C46.2999 92.3632 47.1438 90.2001 47.0769 87.6576C47.0511 86.6706 47.3253 85.6164 47.6524 84.7083C48.5864 82.1152 50.3482 80.8119 52.5265 80.5305C55.6492 80.1271 58.4706 81.6694 61.2237 83.4192C61.4181 83.5429 61.5423 83.8492 61.7245 84.1057C61.2861 84.9465 60.7145 84.9681 60.085 84.7465C58.0528 84.0343 56.1957 84.2841 54.6109 86.0912C54.5355 86.1767 54.4029 86.1825 54.2755 86.2348C54.0985 85.6405 53.9356 85.0935 53.6981 84.2974C52.9694 85.8364 53.4773 87.6061 52.578 88.8686C52.0167 87.9199 52.1435 86.4025 50.6919 86.0157C51.3414 87.8842 51.895 89.4762 52.448 91.0675C52.3566 91.1439 52.2658 91.2194 52.1744 91.2958C51.6305 90.6815 51.0859 90.0673 50.542 89.4522C50.2973 89.1758 50.0392 88.7698 49.7238 89.2106C49.4676 89.5684 49.5642 89.917 49.8873 90.2565C50.2961 90.6857 50.672 91.1796 51.0042 91.7042C51.1503 91.9349 51.1541 92.3085 51.2224 92.6164C50.9687 92.6803 50.6958 92.8571 50.4654 92.7857C49.998 92.6413 49.5391 92.4014 49.1039 92.1275C48.7769 91.9216 48.5111 91.9449 48.4119 92.3475C48.3656 92.5351 48.5259 92.9509 48.6797 93.0605C49.2507 93.4681 49.8583 93.7918 50.5233 94.1886C50.5156 94.6534 50.5072 95.1382 50.4982 95.6719C49.317 95.6553 48.2497 95.6404 47.093 95.6238C47.523 96.487 47.5236 96.4746 48.1943 96.5584C48.961 96.6547 49.727 96.7759 50.493 96.8863C49.6002 98.0127 48.5329 97.7512 47.4657 97.684C47.4483 98.0094 47.4348 98.2518 47.4174 98.5763C47.8094 98.6793 48.1564 98.7697 48.7093 98.915C47.3646 100.301 46.9848 102.09 46.8812 104.386ZM67.4181 65.4265C66.4403 66.401 67.1091 67.798 66.6051 69.0871C65.5314 67.0153 66.0168 64.6604 65.2166 62.6964C64.6611 64.3624 65.2282 66.1238 64.9727 67.9184C62.9257 67.5748 63.225 65.0455 62.309 63.5207C61.7387 64.7799 62.4332 65.888 62.4828 67.0916C61.8687 67.0817 61.3061 67.0726 60.8703 67.0659C60.4139 66.3803 60.0496 65.8333 59.7007 65.3103C58.9153 65.7378 59.4258 66.4782 59.4464 66.88C56.9237 68.6987 54.1738 68.8489 51.5114 69.498C51.5211 69.3362 51.4966 69.1959 51.5371 69.1502C53.1393 67.3697 54.7995 65.7453 56.954 65.0405C58.3573 64.5815 59.7084 63.8818 61.0666 63.2401C62.009 62.7944 62.9167 62.239 63.8539 61.7767C64.8066 61.3077 65.8063 61.0844 66.8446 61.2861C67.6904 61.4505 68.5305 61.6704 69.3737 61.8622C72.2035 62.5038 74.3638 64.7085 76.5086 66.9464C76.5981 67.0394 76.6457 67.1971 76.6934 67.2867C75.7419 68.9444 74.8079 70.5738 73.8263 72.2846C73.5469 72.1111 73.1967 71.8936 72.7822 71.6355C73.0802 70.8353 73.3467 70.1206 73.6692 69.2565C72.2324 69.3121 72.347 71.0104 71.6454 71.7558C71.3209 71.7509 70.9656 71.7459 70.6277 71.7409C70.0142 69.7686 70.4732 67.8387 70.356 65.8689C69.0943 67.2884 69.7902 69.4084 69.3982 71.1333C68.0959 70.4742 67.6795 69.2208 67.6087 67.676C67.5745 66.9256 67.4838 66.1761 67.4181 65.4265ZM95.2374 129.422C95.2921 129.309 95.3474 129.197 95.4022 129.084C95.2039 128.802 95.0398 128.455 94.8009 128.249C93.3642 127.009 91.9583 125.689 90.4501 124.612C88.7971 123.43 87.0391 122.496 85.3397 121.419C85.0745 121.251 84.7256 120.932 84.6779 120.627C84.5247 119.641 84.4939 118.629 84.4076 117.523C84.8781 117.593 85.2154 117.571 85.5141 117.702C86.9097 118.313 88.3059 118.928 89.6815 119.612C92.1237 120.826 94.2061 122.747 96.0536 125.103C96.0967 125.158 96.0761 125.292 96.0929 125.477C95.8109 125.587 95.4974 125.664 95.2181 125.828C94.4727 126.268 94.4385 126.854 95.0893 127.564C95.6159 128.139 96.136 128.723 96.6639 129.297C97.0552 129.722 97.1589 130.214 96.9664 130.882C96.7057 130.845 96.4688 130.816 96.2332 130.775C95.8129 130.702 95.3217 130.248 95.0172 130.915C94.6735 131.671 95.2998 131.998 95.5843 132.455C95.7627 132.742 96.0015 132.968 96.1907 133.246C96.5235 133.736 96.7784 134.264 96.5885 134.918C95.9178 135.447 95.3281 135.135 94.7565 134.653C93.4839 133.578 92.2229 132.482 90.9413 131.425C90.4224 130.997 89.8759 130.612 89.3185 130.273C88.1282 129.548 86.9174 128.881 85.7291 128.151C85.4968 128.008 85.191 127.714 85.1537 127.448C84.9451 125.951 84.8389 124.439 84.8164 122.664C86.7842 123.821 88.5705 124.77 90.2827 125.907C91.704 126.849 93.034 128.023 94.416 129.068C94.6606 129.251 94.9625 129.307 95.2374 129.422ZM75.4748 135.505C75.2347 134.133 75.2939 133.369 75.9248 131.785C76.152 131.215 76.0748 130.849 75.8005 130.421C75.4388 130.483 75.1375 130.534 74.8362 130.586C74.609 129.604 74.6393 128.774 75.0178 127.967C75.1472 127.69 75.1156 127.293 75.1729 126.955C75.2296 126.617 75.2328 126.216 75.3834 125.96C76.9959 123.224 78.6676 120.548 80.8453 118.477C81.5231 117.832 82.3014 117.42 83.3062 117.485C83.4427 118.835 83.5766 120.153 83.6918 121.288C81.8785 123.514 80.1243 125.595 78.4404 127.763C77.3094 129.219 76.3342 130.843 75.9505 132.915C75.8623 133.393 75.6737 133.879 76.0291 134.351C76.4526 133.355 76.7442 132.261 77.2952 131.452C78.891 129.111 80.5801 126.871 82.2576 124.622C82.6458 124.101 83.1356 123.701 83.7156 123.104C83.8488 124.75 83.921 126.131 84.0864 127.498C84.1926 128.373 83.9583 128.898 83.4658 129.483C81.0506 132.355 78.9148 135.511 77.6171 139.459C77.5186 139.76 77.3319 140.01 77.0146 140.608C76.8324 139.765 76.6361 139.253 76.6335 138.749C76.6303 138.041 76.7712 137.337 76.8511 136.631C76.9682 135.594 76.797 135.38 75.9319 135.477C75.7774 135.494 75.6216 135.496 75.4748 135.505ZM103.449 100.407C103.463 100.508 103.478 100.608 103.492 100.71C102.737 101.278 102.029 101.985 101.219 102.391C97.668 104.169 94.1984 103.934 90.7526 101.365C88.9387 100.013 86.9432 99.0727 85.0771 97.8276C83.5122 96.7834 82.4159 95.0917 82.0368 92.9302C81.7548 91.3248 81.7252 89.6356 81.7375 87.9912C81.7446 87.04 82.0284 86.0937 82.2473 85.1698C82.3142 84.8884 82.5794 84.69 82.7719 84.4277C83.6853 86.6191 84.5447 88.6794 85.4633 90.8824C85.0796 91.7548 83.7632 91.9972 83.9634 93.7295C84.9618 93.283 85.3275 91.9698 86.1939 91.5099C87.0848 92.2578 87.1009 92.3002 86.5183 93.1991C86.2924 93.5486 85.986 93.8142 85.7639 94.167C85.4967 94.5912 85.5463 94.9813 85.9988 95.2951C86.5795 94.5422 87.1311 93.8267 87.7272 93.053C88.1038 93.3942 88.4926 93.7461 88.7951 94.0201C89.0179 95.139 87.7671 95.6537 88.4243 96.9394C88.9206 96.2081 89.3519 95.5723 89.7999 94.9124C90.2872 95.2569 90.7314 95.5715 91.1614 95.8753C90.9805 96.9809 89.7774 97.3271 90.1173 98.8295C91.032 98.2227 91.5045 97.1959 92.1592 96.3028C92.4379 96.5302 92.6967 96.7402 93.0365 97.0175C92.6799 97.528 92.3973 97.953 92.0967 98.3555C91.7929 98.7623 91.4079 99.14 92.1392 99.7924C92.6735 98.9582 93.1936 98.1464 93.7774 97.2349C94.0073 97.3661 94.3272 97.5495 94.5267 97.6633C94.8499 98.954 94.4752 100.16 94.9593 101.336C95.8753 100.512 95.2277 99.2379 95.5792 98.1787C98.1244 99.6903 100.717 100.524 103.449 100.407ZM46.0637 104.877C45.1116 105.863 43.7186 106.006 42.914 107.714C44.6018 107.603 45.5841 106.225 46.8509 105.788C47.1612 106.441 46.9269 106.819 46.5786 107.158C46.1641 107.561 45.756 107.974 45.3434 108.381C45.0131 108.707 44.7421 109.055 45.0473 109.707C45.9922 109.601 46.3971 108.13 47.6478 108.232C47.0344 110.006 45.4303 110.927 45.5036 112.908C45.5867 112.977 45.6697 113.045 45.7528 113.114C46.3649 112.103 46.9771 111.093 47.5893 110.082C47.6878 110.117 47.7869 110.151 47.8854 110.186C47.9028 110.661 47.8751 111.144 47.9465 111.608C48.1178 112.715 48.128 113.975 48.5831 114.875C49.2629 116.218 50.269 117.306 51.1374 118.501C51.3968 118.858 51.6607 119.209 52.1178 119.825C50.6997 119.906 49.6054 120.03 48.4814 119.762C47.4148 119.509 46.6269 118.627 45.7779 117.895C44.7325 116.994 43.8899 115.794 43.4534 114.31C42.8689 112.321 42.0289 110.537 40.9848 108.901C38.9307 105.683 38.9532 102.266 39.9143 98.778C41.373 99.184 42.5387 97.8658 43.8802 98.2186C43.9858 99.7019 43.9871 99.7077 43.0209 100.07C42.2458 100.36 41.4579 100.607 40.6951 100.939C40.4943 101.027 40.3655 101.36 40.204 101.581C40.2477 101.674 40.2922 101.767 40.3359 101.86C41.597 101.489 42.858 101.117 44.1351 100.741C44.2188 101.117 44.2722 101.366 44.3302 101.614C44.625 102.872 44.6359 102.926 43.6974 103.513C43.1998 103.824 42.6353 103.973 42.1016 104.196C41.6118 104.4 41.4972 104.755 41.8313 105.389C42.9964 104.851 44.119 104.333 45.2223 103.823C45.5172 104.193 45.7753 104.516 46.0637 104.877ZM89.9943 80.1321C90.0285 80.2317 90.0632 80.3313 90.0973 80.4301C90.6612 80.3587 91.2245 80.2873 91.7723 80.2184C91.9796 80.8509 91.8695 81.1622 91.4343 81.3922C91.0346 81.603 90.6522 81.9118 90.3278 82.2712C90.0323 82.5991 89.9577 83.0482 90.3915 83.4873C91.1524 82.9585 91.9178 82.4273 92.658 81.9134C93.4639 82.9436 93.4672 82.9461 92.9149 83.8276C92.7153 84.1463 92.4868 84.4352 92.2885 84.7556C92.0613 85.1225 92.0742 85.4794 92.3993 85.8804C93.0353 85.13 93.639 84.4178 94.2145 83.7388C94.8132 83.9637 95.3378 84.3522 95.8309 84.3132C97.8966 84.1522 99.5193 82.8423 100.972 81.0883C101.388 81.5275 101.85 82.0155 102.304 82.4945C102.235 82.6555 102.216 82.7759 102.157 82.8282C99.9191 84.8419 97.894 87.3919 94.8067 87.2815C94.6078 87.2741 94.398 87.3446 94.2119 87.4359C92.3613 88.3357 90.9902 87.0076 89.6854 85.6247C89.276 85.1914 89.0281 84.441 88.8234 83.7811C88.4057 82.4322 88.4617 81.017 88.611 79.6424C88.7938 77.9573 88.584 76.3511 88.1224 74.759C87.966 74.2203 87.7748 73.6866 87.6822 73.1321C87.4897 71.9808 87.1697 70.7797 88.0909 69.8716C88.1939 69.7703 88.1675 69.4831 88.239 69.3079C88.4565 68.7767 88.6104 68.1483 88.94 67.7615C89.4285 67.1879 90.0465 66.7878 90.6098 66.3164C91.7749 65.341 93.1427 65.3593 94.4733 65.2771C94.8531 65.2539 95.2554 65.5867 95.6481 65.7569C94.1688 66.8667 92.7475 67.7532 92.4797 69.9928C91.8141 69.9853 91.2271 69.1477 90.7179 70.0193C92.201 71.6695 92.201 71.6695 91.9622 72.405C91.3423 72.0655 90.7224 71.7251 90.0355 71.3491C89.6718 73.3371 91.3925 72.7926 91.7098 73.9032C90.9985 74.6553 90.4192 73.621 89.7414 73.6376C89.4498 75.2587 90.9573 74.7267 91.2013 75.6696C91.2534 76.7587 91.3069 77.8843 91.3584 78.96C90.864 79.3842 90.4289 79.7577 89.9943 80.1321ZM53.5655 90.9687C53.3737 89.5393 53.6936 88.4793 54.4718 87.4866C55.962 85.5865 57.7779 85.0055 59.8333 85.7069C60.5382 85.9476 61.1008 85.838 61.7065 85.5019C62.3702 85.1333 63.0267 84.69 63.7284 84.4908C64.7351 84.2053 65.8623 84.177 66.535 85.3831C67.3415 86.8291 68.0844 88.3897 68.5916 90.0224C69.4053 92.6421 69.7754 95.4162 70.1024 98.1638C69.03 98.7507 68.1339 98.4327 67.357 97.3628C66.8903 96.7195 66.3386 96.1708 65.8095 95.603C65.5578 95.3324 65.2668 95.1207 64.9978 94.8759C64.5208 94.4409 64.3122 93.9578 64.4777 93.1568C64.7937 91.6261 64.9765 90.0482 65.2572 88.5042C65.3563 87.9597 65.451 87.504 64.766 87.1537C64.6354 87.5696 64.4725 87.9506 64.3959 88.3606C64.2292 89.2571 64.1153 90.1702 63.9614 91.0716C63.8661 91.6303 63.7361 92.1781 63.6131 92.77C62.6695 92.0752 62.6405 91.2186 62.7577 90.2283C62.8909 89.1019 63.1696 87.9514 62.6617 86.5187C61.8738 88.0203 62.2002 89.6738 61.7329 91.2651C60.6547 90.0573 61.0576 88.3025 60.4268 86.9196C59.6305 88.0369 60.1757 89.1849 60.1358 90.3652C58.7911 90.1179 58.9134 88.3266 58.1461 87.4633C57.3376 88.4685 58.1989 89.3966 58.2549 90.5122C56.7467 91.026 55.1406 90.4574 53.5655 90.9687ZM104.985 57.9185C104.612 57.9011 104.487 57.8654 104.374 57.8969C104.115 57.9683 103.68 58.009 103.647 58.1775C103.581 58.5162 103.709 58.9436 103.811 59.3122C103.859 59.4873 104.05 59.5944 104.148 59.7596C105.024 61.2313 105.576 62.8425 105.717 64.618C104.227 63.9465 102.854 63.3281 101.548 62.7396C101.284 61.277 101.025 59.8393 100.766 58.4016C99.7665 59.6318 100.971 60.9881 100.571 62.088C99.9674 61.4936 99.3681 60.9026 98.6593 60.2037C98.275 58.2323 98.1437 57.9559 97.2599 57.628C97.4389 58.4473 97.6095 59.1769 97.7556 59.914C97.8772 60.5274 97.7678 60.9283 97.3365 60.8453C96.7243 59.8102 96.1933 58.9113 95.6654 58.0181C94.9239 58.6407 94.8801 58.8573 95.4826 59.4898C96.1186 60.158 96.5518 60.8943 96.5538 62.0913C95.2972 61.9917 94.575 60.3241 93.2811 60.2709C93.3101 61.8721 94.7951 61.6987 95.0745 63.0326C94.6027 62.9587 94.212 62.8591 93.8219 62.8458C93.3417 62.8284 92.8595 62.8608 92.3851 62.9297C92.3111 62.9404 92.2725 63.2609 92.2184 63.4335C92.5595 63.6369 92.8434 63.807 93.2631 64.0577C92.0871 64.5168 91.1163 64.8961 90.0517 65.312C90.1572 62.1685 90.7687 59.4458 91.9287 56.954C92.5402 55.64 93.5431 54.6405 94.7147 54.9684C96.1489 55.3694 97.3436 55.1137 98.5827 54.3791C99.5586 53.8005 100.61 53.8105 101.653 54.2737C101.908 54.3865 102.128 54.658 102.384 54.7385C103.664 55.1394 104.279 56.3596 104.985 57.9185ZM90.0285 89.5775C90.7829 89.4198 91.4607 89.2936 92.1321 89.1334C93.4054 88.8296 94.6664 88.2784 95.9493 88.2469C97.6712 88.2046 98.9207 87.0956 100.232 86.0331C101.348 85.1291 102.436 84.1687 103.568 83.2955C105.135 82.0861 107.174 82.3418 108.71 83.884C108.553 84.6685 108.471 85.506 108.217 86.2423C107.852 87.3014 107.771 88.5167 107.037 89.3866C105.422 91.3007 103.464 91.9059 101.311 91.5962C99.3533 91.3149 97.4646 91.6436 95.6667 92.369C94.2821 92.9277 93.0005 92.794 91.751 92.0702C90.994 91.6311 89.9712 91.2476 90.0285 89.5775ZM105.046 59.0491C107.111 59.6451 108.598 60.9732 110.034 62.376C110.54 62.8707 110.933 63.5904 111.302 64.2711C112.242 66.0001 112.394 67.9873 112.33 69.9488C112.285 71.3499 112.086 72.7826 111.398 73.9273C110.706 73.6318 110.101 73.3728 109.371 73.0607C109.456 74.6229 110.795 74.2336 111.059 75.3451C111.003 75.9618 110.973 76.6823 110.867 77.3812C110.692 78.5276 110.562 79.7079 110.24 80.7854C109.845 82.1085 109.149 82.2314 108.283 81.4735C108.103 80.5779 107.935 79.8441 107.809 79.0995C107.535 77.48 107.186 75.8639 107.047 74.2295C106.903 72.5369 106.888 70.8137 106.968 69.1212C107.081 66.7447 106.574 64.5085 106.048 62.2689C105.815 61.282 105.452 60.3398 105.046 59.0491ZM52.7325 103.052C50.139 104.266 50.139 104.266 50.0972 105.476C51.9987 104.178 53.5378 103.848 54.6739 104.497C51.4818 106.53 51.4818 106.53 51.3852 107.381C52.6636 106.719 53.9511 106.064 55.2295 105.384C55.5706 105.203 55.8481 105.107 56.0406 105.848C55.7341 106.078 55.3897 106.303 55.073 106.579C54.4525 107.119 53.8268 107.657 53.2456 108.259C52.9597 108.555 52.9044 109.008 53.2076 109.613C54.2903 108.007 55.7386 107.32 57.073 106.379C56.7686 108.072 55.6163 108.8 54.7003 109.847C55.6897 111.951 57.2494 112.599 59.0235 112.888C58.7461 113.846 58.15 114.051 57.6241 114.379C56.4042 115.138 55.1812 114.739 53.9324 114.352C52.6025 113.94 51.6472 113.13 51.1084 111.417C50.6102 109.831 49.9633 108.327 48.6147 107.461C48.186 107.185 47.8345 106.333 47.7206 105.679C47.2359 102.893 48.0502 100.655 49.6807 99.0428C49.9877 98.739 50.4518 98.6859 50.8921 98.4958C51.0421 99.5699 51.1599 100.412 51.2758 101.238C49.9871 101.821 49.9871 101.821 49.9189 102.46C50.7924 102.987 51.8835 101.692 52.7325 103.052ZM82.6091 58.6315C81.5798 53.3647 83.2354 49.5057 86.0227 46.2219C87.218 44.8133 88.6509 43.8869 90.3194 43.5881C91.7452 43.3325 94.4379 43.5491 95.2181 44.0272C93.9873 45.9654 92.3027 47.1674 90.6471 48.7263C90.7675 47.9502 90.8537 47.3932 90.94 46.8354C89.7555 48.1701 89.3358 49.9747 88.8067 52.0125C88.4688 51.082 88.2428 50.4578 87.8939 49.4966C87.1685 51.5709 88.5911 53.3938 87.8347 55.1751C86.835 53.6063 86.454 51.6938 85.4903 50.2237C85.0339 50.574 85.1401 50.9741 85.2875 51.3651C85.5367 52.0266 85.8199 52.6691 86.0516 53.339C86.3168 54.1051 86.5421 54.8929 86.8093 55.7512C85.5605 55.4922 85.1176 53.8404 83.8675 53.6337C83.8109 54.6704 84.2892 55.0996 84.799 55.5636C85.2747 55.9969 85.6937 56.5323 86.1379 57.0229C85.507 56.8012 84.9811 56.4144 84.4778 55.9853C83.9396 55.5262 83.4227 55.0274 82.8936 54.5434C82.5724 54.8315 82.4507 55.1784 82.7507 55.5769C83.0629 55.9919 83.4176 56.3563 83.7478 56.7506C83.9699 57.0154 84.1816 57.2935 84.5363 57.7392C83.7993 58.0804 83.2463 58.336 82.6091 58.6315ZM80.8569 150.443C80.1655 149.073 79.852 147.843 80.1198 146.467C80.2563 145.765 80.0613 145.33 79.4575 145.352C78.9206 145.371 78.7005 144.948 78.6284 144.415C78.5337 143.711 78.5221 142.992 78.4835 142.279C78.441 141.503 78.4088 140.726 78.3535 139.563C79.2521 137.195 83.1363 131.073 84.2969 130.348C84.7378 131.983 84.8209 132.863 84.4687 133.458C83.507 135.08 82.4732 136.634 81.5456 138.288C80.8517 139.525 80.2524 140.854 79.6654 142.182C79.4227 142.731 79.2688 143.385 79.5785 143.951C80.4069 142.383 81.1871 140.801 82.051 139.299C82.9322 137.766 83.8958 136.31 84.9741 134.579C85.2245 136.022 85.4343 137.12 85.5997 138.227C85.7182 139.019 85.5489 139.662 85.144 140.344C83.8907 142.456 82.7288 144.652 82.0111 147.187C81.7092 148.257 81.2792 149.266 80.8569 150.443ZM66.8916 111.008C66.8015 112.835 66.7088 114.721 66.6122 116.688C65.5623 117.107 64.8381 118.086 64.1017 119.121C63.4657 120.015 62.6875 120.827 61.8468 121.388C60.6366 122.197 59.3306 122.448 58.018 121.325C56.9482 120.41 55.8101 119.722 54.4763 119.64C54.0032 119.611 53.5365 119.132 53.0003 118.82C53.6427 117.676 54.1912 116.697 54.719 115.756C55.2932 115.864 55.7245 115.946 56.0676 116.01C56.5716 116.826 55.4258 117.692 56.289 118.388C57.1748 117.572 56.7827 115.512 58.2942 115.391C58.3167 116.743 57.7181 118.113 58.7737 119.628C58.8896 118.373 58.934 117.395 59.0789 116.445C59.2842 115.103 59.5662 114.398 59.9807 113.841C60.2955 117.204 60.2955 117.204 61.3074 118.1C61.6614 117.177 61.0641 116.448 60.9804 115.647C60.8909 114.79 60.7036 113.921 61.019 113.034C61.4329 113.023 61.8217 113.012 62.2459 113.001C62.5311 114.606 62.9096 116.069 64.0219 117.038C64.3676 116.188 64.4081 116.121 64.132 115.849C63.3544 115.081 63.2643 114.034 63.1606 113.006C64.4551 112.313 65.6737 111.66 66.8916 111.008ZM70.7448 99.2844C70.638 99.5832 70.6122 99.7451 70.5376 99.853C69.4748 101.393 68.9109 103.204 68.6418 105.234C68.5247 106.12 68.2337 107.022 67.8475 107.77C66.5897 110.204 64.7358 111.494 62.4487 111.949C61.5855 112.121 60.8349 112.254 60.4184 110.812C60.1082 111.286 59.8886 111.621 59.6775 111.943C58.4873 111.586 57.1902 111.725 56.2304 110.272C57.1818 108.583 58.4525 107.574 60.0457 107.008C60.1069 108.134 59.3672 109.235 60.3373 110.328C60.8677 108.992 60.2556 106.863 61.9949 106.558C62.3058 107.649 61.9234 108.95 63.077 109.693C63.4432 108.253 62.1867 106.854 63.0473 105.561C63.8848 106.366 63.8455 107.92 64.9785 108.609C65.3338 106.84 63.87 106.054 63.7986 104.594C64.0245 104.324 64.2845 104.012 64.598 103.638C64.5613 105.778 65.122 106.22 66.7152 106.589C67.1124 105.575 66.1333 105.517 65.944 104.902C65.7374 104.232 65.4516 103.598 65.2147 102.984C66.5208 100.994 68.1532 100.248 70.7448 99.2844ZM19.9412 75.4912C20.2509 76.1536 20.4524 76.6591 20.7079 77.1181C21.6097 78.7384 22.5039 80.367 23.4527 81.9442C24.1531 83.1071 24.9307 84.1978 25.6806 85.3126C25.949 85.7119 26.256 85.8405 26.5444 85.5724C24.8933 82.5866 23.2731 79.6573 21.6284 76.6823C21.9561 76.0299 22.2438 75.4563 22.5154 74.9151C24.2644 75.746 24.3056 75.8049 25.0053 77.8228C25.1193 78.1507 25.2828 78.4661 25.4669 78.7417C26.3739 80.0989 27.3298 81.4071 28.2026 82.7966C29.089 84.2086 29.8982 85.6961 30.7775 87.2126C30.0668 87.4774 29.7501 87.2259 29.463 86.5477C28.9191 85.2636 28.2831 84.0384 27.6671 82.8033C27.5615 82.5908 27.3652 82.4488 27.2107 82.2745C27.1514 82.3301 27.0916 82.3849 27.0324 82.4405C27.631 83.86 28.2303 85.2794 28.9538 86.9943C27.3059 86.5967 25.9529 86.2697 24.5586 85.9335C23.9535 84.5232 23.3381 83.0888 22.7227 81.6545C22.4891 83.088 23.4868 84.0891 23.5312 85.5118C22.9667 85.345 22.4652 85.1972 22.1891 85.1159C21.8582 84.4418 21.6773 83.9363 21.4012 83.5354C20.0713 81.6022 18.8431 79.5859 17.9078 77.4402C18.088 76.8433 18.2412 76.3777 18.3706 75.9012C18.6107 75.0139 18.6615 74.974 19.4192 75.2629C19.6136 75.3384 19.8054 75.4314 19.9412 75.4912ZM104.366 74.5258C104.3 74.6511 104.233 74.7765 104.166 74.9018C104.365 75.1118 104.544 75.3683 104.767 75.5219C105.201 75.8224 105.675 76.0299 106.102 76.342C106.471 76.6118 106.602 77.0177 106.33 77.4601C105.604 77.5921 104.912 76.8707 103.965 77.4817C104.516 77.8718 104.892 78.1349 105.266 78.4031C105.769 78.765 106.361 79.024 106.744 79.532C107.035 79.9163 107.219 80.6575 107.159 81.1747C107.089 81.774 106.559 81.3764 106.219 81.4104C105.5 81.4826 104.784 81.6154 104.076 81.7773C103.701 81.8628 103.346 82.0629 102.996 82.2048C102.84 81.2593 102.772 80.4235 102.56 79.6465C102.19 78.296 102.254 77.0343 102.578 75.7062C103.131 73.4401 103.341 71.0943 103.087 68.6887C102.926 67.1614 102.536 65.7735 101.586 64.6869C101.439 64.5184 101.386 64.2179 101.221 63.8095C102.25 64.2221 103.16 64.4404 103.963 64.9434C105.172 65.6996 106.243 66.6907 106.166 68.7095C106.126 69.7877 106.18 70.876 106.177 71.9592C106.177 72.0904 106.086 72.2174 106.037 72.346C105.706 72.2506 105.404 72.1634 105.082 72.0696C104.97 72.8382 105.243 73.2109 105.698 73.4915C106.238 73.8252 106.376 74.3515 106.128 75.0263C105.527 74.8553 104.947 74.691 104.366 74.5258ZM26.986 76.029C27.5821 76.4507 28.0932 76.6873 28.4717 77.1123C28.9307 77.6286 29.2841 78.2993 29.6722 78.9127C30.0314 79.4813 30.3829 79.8482 30.8354 79.0804C30.9069 78.9592 31.0839 78.9385 31.3388 78.8048C32.4041 81.6893 33.4347 84.4809 34.511 87.3952C34.6275 87.1222 34.7453 86.9802 34.7273 86.8673C34.231 83.7429 33.0852 80.9174 31.8705 77.9698C32.11 78.1017 32.2393 78.1333 32.3262 78.2271C34.1969 80.2442 35.2616 83.0017 36.5715 85.5301C36.7054 85.7882 36.69 86.2398 36.6295 86.5635C36.52 87.1495 36.325 87.7065 36.1544 88.315C34.8116 88.095 33.5635 87.89 32.4582 87.709C30.3507 84.4045 28.3372 81.2486 26.2683 78.0038C26.4614 77.4734 26.6764 76.8815 26.986 76.029ZM17.0233 98.5523C18.6989 99.6197 20.3609 101.05 21.9116 102.722C22.5418 103.402 23.1019 104.061 23.4205 105.291C21.7951 105.889 20.2045 106.474 18.8257 106.982C16.8089 104.996 14.9261 103.143 13.0252 101.27C13.0239 101.215 13.0123 101.112 13.0207 101.012C13.0291 100.911 13.0677 100.814 13.0741 100.713C13.1527 99.4089 13.228 99.2968 14.2277 99.0354C14.4246 98.9839 14.6223 98.9291 14.8225 98.8967C15.4803 98.7888 16.1401 98.6892 17.0233 98.5523ZM98.7424 23.3152C98.6349 23.253 98.5274 23.1907 98.4199 23.1285C98.3999 22.3656 98.4025 21.6019 98.3536 20.8408C98.3105 20.1784 98.4894 19.7824 98.8692 19.2802C100.171 17.5612 101.364 15.7093 102.578 13.8848C102.8 13.5511 102.856 13.1277 102.325 12.8737C101.006 14.5505 100.057 16.7261 98.3207 18.3066C98.21 16.1334 98.1122 14.201 98.015 12.2885C99.5676 11.3182 100.209 9.07282 101.815 8.17551C102.15 9.4422 100.825 10.4781 101.682 11.715C103.134 11.6975 103.639 12.3599 103.604 14.2126C103.602 14.367 103.577 14.5189 103.565 14.6725C103.43 16.3841 103.231 18.0501 101.937 19.0462C101.776 19.1707 101.694 19.4487 101.556 19.6314C100.621 20.8632 99.6809 22.0875 98.7424 23.3152ZM101.238 78.3557C100.465 77.7971 100.351 76.9006 100.251 76.0315C99.921 73.1578 99.5451 70.2999 98.5757 67.6063C98.4244 67.1854 98.2145 66.7853 98.1167 66.3487C97.8978 65.3759 97.733 64.3848 97.5328 63.3322C96.4804 63.8427 97.2644 65.2804 96.7372 66.1238C96.5711 66.0532 96.2474 66.0001 96.2345 65.898C96.1321 65.0663 95.6925 64.2304 96.163 63.3381C96.6085 63.5364 96.9677 63.4692 97.1679 62.7827C97.3668 62.1004 97.8418 61.7161 98.4147 61.8057C99.0031 61.8979 99.4981 62.2789 99.6732 63.1139C99.9371 64.3707 100.607 65.3004 101.307 66.2085C101.502 66.4616 101.688 66.7638 101.794 67.0842C102.33 68.7095 102.53 70.4153 102.303 72.1086C102.027 74.1738 101.611 76.205 101.238 78.3557ZM57.523 94.4658C55.9285 95.7159 55.1413 97.5985 54.84 99.8754C54.8149 100.064 54.746 100.363 54.6501 100.393C53.6962 100.691 53.8532 101.56 54.1525 102.606C53.0492 102.055 52.3283 101.294 52.0914 100.081C51.7779 98.4776 51.5957 96.8365 51.3801 95.2071C51.3505 94.9846 51.4206 94.7148 51.5056 94.5098C51.6936 94.0566 51.9208 93.6308 52.251 92.9484C52.8567 92.6438 53.6659 92.0669 54.5407 91.8411C55.4689 91.6021 56.4686 91.529 57.4213 92.1043C57.4548 92.8737 57.485 93.5843 57.523 94.4658ZM90.7597 114.393C90.8563 114.689 91.034 115.311 91.2644 115.902C91.3835 116.207 91.5631 116.509 91.7723 116.723C92.5415 117.514 93.3442 118.251 94.1154 119.038C94.5634 119.497 95.0031 119.981 95.3874 120.519C95.5103 120.692 95.5431 121.227 95.4408 121.336C95.267 121.524 94.9207 121.639 94.705 121.547C94.2834 121.365 93.8972 121.03 93.5045 120.741C91.0384 118.929 88.4494 117.517 85.733 116.46C85.0841 116.208 84.7024 116.352 84.3014 117.295C84.1089 115.326 83.9518 113.719 83.7742 111.902C85.8894 113.739 88.2975 113.103 90.7597 114.393ZM25.1907 87.6443C24.8064 88.1124 24.5406 88.5324 24.2052 88.8296C22.5483 90.2997 20.6867 91.2775 18.7768 92.1101C18.2779 92.3275 17.7237 92.6994 17.1669 92.0412C17.0639 91.9191 16.7324 92.1034 16.5071 92.1532C15.6889 92.335 14.8714 92.5201 14.079 92.6986C14.0796 91.568 14.0803 90.6018 14.0809 89.4995C14.1511 89.4538 14.3532 89.2729 14.5798 89.1832C16.8128 88.2967 19.0459 87.4094 21.2911 86.5718C21.5756 86.4656 21.9335 86.6465 22.3764 86.7113C21.7642 88.0726 20.3564 87.841 19.8505 89.4547C20.8965 88.7989 21.7977 88.4121 22.5238 87.7323C23.3626 86.9478 24.1305 87.1122 25.1907 87.6443ZM97.9004 35.211C97.9049 35.6916 97.9114 36.4727 97.9197 37.4124C95.715 36.4304 94.0929 34.7528 92.4752 32.9872C92.0851 33.8389 92.5956 34.1626 92.9535 34.5511C94.5544 36.2926 96.2203 37.9146 98.1309 38.9903C98.1836 39.5249 98.2351 39.935 98.2577 40.3467C98.2654 40.4861 98.2004 40.6281 98.1708 40.7634C95.4504 40.3873 91.7697 37.2862 91.162 34.825C92.7391 33.4537 91.5386 31.9812 91.0204 30.5045C91.5264 30.2688 91.9647 30.0646 92.2029 29.9533C94.0922 31.6973 95.8592 33.3276 97.9004 35.211ZM64.981 101.296C64.1281 102.453 63.2977 103.588 62.4551 104.707C62.3508 104.846 62.1841 104.926 62.0335 104.989C61.3113 105.297 60.589 105.606 59.8597 105.886C58.6592 106.347 56.8671 105.051 56.5092 103.441C55.8519 103.211 55.1638 102.962 55.2546 101.585C56.5645 101.285 57.8552 100.804 59.169 100.735C61.0563 100.634 62.992 99.8505 64.981 101.296ZM85.5669 129.506C86.3464 129.956 86.9638 130.249 87.5341 130.653C89.4124 131.986 91.2779 133.35 93.1402 134.719C94.6304 135.815 95.1563 137.575 95.4093 139.857C94.772 139.682 94.2177 139.702 93.8238 139.389C92.667 138.471 91.5978 137.372 90.4495 136.436C89.0326 135.281 87.5708 134.217 85.9306 132.963C85.8334 132.382 85.6699 131.47 85.5334 130.554C85.4974 130.313 85.5457 130.057 85.5669 129.506ZM17.2563 94.084C17.5466 93.8897 17.6381 93.8018 17.7423 93.7627C20.8193 92.5981 23.7424 91.0833 26.1363 88.3025C26.5592 87.8111 27.0626 87.8667 27.6117 88.4835C26.5998 89.4331 25.658 90.3163 24.7169 91.1995C24.7729 91.3414 24.8283 91.4834 24.8843 91.6245C25.0092 91.5091 25.1328 91.3904 25.2596 91.2792C26.1138 90.5271 26.9918 89.8124 27.8158 89.0122C28.4157 88.4295 28.9899 88.2784 29.6671 88.8047C28.7685 91.8029 23.2943 95.7848 20.5142 95.5092C20.4176 94.9008 20.3178 94.2766 20.218 93.6474C19.199 93.6017 18.4433 94.6376 17.2563 94.084ZM23.7951 96.873C24.1402 95.818 24.359 95.5615 24.9068 95.2021C25.6181 94.7339 26.3835 94.3388 26.9989 93.7154C28.1872 92.5135 29.2937 91.1829 30.4215 89.8871C30.8663 89.3758 31.2673 88.7765 32.0321 89.4845C31.6587 90.2167 31.2886 90.943 30.9178 91.6701C30.988 91.7448 31.0581 91.8187 31.1283 91.8934C31.5795 91.2908 32.0964 90.7463 32.4659 90.0706C32.9172 89.2447 33.4154 89.1351 34.1782 89.5999C33.9909 90.1187 33.8853 90.6359 33.6491 91.0227C32.7942 92.4255 31.9542 93.854 30.9925 95.134C30.3797 95.95 29.8061 96.9511 28.5869 96.6356C28.0391 96.4945 27.3916 97.0739 26.7099 97.3594C26.6603 97.0233 26.6358 96.7792 26.5876 96.541C26.3745 95.4926 26.1337 95.3482 25.38 95.8263C24.9184 96.121 24.4646 96.4306 23.7951 96.873ZM28.0282 104.657C27.6735 108.247 26.7968 111.543 25.4669 114.695C24.2844 114.408 23.8428 115.824 23.0169 116.277C22.6365 115.846 22.2908 115.456 21.8769 114.987C22.8895 112.231 23.9323 109.472 24.912 106.676C25.2358 105.752 25.7617 105.417 26.6802 105.331C26.3642 106.373 26.0829 107.3 25.7585 108.369C26.9538 107.398 26.8702 105.463 28.0282 104.657ZM24.4878 104.68C22.406 101.134 19.452 99.2014 16.5573 96.79C17.5975 96.2463 18.4131 95.8197 19.2325 95.3913C19.6889 97.0872 19.8473 97.2283 21.2467 97.0847C21.5615 97.0523 21.8679 96.9303 22.09 96.8722C23.9091 98.9681 26.0655 100.414 27.4411 102.949C27.4559 102.977 27.4276 103.041 27.3993 103.211C27.1817 103.333 26.9107 103.487 26.7382 103.584C26.0552 102.225 24.9545 101.695 24.1112 100.439C24.0204 102.304 25.6091 102.51 25.7269 103.975C25.3606 104.183 24.9635 104.409 24.4878 104.68ZM98.7237 30.3078C98.6027 29.2461 99.2014 29.0577 99.585 28.6958C100.065 28.2425 100.619 27.908 101.087 27.4382C102.598 25.925 103.571 23.8531 104.571 21.8236C104.939 21.0773 105.349 20.5569 106.251 20.6847C106.242 21.1296 106.282 21.5812 106.214 22.0012C106.045 23.0405 105.673 24.0183 105.961 25.163C106.029 25.4344 105.767 25.9275 105.555 26.1831C104.133 27.8947 102.712 29.6122 101.23 31.2383C100.527 32.0086 99.6893 32.583 98.8698 33.2819C98.5975 31.3238 98.6214 31.2333 99.7607 30.4016C100.458 29.8919 101.174 29.4212 101.87 28.9116C102.086 28.7539 102.269 28.5248 102.467 28.328C102.415 28.2218 102.364 28.1155 102.313 28.0093C101.134 28.763 99.9564 29.5175 98.7237 30.3078ZM95.5155 93.7445C96.6979 92.98 97.8676 92.8131 99.0404 92.7592C100.052 92.7127 101.075 92.8771 102.086 92.8356C103.453 92.7799 104.816 92.6206 106.213 91.6651C105.918 92.7002 105.653 93.4357 105.503 94.211C105.282 95.3482 104.693 95.8761 103.841 96.1276C102.277 96.59 100.681 96.6132 99.1421 96.0355C97.9094 95.574 96.6252 95.0751 95.5155 93.7445ZM64.7055 99.863C63.1169 99.3176 61.9968 98.1298 60.766 97.2175C59.6518 96.3916 59.0544 94.9746 58.3122 93.7403C57.9743 93.1775 58.0438 92.4222 58.3779 91.8519C58.6958 91.309 59.1883 91.2377 59.6936 91.4269C60.2041 91.6187 60.7338 91.7764 61.207 92.076C62.6939 93.0157 63.8739 94.3828 64.3438 96.4447C64.5794 97.4732 64.5787 98.578 64.7055 99.863ZM19.8376 111.596C19.9142 111.648 19.9902 111.701 20.0668 111.754C20.9673 110.607 21.6844 109.288 22.2155 107.806C22.5618 106.838 23.1778 106.664 23.94 106.712C23.3342 108.443 22.7819 110.086 22.1865 111.702C21.593 113.313 21.0362 114.963 19.9046 116.245C19.3033 115.394 18.7884 115.653 18.2451 116.303C17.9792 116.621 17.5808 116.764 17.0182 117.133C17.0767 116.376 17.0297 115.902 17.1559 115.526C17.846 113.459 18.6397 111.447 19.275 109.354C19.7076 107.928 20.5444 107.76 21.7662 107.702C21.0542 109.14 20.4459 110.368 19.8376 111.596ZM86.4713 135.112C86.734 135.259 87.003 135.359 87.2303 135.545C89.276 137.217 91.2889 138.957 93.3655 140.563C94.4392 141.394 94.6059 142.623 94.8048 143.935C93.9937 143.797 93.2026 143.854 92.5396 143.501C91.7961 143.105 91.1749 142.326 90.4874 141.74C90.0426 141.361 89.5849 141.001 89.1144 140.68C87.406 139.513 86.096 138.043 86.4713 135.112ZM34.6796 101.703C34.5773 101.693 34.4749 101.683 34.3726 101.673C34.3301 102.153 34.2355 102.634 34.2554 103.111C34.2915 103.987 34.4209 104.861 34.4653 105.737C34.5876 108.168 34.0861 110.395 33.2146 112.629C32.1145 111.486 31.8467 113.225 31.044 113.541C31.2204 112.053 31.3774 110.748 31.5287 109.441C31.7739 107.319 32.4189 105.283 32.2207 103.06C32.1982 102.806 32.3295 102.414 32.4917 102.284C33.3182 101.622 34.1782 101.025 35.1676 100.302C35.2204 101.301 35.2596 102.04 35.2989 102.781C35.241 102.798 35.1837 102.815 35.1257 102.832C34.9764 102.456 34.8277 102.08 34.6796 101.703ZM100.563 80.4932C99.9126 80.9663 99.3211 81.3922 98.7327 81.8255C96.3491 83.5819 95.9165 83.4922 93.7761 81.3141C92.2821 79.7934 92.2313 77.8502 92.2963 75.741C92.4707 75.8083 92.5698 75.8074 92.6136 75.8697C94.2853 78.2088 96.2847 79.5436 98.799 79.3361C99.079 79.3128 99.3771 79.4357 99.6455 79.3709C100.289 79.2149 100.407 79.7453 100.563 80.4932ZM11.21 89.7991C11.3767 89.3003 11.4147 89.111 11.4951 88.9583C12.2122 87.5936 12.05 87.1246 10.778 86.8632C10.3538 86.776 9.9354 86.6382 9.51892 86.5245C9.73778 84.9723 9.82147 84.8785 10.7761 84.8204C11.1391 84.798 11.499 84.7249 11.8595 84.6668C13.2267 84.4452 14.5927 84.2152 15.9605 83.9994C16.3204 83.943 16.6751 83.9513 16.8868 84.5456C16.2258 85.0586 15.6059 85.54 14.986 86.0206C15.0349 86.1286 15.0832 86.2356 15.1321 86.3435C15.7861 86.0082 16.4697 85.7409 17.087 85.3226C18.0867 84.6444 18.9158 85.1665 20.0217 85.921C17.0182 87.2732 14.0243 87.8095 11.21 89.7991ZM26.0578 116.28C25.9767 116.198 25.8956 116.116 25.8145 116.033C26.2509 115.007 26.7118 113.997 27.1193 112.952C28.0533 110.559 28.5013 107.955 28.9126 105.348C29.127 103.992 29.7018 103.357 30.7987 103.277C30.773 104.529 30.0958 105.541 30.3822 106.832C30.6243 106.152 30.867 105.47 31.1096 104.789C30.9545 107.302 30.6931 109.736 30.2039 112.085C30.005 113.04 29.3124 113.812 28.8457 114.665C28.3951 114.404 28.1041 114.236 27.7836 114.051C27.1927 114.813 26.6255 115.547 26.0578 116.28ZM97.0868 11.8918C96.6181 11.2667 96.2229 10.8168 95.9094 10.2905C95.7549 10.0316 95.6442 9.59744 95.6963 9.30193C96.0697 7.19686 96.4933 5.10258 97.6043 3.40674C97.9159 2.93111 98.313 2.54595 98.7662 2.00558C99.099 2.95186 99.4151 3.6375 99.5805 4.37129C99.8457 5.54833 100.075 6.71874 100.927 7.41766C99.9661 8.63704 99.0778 9.76427 98.0201 11.1057C97.9455 9.70534 97.8856 8.57727 97.8257 7.45003C97.1151 8.78894 97.3005 10.3071 97.0868 11.8918ZM96.1 29.3897C96.0497 29.5408 95.9989 29.6918 95.9487 29.8429C96.3246 30.1094 96.6831 30.4422 97.081 30.6257C97.6481 30.8872 97.8676 31.3313 97.7845 32.0484C97.7395 32.4386 97.6957 32.8295 97.6455 33.2736C95.1421 32.1314 93.4421 29.7491 91.6049 27.6499C91.1627 27.1452 90.537 26.4404 90.6516 25.6552C91.2921 25.0966 91.789 24.6641 92.3329 24.1901C92.6509 24.6284 93.0468 25.2319 93.4923 25.7706C93.9101 26.2761 94.3716 26.7268 94.8293 27.1759C95.3198 27.6573 95.8425 28.0865 96.324 28.5804C96.7507 29.017 97.462 29.0502 97.6706 30.0745C97.0655 29.8106 96.5827 29.5997 96.1 29.3897ZM142.613 73.4766C142.645 73.6102 142.676 73.7439 142.707 73.8783C142.215 74.1531 141.73 74.4478 141.23 74.6984C140.725 74.9516 140.125 75.0844 140.354 76.1851C140.612 76.1087 140.808 76.083 140.981 75.9942C141.878 75.5368 142.782 75.0969 143.658 74.5839C144.38 74.1614 144.961 74.3233 145.508 75.1085C145.4 75.2388 145.33 75.3783 145.231 75.4331C144.898 75.6132 144.559 75.7792 144.215 75.9211C143.043 76.4067 142.944 76.7745 143.653 78.1175C143.805 78.4047 143.973 78.6786 144.133 78.9559C143.48 80.4334 142.279 80.0358 141.386 80.113C140.459 80.1935 139.763 79.0157 138.943 78.1623C139.601 77.8942 140.115 77.685 140.629 77.475C140.621 77.3837 140.613 77.2924 140.605 77.2011C139.656 76.9471 138.707 76.6923 137.757 76.4383C137.742 76.3312 137.726 76.2233 137.711 76.1162C139.161 75.1683 140.607 74.2095 142.069 73.2915C142.193 73.2134 142.429 73.4085 142.613 73.4766ZM83.3216 153.467C82.6696 152.724 82.4063 151.959 82.4623 151.009C82.4893 150.548 82.5756 149.988 82.4095 149.635C82.1398 149.06 82.3374 148.661 82.4578 148.191C83.117 145.612 84.4533 143.545 85.5894 141.327C85.6397 141.229 85.7916 141.217 85.995 141.116C86.1823 141.896 86.3825 142.626 86.5254 143.371C86.5891 143.702 86.6258 144.116 86.526 144.405C85.4916 147.391 84.4256 150.36 83.3216 153.467ZM98.7379 27.962C98.3871 26.3931 98.6362 24.933 99.4041 23.976C100.858 22.1639 102.321 20.3635 103.469 18.2053C103.559 18.0376 103.645 17.8193 103.777 17.7471C104.011 17.6193 104.334 17.4375 104.518 17.552C104.71 17.6707 104.924 18.1605 104.88 18.4078C104.722 19.2877 104.56 20.2099 104.212 20.9752C103.674 22.1606 103.001 23.248 102.35 24.3437C101.405 25.9391 100.222 27.1693 98.7379 27.962ZM11.1919 101.933C12.9789 102.344 16.6371 105.705 17.2061 107.302C16.8502 107.505 16.4877 107.71 16.218 107.863C15.5363 107.276 14.9815 106.797 14.4259 106.318C14.3596 106.391 14.2933 106.463 14.227 106.536C14.4433 106.969 14.6596 107.403 14.8862 107.857C14.2148 108.369 13.649 108.236 13.0194 107.566C12.1993 106.693 11.2936 105.948 10.4137 105.169C9.96824 104.775 9.49898 104.425 8.91385 103.954C9.82599 103.325 11.2113 103.867 11.1919 101.933ZM98.2602 69.8375C96.8692 70.1189 96.024 71.0793 95.3166 72.3128C94.6156 73.5338 94.7939 75.067 94.5409 76.5055C92.6458 74.6868 92.7784 71.9974 93.6139 69.303C94.2306 67.3158 95.7214 67.0012 97.3307 67.183C97.4595 67.427 97.632 67.6644 97.7234 67.9425C97.912 68.5127 98.0568 69.1054 98.2602 69.8375ZM132.358 75.2596C132.188 74.2261 132.766 73.6127 133.222 73.035C135.07 70.6967 137.021 68.5136 139.77 67.1854C139.426 67.9939 139.198 68.5293 138.936 69.1461C139.408 69.4798 139.79 69.7504 140.35 70.1471C139.555 70.705 138.884 71.125 138.255 71.6263C136.894 72.7129 135.543 73.8227 134.21 74.9607C133.627 75.4571 133.036 75.5966 132.358 75.2596ZM140.735 22.6578C140.188 25.3713 138.945 27.1377 138.009 29.0651C137.115 29.2859 136.253 29.4984 135.19 29.7607C135.477 29.2826 135.62 28.9888 135.805 28.7472C136.615 27.6889 137.436 26.6438 138.258 25.5996C138.504 25.2875 138.747 24.987 138.634 24.274C137.867 25.0268 137.203 25.6419 136.573 26.3093C135.92 27.0008 135.3 27.742 134.666 28.4617C134.669 27.19 134.833 26.0852 135 24.982C135.092 24.3769 135.337 23.9826 135.854 23.8614C137.397 23.4987 138.933 23.1044 140.735 22.6578ZM129.001 62.5279C131.059 62.3826 132.962 62.3104 134.852 62.7985C135.351 62.9272 135.821 63.3314 136.275 63.6751C136.361 63.7406 136.346 64.1358 136.295 64.3433C136.273 64.4362 135.966 64.5317 135.925 64.4736C135.672 64.1133 135.451 64.1889 135.177 64.3997C133.837 65.4307 132.501 66.46 131.552 68.1002C131.35 68.4505 131.079 68.736 130.815 69.0847C130.515 67.8478 130.5 67.8337 130.963 67.0651C131.277 66.5421 131.653 66.079 131.975 65.5618C132.099 65.3618 132.15 65.087 132.234 64.8463C132.172 64.7824 132.109 64.7185 132.047 64.6554C131.494 65.3045 130.941 65.9536 130.335 66.6658C129.895 65.2987 129.48 64.0121 129.001 62.5279ZM98.6432 70.5655C98.9889 73.167 99.3082 75.5733 99.6371 78.0486C98.3928 78.032 97.2181 78.4288 96.1019 77.6444C96.0047 77.3331 95.9139 77.0459 95.8238 76.7579C95.0597 74.3199 95.8257 72.1725 97.7704 71.2495C98.0156 71.1324 98.2242 70.8984 98.6432 70.5655ZM92.2042 160.244C92.0999 160.33 91.9963 160.416 91.892 160.502C90.9805 159.703 89.9982 159.004 89.1788 158.075C88.3767 157.165 87.7401 156.02 86.9985 154.93C87.3423 153.428 87.6976 151.87 88.0536 150.313C88.3844 150.702 88.5022 151.07 88.602 151.445C89.0468 153.12 89.48 154.801 89.9313 156.474C90.183 157.406 90.5216 158.272 91.3584 158.848C91.4028 158.523 91.5026 158.272 91.4524 158.078C91.0706 156.595 90.6432 155.13 90.2666 153.646C90.1141 153.045 90.0549 152.409 89.9223 151.603C90.8679 152.246 91.5805 152.75 91.4627 154.038C91.4504 154.172 91.5727 154.323 91.5888 154.473C91.7987 156.395 92.0008 158.32 92.2042 160.244ZM95.5212 11.2534C95.8463 11.7 96.1424 12.0578 96.3909 12.4612C96.6935 12.9526 97.1428 13.4581 97.1994 14.0001C97.3571 15.5084 97.3449 17.0382 97.4112 18.8835C96.4327 17.9214 95.6487 17.2383 94.9484 16.4372C94.183 15.5623 93.4318 14.6418 92.7906 13.6249C92.1418 12.5973 92.2023 11.8793 92.8331 10.7504C93.4672 11.153 94.1218 11.5689 94.7868 11.9914C95.0494 11.7282 95.2876 11.4883 95.5212 11.2534ZM10.6544 77.133C10.7388 77.9913 10.8109 78.7301 10.9042 79.6864C10.1607 79.2672 9.5466 78.921 8.8559 78.5317C8.76063 79.7893 9.56398 79.9993 10.0712 80.4807C10.6551 81.0361 11.3226 81.4694 11.8459 82.1002C12.3796 82.7427 13.2499 81.9151 13.6702 83.0963C13.1211 83.2341 12.5547 83.2847 12.0474 83.5213C10.9711 84.0243 10.0423 83.6226 9.19449 82.7717C8.78123 82.3567 8.36219 81.8562 8.11693 81.2826C7.52729 79.9055 6.63188 78.6222 6.881 76.8301C7.31486 76.811 7.71912 76.7454 8.11951 76.7869C8.97178 76.8732 9.82147 77.016 10.6544 77.133ZM17.8685 110.354C17.7584 112.632 15.8279 116.65 14.9969 116.421C14.8051 116.009 14.6248 115.622 14.4523 115.252C13.4031 115.446 12.8727 117.088 11.5035 116.41C11.9779 115.763 12.3718 115.217 12.7735 114.68C13.7462 113.38 14.6345 111.97 15.0774 110.262C15.2866 109.457 15.6123 109.212 16.1594 109.13C16.6622 109.054 17.1701 109.018 17.8601 108.945C17.1784 110.265 16.5753 111.435 15.9715 112.605C16.052 112.681 16.1331 112.756 16.2135 112.833C16.7645 112.008 17.3155 111.183 17.8685 110.354ZM11.0181 107.225C10.4967 107.316 10.1285 107.247 9.98304 107.443C9.84207 107.633 9.93155 108.096 9.91674 108.507C8.87715 107.659 7.8852 106.851 6.82436 105.986C6.65507 106.454 6.54628 106.756 6.42719 107.086C6.90547 107.557 7.3374 107.983 8.01716 108.652C6.96276 108.772 6.22764 108.885 5.48866 108.932C4.74646 108.978 3.99975 108.957 3.13718 108.968C3.58456 110.153 4.28233 110.183 5.01295 110.179C5.71588 110.175 6.42011 110.225 7.38761 110.26C6.70013 110.987 6.22506 111.489 5.91866 111.813C5.09792 111.579 4.46322 111.319 3.81823 111.231C2.80052 111.092 2.11239 110.461 1.58198 109.246C2.74645 108.565 3.81115 107.858 4.93121 107.321C5.48544 107.056 5.96243 106.83 6.21798 106.101C6.30488 105.853 6.51923 105.58 6.71942 105.517C7.74743 105.19 8.78125 104.936 9.71849 106.006C10.0487 106.383 10.4336 106.682 11.0181 107.225ZM97.6043 27.9761C95.5592 26.8239 94.0111 25.2535 92.6928 23.37C92.3008 22.8097 92.0362 22.4021 91.4524 22.613C91.1949 21.8867 90.9676 21.2459 90.7526 20.6399C91.4221 20.2265 92.0085 19.8638 92.6612 19.4604C93.8573 21.885 95.8946 23.4613 97.6107 25.3506C97.6088 26.2271 97.6069 26.9866 97.6043 27.9761ZM99.4891 40.55C99.1621 39.7905 99.0752 39.1522 99.7279 38.5562C101.98 36.4993 103.944 34.0381 105.803 31.4433C106.151 30.9569 106.408 30.3667 106.733 29.8529C106.817 29.7209 107.047 29.5864 107.134 29.6445C107.292 29.7475 107.509 30.0172 107.494 30.1783C107.444 30.7294 107.349 31.2881 107.19 31.8011C106.401 34.3328 104.847 36.0012 103.13 37.4713C101.939 38.4906 100.739 39.4942 99.4891 40.55ZM99.1016 37.6323C99.014 36.7018 98.8898 35.9929 98.9052 35.2948C98.913 34.9346 99.1003 34.4872 99.3237 34.2622C99.9796 33.6015 100.695 33.0354 101.385 32.4269C103.076 30.9353 104.683 29.3308 105.821 27.102C105.898 26.9501 106.07 26.8779 106.336 26.6521C105.608 28.8344 105.608 28.8344 105.92 30.0563C103.58 32.2717 101.926 35.5762 99.1016 37.6323ZM131.733 72.9794C131.556 72.5046 131.3 71.999 131.19 71.4529C131.118 71.0951 131.187 70.6336 131.313 70.2932C132.158 68.0222 133.744 66.7248 135.368 65.3236C135.934 67.0742 137.323 65.9877 138.18 66.8825C137.201 67.6769 136.298 68.4123 135.393 69.1444C134.889 69.5528 134.399 69.9944 133.872 70.3522C132.918 71.003 131.939 71.6014 131.733 72.9794ZM92.4823 15.1274C94.0806 16.8456 95.4382 18.2949 96.7836 19.7617C97.0237 20.024 97.361 20.3319 97.4035 20.6606C97.5193 21.5505 97.5007 22.4636 97.5412 23.5086C95.2425 22.1158 93.8083 19.9119 92.5126 17.5578C92.2416 17.5993 92.0092 17.635 91.7143 17.6807C91.5573 16.8506 90.7398 16.3061 91.1762 15.1805C91.6834 15.1597 92.201 15.139 92.4823 15.1274ZM133.404 87.2002C132.446 86.0099 131.848 84.8934 131.509 83.5835C131.307 82.8058 130.972 81.974 131.034 81.2245C131.149 79.8225 131.51 78.462 131.815 76.8367C132.776 80.2267 133.819 83.3022 135.979 85.9542C134.805 85.8057 133.543 84.6344 133.404 87.2002ZM113.638 93.6374C113.541 93.566 113.443 93.4955 113.346 93.4241C113.465 92.8488 113.566 92.2669 113.705 91.7C114.089 90.1361 114.472 88.5939 115.296 87.2666C116.213 85.7899 117.001 84.182 117.84 82.6273C118.119 82.111 118.384 81.5831 118.768 80.8443C118.927 82.3252 119.178 83.4864 118.197 84.2991C118.01 84.4543 118.014 84.9507 117.908 85.2786C117.574 86.3112 117.352 87.4467 116.863 88.3432C115.865 90.1768 114.722 91.8801 113.638 93.6374ZM29.5139 98.3398C29.6626 98.1206 29.7952 97.8799 29.9625 97.6857C30.4942 97.0714 31.0305 96.463 31.5789 95.8728C32.4582 94.9257 32.9983 93.4581 34.2831 93.1178C34.4389 93.0763 34.5374 92.7467 34.6693 92.5591C34.8631 92.2836 35.0633 92.0154 35.3839 91.5747C35.2925 92.9742 35.1521 94.0923 35.1611 95.2154C35.1747 96.8739 34.5194 97.8592 33.4392 98.5332C33.2532 98.0144 33.089 97.5562 32.8689 96.9403C31.8222 97.7952 30.8457 98.5581 29.5139 98.3398ZM137.136 33.8663C135.35 33.6696 133.664 34.7321 131.973 33.3932C132.85 32.1422 133.689 31.2026 135.037 31.0482C136.42 30.8897 137.772 30.4115 139.316 30.0289C139.006 31.0988 138.688 31.7953 138.071 32.1298C137.498 32.4394 137.139 32.8943 137.136 33.8663ZM85.7999 156.584C85.106 156.328 85.1581 155.715 85.097 155.16C85.0365 154.607 85.0944 153.831 84.835 153.554C84.2879 152.97 84.4662 152.483 84.6606 151.924C85.2451 150.243 85.8334 148.564 86.4424 146.899C86.5814 146.519 86.8119 146.194 87.0352 145.78C87.7156 147.238 88.1746 148.532 87.2985 149.882C87.2277 149.991 87.2251 150.172 87.1923 150.32C86.7359 152.376 86.2789 154.43 85.7999 156.584ZM61.216 99.3325C59.2958 99.6588 57.5134 99.9626 55.6434 100.28C55.7638 97.9886 56.4712 96.2845 58.083 95.4851C59.1072 96.7427 60.103 97.9654 61.216 99.3325ZM134.484 77.158C135.456 79.1476 136.344 80.963 137.245 82.8041C137.105 83.3735 136.949 84.0077 136.764 84.7598C134.387 82.9759 133.766 79.908 132.703 76.8608C133.444 76.9845 133.997 77.0766 134.484 77.158ZM14.1086 110.173C13.7114 112.097 12.5598 113.272 11.6129 114.627C11.5209 114.759 11.3387 114.798 11.1919 114.857C10.7813 115.021 10.3673 115.173 9.95471 115.328C9.57106 115.472 9.19514 115.686 8.80119 115.74C8.29652 115.809 8.01522 115.334 8.23022 114.746C8.37184 114.359 8.65057 114.024 8.92479 113.758C9.97147 112.739 11.0754 111.801 11.5421 110.109C11.5711 110.003 11.797 109.991 12.0159 109.9C12.1144 111.379 10.8836 111.847 10.834 113.118C11.2479 112.819 11.5936 112.444 11.8865 112.011C12.2766 111.433 12.6396 110.824 12.9872 110.204C13.2949 109.654 13.6309 109.703 14.1086 110.173ZM48.9642 109.19C49.8963 110.372 50.4151 111.613 50.7859 112.933C51.091 114.021 51.6498 114.695 52.4821 115.049C52.858 115.209 53.2481 115.314 53.6215 115.441C53.2417 116.333 52.8793 117.186 52.5072 118.06C50.1751 115.794 48.3733 113.34 48.9642 109.19ZM97.1775 41.9114C97.1608 42.0375 97.1447 42.1645 97.128 42.2907C95.471 42.5621 93.8032 42.3994 92.1347 42.1869C91.7639 41.122 91.0095 40.2886 91.1781 39.1339C91.6867 38.8384 92.0986 38.5985 92.3175 38.4715C94.0253 39.681 95.6017 40.7966 97.1775 41.9114ZM93.4833 148.535C93.0301 147.19 92.1855 146.621 91.2953 146.052C90.3857 145.471 89.554 144.687 88.6677 144.039C87.7626 143.376 87.397 142.378 87.2901 141.065C87.4729 141.113 87.5965 141.104 87.6834 141.172C89.3867 142.522 91.1015 143.85 92.7745 145.26C93.2013 145.619 93.5476 146.201 93.8309 146.759C94.1122 147.315 94.1456 147.938 93.4833 148.535ZM141.206 81.5698C140.899 83.2947 139.848 84.0069 139.015 83.0855C137.681 81.6096 136.573 79.8798 135.864 77.7149C136.996 77.4792 137.758 78.1789 138.309 79.1676C138.744 79.9503 139.312 80.3886 139.937 80.7928C140.338 81.0518 140.747 81.2892 141.206 81.5698ZM13.069 81.0369C12.6403 80.7903 12.3802 80.7447 12.33 80.5945C12.0288 79.6913 11.7095 78.7832 11.526 77.8403C11.3612 76.9953 12.0358 76.6392 12.4079 76.1843C12.5431 76.0191 13.0935 76.2382 13.3709 76.4565C13.6522 76.679 13.8769 77.0857 14.0455 77.4659C14.6023 78.7226 15.1244 80.0034 15.6554 81.2768C15.7777 81.5706 15.8833 81.8744 16.0249 82.248C14.7993 82.0869 14.005 81.4146 13.4893 80.1288C13.2383 79.5029 12.8443 78.9642 12.5154 78.3865C12.4388 78.4462 12.3616 78.5052 12.285 78.5649C12.5064 79.2647 12.7285 79.9644 13.069 81.0369ZM19.2963 83.6002C18.2528 83.4557 17.929 83.2947 17.4565 82.4322C16.798 81.2311 16.1607 80.0059 15.5808 78.7442C14.9448 77.3605 15.0278 76.8683 15.949 75.5891C16.0919 75.7535 16.2824 75.8863 16.3706 76.088C16.8688 77.2235 17.3445 78.374 17.8228 79.5228C17.9554 79.8407 18.088 80.1612 18.1897 80.4948C18.3642 81.0634 18.4897 81.6553 18.6834 82.2131C18.8424 82.6721 19.0697 83.0955 19.2963 83.6002ZM83.1137 116.206C81.7143 115.961 80.9148 117.419 79.7175 117.856C80.7024 115.565 81.3145 113.172 81.451 110.345C81.8263 110.687 82.1952 110.847 82.2994 111.147C82.8505 112.727 83.1517 114.378 83.1137 116.206ZM88.5711 146.207C88.6548 146.134 88.7385 146.061 88.8228 145.988C89.9969 146.819 91.1704 147.649 92.2963 148.446C92.4945 149.949 92.678 151.337 92.8608 152.727C92.772 152.779 92.6831 152.831 92.5943 152.883C91.7066 151.657 90.761 150.487 89.9519 149.185C89.3944 148.289 89.0249 147.206 88.5711 146.207ZM135.264 75.8838C135.246 75.7609 135.228 75.6389 135.21 75.5161C137.323 73.7779 139.436 72.0405 141.537 70.3115C142.065 70.6859 142.499 70.9922 142.976 71.3292C140.881 72.6756 138.891 73.9555 136.859 75.2621C136.792 75.5484 136.707 75.9128 136.601 76.3619C136.102 76.1834 135.683 76.0332 135.264 75.8838ZM132.735 88.6827C131.917 88.53 131.241 88.4561 130.583 88.2652C130.02 88.1025 129.711 87.5538 129.534 86.8598C129.165 85.4105 129.724 84.3804 130.273 83.3586C131.071 85.0852 131.828 86.7221 132.735 88.6827ZM28.9583 102.307C28.8714 102.418 28.7839 102.529 28.697 102.64C27.7804 101.475 26.8637 100.31 25.873 99.0511C26.238 98.9474 26.5547 98.7116 26.771 98.8187C28.0958 99.4786 29.5049 99.9152 30.6487 101.093C30.7781 101.226 30.8702 101.419 31.0137 101.637C30.4209 101.894 30.0938 102.036 29.7823 102.172C29.1643 101.029 29.1643 101.029 28.3648 101.223C28.5676 101.593 28.7627 101.95 28.9583 102.307ZM132.134 24.6956C132.027 26.6397 131.925 28.5165 131.82 30.3933C131.803 30.6996 131.745 31.0059 131.757 31.3105C131.785 32.0385 131.411 32.3331 130.938 32.7233C130.636 30.9461 130.864 29.3391 130.904 27.7146C130.937 26.3765 131.146 25.3223 132.134 24.6956ZM133.476 29.9716C133.346 30.0853 133.029 30.3642 132.618 30.7236C132.613 30.1318 132.573 29.6711 132.61 29.2229C132.763 27.4008 132.931 25.5822 133.126 23.7684C133.14 23.6356 133.411 23.5576 133.675 23.3783C133.825 24.2076 134.082 24.9032 134.04 25.5556C133.953 26.9153 133.707 28.2517 133.476 29.9716ZM9.23891 111.091C9.16746 110.992 9.09665 110.892 9.0252 110.793C8.79732 110.962 8.5334 111.083 8.34866 111.308C7.86008 111.906 7.39275 112.533 6.9415 113.177C6.51344 113.787 6.00749 113.962 5.12883 113.766C5.82854 113.123 6.30423 112.592 6.84753 112.212C7.51377 111.745 7.96501 111.153 7.88776 109.977C8.71879 110.382 9.50864 109.643 10.2483 110.484C9.77578 111.926 8.80056 112.57 7.74037 113.121C8.24053 112.444 8.73939 111.768 9.23891 111.091ZM123.173 52.3794C124.381 52.9007 125.421 53.3489 126.656 53.8819C125.642 54.7302 124.645 54.7883 123.562 54.77C123.431 53.9657 123.312 53.2361 123.173 52.3794ZM66.3032 100.406C65.3132 99.3359 65.3357 98.0866 65.4162 96.5078C66.2234 97.4981 66.8896 98.3149 67.684 99.2894C67.1355 99.7335 66.7204 100.069 66.3032 100.406ZM76.1314 122.268C75.5624 123.605 75.05 124.9 74.4655 126.14C74.2267 126.645 73.7831 126.671 73.2785 126.418C73.6261 125.738 74.0355 125.199 74.2048 124.552C74.5318 123.3 75.3506 122.867 76.1314 122.268ZM35.3478 107.687C35.4122 107.676 35.4766 107.665 35.5416 107.654C35.6993 108.434 35.9593 109.215 35.9761 109.995C35.9864 110.47 35.6523 110.971 35.4135 111.407C35.2069 111.784 34.9004 111.995 34.4659 111.689C34.7691 110.312 35.0588 109 35.3478 107.687ZM32.7974 100.512C32.3134 100.848 31.8853 101.145 31.2809 101.565C31.4373 100.545 30.8097 99.4537 32.0044 99.2578C32.2194 99.5973 32.4395 99.946 32.7974 100.512ZM35.3446 89.6755C35.4341 90.6583 34.8805 91.1613 34.4569 91.7614C34.753 91.0667 35.0485 90.3711 35.3446 89.6755ZM21.0394 84.4427C20.0301 84.2875 20.0301 84.2874 20.1678 83.3561C20.4311 83.6848 20.6693 83.982 21.0394 84.4427ZM24.6152 97.933C25.1418 97.4499 25.4083 97.4283 25.4881 98.1206C25.501 98.2335 25.4154 98.3597 25.3491 98.5572C25.1167 98.3597 24.9274 98.1987 24.6152 97.933Z" fill="url(#paint0_linear_20_744)"/>
<path d="M36.558 97.4051C37.4605 98.524 38.0134 98.3622 38.5844 96.9934C37.848 96.7925 37.3105 97.3238 36.558 97.4051Z" fill="url(#paint1_linear_20_744)"/>
<path d="M115.496 60.0377C116.182 58.0987 117.842 57.511 118.416 55.64C117.148 56.1214 116.142 57.0279 115.403 58.3759C115.183 58.776 114.93 59.2151 115.496 60.0377Z" fill="url(#paint2_linear_20_744)"/>
<path d="M114.932 70.4361C115.984 70.5183 116.935 70.5922 117.892 70.6669C117.977 69.6459 117.727 69.3969 116.352 69.2367C115.3 69.1146 114.93 69.4301 114.932 70.4361Z" fill="url(#paint3_linear_20_744)"/>
<path d="M114.687 76.2067C115.522 76.5586 116.252 76.9081 117.002 77.1538C117.212 77.2227 117.478 76.9853 117.719 76.889C117.576 76.6134 117.477 76.1876 117.281 76.0888C116.636 75.7626 115.961 75.5219 115.287 75.3143C114.921 75.2006 114.911 75.2604 114.687 76.2067Z" fill="url(#paint4_linear_20_744)"/>
<path d="M115.009 73.2183C115.584 73.2739 116.068 73.3187 116.553 73.3685C117.024 73.4167 117.495 73.4681 118 73.5221C117.597 72.3359 116.962 72.0852 114.993 72.2861C114.998 72.5924 115.004 72.9095 115.009 73.2183Z" fill="url(#paint5_linear_20_744)"/>
<path d="M114.049 78.7825C114.843 79.1825 115.518 79.5229 116.181 79.8566C116.673 79.102 116.64 78.7152 116.044 78.4031C115.632 78.1873 115.198 78.0387 114.77 77.8802C114.227 77.6793 114.202 78.1823 114.049 78.7825Z" fill="url(#paint6_linear_20_744)"/>
<path d="M113.99 80.3745C113.802 81.9276 114.12 82.3077 115.808 82.7311C115.839 82.5094 115.954 82.1492 115.889 82.0853C115.295 81.5051 114.669 80.9755 113.99 80.3745Z" fill="url(#paint7_linear_20_744)"/>
<path d="M109.189 93.0962C108.671 94.162 108.903 94.8609 109.219 95.8171C109.743 94.8003 109.592 94.0657 109.189 93.0962Z" fill="url(#paint8_linear_20_744)"/>
<path d="M111.317 91.2003C111.797 89.707 111.797 89.707 110.708 89.4007C110.476 90.1719 111.11 90.4043 111.317 91.2003Z" fill="url(#paint9_linear_20_744)"/>
<path d="M110.707 91.7764C110.573 92.7501 110.573 92.7501 111.014 93.4166C111.476 92.7625 111.476 92.7625 110.707 91.7764Z" fill="url(#paint10_linear_20_744)"/>
<path d="M70.6122 91.27C71.3377 90.1021 72.7674 90.3378 73.5173 88.7341C72.2994 88.7009 71.5186 89.3542 70.739 89.9336C70.4371 90.1586 70.3167 90.635 70.6122 91.27Z" fill="url(#paint11_linear_20_744)"/>
<path d="M71.4406 93.5892C72.3012 93.1294 73.1483 92.6786 73.9903 92.213C74.0154 92.1989 73.9826 92.0254 73.9703 91.8311C73.2668 91.4842 72.5735 91.5971 71.9594 92.0885C71.5815 92.3898 71.1348 92.7807 71.4406 93.5892Z" fill="url(#paint12_linear_20_744)"/>
<path d="M73.2339 103.151C73.4122 102.368 73.0556 102.104 72.6546 101.915C71.9188 101.566 71.2539 101.704 70.5033 102.464C71.5088 102.717 72.3681 102.933 73.2339 103.151Z" fill="url(#paint13_linear_20_744)"/>
<path d="M70.5653 104.564C72.3709 105.761 72.3709 105.761 72.8234 105.014C71.4034 103.537 71.0687 103.454 70.5653 104.564Z" fill="url(#paint14_linear_20_744)"/>
<path d="M70.2781 106.655C70.625 106.839 70.9784 107.004 71.3164 107.211C71.6447 107.413 71.9569 107.657 72.2922 107.895C72.7931 107.632 72.8336 107.266 72.4557 106.867C71.8339 106.21 71.1156 106.07 70.3682 106.223C70.338 106.367 70.3083 106.511 70.2781 106.655Z" fill="url(#paint15_linear_20_744)"/>
<path d="M103.957 89.4604C104.656 88.2485 104.569 87.4683 103.735 86.3286C103.353 87.3637 103.737 88.256 103.957 89.4604Z" fill="url(#paint16_linear_20_744)"/>
<path d="M105.79 88.0336C106.149 86.7536 106.044 86.3062 105.249 85.5533C104.822 86.5303 105.341 87.1645 105.79 88.0336Z" fill="url(#paint17_linear_20_744)"/>
<path d="M100.04 90.0641C100.761 89.3652 100.761 89.3652 100.32 88.3176C99.7328 88.7094 99.7567 89.2606 100.04 90.0641Z" fill="url(#paint18_linear_20_744)"/>
<path d="M102.454 88.8786C102.368 88.4428 102.322 88.1498 102.249 87.8667C102.2 87.6791 102.112 87.5065 101.942 87.074C101.75 87.4774 101.537 87.7173 101.536 87.9663C101.534 88.5549 101.802 88.9118 102.454 88.8786Z" fill="url(#paint19_linear_20_744)"/>
<path d="M109.31 70.309C108.972 70.8311 108.968 71.2436 109.517 71.4893C109.783 71.608 110.07 71.7467 110.336 71.7226C110.559 71.7027 110.764 71.4603 110.976 71.3167C110.813 71.0702 110.683 70.7066 110.477 70.6037C110.115 70.4219 109.705 70.3995 109.31 70.309Z" fill="url(#paint20_linear_20_744)"/>
<path d="M111.285 67.8927C110.544 67.8686 109.98 67.7972 109.427 67.8479C108.952 67.8919 108.834 68.282 109.066 68.8265C110.535 68.8631 110.782 68.7809 111.285 67.8927Z" fill="url(#paint21_linear_20_744)"/>
<path d="M108.607 66.6534C109.167 66.5198 109.631 66.4086 110.169 66.2799C109.513 65.234 109.006 65.3577 108.607 66.6534Z" fill="url(#paint22_linear_20_744)"/>
<path d="M108.98 77.216C109.171 77.6668 109.363 78.1175 109.587 78.6421C110.091 77.7 110.066 77.6186 109.204 77.021C109.129 77.0865 109.054 77.1513 108.98 77.216Z" fill="url(#paint23_linear_20_744)"/>
<path d="M18.6608 103.467C19.5884 104.005 20.4928 104.53 21.4165 105.065C21.6521 104.63 21.459 104.311 21.1918 104.03C20.653 103.466 19.5169 103.212 18.6608 103.467Z" fill="url(#paint24_linear_20_744)"/>
<path d="M97.5598 35.6766C97.1324 34.7951 96.676 34.6399 95.9917 34.7868C96.6843 35.5521 96.6843 35.5521 97.5598 35.6766Z" fill="url(#paint25_linear_20_744)"/>
<defs>
<linearGradient id="paint0_linear_20_744" x1="0" y1="81.675" x2="146.942" y2="81.675" gradientUnits="userSpaceOnUse">
<stop stop-color="#FAFAFA"/>
<stop offset="1" stop-color="#04427C"/>
</linearGradient>
<linearGradient id="paint1_linear_20_744" x1="36.558" y1="97.5464" x2="38.5844" y2="97.5464" gradientUnits="userSpaceOnUse">
<stop stop-color="#FAFAFA"/>
<stop offset="1" stop-color="#04427C"/>
</linearGradient>
<linearGradient id="paint2_linear_20_744" x1="115.152" y1="57.8389" x2="118.416" y2="57.8389" gradientUnits="userSpaceOnUse">
<stop stop-color="#FAFAFA"/>
<stop offset="1" stop-color="#04427C"/>
</linearGradient>
<linearGradient id="paint3_linear_20_744" x1="114.932" y1="69.9393" x2="117.907" y2="69.9393" gradientUnits="userSpaceOnUse">
<stop stop-color="#FAFAFA"/>
<stop offset="1" stop-color="#04427C"/>
</linearGradient>
<linearGradient id="paint4_linear_20_744" x1="114.687" y1="76.2191" x2="117.719" y2="76.2191" gradientUnits="userSpaceOnUse">
<stop stop-color="#FAFAFA"/>
<stop offset="1" stop-color="#04427C"/>
</linearGradient>
<linearGradient id="paint5_linear_20_744" x1="114.993" y1="72.8729" x2="118" y2="72.8729" gradientUnits="userSpaceOnUse">
<stop stop-color="#FAFAFA"/>
<stop offset="1" stop-color="#04427C"/>
</linearGradient>
<linearGradient id="paint6_linear_20_744" x1="114.049" y1="78.8459" x2="116.523" y2="78.8459" gradientUnits="userSpaceOnUse">
<stop stop-color="#FAFAFA"/>
<stop offset="1" stop-color="#04427C"/>
</linearGradient>
<linearGradient id="paint7_linear_20_744" x1="113.942" y1="81.5528" x2="115.908" y2="81.5528" gradientUnits="userSpaceOnUse">
<stop stop-color="#FAFAFA"/>
<stop offset="1" stop-color="#04427C"/>
</linearGradient>
<linearGradient id="paint8_linear_20_744" x1="108.884" y1="94.4566" x2="109.555" y2="94.4566" gradientUnits="userSpaceOnUse">
<stop stop-color="#FAFAFA"/>
<stop offset="1" stop-color="#04427C"/>
</linearGradient>
<linearGradient id="paint9_linear_20_744" x1="110.658" y1="90.3005" x2="111.624" y2="90.3005" gradientUnits="userSpaceOnUse">
<stop stop-color="#FAFAFA"/>
<stop offset="1" stop-color="#04427C"/>
</linearGradient>
<linearGradient id="paint10_linear_20_744" x1="110.629" y1="92.5965" x2="111.329" y2="92.5965" gradientUnits="userSpaceOnUse">
<stop stop-color="#FAFAFA"/>
<stop offset="1" stop-color="#04427C"/>
</linearGradient>
<linearGradient id="paint11_linear_20_744" x1="70.4423" y1="90.0015" x2="73.5173" y2="90.0015" gradientUnits="userSpaceOnUse">
<stop stop-color="#FAFAFA"/>
<stop offset="1" stop-color="#04427C"/>
</linearGradient>
<linearGradient id="paint12_linear_20_744" x1="71.339" y1="92.6097" x2="73.9995" y2="92.6097" gradientUnits="userSpaceOnUse">
<stop stop-color="#FAFAFA"/>
<stop offset="1" stop-color="#04427C"/>
</linearGradient>
<linearGradient id="paint13_linear_20_744" x1="70.5033" y1="102.442" x2="73.2811" y2="102.442" gradientUnits="userSpaceOnUse">
<stop stop-color="#FAFAFA"/>
<stop offset="1" stop-color="#04427C"/>
</linearGradient>
<linearGradient id="paint14_linear_20_744" x1="70.5653" y1="104.668" x2="72.8234" y2="104.668" gradientUnits="userSpaceOnUse">
<stop stop-color="#FAFAFA"/>
<stop offset="1" stop-color="#04427C"/>
</linearGradient>
<linearGradient id="paint15_linear_20_744" x1="70.2781" y1="107.031" x2="72.7079" y2="107.031" gradientUnits="userSpaceOnUse">
<stop stop-color="#FAFAFA"/>
<stop offset="1" stop-color="#04427C"/>
</linearGradient>
<linearGradient id="paint16_linear_20_744" x1="103.573" y1="87.8945" x2="104.427" y2="87.8945" gradientUnits="userSpaceOnUse">
<stop stop-color="#FAFAFA"/>
<stop offset="1" stop-color="#04427C"/>
</linearGradient>
<linearGradient id="paint17_linear_20_744" x1="105.09" y1="86.7934" x2="105.987" y2="86.7934" gradientUnits="userSpaceOnUse">
<stop stop-color="#FAFAFA"/>
<stop offset="1" stop-color="#04427C"/>
</linearGradient>
<linearGradient id="paint18_linear_20_744" x1="99.8463" y1="89.1909" x2="100.622" y2="89.1909" gradientUnits="userSpaceOnUse">
<stop stop-color="#FAFAFA"/>
<stop offset="1" stop-color="#04427C"/>
</linearGradient>
<linearGradient id="paint19_linear_20_744" x1="101.536" y1="87.9774" x2="102.454" y2="87.9774" gradientUnits="userSpaceOnUse">
<stop stop-color="#FAFAFA"/>
<stop offset="1" stop-color="#04427C"/>
</linearGradient>
<linearGradient id="paint20_linear_20_744" x1="109.076" y1="71.0172" x2="110.976" y2="71.0172" gradientUnits="userSpaceOnUse">
<stop stop-color="#FAFAFA"/>
<stop offset="1" stop-color="#04427C"/>
</linearGradient>
<linearGradient id="paint21_linear_20_744" x1="108.951" y1="68.3318" x2="111.285" y2="68.3318" gradientUnits="userSpaceOnUse">
<stop stop-color="#FAFAFA"/>
<stop offset="1" stop-color="#04427C"/>
</linearGradient>
<linearGradient id="paint22_linear_20_744" x1="108.607" y1="66.1161" x2="110.169" y2="66.1161" gradientUnits="userSpaceOnUse">
<stop stop-color="#FAFAFA"/>
<stop offset="1" stop-color="#04427C"/>
</linearGradient>
<linearGradient id="paint23_linear_20_744" x1="108.98" y1="77.8315" x2="109.919" y2="77.8315" gradientUnits="userSpaceOnUse">
<stop stop-color="#FAFAFA"/>
<stop offset="1" stop-color="#04427C"/>
</linearGradient>
<linearGradient id="paint24_linear_20_744" x1="18.6608" y1="104.217" x2="21.5226" y2="104.217" gradientUnits="userSpaceOnUse">
<stop stop-color="#FAFAFA"/>
<stop offset="1" stop-color="#04427C"/>
</linearGradient>
<linearGradient id="paint25_linear_20_744" x1="95.9917" y1="35.2074" x2="97.5598" y2="35.2074" gradientUnits="userSpaceOnUse">
<stop stop-color="#FAFAFA"/>
<stop offset="1" stop-color="#04427C"/>
</linearGradient>
</defs>
</svg>
