<svg width="57" height="83" viewBox="0 0 57 83" fill="none" xmlns="http://www.w3.org/2000/svg">
<path d="M26.0489 39.4105C26.0957 39.3034 26.1397 39.1964 26.1821 39.0859C26.1501 39.1092 26.1173 39.1315 26.0849 39.1543C26.0665 39.244 26.0461 39.3317 26.0245 39.4184C26.0325 39.4164 26.0393 39.4125 26.0473 39.4105C26.0473 39.4105 26.0481 39.4105 26.0489 39.4105Z" fill="url(#paint0_linear_20_548)"/>
<path d="M49.4332 54.2778C49.4175 54.2139 49.4021 54.15 49.3859 54.0855C49.3868 54.1376 49.3917 54.1891 49.3917 54.2407C49.4058 54.253 49.4195 54.2649 49.4332 54.2778Z" fill="url(#paint1_linear_20_548)"/>
<path d="M18.9539 51.2921C18.8885 51.2207 18.8256 51.1474 18.7587 51.0775C18.6617 50.9759 18.5659 50.8738 18.4709 50.7712C18.6152 50.9432 18.7667 51.1082 18.9262 51.2663C18.935 51.2752 18.945 51.2836 18.9539 51.2921Z" fill="url(#paint2_linear_20_548)"/>
<path d="M18.9925 25.7057C19.0799 25.6621 19.1673 25.6185 19.2546 25.5749C18.839 22.9811 18.2157 20.3824 17.2169 18.0498C16.9816 17.5007 16.7214 16.9754 16.4296 16.4739C16.222 16.689 15.9795 16.8659 15.7827 17.0086C15.7314 17.0458 15.6785 17.08 15.6252 17.1132C15.9182 17.6157 16.1896 18.1415 16.4357 18.6787C17.0349 19.9879 17.485 21.3735 17.8614 22.8022C18.1127 23.7567 18.3027 24.732 18.4783 25.7117C18.5516 25.7439 18.6258 25.7731 18.7011 25.7825C18.8029 25.7954 18.8991 25.7523 18.9925 25.7057Z" fill="url(#paint3_linear_20_548)"/>
<path d="M16.468 15.5641C16.6436 15.0507 16.6893 14.4575 16.5935 13.9357C16.4804 13.3192 16.2359 12.7617 15.9494 12.2428C15.6676 11.7329 15.3225 11.2517 14.8944 10.9251C14.8671 10.9043 14.8379 10.8835 14.8098 10.8627C14.7212 10.8572 14.6323 10.8508 14.5449 10.8528C13.9849 10.8662 13.5236 11.1278 13.0835 11.5436C12.6486 11.9544 12.2265 12.4599 12.0333 13.1081C11.9724 13.3118 11.9359 13.5348 11.9191 13.7553C11.9199 13.7578 11.9203 13.7602 11.9211 13.7627C11.9251 13.7816 11.9291 13.8019 11.9335 13.8202C12.0217 14.2033 12.2217 14.6017 12.4261 14.909C12.6378 15.2271 12.8899 15.5348 13.1664 15.8015C13.718 16.3669 14.4375 16.8783 15.1533 16.8069C15.2868 16.7182 15.4159 16.6191 15.5385 16.5205C15.8752 16.2499 16.2199 15.9561 16.468 15.5641Z" fill="url(#paint4_linear_20_548)"/>
<path d="M10.6925 10.9167C10.9654 11.1764 11.2356 11.4415 11.4957 11.72C11.6132 11.8459 11.7747 12.0049 11.8961 12.1848C11.9855 12.0223 12.0821 11.8662 12.1891 11.725C12.23 11.6709 12.2761 11.6199 12.319 11.5674C11.6905 11.0436 11.1739 10.2725 10.775 9.49245C10.3169 8.59549 9.94934 7.64054 9.57938 6.68559C9.57216 6.66676 9.59582 6.65635 9.60344 6.67419C9.99865 7.57958 10.4556 8.45474 10.9911 9.24367C11.2568 9.63566 11.5354 10.0168 11.832 10.3731C12.0845 10.6764 12.3591 10.9444 12.6288 11.2215C12.7002 11.1486 12.7719 11.0777 12.8473 11.0104C12.299 10.2066 11.8549 9.2749 11.4757 8.34027C11.1117 7.4438 10.8873 6.51661 10.6796 5.55125C10.5754 5.0656 10.46 4.58144 10.28 4.12899C10.0884 3.64731 9.82829 3.21071 9.55894 2.79147C9.51685 2.72606 9.47477 2.66113 9.43268 2.59621C9.39139 2.55211 9.35251 2.50503 9.31003 2.46242C8.89838 2.05011 8.44946 1.70668 8.01778 1.33006C7.79131 1.13233 7.56485 0.924192 7.35802 0.695738C7.26864 0.597122 7.18767 0.489083 7.1055 0.383033C7.03095 0.250718 6.94838 0.132284 6.85659 0.0376313C6.83174 0.0118622 6.80489 0.0143349 6.78084 0.0262284C6.77683 0.0227594 6.77323 0.0183129 6.76922 0.0153396C6.72152 -0.0238098 6.65459 0.015824 6.6606 0.0906538C6.69347 0.49751 6.91151 0.860264 7.1508 1.17197C7.25061 1.44106 7.33959 1.7166 7.41534 1.99709C7.60093 2.68393 7.72037 3.39406 7.82097 4.10619C7.91877 4.79898 7.98251 5.49724 8.06668 6.19053C8.1252 6.82832 8.23744 7.46164 8.39576 8.07316C8.40618 8.11479 8.41499 8.15642 8.42582 8.19755C8.65749 8.5603 8.89839 8.91363 9.15852 9.25012C9.63149 9.85966 10.1514 10.4023 10.6925 10.9167Z" fill="url(#paint5_linear_20_548)"/>
<path d="M11.1022 5.67613C11.3038 6.64149 11.5699 7.56373 11.9339 8.45524C12.2694 9.27688 12.6786 10.0549 12.9989 10.8855C13.0233 10.8662 13.0462 10.8443 13.071 10.826C12.9856 10.66 12.9231 10.4662 12.8826 10.326C12.786 9.991 12.7552 9.62972 12.7311 9.27738C12.6798 8.52164 12.6842 7.75353 12.4189 7.05281C12.4029 7.01069 12.4562 6.9859 12.473 7.02654C12.7195 7.62766 12.7993 8.29568 12.9191 8.94536C12.9832 9.29324 13.0638 9.63865 13.1784 9.96671C13.2281 10.1089 13.279 10.2546 13.3404 10.3899C13.3708 10.4568 13.4061 10.5198 13.4422 10.5822C13.4538 10.5763 13.4642 10.5673 13.4755 10.5614C13.635 10.4771 13.8009 10.4276 13.9689 10.3929C13.8915 10.0549 13.8378 9.71001 13.8057 9.3537C13.6871 8.03055 13.7901 6.68708 13.554 5.37929C13.3067 4.00807 12.7379 2.85987 11.8028 2.04219C11.3876 1.67894 10.9286 1.32809 10.4593 1.0813C9.96225 0.820138 9.46001 0.596626 8.98183 0.280458C8.87642 0.210584 8.77982 0.39097 8.84395 0.498507C8.87562 0.551532 8.90928 0.602077 8.94175 0.65411C9.10208 1.08624 9.33937 1.47378 9.5478 1.87518C9.65562 2.08282 9.75662 2.29889 9.85562 2.51594C9.93819 2.64479 10.0216 2.77214 10.1013 2.90396C10.353 3.32024 10.5783 3.76377 10.7414 4.24397C10.8986 4.70583 11.0012 5.19147 11.1022 5.67613Z" fill="url(#paint6_linear_20_548)"/>
<path d="M7.32913 10.1203C7.72554 10.5401 8.146 10.8919 8.59492 11.219C9.04985 11.5505 9.51882 11.8414 10.0034 12.1016C10.4792 12.3563 10.9906 12.5709 11.4295 12.9163C11.4752 12.9525 11.5217 12.9951 11.5686 13.0397C11.6067 12.8717 11.656 12.7086 11.7197 12.552C11.5634 12.4232 11.4183 12.2374 11.2921 12.1095C11.0504 11.8647 10.7986 11.6377 10.5501 11.4043C9.68435 10.5906 8.88872 9.69216 8.20732 8.64058C8.1997 8.62868 8.19249 8.6163 8.18487 8.6044C7.57001 8.30954 6.89985 8.19109 6.21644 8.2912C6.01763 8.32044 5.94187 8.64701 6.1014 8.79964C6.53068 9.20997 6.91708 9.68423 7.32913 10.1203Z" fill="url(#paint7_linear_20_548)"/>
<path d="M25.1591 26.7742C25.4501 26.6736 25.7307 26.5016 25.9896 26.3113C26.0141 26.2935 26.0393 26.2741 26.0642 26.2553C26.3868 25.6953 26.5447 24.9584 26.6101 24.2805C26.6618 23.8518 26.6726 23.4143 26.6486 23.0029C26.6253 22.606 26.5483 22.1471 26.3984 21.7943C26.3912 21.7774 26.3828 21.7596 26.3752 21.7422C26.3744 21.7398 26.3736 21.7373 26.3728 21.7348C26.2377 21.5891 26.087 21.4593 25.9291 21.3631C25.4277 21.0584 24.84 21.0519 24.2961 21.1248C23.7454 21.1986 23.2652 21.4018 22.8524 21.8696C22.7878 21.9424 22.7269 22.0227 22.666 22.1025C22.6572 22.1417 22.6475 22.1818 22.6395 22.22C22.5117 22.8216 22.5297 23.4643 22.6099 24.0734C22.6916 24.6933 22.8251 25.3058 23.0868 25.8489C23.2849 26.2603 23.5975 26.6166 23.957 26.8465C24.0424 26.8505 24.1274 26.8569 24.2132 26.8589C24.5282 26.8663 24.8529 26.8797 25.1591 26.7742Z" fill="url(#paint8_linear_20_548)"/>
<path d="M30.9414 42.2307C30.8412 41.8372 30.7266 41.4492 30.5951 41.0761C29.6423 38.3648 28.1417 36.0169 27.1123 33.3532C26.5885 31.9979 26.142 30.6103 25.8466 29.1509C25.7175 28.5131 25.6197 27.8604 25.5519 27.2068C25.4513 27.2524 25.3487 27.2935 25.2421 27.3242C25.0293 27.3857 24.8172 27.4025 24.6064 27.3921C24.6729 28.0577 24.7824 28.7118 24.9299 29.361C25.592 32.2779 26.8073 35.0272 28.1649 37.5283C28.8499 38.79 29.5429 40.0507 30.0736 41.4249C30.2059 41.7679 30.3318 42.1093 30.4436 42.4577C30.547 42.4066 30.6508 42.3561 30.7562 42.3095C30.8175 42.2818 30.8793 42.2565 30.9414 42.2307Z" fill="url(#paint9_linear_20_548)"/>
<path d="M21.9529 11.5317C21.9589 11.6149 21.9645 11.6977 21.9705 11.7809C22.0094 12.3142 22.0643 12.8518 22.1938 13.3643C22.3156 13.8454 22.502 14.2939 22.6972 14.735C23.0852 15.6116 23.4391 16.4744 23.6756 17.4343C23.9217 18.4343 24.1193 19.4884 24.1703 20.5375C24.262 20.5221 24.3538 20.5122 24.446 20.5043C24.4869 20.0737 24.5362 19.6455 24.5502 19.2104C24.5667 18.699 24.5558 18.1856 24.5298 17.6756C24.4777 16.6478 24.3214 15.624 24.1029 14.6314C24.0985 14.6121 24.1213 14.5997 24.1266 14.6195C24.3911 15.6265 24.6573 16.6315 24.8252 17.6722C24.9711 18.5771 25.0268 19.5761 24.8637 20.4909C24.9246 20.4924 24.9859 20.4904 25.046 20.4944C25.2024 20.5053 25.3591 20.536 25.5146 20.5776C25.5022 20.3437 25.5302 20.091 25.5455 19.8997C25.5787 19.476 25.6268 19.0538 25.6797 18.6331C25.7848 17.7995 25.8593 16.963 25.8609 16.1186C25.8621 15.6538 25.8397 15.1924 25.8052 14.732C25.79 14.6929 25.7731 14.6552 25.7575 14.616C25.531 14.0382 25.2593 13.4837 24.9462 12.9718C24.6208 12.3979 24.2777 11.8374 23.9626 11.2522C23.6384 10.6506 23.3289 10.0341 23.0804 9.37845C22.9786 9.11035 22.8896 8.83531 22.8119 8.55532C22.8115 8.12567 22.7674 7.6767 22.5642 7.35459C22.5269 7.29512 22.4559 7.32336 22.4435 7.39224C22.4423 7.39819 22.4423 7.40414 22.4415 7.41009C22.4175 7.42198 22.397 7.4428 22.393 7.48294C22.3794 7.63012 22.3858 7.78572 22.4054 7.94529C22.405 8.09247 22.4062 8.23965 22.3966 8.38733C22.3746 8.72927 22.3261 9.07319 22.2724 9.40918C22.1697 10.0499 22.0359 10.6818 21.9673 11.331C21.9605 11.3974 21.9585 11.4643 21.9529 11.5317Z" fill="url(#paint10_linear_20_548)"/>
<path d="M22.5521 20.1534C22.7277 20.4394 22.8808 20.7352 23.0135 21.0455C23.1545 20.9275 23.3024 20.822 23.4648 20.7466C23.4764 20.7412 23.4888 20.7387 23.5008 20.7332C23.4924 20.6574 23.4828 20.5811 23.4676 20.5073C23.4367 20.3571 23.3922 20.208 23.3489 20.0628C23.2487 19.7273 23.1149 19.4081 22.9674 19.1019C22.692 18.529 22.3773 17.9769 22.221 17.3317C22.2106 17.2881 22.2627 17.2604 22.2747 17.3045C22.4731 18.0389 22.9048 18.5914 23.2888 19.1821C23.4676 19.4577 23.6468 19.7456 23.7638 20.0707C23.8127 20.2065 23.8752 20.4002 23.9061 20.5935C23.9341 20.5861 23.963 20.5821 23.9915 20.5752C23.7606 19.7005 23.6231 18.7877 23.4083 17.9071C23.175 16.9511 22.8535 16.0566 22.4615 15.185C22.2647 14.7479 22.0679 14.3083 21.924 13.8395C21.7745 13.3529 21.6903 12.8395 21.6406 12.3231C21.625 12.16 21.6142 11.996 21.6022 11.8325C21.5529 11.5911 21.5056 11.3483 21.4679 11.106C21.3953 10.6377 21.3512 10.155 21.2266 9.70503C21.221 9.63961 21.2174 9.5742 21.2106 9.50879C21.1969 9.37597 21.0266 9.3279 20.9893 9.46815C20.8194 10.1044 20.5801 10.6947 20.3656 11.3072C20.1632 11.8855 20.0265 12.5312 19.9279 13.1482C19.7063 14.5372 19.9343 15.854 20.5199 17.0582C21.0767 18.2084 21.9008 19.0934 22.5521 20.1534Z" fill="url(#paint11_linear_20_548)"/>
<path d="M26.2115 14.8658C26.3037 16.2083 26.2283 17.5374 26.0548 18.8645C26.0051 19.2456 25.949 19.6247 25.9105 20.0078C25.8904 20.2085 25.8884 20.4662 25.8471 20.6931C25.9806 20.7521 26.1073 20.8284 26.2283 20.9176C26.2371 20.8453 26.2472 20.7749 26.2604 20.7095C26.3858 20.0851 26.6368 19.4939 26.8392 18.9037C27.0456 18.3025 27.2228 17.692 27.3679 17.0641C27.511 16.4447 27.6192 15.8312 27.6725 15.1894C27.7278 14.5224 27.7434 13.8499 27.826 13.1864C27.8569 12.9396 27.6196 12.7676 27.4592 12.9158C26.9085 13.4257 26.4889 14.0823 26.2079 14.8202C26.2087 14.8361 26.2103 14.8509 26.2115 14.8658Z" fill="url(#paint12_linear_20_548)"/>
<path d="M26.8042 62.0705C26.7617 61.7712 26.6983 61.4758 26.6334 61.1835C26.6242 61.1413 26.6138 61.0997 26.6034 61.0576C26.3264 60.6711 25.9556 60.3772 25.57 60.2449C25.0774 60.0754 24.5644 60.0774 24.0589 60.1433C23.5623 60.2077 23.0561 60.3554 22.6204 60.6666C22.5927 60.6864 22.5643 60.7082 22.5358 60.729C22.4897 60.8232 22.4432 60.9168 22.4031 61.0125C22.147 61.6285 22.1145 62.2544 22.2019 62.9308C22.2881 63.5993 22.448 64.2981 22.8176 64.8159C22.9338 64.979 23.0753 65.1242 23.2244 65.2471C23.2264 65.2476 23.2288 65.2481 23.2308 65.2481C23.2465 65.2525 23.2625 65.258 23.2777 65.2619C23.5924 65.3477 23.9708 65.3189 24.2866 65.2421C24.6137 65.1623 24.9524 65.0345 25.2734 64.86C25.9248 64.5345 26.619 64.0097 26.9176 63.2227C26.9116 63.1345 26.9028 63.0468 26.898 62.965C26.8799 62.6657 26.8458 62.3654 26.8042 62.0705Z" fill="url(#paint13_linear_20_548)"/>
<path d="M19.5721 64.1162C19.9773 64.0126 20.3805 63.8907 20.7754 63.7366C21.1108 63.6053 21.4323 63.4338 21.7574 63.2718C21.7393 63.1593 21.7229 63.0478 21.7109 62.9338C20.8788 63.1494 20.0046 63.191 19.1592 63.1603C18.3484 63.131 17.5816 62.9358 16.7956 62.7039C16.4004 62.5869 16.0012 62.4828 15.5935 62.4645C15.1594 62.4447 14.7253 62.5205 14.2993 62.6147C14.2327 62.6295 14.1666 62.6444 14.1005 62.6593C14.0492 62.6835 13.9978 62.7034 13.9469 62.7296C13.4583 62.9819 13.0006 63.3079 12.5272 63.5993C12.2791 63.752 12.0234 63.9001 11.7625 64.0166C11.6498 64.0667 11.5344 64.1038 11.4198 64.143C11.2903 64.1613 11.1668 64.195 11.0558 64.25C11.0258 64.2649 11.0145 64.2951 11.0117 64.3268C11.0073 64.3298 11.0025 64.3313 10.9985 64.3343C10.948 64.3675 10.9444 64.4596 11.0009 64.4884C11.3059 64.6455 11.6679 64.5806 12.0034 64.4676C12.2422 64.4864 12.4803 64.5206 12.7164 64.5711C13.2932 64.695 13.856 64.9022 14.4107 65.1301C14.9502 65.3521 15.4777 65.6143 16.0112 65.8512C16.493 66.09 16.9976 66.2679 17.5078 66.3859C17.5423 66.3943 17.5764 66.4047 17.6109 66.4121C17.9792 66.3324 18.3452 66.2377 18.7075 66.1138C19.3661 65.8893 19.999 65.5806 20.6218 65.2357C20.9361 65.0617 21.2527 64.8937 21.575 64.7421C21.7205 64.6737 21.9101 64.5736 22.0961 64.527C22.0227 64.3526 21.9574 64.1737 21.9077 63.9898C21.8888 63.9195 21.874 63.8456 21.8572 63.7733C21.1862 64.2089 20.3918 64.4056 19.6474 64.4695C18.7917 64.5429 17.9371 64.4894 17.0818 64.4393C17.0649 64.4383 17.0685 64.4076 17.085 64.4076C17.9163 64.4076 18.7564 64.3248 19.5721 64.1162Z" fill="url(#paint14_linear_20_548)"/>
<path d="M18.696 61.4521C19.2407 61.4689 19.7542 61.6989 20.2736 61.8768C20.5518 61.9719 20.836 62.0477 21.1238 62.0795C21.2484 62.0928 21.3767 62.1067 21.5022 62.1037C21.5643 62.1022 21.626 62.0938 21.6873 62.0839C21.6885 62.0686 21.6869 62.0527 21.6881 62.0373C21.7038 61.8237 21.7475 61.6196 21.8024 61.4204C21.5254 61.344 21.2541 61.2395 20.9847 61.1052C19.9863 60.6066 19.0788 59.8573 18.0354 59.4936C16.9416 59.1125 15.8542 59.1864 14.8285 59.8167C14.3731 60.0967 13.905 60.4297 13.5074 60.8232C13.0857 61.24 12.6881 61.681 12.2363 62.0512C12.1365 62.133 12.2191 62.3233 12.3261 62.3044C12.3786 62.295 12.4311 62.2826 12.4832 62.2717C12.8672 62.302 13.2556 62.2276 13.64 62.191C13.8392 62.1721 14.0408 62.1647 14.2425 62.1597C14.3731 62.131 14.5038 62.1008 14.6353 62.0765C15.0509 62.0002 15.4738 61.9655 15.8931 62.0155C16.2967 62.0636 16.6911 62.183 17.0843 62.3024C17.8675 62.5408 18.6503 62.689 19.4576 62.7153C20.2015 62.7395 20.9498 62.6637 21.693 62.7088C21.6905 62.6731 21.6861 62.6379 21.6845 62.6023C21.5258 62.6166 21.3583 62.5929 21.2392 62.5701C20.9546 62.5165 20.6829 62.3783 20.4211 62.2375C19.8588 61.9348 19.3141 61.5656 18.6888 61.5219C18.6511 61.5205 18.6591 61.4511 18.696 61.4521Z" fill="url(#paint15_linear_20_548)"/>
<path d="M20.9014 65.6217C19.9114 66.1783 18.8941 66.6178 17.8223 66.8611C17.8103 66.8636 17.7979 66.8656 17.7858 66.8686C17.284 67.3978 16.882 68.0713 16.6295 68.8622C16.5557 69.0926 16.7525 69.33 16.9369 69.2284C17.4327 68.9554 17.9534 68.7601 18.4592 68.5183C18.9462 68.2859 19.3964 67.995 19.8421 67.6615C20.2938 67.3235 20.7235 66.9513 21.1383 66.5469C21.5456 66.15 21.9408 65.6951 22.3949 65.3814C22.4422 65.3487 22.4947 65.3184 22.5488 65.2887C22.4474 65.1673 22.3548 65.0365 22.2735 64.8928C22.1075 65.0018 21.9067 65.0717 21.7552 65.1485C21.467 65.2956 21.1856 65.4622 20.9014 65.6217Z" fill="url(#paint16_linear_20_548)"/>
<path d="M48.9494 28.2782C48.2219 26.9149 46.5469 26.5076 45.4558 27.4288C45.6462 26.0576 44.7103 24.6695 43.5956 24.4797C42.4809 24.2894 41.3478 25.169 40.854 26.4188C40.5963 27.071 40.5013 27.7985 40.5357 28.5235C39.8267 26.79 38.2831 25.5442 36.6983 25.6834C36.4297 24.8018 35.5868 24.2562 34.8481 24.4857C34.1093 24.7151 33.5751 25.6889 33.6757 26.6225C32.9045 25.2107 31.393 24.4862 30.0534 24.8871C28.7139 25.288 27.6377 26.787 27.4745 28.4784C27.311 30.1702 28.0718 31.9404 29.2975 32.7199C28.574 33.3825 28.6806 34.8409 29.251 35.7022C29.821 36.5635 30.6947 37.0021 31.5004 37.4976C32.1814 37.9164 32.8335 38.404 33.4572 38.9427C33.5193 38.1349 33.7979 37.3965 34.2248 36.7751C34.4925 36.3856 34.8148 36.0501 35.1459 35.7458C35.4693 35.4485 35.8253 35.1734 36.2069 35.0059C36.6558 34.8092 37.1368 34.7948 37.6005 34.9019C37.5909 34.8875 37.5817 34.8726 37.5721 34.8587C37.4711 34.7121 37.3648 34.5718 37.2546 34.4355C37.0454 34.1769 36.8422 33.9157 36.6153 33.6798C36.1435 33.1902 35.6004 32.7937 35.0148 32.5554C34.9671 32.5361 34.998 32.4503 35.0449 32.4672C35.6601 32.6897 36.2506 32.9761 36.8053 33.3765C37.035 33.542 37.2618 33.7234 37.4666 33.9345C37.4137 33.8562 37.3628 33.7749 37.3083 33.6986C37.0193 33.2952 36.7159 32.8998 36.3916 32.5395C35.7191 31.7917 34.9415 31.2025 34.1086 30.7704C34.0765 30.7535 34.0969 30.6955 34.1294 30.7094C35.0008 31.0737 35.8197 31.6004 36.576 32.2457C36.96 32.5732 37.3155 32.9315 37.6418 33.3443C37.8009 33.5455 37.9556 33.7527 38.0979 33.9717C38.1913 34.1149 38.3196 34.2834 38.409 34.4598C38.4631 34.379 38.5208 34.3042 38.5801 34.2309C38.5789 34.2299 38.5781 34.2294 38.5773 34.2284C38.5765 34.2299 38.5753 34.2314 38.5745 34.2328C38.4483 34.1332 38.3769 33.9553 38.2915 33.8077C38.2114 33.6684 38.1284 33.5306 38.043 33.3958C37.8791 33.1367 37.7051 32.8864 37.5248 32.6441C36.1984 30.8591 34.4473 29.582 32.5121 29.1558C32.4632 29.1449 32.4736 29.0542 32.5229 29.0612C33.0897 29.1405 33.6496 29.2792 34.1959 29.4834C35.1675 29.8471 36.1219 30.3754 36.9332 31.1386C37.3364 31.5177 37.7039 31.9533 38.043 32.4181C38.2154 32.6545 38.3749 32.9053 38.526 33.1624C38.6527 33.378 38.8306 33.6372 38.8888 33.9063C39.0659 33.7531 39.2659 33.6302 39.4756 33.5495C39.4647 33.5287 39.4527 33.5098 39.4459 33.4821C39.2511 32.7219 39.0242 31.9424 38.7168 31.2392C38.3937 30.5003 37.9657 29.8288 37.4594 29.2688C37.4318 29.2381 37.4658 29.1831 37.4951 29.2118C38.5481 30.2599 39.4956 31.645 39.8415 33.2898C39.8547 33.3522 39.8471 33.4077 39.8319 33.4578C40.1281 33.4181 40.4279 33.4682 40.6981 33.653C40.8572 33.7621 41.0111 33.9226 41.1963 33.9548C41.369 33.9846 41.5342 33.8904 41.6893 33.8097C41.7739 33.7655 41.8581 33.7294 41.9426 33.6981C41.915 33.6045 41.9182 33.488 41.9198 33.3736C41.9222 33.1619 41.9314 32.9503 41.9398 32.7392C41.9559 32.3195 41.9939 31.8948 42.0464 31.4795C42.1507 30.6499 42.3242 29.8407 42.5699 29.0582C42.5791 29.029 42.6132 29.0478 42.6056 29.077C42.4012 29.8377 42.3378 30.643 42.3166 31.4409C42.3062 31.8378 42.3098 32.2338 42.3042 32.6302C42.3014 32.8319 42.2977 33.0341 42.2961 33.2358C42.2949 33.3631 42.2905 33.4895 42.2761 33.6144C42.3459 33.605 42.4172 33.6015 42.4894 33.603C42.4749 33.3864 42.4877 33.1595 42.4926 32.9444C42.4978 32.712 42.5286 32.4786 42.5615 32.2501C42.6268 31.7947 42.7278 31.3398 42.8826 30.9175C42.8982 30.8749 42.9483 30.9022 42.9359 30.9453C42.8112 31.3779 42.7683 31.8289 42.7699 32.2863C42.7707 32.5133 42.786 32.7392 42.7876 32.9657C42.7892 33.1823 42.7832 33.4072 42.8004 33.6228C42.8008 33.6293 42.7988 33.6342 42.7988 33.6407C43.0228 33.6977 43.2373 33.8101 43.4261 33.9697C43.7042 34.2046 43.8862 34.6823 44.2369 34.7517C44.4153 34.7869 44.5993 34.7522 44.7788 34.7497C44.9372 34.7472 45.0959 34.7527 45.2538 34.771C45.2618 34.772 45.2699 34.774 45.2775 34.775C45.3079 34.6303 45.352 34.4871 45.3881 34.3463C45.4274 34.1927 45.4723 34.0401 45.5055 33.884C45.5765 33.551 45.6134 33.2189 45.6182 32.8745C45.619 32.8081 45.7095 32.8106 45.712 32.876C45.724 33.2224 45.7296 33.5713 45.7256 33.9177C45.7236 34.0931 45.7244 34.268 45.708 34.4425C45.6955 34.5763 45.6831 34.7205 45.6554 34.8558C45.8542 34.9147 46.0474 34.9995 46.2242 35.1254C46.2903 35.1724 46.3505 35.2255 46.4074 35.282C46.437 35.1026 46.518 34.9256 46.5838 34.7676C46.6651 34.5718 46.7525 34.3776 46.8471 34.1912C47.0291 33.8329 47.2551 33.5049 47.4868 33.1946C47.9614 32.5593 48.4881 32.0048 49.0769 31.537C49.0989 31.5196 49.1226 31.5578 49.1013 31.5776C48.5578 32.0811 48.0696 32.6912 47.6812 33.381C47.4864 33.7264 47.3249 34.0931 47.1585 34.4598C47.0744 34.6452 46.9962 34.8335 46.9216 35.0248C46.8599 35.1824 46.8094 35.3672 46.7192 35.505C46.7192 35.5074 46.7192 35.5104 46.7196 35.5129C46.7208 35.5466 46.722 35.5808 46.7232 35.6145C46.7244 35.6452 46.7204 35.6754 46.7168 35.7057C46.7405 35.7508 46.7613 35.7993 46.7826 35.8469C46.8419 35.6749 46.9212 35.5079 46.9986 35.3627C47.1188 35.1372 47.2471 34.9252 47.3942 34.7254C47.6876 34.327 48.0027 33.9593 48.3526 33.6367C48.3826 33.6089 48.4163 33.6649 48.3875 33.6942C48.0604 34.0232 47.7738 34.4236 47.5686 34.8815C47.4748 35.0912 47.3886 35.3107 47.3152 35.5327C47.2752 35.6531 47.2371 35.775 47.1982 35.896C47.1601 36.0159 47.1353 36.1487 47.0856 36.2617C47.0715 36.2934 47.0527 36.3182 47.0319 36.339C47.0876 36.397 47.1545 36.4411 47.2527 36.4664C47.399 36.504 47.5449 36.5313 47.6852 36.5992C47.9782 36.7404 48.2387 36.9981 48.4171 37.3177C48.5113 37.4862 48.5875 37.674 48.6335 37.8713C48.678 38.0616 48.682 38.2633 48.7285 38.4521C48.8324 38.8723 49.2584 39.015 49.45 39.3664C49.4917 39.4432 49.5218 39.5245 49.5458 39.6077C49.6112 39.571 49.6841 39.5547 49.7546 39.5354C49.8456 39.5101 49.9378 39.4908 50.0296 39.4704C50.2056 39.4308 50.3839 39.408 50.5619 39.3842C50.9206 39.3361 51.2866 39.3094 51.6473 39.3133C51.6822 39.3138 51.6906 39.3778 51.6537 39.3817C51.2842 39.4253 50.9391 39.5502 50.588 39.6939C50.412 39.7658 50.238 39.8431 50.0597 39.9055C49.9158 39.9561 49.7603 40.0275 49.6088 40.0225C49.6108 40.0721 49.6108 40.1221 49.6104 40.1722C49.733 40.1172 49.8713 40.0944 49.9967 40.0631C50.1475 40.0255 50.3034 39.9883 50.4569 39.971C50.7483 39.9383 51.0481 39.9383 51.3403 39.9358C51.9335 39.9303 52.5283 39.9804 53.1164 40.076C53.144 40.0805 53.1376 40.1305 53.1103 40.1285C52.5179 40.0844 51.9279 40.1137 51.3399 40.2113C51.0457 40.2599 50.7623 40.3456 50.4721 40.4175C50.3366 40.4507 50.2 40.4809 50.0645 40.5136C49.9242 40.5473 49.7755 40.6107 49.6328 40.6152C49.6164 40.6157 49.6023 40.6112 49.5879 40.6078C49.5683 40.8387 49.5506 41.0721 49.5943 41.2956C49.6713 41.6886 49.9887 41.9165 50.0445 42.3313C50.0785 42.5831 50.0364 42.8224 49.9519 43.0459C50.016 43.0539 50.0789 43.0662 50.1366 43.0737C50.3354 43.0999 50.5379 43.0568 50.7379 43.0652C51.1347 43.0821 51.5227 43.2218 51.9019 43.3571C51.9267 43.3661 51.9143 43.4156 51.8898 43.4102C51.5183 43.3294 51.1427 43.258 50.7647 43.3021C50.5711 43.3249 50.3848 43.3978 50.1916 43.4211C50.1106 43.431 50.0288 43.432 49.9475 43.4414C49.9158 43.4448 49.8801 43.4448 49.8488 43.4538C49.8152 43.4637 49.7847 43.4795 49.753 43.4924C49.7406 43.4989 49.7286 43.5038 49.7158 43.5058C49.7142 43.5063 49.713 43.5073 49.7114 43.5073L49.7118 43.5058H49.7106C49.6713 43.5648 49.6308 43.6223 49.5887 43.6778C49.634 43.6753 49.6789 43.6768 49.7202 43.6763C49.8537 43.6758 49.9883 43.6743 50.1218 43.6827C50.6761 43.7169 51.2365 43.8279 51.7828 43.9478C52.3223 44.0663 52.855 44.2303 53.3817 44.4181C53.4262 44.434 53.4045 44.5276 53.3601 44.5148C52.7424 44.3304 52.1127 44.2189 51.4794 44.1604C50.9251 44.1094 50.3707 44.1456 49.816 44.1679C49.7563 44.1703 49.6853 44.1803 49.6156 44.1822C49.719 44.5108 49.6961 44.9063 49.5671 45.2368C49.3462 45.8037 48.9362 46.2274 48.6748 46.7671C48.5722 46.9782 48.4688 47.1873 48.3514 47.3786C48.5859 47.9995 48.7931 48.6438 48.9478 49.2979C49.0532 49.7439 49.1694 50.1775 49.3089 50.5993C49.6705 50.8064 50.0505 50.9561 50.4553 51.023C51.4838 51.1925 52.5668 50.7524 53.3128 49.8614C54.0591 48.9704 54.4527 47.6477 54.3513 46.3711C55.084 46.1352 55.6552 45.2764 55.7017 44.3423C55.7481 43.4082 55.2656 42.4696 54.5621 42.1247C55.6956 41.8704 56.3221 40.1013 55.9077 38.7722C55.4932 37.4431 54.3052 36.6527 53.1536 36.618C52.7905 36.6071 52.4321 36.6646 52.0802 36.7657C53.053 35.7072 53.6482 34.0921 53.4871 32.4934C53.2246 29.9036 51.0341 27.8679 48.9494 28.2782Z" fill="url(#paint17_linear_20_548)"/>
<path d="M38.8657 51.8114C38.9863 51.2846 39.1743 50.7791 39.2601 50.2405C39.2973 50.0071 39.3114 49.7727 39.2853 49.5363C39.2717 49.4144 39.2376 49.2934 39.2192 49.1725C39.103 49.1785 38.9879 49.181 38.8777 49.18C38.8665 49.18 38.8552 49.1785 38.844 49.1785C38.6757 50.4788 38.1209 51.7544 37.7947 53.0265C37.5582 53.9493 37.4119 54.9562 37.6083 55.9112C37.8452 57.0624 38.5177 57.9385 39.1667 58.7686C39.3262 58.9728 39.6204 58.8137 39.535 58.5149C38.8949 56.269 39.9158 54.0375 40.1908 51.8367C40.3086 50.8916 40.299 49.9293 40.0846 49.0174C39.9094 49.0799 39.7258 49.12 39.5414 49.1438C39.6196 49.4486 39.5699 49.8797 39.537 50.1161C39.4637 50.6419 39.2789 51.126 39.1258 51.6206C38.7999 52.6742 38.6649 53.8169 38.5626 54.9329C38.5602 54.9602 38.527 54.9537 38.5286 54.927C38.5931 53.8784 38.6324 52.8308 38.8657 51.8114Z" fill="url(#paint18_linear_20_548)"/>
<path d="M31.7777 46.7636C31.9977 46.8067 32.2178 46.8439 32.4366 46.8954C32.5621 46.8979 32.6879 46.8954 32.8154 46.8821C33.498 46.8107 34.1213 46.4901 34.6904 46.0337C34.5962 45.7135 34.5313 45.379 34.496 45.0425C34.4924 45.0098 34.4912 44.9766 34.4884 44.9434C34.391 44.9335 34.3104 44.882 34.2062 44.8186C34.074 44.7378 33.9393 44.6664 33.7994 44.6094C33.7874 44.6045 33.7745 44.602 33.7621 44.597C33.6331 44.6015 33.5104 44.6248 33.3846 44.6624C33.0683 44.7581 32.7917 44.9746 32.5444 45.2304C32.5232 45.2522 32.4911 45.212 32.51 45.1872C32.7356 44.8944 32.9969 44.6104 33.304 44.4558C33.1873 44.4285 33.0707 44.4033 32.9541 44.3904C32.4242 44.3324 31.8879 44.4048 31.3624 44.5197C31.358 44.4672 31.352 44.4152 31.3464 44.3631C31.8971 44.1897 32.4526 44.037 33.0246 44.0395C33.3481 44.041 33.6551 44.0757 33.9661 44.1902C34.1209 44.2472 34.2744 44.317 34.4167 44.4117C34.4351 44.4241 34.4499 44.4365 34.4664 44.4489C34.4668 44.1971 34.484 43.9449 34.5273 43.703C34.5545 43.5514 34.5946 43.4047 34.6399 43.2605C33.7701 42.7962 32.8575 42.4998 31.8706 42.5895C31.8089 42.595 31.7484 42.6074 31.6875 42.6163C31.6253 42.6455 31.5636 42.6728 31.5039 42.699C31.2686 42.8016 31.0281 42.8809 30.7876 42.9622C30.6614 43.0048 30.5343 43.0425 30.4068 43.0801C30.0545 43.2818 29.7174 43.5311 29.3968 43.8135C28.7298 44.4008 28.1017 45.1099 27.7794 46.0609C27.6929 46.3166 27.9474 46.5743 28.129 46.3984C28.8364 45.7135 29.8216 46.1283 30.576 46.439C30.7471 46.5099 30.9195 46.5758 31.0926 46.6348C31.3215 46.6695 31.5488 46.7185 31.7777 46.7636Z" fill="url(#paint19_linear_20_548)"/>
<path d="M39.5854 46.7988C39.4455 46.4906 39.3328 46.1992 39.0827 46.0059C39.0495 45.9801 39.0134 45.9613 38.9789 45.938C38.9212 45.9083 38.8667 45.8731 38.8154 45.831C38.7108 45.7695 38.6057 45.7101 38.5039 45.6422C38.1059 45.3765 37.7777 45.0029 37.4406 44.6367C37.0858 44.2516 36.705 43.9062 36.2605 43.6991C35.8329 43.5004 35.402 43.374 35.0088 43.0747C34.9807 43.0534 34.9551 43.0276 34.9278 43.0048C34.7979 43.657 34.7763 44.3745 34.8504 45.0222C34.8797 45.2799 34.9306 45.5321 34.9967 45.7779C35.0015 45.774 35.006 45.77 35.0108 45.7661C35.016 45.7809 35.0192 45.7963 35.0244 45.8112C35.1984 46.2983 35.4453 46.7002 35.7495 47.0238C35.9198 47.332 36.1207 47.612 36.3439 47.8618C36.6962 48.0779 37.0542 48.2736 37.4325 48.4143C37.8843 48.5823 38.3588 48.6701 38.8306 48.672C39.0543 48.673 39.2783 48.6547 39.5004 48.619C39.7601 48.5774 39.9978 48.4882 40.2451 48.3965C40.0483 47.8459 39.8246 47.3261 39.5854 46.7988Z" fill="url(#paint20_linear_20_548)"/>
<path d="M47.8258 47.2597C48.104 48.01 48.2996 48.8148 48.6082 49.5467C48.8191 50.0467 49.0159 50.5572 49.2255 51.0587C49.2399 51.1256 49.2544 51.193 49.2692 51.2599C49.5422 52.5047 49.8043 53.754 50.1025 54.99C50.1662 55.2546 49.9278 55.5336 49.731 55.3339C48.2675 53.8502 46.5945 52.813 44.8149 52.0419C44.0966 51.7306 43.3903 51.3818 42.7362 50.8971C42.1738 50.4803 41.7121 49.9471 41.2596 49.3847C41.0972 49.1052 40.9521 48.8098 40.8367 48.4872C40.7962 48.3742 40.7561 48.2622 40.7161 48.1502C41.0131 48.347 41.3385 48.4926 41.6704 48.5635C42.4404 48.728 43.2244 48.7498 44.0036 48.7766C44.0633 48.7786 44.0786 48.6661 44.0172 48.6611C43.2905 48.6046 42.5174 48.559 41.8364 48.2112C41.5317 48.0556 41.2295 47.891 40.9461 47.6814C40.8018 47.5749 40.6664 47.4505 40.5261 47.336C40.4736 47.2934 40.4182 47.2602 40.3633 47.2265C40.304 47.0867 40.2419 46.948 40.1749 46.8107C40.0551 46.5659 39.9357 46.3186 39.7789 46.107C39.92 46.1055 40.0607 46.0912 40.2002 46.0703C40.8295 45.9752 41.4391 45.7542 42.0488 45.5475C42.0708 45.5401 42.0616 45.4925 42.0392 45.499C41.4472 45.66 40.8347 45.8176 40.225 45.7606C39.9617 45.7358 39.7008 45.6734 39.4439 45.5976C39.2627 45.5446 39.0855 45.4687 38.9031 45.4326C38.7893 45.3721 38.6763 45.3092 38.5693 45.2299C38.3761 45.0871 38.2037 44.9003 38.0398 44.7105C37.7163 44.3364 37.4437 43.875 37.095 43.5375C37.0754 43.5187 37.0533 43.5023 37.0333 43.4835C36.9519 43.315 36.8638 43.15 36.7964 42.9805C36.6501 42.6123 36.5243 42.2084 36.4521 41.807C36.3106 41.0211 36.3864 40.2093 36.5375 39.4353C36.5467 39.3877 36.4814 39.3644 36.4697 39.412C36.2701 40.2376 36.1479 41.0905 36.1739 41.9542C36.1852 42.3234 36.2449 42.6876 36.3559 43.0301C36.2369 42.9785 36.1178 42.9275 35.9972 42.8814C35.9322 42.7858 35.8649 42.6926 35.8004 42.5965C35.6456 42.367 35.5086 42.1267 35.4088 41.8536C35.212 41.3159 35.1526 40.7371 35.1843 40.1518C35.1879 40.0845 35.1073 40.0681 35.0993 40.137C35.0268 40.745 35.0276 41.3789 35.1607 41.974C35.2027 42.1618 35.2613 42.3492 35.3342 42.5261C35.1715 42.4057 35.0184 42.2654 34.8741 42.1059C34.6885 41.9012 34.5189 41.6589 34.369 41.3952C34.1907 40.8907 34.0448 40.3615 33.9273 39.8208C33.9253 39.7385 33.9221 39.6563 33.9205 39.574C33.9081 38.85 33.965 38.0244 34.2616 37.3846C34.454 36.9699 34.7322 36.6274 35.0292 36.3256C35.3474 36.0025 35.6902 35.6735 36.0818 35.5005C36.6297 35.2587 37.2574 35.2835 37.8093 35.4906C38.2049 35.6393 38.5973 35.8459 38.954 36.1185C39.0258 36.1864 39.0979 36.2538 39.1681 36.3241C39.5565 36.7131 39.8711 37.1393 40.1405 37.6617C40.2808 37.9342 40.4351 38.1993 40.5545 38.4873C40.6736 38.7747 40.7598 39.0725 40.8395 39.3803C40.872 39.5047 40.8776 39.6518 40.9165 39.7698C40.9569 39.8932 41.0868 39.9402 41.1766 39.9893C41.4047 40.1142 41.64 40.2173 41.8708 40.3332C42.331 40.5642 42.7999 40.7718 43.2368 41.0672C43.6513 41.3471 44.0465 41.7461 44.3435 42.2005C44.487 42.4195 44.6145 42.6549 44.7002 42.9166C44.7952 43.207 44.8169 43.5613 45.051 43.7377C45.1223 43.7913 45.2029 43.8289 45.285 43.8626C45.839 44.1381 46.3544 44.658 46.7585 45.1932C47.2102 45.7963 47.5505 46.5168 47.8258 47.2597ZM49.3883 54.0856C49.3891 54.1376 49.3939 54.1891 49.3939 54.2407C49.4071 54.2531 49.4207 54.2649 49.4339 54.2773C49.4183 54.2134 49.4035 54.1495 49.3883 54.0856Z" fill="url(#paint21_linear_20_548)"/>
<path d="M46.3299 35.7547C46.123 35.4743 45.8204 35.3216 45.5262 35.2418C45.212 35.1571 44.8953 35.1353 44.5747 35.1432C44.2496 35.1512 43.971 35.1046 43.7313 34.8092C43.5057 34.5312 43.3421 34.2314 43.0443 34.0584C42.7661 33.8969 42.4535 33.8409 42.1509 33.9123C41.8563 33.9816 41.5982 34.22 41.2947 34.2408C40.9757 34.2626 40.7508 33.9871 40.4726 33.8483C39.9404 33.5822 39.3295 33.8686 38.9207 34.3146C38.6878 34.5689 38.5182 34.8721 38.3695 35.1923C38.4761 35.2433 38.576 35.3097 38.683 35.3821C38.8613 35.5025 39.0381 35.6209 39.2105 35.7538C39.56 36.0238 39.8666 36.3465 40.1319 36.7379C40.3997 37.1334 40.6097 37.566 40.7508 38.0522C40.8234 38.3024 40.8939 38.5552 40.9737 38.802C41.0474 39.0304 41.0967 39.2931 41.1881 39.5136C41.3761 39.5602 41.5629 39.6395 41.7416 39.7173C41.9481 39.8065 42.1529 39.8976 42.3525 40.0091C42.7361 40.2227 43.1016 40.475 43.4492 40.7688C44.0897 41.311 44.6208 41.9537 45.018 42.7843C45.1062 42.9681 45.1627 43.2526 45.333 43.3344C45.4785 43.4042 45.6292 43.4439 45.7687 43.5346C46.0729 43.7323 46.3239 44.0103 46.5639 44.3101C46.6417 44.4073 46.7159 44.5069 46.7912 44.606C46.8838 44.7016 46.9748 44.8022 47.0626 44.9132C47.2566 45.1585 47.4265 45.4261 47.5852 45.7041C47.7315 45.9029 47.8758 46.1036 47.9969 46.3261C48.0887 46.4946 48.1801 46.6774 48.2486 46.8657C48.3163 46.7314 48.3809 46.5942 48.4474 46.4599C48.5925 46.169 48.7665 45.9147 48.9436 45.6541C49.112 45.4068 49.2932 45.1357 49.3396 44.8087C49.3781 44.5401 49.3428 44.1966 49.13 44.0519C49.0158 43.9741 48.9961 43.8091 49.0951 43.7001C49.3136 43.4597 49.536 43.1817 49.6539 42.8447C49.7028 42.7055 49.7336 42.5543 49.7132 42.4022C49.6819 42.1708 49.5368 42.0157 49.4318 41.8328C49.2547 41.5236 49.2206 41.1792 49.2358 40.8095C49.2499 40.4789 49.32 40.1172 49.2394 39.7926C49.1452 39.414 48.8025 39.2633 48.5965 38.9937C48.3616 38.686 48.3933 38.3123 48.2875 37.9387C48.1893 37.5923 47.9901 37.292 47.7347 37.1037C47.4686 36.9069 47.1451 36.9421 46.8822 36.7518C46.58 36.5313 46.5547 36.059 46.3299 35.7547Z" fill="url(#paint22_linear_20_548)"/>
<path d="M24.3965 40.3862C24.4109 40.3684 24.3869 40.3382 24.3712 40.3545C23.9427 40.807 23.3832 40.9244 22.8409 41.0126C22.295 41.1013 21.7478 41.1578 21.1979 41.186C20.6849 41.2123 20.1429 41.1529 19.6391 41.2896C19.4094 41.3521 19.1806 41.4576 19.007 41.6608C18.9894 41.6816 18.9721 41.7039 18.9557 41.7267C18.8042 41.5067 18.6258 41.2946 18.429 41.139C18.9621 40.2846 19.7093 39.6156 20.4776 39.3222C21.4945 38.9342 22.4761 39.1865 23.5115 39.2311C24.6241 39.2791 25.6306 38.7756 26.5389 38.0194C26.7786 37.8202 27.0343 38.1656 26.8832 38.452C26.6174 38.9565 26.4587 39.5532 26.213 40.077C25.9793 40.5745 25.7204 41.0517 25.3861 41.4551C24.7989 42.1643 24.083 42.4537 23.3215 42.6782C22.4425 43.0618 21.5069 43.2139 20.5766 43.2704C20.4135 43.3061 20.2504 43.3403 20.0888 43.3854C19.963 43.4205 19.8455 43.4656 19.7353 43.5192C19.6383 43.0211 19.4315 42.5374 19.2158 42.1489C19.2363 42.1127 19.2607 42.085 19.306 42.0409C19.395 41.9532 19.4944 41.8957 19.6014 41.8496C19.8191 41.7564 20.0528 41.7386 20.28 41.7118C20.7819 41.6534 21.2805 41.5855 21.7779 41.4819C22.2497 41.3843 22.7222 41.2807 23.1864 41.137C23.6321 40.9992 24.0662 40.7936 24.3965 40.3862ZM26.0246 39.4179C26.0326 39.4159 26.0394 39.4119 26.0475 39.41C26.0483 39.41 26.0495 39.4104 26.0495 39.4104C26.0964 39.3034 26.1404 39.1964 26.1829 39.0859C26.1509 39.1091 26.118 39.1314 26.0855 39.1542C26.0667 39.2434 26.0463 39.3312 26.0246 39.4179Z" fill="url(#paint23_linear_20_548)"/>
<path d="M15.0103 45.1476C15.0071 45.1465 15.0039 45.1448 15.0012 45.1436C15.0031 45.147 15.0051 45.1505 15.0067 45.1539C15.0075 45.1516 15.0087 45.1493 15.0103 45.1476Z" fill="url(#paint24_linear_20_548)"/>
<path d="M16.6554 49.3956C16.8097 49.9843 17.0586 50.5373 17.3901 51.0022C18.0907 51.9854 18.9557 52.7168 19.8067 53.482C19.8335 53.5058 19.8644 53.4567 19.8383 53.4314C19.0235 52.6499 18.2062 51.801 17.6627 50.7024C17.4057 50.183 17.1741 49.6339 17.0454 49.0437C16.9873 48.7771 16.9512 48.4986 16.8678 48.2419C16.8434 48.1676 16.8133 48.0868 16.7768 48.0085C16.8253 48.009 16.8734 48.0095 16.9211 48.012C17.1372 48.0239 17.3532 48.0541 17.5685 48.0917C17.6583 48.4223 17.7841 48.7409 17.9661 49.0576C18.4443 49.8901 19.0479 50.5765 19.6271 51.2965C20.7394 52.6797 21.6629 54.2421 22.3395 56.0078C22.4517 56.3007 22.1194 56.4643 21.9683 56.2636C21.224 55.2734 20.2804 54.9359 19.3 54.4508C18.4391 54.0251 17.6939 53.3358 17.0867 52.472C16.5023 51.6405 16.0337 50.5988 15.8722 49.5076C15.8133 49.1091 15.7884 48.6616 15.8149 48.2196C15.9103 48.1755 16.0061 48.1309 16.1035 48.0987C16.1937 48.0689 16.2874 48.0501 16.3816 48.0353C16.4077 48.1963 16.4466 48.3579 16.4742 48.51C16.5283 48.8063 16.5796 49.1062 16.6554 49.3956ZM18.4711 50.7712C18.6154 50.9432 18.7669 51.1082 18.9265 51.2663C18.9353 51.2752 18.9453 51.2837 18.9541 51.2921C18.8888 51.2207 18.8259 51.1474 18.7589 51.0775C18.6615 50.9759 18.5657 50.8738 18.4711 50.7712Z" fill="url(#paint25_linear_20_548)"/>
<path d="M14.2201 36.6631C14.3744 37.6071 14.5408 38.5418 14.8522 39.4293C14.9344 39.6632 15.027 39.8927 15.1308 40.1137C15.1228 40.082 15.114 40.0503 15.1063 40.018C14.8145 38.8004 14.7512 37.5328 14.96 36.287C15.1621 35.0823 15.5268 33.9301 16.0699 32.8973C16.086 32.8666 16.12 32.9013 16.1056 32.9315C15.8246 33.5098 15.6114 34.1288 15.4595 34.776C15.1985 35.89 15.1773 37.0917 15.2887 38.238C15.3432 38.7994 15.4274 39.357 15.5661 39.8966C15.6467 40.2098 15.7372 40.522 15.8535 40.8179C15.8751 40.8729 15.8988 40.9328 15.9224 40.9923C15.8511 40.7257 15.8226 40.4284 15.8062 40.1895C15.7693 39.6558 15.8198 39.129 15.9288 38.6116C16.1445 37.5893 16.5774 36.6428 17.0608 35.779C17.08 35.7448 17.1185 35.784 17.1017 35.8182C16.6792 36.6621 16.3705 37.5908 16.2563 38.577C16.2014 39.0512 16.1914 39.5294 16.2287 40.0071C16.2463 40.2351 16.2764 40.4645 16.3216 40.6866C16.3561 40.855 16.4122 41.0126 16.4627 41.1732C16.7024 40.9537 16.9794 40.7936 17.2688 40.693C17.4945 40.3719 17.7546 40.0849 18.0271 39.8496C19.0645 38.9551 20.3303 38.5378 21.3251 37.5635C22.0722 36.8321 22.7031 35.776 22.7115 34.5545C22.716 33.9177 22.532 33.326 22.3817 32.7268C22.1969 31.9894 22.225 31.3779 22.4206 30.6505C22.5761 30.0711 22.7476 29.4898 22.7192 28.8694C22.6931 28.3054 22.4851 27.7688 22.1785 27.356C21.4907 26.4297 20.5106 26.1582 19.5322 26.2786C19.4753 26.2855 19.4192 26.2925 19.3631 26.2994C19.3611 26.2845 19.3587 26.2697 19.3563 26.2548C19.2597 26.3004 19.1623 26.343 19.0629 26.3742C18.8592 26.4387 18.6809 26.4193 18.5061 26.3485C18.2452 26.3336 17.9859 26.2806 17.7217 26.1507C17.2131 25.901 16.7409 25.5402 16.1934 25.4272C15.2386 25.2305 14.2406 25.7117 13.5604 26.5373C12.709 27.5705 12.3796 29.0726 12.4052 30.5142C12.41 30.7793 12.4317 31.0395 12.4629 31.2972C12.4818 31.3264 12.503 31.3527 12.5218 31.3824C13.497 32.9246 13.9115 34.778 14.2201 36.6631Z" fill="url(#paint26_linear_20_548)"/>
<path d="M16.1725 41.4928C16.1567 41.4765 16.1397 41.4626 16.1252 41.4442C16.1372 41.466 16.1476 41.4893 16.16 41.5102C16.1646 41.5047 16.1679 41.4983 16.1725 41.4928Z" fill="url(#paint27_linear_20_548)"/>
<path d="M4.5936 46.4891C6.42937 46.4509 8.12485 45.4345 9.88446 44.9152C11.4192 44.4622 13.1776 44.4508 14.5091 45.6362C14.5328 45.657 14.5496 45.6813 14.5616 45.7066C14.6001 45.6536 14.6398 45.6025 14.6803 45.5525L14.6791 45.552C14.3749 45.2641 14.0891 44.9652 13.7688 44.7016C13.4562 44.4444 13.1295 44.2164 12.7884 44.0222C12.0938 43.6267 11.3599 43.3552 10.6256 43.097C10.5995 43.0881 10.6124 43.035 10.638 43.0415C11.4152 43.2352 12.196 43.427 12.9531 43.7224C13.6734 44.0033 14.4386 44.3924 14.9657 45.0906C14.9657 45.0906 14.9669 45.0911 14.9673 45.0921C14.9681 45.0931 14.9685 45.0941 14.9693 45.0951C14.9825 45.1124 14.9973 45.1278 15.0102 45.1461C15.0471 45.0961 15.0839 45.046 15.118 44.9915C15.2262 44.8161 15.314 44.6347 15.3877 44.4474C14.6663 44.4528 14.0077 44.042 13.4313 43.5256C12.8233 42.981 12.3114 42.2952 11.7523 41.6807C11.2228 41.0989 10.6693 40.5503 10.0845 40.0557C8.91527 39.0671 7.61179 38.3103 6.26703 37.7677C6.24298 37.7578 6.25862 37.7157 6.28187 37.7236C7.03221 37.9843 7.76652 38.3113 8.47797 38.7053C9.72774 39.3981 10.9378 40.2742 12.006 41.3362C12.5808 41.9071 13.1095 42.5504 13.7079 43.0846C14.2053 43.5286 14.7697 43.8433 15.3709 43.9939C15.393 43.986 15.4166 43.9835 15.4423 43.9949C15.4707 44.0053 15.4976 44.0207 15.524 44.0371C15.5461 43.9548 15.5653 43.871 15.5822 43.7863C15.2006 43.703 14.8025 43.4657 14.4671 43.2342C14.1324 43.0033 13.8221 42.7248 13.5267 42.423C12.9255 41.809 12.3952 41.078 11.9755 40.2653C11.9659 40.247 11.9872 40.2267 11.998 40.2445C12.4477 41.0121 12.998 41.6663 13.643 42.1792C13.9672 42.4369 14.3139 42.6435 14.6659 42.8368C14.8346 42.929 15.003 43.0197 15.1757 43.0994C15.3328 43.1723 15.498 43.2288 15.6535 43.3081C15.6631 43.2119 15.6711 43.1143 15.6759 43.0157C15.6972 42.6054 15.7753 42.2426 15.9229 41.918C15.7854 41.8115 15.6575 41.6256 15.5597 41.5003C15.2551 41.1093 15.011 40.632 14.8034 40.1563C14.0185 38.3574 13.8494 36.3182 13.3564 34.3964C13.1492 33.5881 12.8517 32.8369 12.4974 32.1193C12.4858 32.1054 12.4746 32.0906 12.4625 32.0772C11.301 30.7183 9.95701 29.5969 8.46555 28.8719C7.10676 28.2113 5.5195 27.9422 4.33267 29.2222C3.814 29.7817 3.44124 30.5285 3.29934 31.364C3.1318 32.3522 3.31618 33.3374 2.77106 34.1853C2.53618 34.55 2.254 34.8677 2.04357 35.2567C1.83835 35.6363 1.74897 36.0372 1.65197 36.4718C1.5181 37.069 1.33773 37.342 0.895217 37.627C0.576163 37.8321 0.259915 38.0586 0.109205 38.4843C-0.22508 39.4288 0.276743 40.3208 0.681975 41.0795C1.17699 42.0067 1.47239 43.0682 1.95819 44.0019C2.55301 45.1456 3.44645 45.9811 4.45252 46.4886C4.49941 46.4881 4.54671 46.4901 4.5936 46.4891Z" fill="url(#paint28_linear_20_548)"/>
<path d="M9.20674 58.8077C9.74624 58.9247 10.2637 59.0907 10.8124 58.9539C11.2922 58.8345 11.7403 58.5495 12.1127 58.1595C12.4971 57.7561 12.8073 57.2556 13.0326 56.6991C13.2819 56.0816 13.3224 55.4305 13.4759 54.7788C13.6575 54.0077 14.1813 53.589 14.6202 53.0518C14.9866 52.6028 15.2307 52.0651 15.298 51.4273C15.4323 50.1567 14.9561 49.0273 14.6142 47.8692C14.4158 47.5391 14.298 47.1447 14.2936 46.721C14.2551 46.7948 14.2274 46.8751 14.1729 46.9341C14.1224 46.9881 14.0587 47.0257 14.0022 47.0703C13.8875 47.16 13.7737 47.2522 13.6643 47.3513C13.443 47.552 13.2354 47.783 13.0486 48.0313C12.6582 48.5501 12.3784 49.2092 12.2354 49.8936C12.2285 49.9258 12.1881 49.9203 12.1929 49.8861C12.2975 49.1482 12.53 48.4768 12.8618 47.8528C13.0342 47.5292 13.241 47.2443 13.4747 46.9866C13.5188 46.938 13.5641 46.8934 13.6098 46.8483C13.5396 46.8607 13.4691 46.8691 13.3993 46.8845C13.1208 46.946 12.8454 47.0337 12.5748 47.1368C10.5463 47.9098 8.87285 50.0313 8.30769 52.5637C8.29887 52.6023 8.24917 52.5954 8.25679 52.5547C8.39467 51.8139 8.61632 51.0958 8.91573 50.4317C9.44843 49.2513 10.2176 48.2557 11.1259 47.5069C11.59 47.1239 12.0923 46.8037 12.6173 46.5708C12.8783 46.4549 13.152 46.3741 13.4242 46.3092C13.5408 46.2814 13.6811 46.2383 13.8218 46.2145C13.4883 46.0084 13.1079 45.9633 12.7272 45.9856C11.7107 46.0445 10.6549 46.2968 9.73983 46.8617C8.77905 47.4549 7.95377 48.3796 7.46036 49.5665C7.44713 49.5982 7.40664 49.5774 7.41867 49.5447C7.68121 48.8395 8.05157 48.2037 8.49808 47.6586C9.29452 46.6853 10.3515 45.9905 11.4285 45.6268C11.9083 45.4647 12.4726 45.3106 13.0174 45.3161C12.6077 45.1971 12.1824 45.152 11.76 45.1674C9.91739 45.2353 8.24797 46.2809 6.47032 46.7507C5.74884 46.9415 4.99169 47.0153 4.26179 46.9083C2.82725 48.0724 2.29616 50.681 3.03969 52.6157C3.30183 53.2976 3.70986 53.8055 4.11229 54.3615C4.5584 54.9775 4.74198 55.5995 4.85341 56.4033C5.01454 57.5658 5.30272 58.7636 6.37813 58.9856C7.32568 59.1804 8.25238 58.6011 9.20674 58.8077Z" fill="url(#paint29_linear_20_548)"/>
<path d="M32.7428 49.3747C32.5809 48.7241 32.4193 48.0734 32.2458 47.4282C32.0674 47.3984 31.8903 47.3598 31.7135 47.3181C31.6706 47.3077 31.6277 47.2964 31.5848 47.2859C31.7612 48.1933 31.9676 49.0928 32.1821 49.9833C32.1969 50.0452 32.2129 50.1072 32.2281 50.1691C32.2891 50.0769 32.35 49.9843 32.4117 49.8931C32.526 49.7231 32.6342 49.5492 32.7428 49.3747Z" fill="url(#paint30_linear_20_548)"/>
<path d="M33.0483 52.0453C33.1914 52.0364 33.3373 52.0532 33.4804 52.078C33.48 52.0765 33.4792 52.075 33.4788 52.073C33.8339 52.0854 34.1931 52.1459 34.5153 52.1623C35.2348 52.1984 35.9487 52.0478 36.5972 51.6493C37.2497 51.2484 37.8891 50.5819 38.3264 49.8668C38.4566 49.6537 38.5913 49.4183 38.72 49.1735C38.344 49.1587 37.97 49.0992 37.6033 48.9961C37.366 49.1314 37.1159 49.2196 36.8585 49.3148C36.7559 49.3524 36.6525 49.3866 36.5491 49.4218C36.5455 49.45 36.5415 49.4783 36.5323 49.5065C36.5102 49.5759 36.4806 49.6418 36.4485 49.7048C36.388 49.8227 36.3186 49.9332 36.2445 50.0378C36.0922 50.2528 35.913 50.4327 35.7226 50.5943C35.7054 50.6092 35.6877 50.5789 35.7034 50.5626C35.8717 50.3802 36.012 50.1637 36.1363 49.9342C36.1952 49.8252 36.2481 49.7117 36.2974 49.5952C36.3122 49.5605 36.3283 49.5268 36.3443 49.4927C36.1567 49.5551 35.9691 49.617 35.7831 49.6844C35.0328 49.9555 34.3221 50.2657 33.6844 50.8426C33.6532 50.8708 33.6183 50.8128 33.6484 50.7831C34.2444 50.1983 34.9045 49.7142 35.624 49.4C35.9936 49.2389 36.3655 49.0798 36.7395 48.9371C36.8497 48.895 36.9588 48.8534 37.0674 48.8132C36.6842 48.6581 36.3122 48.4544 35.9755 48.1789C35.9519 48.1596 35.931 48.1358 35.9078 48.115C34.8941 48.3375 33.8909 48.7706 33.1113 49.4966C33.0944 49.5283 33.0832 49.562 33.0644 49.5933C32.9425 49.7954 32.8171 49.9957 32.6832 50.1859C32.5489 50.3762 32.4022 50.5541 32.2559 50.7301C32.2102 50.7851 32.1617 50.8341 32.112 50.8812C31.9112 51.3178 31.7649 51.8089 31.6952 52.3684C31.6567 52.6791 31.9553 52.7698 32.1072 52.5845C32.2591 52.3991 32.4331 52.2777 32.6202 52.1984C32.7525 52.1102 32.8952 52.0547 33.0483 52.0453Z" fill="url(#paint31_linear_20_548)"/>
<path d="M54.0434 69.8607C52.9484 68.6193 51.7034 67.6168 50.3538 66.8512C48.0679 65.5543 45.566 64.9215 43.0965 64.363C43.0669 64.2842 43.0096 64.2193 42.9174 64.187C41.7105 63.7663 40.6074 63.2534 39.595 62.3089C38.5428 61.3281 37.5836 60.1879 36.7279 58.95C35.42 57.0584 34.4123 54.8982 33.6508 52.6058C33.4784 52.5944 33.3029 52.5503 33.1441 52.5493C33.0672 52.5493 32.9866 52.5617 32.9072 52.584C33.1578 53.3575 33.4399 54.1153 33.7686 54.8536C35.0797 57.8017 36.8489 60.4946 38.9841 62.5894C39.3677 62.9655 39.7809 63.358 40.217 63.7153C40.0295 63.6637 39.8435 63.6062 39.6595 63.5423C39.5733 63.4908 39.4839 63.4462 39.399 63.3922C38.2903 62.6865 37.2902 61.788 36.3912 60.7231C35.422 59.5758 34.5073 58.3612 33.567 57.1788C33.2804 56.8185 32.9822 56.4746 32.6788 56.1386C32.5537 55.9706 32.4118 55.82 32.3172 55.7006C31.9004 55.1743 31.4763 54.6569 31.0354 54.1613C30.154 53.1697 29.2337 52.2549 28.2453 51.4308C26.3101 49.8168 24.389 48.169 22.3452 46.7661C21.8241 46.4083 21.3083 46.0604 20.7607 45.767C20.4052 45.5762 20.0112 45.3944 19.6136 45.3285C19.6464 45.0569 19.6424 44.7799 19.6112 44.5038C19.4913 44.1698 19.4184 43.8066 19.3138 43.4646C19.2083 43.1197 19.0817 42.7902 18.9209 42.479C18.7618 42.1707 18.573 41.8902 18.3694 41.6261C18.3273 41.5716 18.284 41.5191 18.2403 41.468C18.2375 41.4735 18.2339 41.4784 18.2311 41.4839C18.1277 41.4066 18.0183 41.3412 17.8977 41.2961C17.7145 41.2282 17.5261 41.1994 17.3385 41.2009C17.0283 41.3729 16.7305 41.579 16.4872 41.8704C16.3216 42.0682 16.1986 42.3065 16.1132 42.5697C16.0174 42.8645 15.9977 43.1896 15.9356 43.4969C15.8218 44.0608 15.6226 44.6079 15.3488 45.0817C15.2009 45.3379 15.0238 45.5539 14.8466 45.7784C14.6574 46.0178 14.5604 46.2869 14.5452 46.6224C14.5327 46.8959 14.564 47.1754 14.6313 47.44C14.675 47.497 14.7211 47.5515 14.7716 47.5986C14.9857 47.8003 15.2622 47.896 15.552 47.9346C15.6603 47.8192 15.7869 47.7285 15.9224 47.6735C16.221 47.5535 16.53 47.5174 16.8427 47.5332C17.0984 47.5466 17.3501 47.5902 17.595 47.664C18.1626 47.4619 18.7073 47.1353 19.0977 46.6189C19.5318 46.6293 19.9551 46.6016 20.3876 46.6972C20.8497 46.7993 21.293 47.0312 21.7243 47.2557C22.7304 47.7795 23.7292 48.3935 24.6659 49.0853C25.5974 49.7736 26.4921 50.5249 27.3571 51.3352C28.2349 52.1573 29.0309 53.1331 29.849 54.0429C30.2987 54.5429 30.7364 55.0583 31.1713 55.5781C31.3753 55.8225 31.5773 56.0693 31.7765 56.319C31.9942 56.6828 32.215 57.043 32.4479 57.3919C33.1922 58.5084 34.0167 59.5828 34.8893 60.5481C35.6709 61.4124 36.5423 62.1587 37.4081 62.8872C37.9809 63.3689 38.5817 63.8055 39.2042 64.1851C39.3573 64.2976 39.5144 64.4026 39.6743 64.5017C39.6378 64.4938 39.6014 64.4869 39.5645 64.4789C38.3528 64.2079 37.1868 63.7123 36.0216 63.2276C33.7129 62.2662 31.2474 61.5402 28.7972 61.5184C28.2585 61.5135 27.7258 61.5536 27.1955 61.6473C27.2236 61.8202 27.244 61.9952 27.2605 62.1671C27.2805 62.3773 27.2897 62.6017 27.2825 62.8223C27.8092 62.7316 28.3443 62.6805 28.8746 62.6672C30.0915 62.6359 31.2915 62.8034 32.4868 63.0715C34.8364 63.5983 37.0634 64.7703 39.4298 65.1935C40.0543 65.305 40.7036 65.3298 41.3353 65.3001C42.5623 65.758 43.8605 66.0226 45.0662 66.3403C47.787 67.0573 50.551 68.044 52.7804 70.1863C53.2887 70.6749 53.768 71.2082 54.231 71.7622C53.3011 71.1398 52.279 70.6903 51.3118 70.333C50.9174 70.1625 50.5206 70.001 50.1194 69.8607C49.062 69.491 47.9774 69.268 46.8899 69.2314C46.7925 69.218 46.6947 69.2086 46.5973 69.1967C46.5544 69.2864 46.4775 69.3553 46.3837 69.3478C45.4754 69.2755 44.5632 69.1788 43.6521 69.1823C42.7651 69.1853 41.8845 69.2898 41.0059 69.4296C40.29 69.5431 39.5801 69.7017 38.8747 69.885C38.9015 70.1437 38.8358 70.4277 38.7873 70.6834C38.7015 71.1338 38.5905 71.5813 38.4486 72.01C38.1616 72.8772 37.7925 73.7028 37.348 74.4615C37.3203 74.5086 37.2694 74.4546 37.2918 74.408C37.6538 73.6547 37.9468 72.8509 38.1508 72.0115C38.2538 71.5873 38.3404 71.1596 38.4133 70.726C38.4466 70.5278 38.4743 70.329 38.4999 70.1293C38.5067 70.0778 38.5147 70.0253 38.5236 69.9717C37.451 70.2666 36.3916 70.6383 35.3438 71.057C35.3471 71.3648 35.2705 71.675 35.2036 71.9708C35.1102 72.3826 34.9891 72.7855 34.84 73.1716C34.5418 73.9437 34.1386 74.6146 33.6363 75.2019C33.6303 75.2093 33.6203 75.1964 33.6259 75.189C34.066 74.5735 34.4252 73.847 34.6765 73.0863C34.8039 72.6998 34.9033 72.3004 34.9707 71.891C35.0096 71.6547 35.0244 71.4089 35.0585 71.1705C33.9566 71.6215 32.8696 72.1264 31.7978 72.6641C31.7978 72.8549 31.7573 73.0516 31.7116 73.2206C31.6226 73.5497 31.502 73.8564 31.3753 74.1652C31.2442 74.4843 31.1176 74.8074 30.9604 75.1087C30.8117 75.3937 30.6226 75.6459 30.4254 75.8803C30.4009 75.9096 30.36 75.8575 30.3837 75.8278C30.7596 75.3535 31.0053 74.683 31.1697 74.0576C31.2514 73.7459 31.3348 73.4347 31.415 73.1225C31.4402 73.0249 31.4583 72.9243 31.4771 72.8247C31.3693 72.8797 31.2603 72.9322 31.1528 72.9872C30.2245 73.4659 29.3051 73.9764 28.3944 74.5116C28.406 74.8089 28.3258 75.0939 28.2453 75.3788C28.1495 75.7183 28.0192 76.0429 27.8845 76.3605C27.6164 76.9928 27.2933 77.5949 26.9326 78.152C26.9109 78.1852 26.8689 78.145 26.8901 78.1113C27.2472 77.5434 27.529 76.9225 27.7362 76.25C27.8392 75.9165 27.9154 75.5721 27.9908 75.2277C28.0316 75.0413 28.0621 74.859 28.1078 74.683C27.0713 75.3 26.0468 75.9487 25.0375 76.6321C25.0816 76.9398 24.9665 77.2917 24.8748 77.5707C24.7677 77.8953 24.6447 78.2104 24.5068 78.5167C24.2326 79.1272 23.8988 79.6946 23.512 80.2036C23.4915 80.2304 23.4551 80.1972 23.4747 80.1679C23.8322 79.6322 24.1264 79.039 24.3413 78.3968C24.4479 78.0771 24.5301 77.7471 24.5978 77.4121C24.6331 77.2372 24.6579 77.036 24.7112 76.8566C23.5905 77.6257 22.4867 78.431 21.4056 79.2729C21.3607 79.3081 21.311 79.2288 21.3555 79.1902C22.3905 78.2848 23.4462 77.4334 24.5244 76.6256C24.3204 76.6375 24.1164 76.6464 23.9124 76.6678C23.4069 76.7203 22.8987 76.7867 22.3997 76.9007C22.3748 76.9061 22.3716 76.86 22.3953 76.8531C22.8622 76.7198 23.3284 76.5959 23.8042 76.5216C24.0431 76.4844 24.2827 76.4537 24.5224 76.4259C24.6206 76.4145 24.7192 76.4026 24.8162 76.3784C24.8431 76.3714 24.8683 76.3595 24.8944 76.3501C25.48 75.92 26.0704 75.4987 26.6732 75.0973C27.0364 74.8555 27.4024 74.6221 27.7699 74.3921C27.6364 74.3733 27.503 74.353 27.3691 74.3391C26.915 74.292 26.4592 74.2519 26.0031 74.2435C25.0852 74.2256 24.1633 74.3456 23.2639 74.5676C23.2326 74.5755 23.2278 74.5155 23.2582 74.5071C24.1292 74.2598 25.0134 74.1062 25.9053 74.0398C26.3442 74.0071 26.7855 73.9868 27.2248 74.0155C27.543 74.0368 27.8721 74.1087 28.196 74.13C29.1018 73.5759 30.0201 73.0561 30.9484 72.565C30.9352 72.561 30.9216 72.5576 30.9087 72.5536C30.7015 72.4927 30.4963 72.4233 30.2887 72.3663C29.8586 72.2478 29.4229 72.1492 28.9864 72.0754C28.0886 71.9228 27.1763 71.8866 26.2732 71.9793C26.2388 71.9827 26.2327 71.9183 26.2672 71.9133C27.1506 71.7875 28.0385 71.7523 28.9259 71.8281C29.3768 71.8668 29.8233 71.9347 30.267 72.0397C30.4859 72.0913 30.7023 72.1542 30.9196 72.2136C31.0759 72.2563 31.249 72.2687 31.4062 72.3247C32.4864 71.7667 33.5798 71.2478 34.6837 70.7627C34.5634 70.7166 34.444 70.667 34.3246 70.617C33.8596 70.4222 33.3846 70.2592 32.9048 70.1318C31.9344 69.8741 30.942 69.7567 29.95 69.8186C29.9091 69.8211 29.9011 69.7438 29.9428 69.7393C30.9011 69.6348 31.8707 69.6501 32.8227 69.831C33.3029 69.9222 33.7754 70.053 34.2408 70.2255C34.4536 70.3043 34.6637 70.395 34.8777 70.4683C34.9743 70.5015 35.0725 70.5248 35.1703 70.5515C35.7539 70.3008 36.3387 70.0555 36.9271 69.8221C37.1584 69.7304 37.3904 69.6412 37.6237 69.554C37.3203 69.4004 37.0181 69.2428 36.7118 69.0991C36.0044 68.7665 35.2673 68.5287 34.5145 68.4226C34.4921 68.4196 34.4977 68.379 34.5194 68.3805C35.2821 68.433 36.0276 68.6233 36.7652 68.8597C37.1319 68.9771 37.4955 69.108 37.853 69.2631C37.9388 69.3003 38.0241 69.3374 38.1083 69.3761C39.2715 68.9633 40.4571 68.6283 41.6572 68.4667C42.2464 68.3874 42.846 68.3314 43.4453 68.3225C40.3545 67.3056 37.1087 66.9002 33.9333 67.2635C29.8273 67.7333 25.7217 69.6556 22.7244 73.232C21.8818 74.2375 21.1299 75.3545 20.5102 76.584C19.8324 77.929 19.3142 79.3795 18.8075 80.8315C18.7181 81.0882 18.8949 81.3563 19.1117 81.3335C20.9643 81.1387 22.6714 82.339 24.4459 82.781C26.3514 83.2557 28.2573 82.9094 30.0943 82.2141C32.2591 81.3944 34.264 79.8617 36.1046 78.262C37.0834 77.4111 38.0382 76.527 38.9396 75.5527C39.8222 74.5988 40.6151 73.5284 41.4884 72.562C42.1815 71.7949 42.9919 71.0055 43.8753 70.551C43.9563 70.5307 44.0373 70.5104 44.1191 70.4916C45.0365 70.279 45.9584 70.1814 46.8923 70.223C48.8932 70.3122 50.8621 70.9782 52.7039 71.9208C53.2301 72.1899 53.7504 72.4773 54.2671 72.7736C54.5885 72.9585 54.9773 73.2697 55.3609 73.399C55.5064 73.5195 55.6515 73.6414 55.7954 73.7658C56.0447 74.1022 56.3169 74.466 56.6532 74.6137C56.8155 74.685 57.0327 74.5368 56.9959 74.2965C56.9273 73.8495 56.7045 73.5299 56.49 73.1711C56.2463 72.7627 55.9742 72.3797 55.7056 71.9966C55.1801 71.2488 54.633 70.5292 54.0434 69.8607Z" fill="url(#paint32_linear_20_548)"/>
<defs>
<linearGradient id="paint0_linear_20_548" x1="26.1033" y1="39.0859" x2="26.1033" y2="39.4184" gradientUnits="userSpaceOnUse">
<stop stop-color="#440C0D"/>
<stop offset="1" stop-color="white"/>
</linearGradient>
<linearGradient id="paint1_linear_20_548" x1="49.4096" y1="54.0855" x2="49.4096" y2="54.2778" gradientUnits="userSpaceOnUse">
<stop stop-color="#440C0D"/>
<stop offset="1" stop-color="white"/>
</linearGradient>
<linearGradient id="paint2_linear_20_548" x1="18.7124" y1="50.7712" x2="18.7124" y2="51.2921" gradientUnits="userSpaceOnUse">
<stop stop-color="#440C0D"/>
<stop offset="1" stop-color="white"/>
</linearGradient>
<linearGradient id="paint3_linear_20_548" x1="17.4399" y1="16.4739" x2="17.4399" y2="25.7848" gradientUnits="userSpaceOnUse">
<stop stop-color="#440C0D"/>
<stop offset="1" stop-color="white"/>
</linearGradient>
<linearGradient id="paint4_linear_20_548" x1="14.2808" y1="10.8524" x2="14.2808" y2="16.8136" gradientUnits="userSpaceOnUse">
<stop stop-color="#440C0D"/>
<stop offset="1" stop-color="white"/>
</linearGradient>
<linearGradient id="paint5_linear_20_548" x1="9.75375" y1="0" x2="9.75375" y2="12.1848" gradientUnits="userSpaceOnUse">
<stop stop-color="#440C0D"/>
<stop offset="1" stop-color="white"/>
</linearGradient>
<linearGradient id="paint6_linear_20_548" x1="11.3961" y1="0.264801" x2="11.3961" y2="10.8855" gradientUnits="userSpaceOnUse">
<stop stop-color="#440C0D"/>
<stop offset="1" stop-color="white"/>
</linearGradient>
<linearGradient id="paint7_linear_20_548" x1="8.8675" y1="8.25629" x2="8.8675" y2="13.0397" gradientUnits="userSpaceOnUse">
<stop stop-color="#440C0D"/>
<stop offset="1" stop-color="white"/>
</linearGradient>
<linearGradient id="paint8_linear_20_548" x1="24.6037" y1="21.0864" x2="24.6037" y2="26.8638" gradientUnits="userSpaceOnUse">
<stop stop-color="#440C0D"/>
<stop offset="1" stop-color="white"/>
</linearGradient>
<linearGradient id="paint9_linear_20_548" x1="27.7739" y1="27.2068" x2="27.7739" y2="42.4577" gradientUnits="userSpaceOnUse">
<stop stop-color="#440C0D"/>
<stop offset="1" stop-color="white"/>
</linearGradient>
<linearGradient id="paint10_linear_20_548" x1="23.9069" y1="7.3222" x2="23.9069" y2="20.5776" gradientUnits="userSpaceOnUse">
<stop stop-color="#440C0D"/>
<stop offset="1" stop-color="white"/>
</linearGradient>
<linearGradient id="paint11_linear_20_548" x1="21.918" y1="9.38342" x2="21.918" y2="21.0455" gradientUnits="userSpaceOnUse">
<stop stop-color="#440C0D"/>
<stop offset="1" stop-color="white"/>
</linearGradient>
<linearGradient id="paint12_linear_20_548" x1="26.8379" y1="12.8608" x2="26.8379" y2="20.9176" gradientUnits="userSpaceOnUse">
<stop stop-color="#440C0D"/>
<stop offset="1" stop-color="white"/>
</linearGradient>
<linearGradient id="paint13_linear_20_548" x1="24.5379" y1="60.1017" x2="24.5379" y2="65.3143" gradientUnits="userSpaceOnUse">
<stop stop-color="#440C0D"/>
<stop offset="1" stop-color="white"/>
</linearGradient>
<linearGradient id="paint14_linear_20_548" x1="16.5278" y1="62.4613" x2="16.5278" y2="66.4121" gradientUnits="userSpaceOnUse">
<stop stop-color="#440C0D"/>
<stop offset="1" stop-color="white"/>
</linearGradient>
<linearGradient id="paint15_linear_20_548" x1="16.9969" y1="59.2612" x2="16.9969" y2="62.7202" gradientUnits="userSpaceOnUse">
<stop stop-color="#440C0D"/>
<stop offset="1" stop-color="white"/>
</linearGradient>
<linearGradient id="paint16_linear_20_548" x1="19.5812" y1="64.8928" x2="19.5812" y2="69.2526" gradientUnits="userSpaceOnUse">
<stop stop-color="#440C0D"/>
<stop offset="1" stop-color="white"/>
</linearGradient>
<linearGradient id="paint17_linear_20_548" x1="41.7443" y1="24.4332" x2="41.7443" y2="51.0588" gradientUnits="userSpaceOnUse">
<stop stop-color="#440C0D"/>
<stop offset="1" stop-color="white"/>
</linearGradient>
<linearGradient id="paint18_linear_20_548" x1="38.8914" y1="49.0174" x2="38.8914" y2="58.8604" gradientUnits="userSpaceOnUse">
<stop stop-color="#440C0D"/>
<stop offset="1" stop-color="white"/>
</linearGradient>
<linearGradient id="paint19_linear_20_548" x1="31.2262" y1="42.5735" x2="31.2262" y2="46.8963" gradientUnits="userSpaceOnUse">
<stop stop-color="#440C0D"/>
<stop offset="1" stop-color="white"/>
</linearGradient>
<linearGradient id="paint20_linear_20_548" x1="37.5266" y1="43.0048" x2="37.5266" y2="48.6721" gradientUnits="userSpaceOnUse">
<stop stop-color="#440C0D"/>
<stop offset="1" stop-color="white"/>
</linearGradient>
<linearGradient id="paint21_linear_20_548" x1="42.016" y1="35.3271" x2="42.016" y2="55.4018" gradientUnits="userSpaceOnUse">
<stop stop-color="#440C0D"/>
<stop offset="1" stop-color="white"/>
</linearGradient>
<linearGradient id="paint22_linear_20_548" x1="44.0446" y1="33.7458" x2="44.0446" y2="46.8657" gradientUnits="userSpaceOnUse">
<stop stop-color="#440C0D"/>
<stop offset="1" stop-color="white"/>
</linearGradient>
<linearGradient id="paint23_linear_20_548" x1="22.6787" y1="37.9604" x2="22.6787" y2="43.5192" gradientUnits="userSpaceOnUse">
<stop stop-color="#440C0D"/>
<stop offset="1" stop-color="white"/>
</linearGradient>
<linearGradient id="paint24_linear_20_548" x1="15.0057" y1="45.1436" x2="15.0057" y2="45.1539" gradientUnits="userSpaceOnUse">
<stop stop-color="#440C0D"/>
<stop offset="1" stop-color="white"/>
</linearGradient>
<linearGradient id="paint25_linear_20_548" x1="19.0833" y1="48.0085" x2="19.0833" y2="56.3522" gradientUnits="userSpaceOnUse">
<stop stop-color="#440C0D"/>
<stop offset="1" stop-color="white"/>
</linearGradient>
<linearGradient id="paint26_linear_20_548" x1="17.5631" y1="25.3833" x2="17.5631" y2="41.1732" gradientUnits="userSpaceOnUse">
<stop stop-color="#440C0D"/>
<stop offset="1" stop-color="white"/>
</linearGradient>
<linearGradient id="paint27_linear_20_548" x1="16.1488" y1="41.4442" x2="16.1488" y2="41.5102" gradientUnits="userSpaceOnUse">
<stop stop-color="#440C0D"/>
<stop offset="1" stop-color="white"/>
</linearGradient>
<linearGradient id="paint28_linear_20_548" x1="7.96137" y1="28.319" x2="7.96137" y2="46.4894" gradientUnits="userSpaceOnUse">
<stop stop-color="#440C0D"/>
<stop offset="1" stop-color="white"/>
</linearGradient>
<linearGradient id="paint29_linear_20_548" x1="9.01292" y1="45.1645" x2="9.01292" y2="59.0263" gradientUnits="userSpaceOnUse">
<stop stop-color="#440C0D"/>
<stop offset="1" stop-color="white"/>
</linearGradient>
<linearGradient id="paint30_linear_20_548" x1="32.1638" y1="47.2859" x2="32.1638" y2="50.1691" gradientUnits="userSpaceOnUse">
<stop stop-color="#440C0D"/>
<stop offset="1" stop-color="white"/>
</linearGradient>
<linearGradient id="paint31_linear_20_548" x1="35.2059" y1="48.115" x2="35.2059" y2="52.68" gradientUnits="userSpaceOnUse">
<stop stop-color="#440C0D"/>
<stop offset="1" stop-color="white"/>
</linearGradient>
<linearGradient id="paint32_linear_20_548" x1="35.7712" y1="41.2009" x2="35.7712" y2="83" gradientUnits="userSpaceOnUse">
<stop stop-color="#440C0D"/>
<stop offset="1" stop-color="white"/>
</linearGradient>
</defs>
</svg>
