<svg width="114" height="162" viewBox="0 0 114 162" fill="none" xmlns="http://www.w3.org/2000/svg">
<path d="M84.0513 85.9388C84.7858 86.5182 85.3786 87.0826 86.0326 87.4786C86.8424 87.9691 87.6425 88.0306 88.1639 86.724C88.6795 87.2852 89.1044 87.8513 89.6039 88.2705C90.9473 89.3994 91.6032 89.3139 92.7452 88.0679C93.4693 88.4315 94.1214 88.8872 94.8121 89.0723C95.6431 89.2948 96.1523 88.5535 96.5514 87.6404C96.8662 87.8355 97.1365 87.955 97.365 88.1542C97.9418 88.6573 98.5121 88.5502 98.9357 88.0181C99.3586 87.4869 99.7931 87.4869 100.257 87.7425C101.169 88.2447 101.897 88.0696 102.549 87.144C102.727 86.8925 103.117 86.7489 103.402 86.7771C104.62 86.895 105.834 87.0893 107.05 87.2686C107.948 87.4014 108.464 86.9739 108.316 85.8724C108.125 84.4621 107.825 83.0161 107.324 81.7311C106.826 80.4503 106.023 79.3497 105.307 78.0879C105.827 75.5122 105.827 75.5122 103.729 74.1492C103.776 73.8388 103.821 73.4993 103.877 73.1631C104.074 71.9529 103.685 71.2971 102.693 71.1992C102.408 71.1709 102.121 71.1933 101.835 71.1958C101.595 71.1983 101.355 71.205 101.014 71.2124C101.055 70.8007 101.098 70.4679 101.12 70.1325C101.194 69.0269 100.889 68.5911 100.017 68.606C99.6534 68.6126 99.2781 68.655 98.935 68.7836C98.514 68.9422 98.0325 69.0576 97.8536 68.5089C97.7332 68.1403 97.9328 67.5651 98.0763 67.1318C98.2765 66.5258 98.5584 65.9647 98.8655 65.2434C98.9788 65.2135 99.2144 65.1778 99.4352 65.0882C100.457 64.6756 101.605 64.532 102.076 62.9955C102.159 62.7241 102.525 62.6179 102.726 62.3888C103.283 61.7562 103.745 60.9112 104.39 60.5062C105.026 60.1077 105.774 59.9815 106.273 59.2527C106.351 59.1374 106.405 58.9381 106.5 58.9058C107.707 58.4999 108.599 57.4764 109.605 56.6422C110.734 55.7058 112.069 55.1596 113.304 54.4184C114.098 53.9428 114.238 53.16 113.593 52.3266C112.756 51.245 111.885 50.1634 110.611 49.9518C110.415 49.9194 110.223 49.8422 110.04 49.7891C110.062 46.9436 109.097 46.9104 107.119 47.4433C107.122 46.0114 106.102 45.5723 105.43 44.7829C105.276 44.6019 104.884 44.5978 104.656 44.6974C104.282 44.8601 103.952 45.1747 103.559 45.4561C102.591 43.791 101.523 44.7115 100.547 45.0626C100.117 44.7904 99.7474 44.3936 99.3663 44.3612C98.9942 44.3297 98.6112 44.67 98.1761 44.8734C97.3766 43.3618 96.5675 44.4708 95.6901 44.8335C94.498 43.2058 93.4384 44.2915 92.3126 45.1016C91.8736 44.5729 91.4648 44.411 90.8173 44.7646C90.1974 45.1025 89.425 45.6586 88.666 44.8883C88.0867 45.2087 87.4681 45.4528 86.9428 45.8778C86.6403 46.1226 86.4272 46.3634 86.0146 46.409C85.5273 46.463 85.0735 46.8573 84.603 47.0971C83.7558 47.5296 82.7497 47.4864 82.0539 48.3763C82.0043 48.4402 81.8994 48.4834 81.8299 48.4659C80.0359 48.0169 79.0182 49.5957 77.8447 50.7669C77.752 50.8599 77.6484 50.9354 77.4463 51.1064C76.7987 49.9833 76.1176 48.8967 75.5235 47.7413C75.0813 46.8805 74.4859 46.3841 73.7417 46.1666C73.3813 46.0612 72.9944 46.121 72.4292 46.0986C72.6919 46.5211 72.7665 46.7278 72.8933 46.8323C75.6201 49.086 76.9313 52.4387 77.4508 56.2844C77.7108 58.2127 77.6355 60.199 77.7263 62.158C77.8968 65.8402 77.8949 69.5025 77.1025 73.0519C76.7066 74.8258 76.3018 76.6071 75.7713 78.3154C75.1547 80.3001 73.996 81.8623 72.7923 83.261C71.4688 84.7983 69.9323 86.0442 68.4833 87.408C68.4402 87.4487 68.3353 87.3864 68.323 87.3848C68.9564 84.731 69.5918 82.0673 70.229 79.3986C71.2467 79.5555 71.9683 80.6944 73.0652 80.281C72.4756 79.0458 71.4489 78.9628 70.531 78.2656C70.6005 77.7244 70.679 77.1101 70.7813 76.3157C71.8911 76.6727 72.8708 76.9881 73.8402 77.3002C74.1492 76.9159 74.0263 76.6104 73.7141 76.4369C72.8895 75.9779 72.0507 75.5612 71.0375 75.0341C71.1232 75.181 71.0356 75.0997 71.0337 75.0175C70.988 72.9938 71.2319 72.7531 72.8058 73.242C73.2326 73.3748 73.6613 73.4993 74.1151 73.6346C74.3867 72.9938 74.3095 72.5978 73.7668 72.4252C73.3278 72.2857 72.8869 72.1529 72.4428 72.0467C72.0495 71.9529 71.6516 71.9014 71.0298 71.7918C72.5979 70.5592 74.3063 71.4698 76.0134 70.7708C74.8393 69.627 73.6536 70.384 72.5387 69.6859C72.7884 69.2518 73.0041 68.8766 73.212 68.5164C73.5055 68.6716 73.763 68.9389 73.978 68.899C74.8547 68.738 75.7173 68.4798 76.5863 68.2624C77.1907 68.1113 77.1913 68.1146 77.1933 66.9309C76.1382 67.1426 75.0845 67.3543 73.8975 67.5917C73.9806 67.1733 74.0108 66.9351 74.0752 66.7126C74.5161 65.1795 75.0684 63.6878 75.3877 62.1115C76.0591 58.7995 75.548 55.6901 73.8171 52.9126C72.7813 51.2508 71.8834 49.4911 71.5287 47.4209C71.2944 46.0554 71.2776 44.6393 71.0485 43.2722C70.5419 40.2449 69.3562 37.6717 67.5821 35.4728C66.0887 33.6226 64.4216 32.3044 62.3546 31.8636C60.9507 31.5648 59.7483 30.5812 58.484 29.8034C56.4944 28.5799 54.4113 27.7481 52.2079 27.9432C49.9865 28.1399 47.8494 28.7915 46.1307 30.6575C45.0808 31.7972 44.2859 33.1818 44.4268 35.1424C43.5668 35.7492 42.6972 36.3626 41.6628 37.0923C41.7065 36.405 41.7368 35.9327 41.7793 35.2727C41.3036 34.9905 40.7989 34.6909 40.246 34.363C40.0413 33.0257 40.9824 31.3241 39.5797 30.494C39.5591 29.1775 39.5868 28.0553 39.5006 26.943C39.469 26.5337 39.2424 25.9734 38.976 25.7867C38.3863 25.3725 38.2679 24.8279 38.3554 24.1033C38.3619 24.0526 38.3651 24.0003 38.3664 23.9489C38.4179 21.7691 38.1018 21.0943 36.6026 20.1853C36.1868 18.5111 36.7745 16.318 35.0674 15.4531C34.8067 14.2495 34.6258 13.133 34.3194 12.0714C33.9261 10.7092 33.8823 10.7275 32.6181 10.7806C32.0748 9.18519 31.7059 7.30258 29.9313 6.9166C30.1289 6.09649 29.8914 5.38179 29.2193 4.78082C28.3413 3.99557 27.6056 4.36246 26.8891 5.02486C26.2519 4.26617 25.6918 3.50251 25.0533 2.86667C24.3729 2.1885 23.6448 1.57009 22.8891 1.03968C22.2042 0.559064 21.5792 -0.345715 20.6458 0.138218C20.2648 1.17166 20.6458 2.1885 20.7199 3.19455C20.8177 4.52931 20.9986 5.85909 21.0726 7.19467C21.0906 7.52338 20.9059 8.00732 20.6909 8.17499C20.033 8.68964 19.912 9.41512 20.0156 10.3025C20.0755 10.8171 20.1605 11.3326 20.1689 11.8472C20.1734 12.1253 20.109 12.5354 19.9571 12.6582C18.6716 13.6983 18.474 15.0887 19.211 16.8576C18.2757 17.4295 17.9796 18.3085 18.1708 19.6134C18.2673 20.2692 18.1386 21.1158 17.8599 21.6653C17.4164 22.5394 17.3816 23.3562 17.6146 24.3058C17.7344 24.7939 17.7839 25.3077 17.858 25.7659C16.1361 27.1488 15.9674 27.8776 16.7534 30.2649C15.596 31.5125 15.4608 33.4275 17.6623 35.5068C17.5161 35.6239 17.3797 35.7168 17.2567 35.833C16.4772 36.5726 16.4006 37.3728 17.0424 38.315C17.3649 38.7881 17.726 39.2197 18.1212 39.7377C17.2458 40.7786 17.1492 41.9333 18.0472 43.3967C16.8892 43.1086 15.9951 42.7982 15.0894 42.677C11.5098 42.1989 8.17537 42.9825 4.97874 45.0394C2.88155 46.3891 1.47955 48.5456 -0.0672704 50.5868C-0.510782 51.172 -1.02573 51.67 -1.46087 52.2635C-2.65945 53.8971 -3.88828 55.5033 -5.00125 57.2282C-6.10198 58.9348 -6.24166 61.0565 -6.14446 63.3201C-8.24165 64.0912 -10.4509 64.6515 -12.0421 66.7915C-13.5896 68.8716 -14.0704 71.5934 -14.7128 74.3841C-14.8409 73.6188 -14.8113 73.6304 -14.6813 73.0652C-14.6098 72.7539 -14.6568 72.3945 -14.6504 72.0575C-14.9188 72.05 -15.269 71.9064 -15.4376 72.0649C-15.7769 72.3845 -16.044 72.4999 -16.3993 72.1313C-16.4547 72.0741 -16.6098 72.0433 -16.6278 72.0782C-17.1409 73.066 -17.9648 72.4351 -18.6272 72.5746C-19.7112 72.8037 -20.4102 73.4146 -20.6458 74.7892C-20.6793 74.9843 -20.7353 75.1719 -20.7668 75.3039C-21.6133 75.357 -22.436 75.2732 -23.1955 75.4931C-24.0427 75.738 -24.3606 76.6602 -24.2197 77.8912C-24.7424 77.8065 -25.0932 77.7318 -25.4453 77.6953C-26.8814 77.5442 -27.8804 78.3834 -28.2209 80.1009C-28.3632 80.8172 -28.6998 81.0895 -29.2373 81.1874C-30.2924 81.3784 -31.0867 82.0183 -31.2174 83.451C-31.2708 84.0396 -31.1092 84.6679 -31.05 85.2349C-31.5605 85.7171 -32.1192 86.1197 -32.5479 86.68C-33.1285 87.4404 -33.0635 87.9102 -32.358 88.5668C-31.6924 89.186 -30.9856 89.7322 -30.2763 90.3274C-29.9943 92.4042 -29.9943 92.4042 -26.884 94.1872C-26.9973 96.064 -26.2461 97.0485 -23.3809 97.6843C-23.5007 99.7064 -23.0758 100.17 -21.5206 100.79C-19.2516 101.696 -16.9825 101.431 -14.6195 101.416C-13.8155 103.461 -12.66 105.135 -10.8931 106.549C-11.4634 106.702 -11.7891 106.808 -12.12 106.877C-13.1003 107.08 -13.3565 107.373 -13.5393 108.596C-13.6063 109.041 -13.6333 109.499 -13.6829 109.988C-14.8255 110.448 -16.2558 110.501 -16.053 112.689C-18.1418 113.398 -18.8415 114.139 -18.6059 116.596C-19.9493 117.187 -21.5477 117.563 -21.1254 120.129C-23.8418 121.399 -23.8418 121.399 -23.5 124.969C-25.2869 126.071 -25.5328 126.868 -24.8344 129.362C-25.6114 130.763 -27.1627 131.928 -25.7575 134.071C-26.3388 135.634 -26.902 137.156 -27.4717 138.673C-27.5225 138.809 -27.6699 138.913 -27.677 139.044C-27.7137 139.747 -27.9255 140.6 -27.6841 141.121C-27.3886 141.76 -26.732 141.237 -26.2357 141.141C-24.9168 140.886 -23.5953 140.646 -22.284 140.348C-21.7717 140.231 -21.2831 139.972 -20.7263 139.756C-19.7183 141.652 -18.7894 140.194 -17.7897 139.662C-17.4376 139.882 -17.072 140.111 -16.5937 140.41C-16.0311 139.843 -15.4447 139.25 -14.8023 138.603C-13.2889 139.943 -12.7521 137.953 -11.7421 137.148C-9.90242 138.485 -9.40548 136.259 -8.44636 135.041C-7.40485 135.934 -6.6839 135.274 -6.04856 134.302C-5.6147 133.637 -5.20466 132.948 -4.80492 132.303C-4.45668 132.549 -4.08012 133.033 -3.80204 132.964C-3.31218 132.843 -2.81459 132.477 -2.44446 132.044C-1.97907 131.498 -1.63919 130.783 -1.24911 130.147C-1.17701 130.197 -1.08432 130.226 -1.04312 130.299C-0.844215 130.655 -0.65883 131.023 -0.468937 131.386C-0.170258 131.088 0.214036 130.862 0.411009 130.478C1.27228 128.802 2.07563 127.079 1.87415 124.905C2.46636 124.561 3.02637 124.458 3.56193 124.858C4.76695 125.76 6.05822 126.187 7.4248 126.29C7.53359 126.299 7.64045 126.406 7.79751 126.495C7.19436 127.733 6.55774 128.905 6.03827 130.158C5.76598 130.815 5.616 131.6 5.55614 132.352C5.45122 133.656 5.86061 134.276 6.97615 134.677C6.85577 135.053 6.75599 135.43 6.61952 135.783C6.31312 136.577 6.2951 137.354 6.67746 138.147C6.99416 138.805 7.13449 139.484 6.8725 140.216C6.80878 140.396 6.82037 140.621 6.79784 140.825C6.58799 142.693 6.75729 143.054 8.15284 143.706C8.06401 145.981 8.09361 146.049 9.5413 146.828C9.46341 149.049 9.40742 151.3 11.4216 152.608C11.3553 152.93 11.2864 153.269 11.2156 153.606C10.9562 154.842 11.3044 156.097 12.2365 156.608C13.0559 157.057 13.4235 157.77 13.6636 158.77C13.8779 159.663 14.1869 160.528 14.4933 161.384C14.7225 162.024 15.0804 162.159 15.5928 161.817C17.2065 160.74 17.9635 158.827 18.5969 156.82C18.8641 155.974 18.9477 155.032 19.1338 154.14C19.2348 153.656 19.3765 153.187 19.5226 152.622C19.829 152.741 20.0562 152.811 20.2718 152.918C21.7414 153.646 22.8183 152.648 22.6838 150.668C22.649 150.159 22.5815 149.652 22.5248 149.107C22.7141 149.006 22.8583 148.934 22.9999 148.853C23.9783 148.292 24.2622 147.558 23.8959 146.264C23.6912 145.542 23.3603 144.872 23.0881 144.183C24.6117 142.756 24.6593 142.468 23.7742 140.249C23.6088 139.834 23.4653 139.405 23.3178 138.999C24.7655 137.587 24.7668 137.362 23.3687 134.05C24.9805 132.557 23.6326 131.097 23.1614 129.652C24.3632 128.229 24.3632 128.229 23.1827 125.249C24.6214 123.896 23.574 122.221 23.3668 120.542C24.062 120.247 24.7694 119.929 25.4865 119.645C27.3165 118.918 28.732 117.481 29.9873 115.709C31.9055 113.002 32.6934 109.744 32.8363 106.15C32.8498 105.817 32.7603 105.448 32.6516 105.13C32.145 103.644 32.1488 103.523 32.9889 102.427C33.8392 101.318 34.4655 100.053 34.9393 98.6015C35.2109 97.769 35.8617 97.1473 36.4108 96.3263C36.8434 96.6999 37.2927 96.9796 37.6345 97.3996C40.4088 100.809 43.8256 102.174 47.4986 102.622C48.3669 102.727 49.3016 102.537 50.1288 102.203C51.4271 101.679 52.6476 100.879 53.9247 100.268C55.1329 99.6889 56.3605 99.1602 57.5989 98.6862C60.6359 97.5249 62.8097 94.9774 64.7402 91.9626C65.4895 90.793 66.4325 89.8243 67.2442 88.8175C67.5879 88.9378 67.8223 89.035 68.0617 89.0939C68.1248 89.1097 68.2059 89.0125 68.2735 88.9569C70.6552 86.9672 73.0884 85.0523 74.8187 82.0864C75.4804 80.9517 76.1151 79.7904 76.8186 78.5395C77.0175 78.8392 77.2132 79.084 77.3619 79.3671C78.1891 80.9359 78.9422 82.5737 79.8486 84.0653C80.3931 84.9609 81.1424 85.6806 81.8544 86.3903C82.3584 86.8934 83.5743 86.5414 84.0513 85.9388ZM-13.5876 111.63C-13.8419 111.972 -14.0961 112.315 -14.5223 112.89C-12.2152 113.081 -10.4084 114.233 -8.559 115.229C-7.8741 115.597 -7.46085 116.117 -7.52007 117.192C-7.80266 117.159 -8.09683 117.212 -8.33307 117.082C-10.5255 115.887 -12.8847 115.887 -15.1595 115.292C-15.6945 115.152 -16.3704 115.102 -16.8197 116.025C-14.0459 117.027 -11.2284 117.184 -8.37362 118.332C-9.15765 119.231 -9.76144 119.923 -10.4264 120.686C-12.6819 118.78 -15.1814 118.469 -17.7356 118.503C-18.2545 118.51 -18.7746 118.474 -19.2941 118.457C-19.4003 118.807 -19.5065 119.157 -19.6365 119.587C-16.7688 119.824 -13.9371 119.519 -11.2143 121.512C-11.9172 122.373 -12.5081 123.097 -13.0237 123.73C-13.4067 123.494 -13.6462 123.275 -13.9082 123.199C-14.828 122.933 -15.7498 122.65 -16.6813 122.499C-18.0678 122.276 -19.4575 122.269 -20.7971 122.784C-21.0102 122.866 -21.1762 123.124 -21.3642 123.3C-21.3372 123.43 -21.3108 123.56 -21.2837 123.691C-18.8718 123.592 -16.4669 123.577 -14.1206 124.626C-14.6401 125.877 -15.3655 126.422 -16.5512 126.021C-17.464 125.713 -18.4193 125.631 -19.5103 125.419C-18.5583 126.904 -17.1994 126.2 -16.1348 127.129C-16.4276 127.539 -16.6735 127.884 -16.9349 128.251C-18.1116 127.354 -19.2748 127.256 -20.4695 127.424C-21.6519 127.591 -22.837 127.733 -24.1044 127.896C-24.1521 126.02 -22.5763 126.534 -21.8605 125.579C-22.1605 124.638 -22.483 123.628 -22.8724 122.408C-21.7968 122.03 -20.884 121.709 -19.8361 121.341C-19.8959 120.815 -19.9519 120.223 -20.033 119.636C-20.1399 118.864 -19.9371 118.447 -19.2825 118.499C-18.8892 118.321 -18.5068 118.079 -18.1 117.975C-17.1827 117.742 -17.0276 117.468 -17.276 116.302C-17.5676 114.935 -17.426 114.592 -16.3691 114.243C-16.1039 114.155 -15.8142 114.179 -15.5367 114.143C-14.839 114.053 -14.6967 113.828 -14.7862 112.972C-14.9394 111.506 -14.7959 111.352 -13.576 111.683C-13.0089 111.447 -12.4187 111.251 -12.3092 110.313C-10.7334 110.991 -9.01604 111.156 -8.49915 113.54C-10.2301 112.89 -11.9088 112.26 -13.5876 111.63ZM-3.19051 131.388C-3.32634 131.472 -3.46216 131.556 -3.64819 131.671C-3.86254 130.951 -4.05372 130.31 -4.27838 129.556C-5.77885 130.768 -5.73508 133.445 -7.61985 134.207C-7.6707 133.49 -7.71253 132.902 -7.75952 132.245C-9.32436 133.128 -9.13577 135.582 -10.6575 136.162C-10.913 135.733 -11.1409 135.351 -11.3714 134.965C-12.3401 135.684 -12.6388 137.197 -13.9417 137.666C-13.9307 137.186 -13.9217 136.768 -13.9101 136.259C-15.204 136.694 -15.5895 138.174 -16.6665 138.795C-16.6581 138.232 -16.7231 137.816 -16.6349 137.466C-15.9983 134.938 -15.9165 132.331 -16.0749 129.684C-16.1187 128.954 -16.0073 128.366 -15.2529 128.163C-14.9928 128.851 -14.7418 129.516 -14.4405 130.312C-14.1322 129.477 -14.5165 128.895 -14.6137 128.272C-14.6697 127.914 -14.7064 127.393 -14.5513 127.177C-13.9262 126.308 -13.2233 125.528 -12.3781 124.51C-12.2371 128.407 -12.2732 131.936 -12.9002 135.722C-12.1638 134.786 -11.9011 134.037 -11.847 132.913C-11.7428 130.753 -11.5381 128.591 -11.5973 126.431C-11.6526 124.421 -11.3662 122.802 -9.87923 121.849C-9.81937 121.81 -9.73376 121.834 -9.53035 121.819C-9.50654 122.783 -9.4544 123.744 -9.46792 124.7C-9.48273 125.732 -9.5619 126.758 -9.60889 127.789C-9.65395 128.766 -9.71252 129.744 -9.73055 130.724C-9.74793 131.672 -10.2983 132.573 -9.82775 133.813C-9.63785 133.368 -9.49238 133.137 -9.43445 132.873C-8.70513 129.522 -8.71543 126.051 -8.75148 122.596C-8.77336 120.481 -8.29638 119.328 -6.62596 118.438C-6.57254 119.645 -6.49529 120.83 -6.47341 122.014C-6.45088 123.251 -6.44895 124.491 -6.49916 125.723C-6.54744 126.905 -6.75277 128.077 -6.7444 129.258C-6.73603 130.442 -7.34048 131.523 -6.93687 132.769C-6.09684 130.821 -6.05694 128.603 -5.8664 126.476C-5.66878 124.272 -5.74732 122.017 -5.7029 119.685C-5.14095 120.307 -4.70643 120.965 -4.158 121.353C-3.31796 121.948 -3.03538 122.798 -2.97938 123.909C-2.87703 125.939 -3.07979 127.916 -3.41709 129.873C-3.51622 130.447 -3.57931 130.977 -3.18407 131.421C-2.44446 128.928 -2.07692 126.348 -2.37624 123.415C-1.21822 124.314 0.0389551 123.92 0.99743 124.886C0.938853 126.474 0.921469 127.997 -0.0852842 129.214C-0.283545 128.439 -0.45091 127.785 -0.707104 126.785C-1.1062 127.516 -1.34759 127.951 -1.58448 128.391C-2.12004 129.389 -2.65495 130.389 -3.19051 131.388ZM36.6979 71.9861C36.5318 72.4741 36.4649 72.9332 36.7487 73.442C37.1755 74.2065 37.5154 75.049 37.9615 75.7936C38.9798 77.4936 39.7374 79.3621 40.0335 81.4182C40.8517 87.1042 39.1047 91.4928 35.7214 95.2564C35.8804 92.8168 34.6001 91.0628 34.2087 88.8673C35.0281 89.0964 35.6963 89.2831 36.3278 89.4599C36.7275 88.8515 36.4951 88.5128 36.0844 88.3443C35.46 88.0878 34.8196 87.8994 34.1829 87.696C33.836 87.5848 33.4948 87.4835 33.2824 86.8718C34.1842 86.9415 34.9837 87.1 35.7664 87.037C36.5447 86.9739 37.4356 87.0585 38.0773 85.8608C37.6531 85.8209 37.4098 85.7321 37.1942 85.7894C35.9782 86.1098 34.7861 85.9064 33.5611 85.6366C32.9238 85.4963 32.6059 85.2166 32.4057 84.5218C32.3007 84.1574 32.1739 83.8022 32.0104 83.3C33.0043 83.2967 33.8559 83.3124 34.7063 83.2875C36.6972 83.2278 36.6972 83.2195 37.1047 82.4981C36.8903 82.4301 36.7107 82.3304 36.5318 82.3238C35.021 82.2665 33.5096 82.2001 32.0001 82.196C31.4704 82.1943 31.0378 82.1586 30.8627 81.2978C31.1234 81.1966 31.3416 81.0745 31.5714 81.0297C32.8112 80.7849 34.0548 80.5657 35.2952 80.3233C35.7098 80.242 36.2164 80.2669 36.1855 79.2882C34.7532 79.4061 33.3609 79.5198 31.9242 79.6377C32.4095 78.1203 33.3384 77.1624 34.649 76.9358C35.2798 76.8262 35.3944 76.5316 35.1298 75.689C34.4662 75.8683 33.825 76.0418 33.2991 76.1838C33.2058 74.4887 33.1189 72.8983 33.0307 71.3079C32.9393 69.6577 32.8505 68.0075 31.9345 66.6172C35.1401 65.0973 35.1401 65.0973 34.9019 64.0033C33.9248 64.405 32.9586 64.8806 31.957 65.1919C31.0648 65.4692 30.9863 65.3422 30.5048 63.9642C31.1936 63.5002 31.9036 63.0495 32.5898 62.549C33.0275 62.2302 33.554 61.9272 33.2605 60.9502C32.0844 61.6948 30.9361 62.3987 29.8089 63.1516C29.4607 63.384 29.1562 63.4952 28.7777 63.2595C28.3799 63.0121 27.9667 62.8071 27.3423 62.4643C28.0291 61.8974 28.5428 61.4433 29.0803 61.0391C29.5624 60.6763 30.0915 60.4065 30.5627 60.0255C31.0005 59.6719 31.3886 59.2245 31.1157 58.2699C29.509 59.4486 27.9654 60.5809 26.3716 61.7504C25.5811 61.3437 25.4466 61.0855 25.639 60.1492C25.6892 59.9035 25.7626 59.6512 25.874 59.4445C26.4134 58.4443 26.9786 57.4673 27.5167 56.4662C27.7768 55.9822 28.3677 55.627 27.8978 54.6076C27.2065 55.4651 26.5814 56.2396 25.8199 57.185C25.5657 55.7797 25.397 54.611 25.1369 53.4721C24.8717 52.3083 24.5171 51.1745 24.0935 49.6355C25.1427 50.141 25.8959 50.4996 26.6464 50.8673C26.987 51.0342 27.3764 51.4434 27.6506 51.3504C28.4224 51.0865 29.0095 51.5853 29.6261 51.9556C30.2608 52.3366 30.8749 52.7865 31.4716 53.2604C33.8025 55.1132 35.7896 57.3286 37.2386 60.414C38.7655 63.6671 38.2325 68.2491 36.1971 70.4463C35.621 71.068 34.9927 71.6142 34.3715 72.1654C33.7851 72.6858 33.7594 72.8311 34.2711 73.7724C34.7069 73.4354 35.1408 73.0818 35.5894 72.7597C35.9544 72.4974 36.3374 72.2716 36.712 72.0301C36.9637 71.2182 37.4716 70.7119 38.0226 70.0611C38.3161 71.6266 38.5736 73.0029 38.8852 74.6647C38.0323 73.6221 37.3648 72.8037 36.6979 71.9861ZM-3.93464 74.0795C-3.85418 73.6886 -3.83872 73.496 -3.77756 73.3324C-3.37139 72.2434 -3.27548 71.1394 -3.4731 69.9067C-3.66878 68.6832 -3.84966 67.4945 -4.27773 66.3341C-4.54036 65.6227 -4.34789 64.6316 -4.65236 63.9742C-5.54647 62.0418 -5.10618 60.3576 -4.33438 58.7522C-3.34951 56.7028 -2.18957 54.8243 -0.686517 53.3053C0.0621105 52.5491 0.786277 51.6991 1.3611 50.7362C3.56193 47.0515 6.59571 45.1581 10.1271 44.3745C11.2664 44.1222 12.4959 44.4135 13.6301 44.1421C15.1235 43.7851 16.4656 44.4177 17.8032 44.9829C20.4379 46.0961 22.2191 48.49 23.4517 51.5837C24.322 53.7684 24.7102 56.0951 24.8067 58.4857C24.8325 59.1291 24.6651 59.7765 24.5872 60.4148C23.0365 59.5416 21.5908 58.7281 20.1186 57.8989C20.2879 56.1956 21.3256 54.5487 20.6561 52.5715C19.9442 52.7126 20.015 53.2762 19.9796 53.7834C19.8798 55.2319 19.6404 56.6222 18.9419 57.8823C18.669 57.7818 18.4122 57.6872 18.0794 57.5652C18.2081 57.1012 18.3176 56.7293 18.4154 56.3516C18.7836 54.933 19.007 53.4821 18.8943 51.9614C18.857 51.4592 18.7334 51.0475 18.2101 51.0898C17.9384 53.3019 17.6681 55.4991 17.4003 57.6764C16.5892 57.7188 15.8856 57.7553 15.1718 57.7926C15.3539 55.8005 15.5277 53.9627 15.6874 52.1232C15.7518 51.3845 15.6694 50.6905 15.137 50.1809C14.6459 50.3336 14.734 50.747 14.7096 51.24C14.6098 53.2397 14.4849 55.2435 14.241 57.2157C14.0788 58.5239 13.959 58.5214 12.6903 58.5903C12.7276 57.7636 12.821 56.9451 12.7888 56.1292C12.7302 54.6384 12.6124 53.1475 12.4856 51.6592C12.4457 51.1952 12.2938 50.7461 11.7177 50.8798C11.7177 51.1022 11.7125 51.294 11.7177 51.4857C11.782 53.7502 12.0608 56.0188 11.7119 58.2716C11.4756 59.7964 11.2619 60.1069 9.84706 60.575C10.0698 57.8798 9.89019 55.2169 9.55096 52.5574C9.42286 51.5513 8.77015 50.4872 7.8503 50.1477C8.4631 51.8975 8.94973 53.5111 8.85832 55.2792C8.77014 56.9891 9.34562 58.7555 8.7856 60.4937C8.3363 60.1758 7.9565 59.9068 7.59924 59.6545C7.11067 54.1959 6.924 53.4381 5.82069 52.6163C5.80074 52.8379 5.74796 53.0297 5.77178 53.2081C6.0196 55.0451 6.31119 56.8754 6.52555 58.7165C6.67038 59.9625 6.57447 60.048 5.53811 60.4024C4.63113 59.3607 4.29962 57.5826 2.60025 57.1253C3.38041 58.7157 4.01832 60.0172 4.68069 61.3678C4.2655 61.9081 3.89087 62.3962 3.52653 62.8702C2.69487 61.523 2.3698 59.9326 1.38428 58.9107C0.866103 59.1523 0.835209 59.5358 1.08239 60.0247C1.67717 61.1993 2.27453 62.3713 2.94141 63.682C2.82554 63.9103 2.64788 64.2606 2.4316 64.6864C1.59672 63.6413 1.26778 62.2402 0.267468 61.4914C-0.138065 62.0019 -0.00547763 62.4377 0.259728 62.891C0.552614 63.3907 0.860957 63.8812 1.11844 64.4083C1.72223 65.6435 1.70549 65.6783 0.748301 66.4403C-0.124561 65.4741 -0.979391 64.5287 -1.83359 63.5832C-1.91469 63.6721 -1.9958 63.76 -2.07755 63.8489C-1.93529 65.5156 -0.476652 66.1199 0.0511846 67.5369C-1.23622 69.6527 -2.52943 71.7744 -3.93464 74.0795ZM-5.83935 78.4374C-5.83034 78.5586 -5.82133 78.6798 -5.81232 78.801C-5.96874 78.9271 -6.11807 79.1488 -6.28351 79.1645C-7.04823 79.2376 -7.82777 79.3837 -8.58283 79.26C-9.83741 79.0533 -11.0797 78.6773 -12.3215 78.3328C-12.6388 78.2448 -12.9381 78.166 -12.978 78.6441C-12.9941 78.8367 -12.745 79.2152 -12.5699 79.2783C-11.623 79.6194 -10.6697 79.9747 -9.70222 80.1606C-8.45987 80.3997 -7.20271 80.4827 -5.83355 80.6479C-5.87411 80.9824 -5.82133 81.4165 -5.96745 81.6083C-6.6884 82.5537 -7.37652 83.6079 -8.47017 83.8951C-9.69449 84.2164 -10.9311 84.4778 -12.167 84.7352C-12.5937 84.824 -13.0669 84.7592 -13.1995 85.6649C-11.8252 85.7504 -10.5139 85.7786 -9.28189 85.3444C-8.04405 84.9078 -6.87766 84.1807 -5.65848 83.5706C-6.02861 84.8456 -6.83645 86.0459 -7.83483 86.9332C-8.73666 87.7351 -9.72282 88.2812 -10.7984 88.6091C-11.2233 88.7386 -11.6591 88.8922 -11.56 89.7613C-9.58894 89.3944 -7.85929 88.5236 -6.25261 87.1582C-6.62338 87.9816 -7.02764 88.7394 -7.522 89.3861C-8.04662 90.0717 -8.653 90.6586 -9.23233 91.2762C-9.75437 91.8323 -10.6234 91.7551 -11.0746 92.8309C-9.00381 92.8965 -7.76467 91.277 -6.33951 90.0659C-6.58283 90.7673 -6.9401 91.355 -7.18471 92.0133C-7.67585 93.3356 -8.50945 94.1582 -9.51234 94.7741C-9.72991 94.9077 -10.0022 94.9957 -10.1393 95.2157C-10.2964 95.4689 -10.3311 95.8465 -10.4586 96.3139C-8.5088 95.6573 -7.16475 94.4221 -6.25712 92.3868C-6.13804 92.7263 -6.01573 93.1131 -6.11229 93.2476C-6.9697 94.4404 -7.59024 95.9295 -8.80234 96.6907C-9.12483 96.8933 -9.5368 97.1107 -9.44282 98.0404C-8.67745 97.5739 -7.94298 97.2826 -7.36687 96.7314C-6.79204 96.1819 -6.37556 95.3726 -5.87669 94.6587C-5.59153 95.3809 -5.58896 96.0582 -5.76855 96.8634C-6.24747 99.0174 -6.98579 100.964 -8.0479 102.736C-8.51329 103.512 -8.942 104.145 -9.83804 103.638C-9.95391 104.217 -10.0485 104.69 -10.1805 105.353C-10.6613 105.082 -11.1441 104.972 -11.4351 104.613C-12.082 103.816 -12.8055 102.996 -13.1885 102.003C-14.1991 99.3851 -15.2986 96.7912 -15.652 93.8585C-15.8239 92.4341 -16.0916 91.0172 -16.3955 89.6218C-16.8113 87.7102 -16.7772 85.8408 -16.4701 83.9449C-16.1386 81.8955 -15.3623 80.1059 -14.6195 78.2971C-14.0936 77.0163 -13.7299 75.6932 -13.5271 74.2513C-13.2645 72.3795 -12.9027 70.4845 -11.9951 68.9588C-10.5107 66.4636 -8.36525 65.4003 -5.97969 65.0076C-4.64593 67.7544 -4.23461 69.5199 -4.55066 71.2672C-5.03859 70.9219 -5.49047 70.5633 -5.9681 70.2761C-6.38393 70.0263 -6.75148 69.2892 -7.34369 69.8329C-6.6472 71.2598 -6.49208 71.4042 -4.58157 72.3978C-4.75987 72.9149 -4.9356 73.4262 -5.07786 73.8388C-6.45732 73.9201 -7.34563 72.5754 -8.64333 72.2675C-8.57317 72.7738 -8.60535 73.1407 -8.49592 73.232C-7.54517 74.0297 -6.56868 74.7784 -5.49176 75.6268C-5.57351 75.9729 -5.68359 76.4369 -5.78594 76.8669C-7.71125 77.1583 -9.25099 75.7695 -10.9517 75.2341C-11.0057 75.5031 -11.0945 75.7156 -11.0527 75.772C-9.63334 77.6563 -7.68163 77.8754 -5.83935 78.4374ZM57.3189 88.8025C57.4567 88.7569 57.5938 88.7104 57.7315 88.6647C57.6813 86.5207 56.784 84.5799 56.2942 82.3819C56.9868 82.6052 57.568 82.7928 58.0772 82.9572C58.1873 83.5166 58.1995 84.0553 58.3926 84.4612C58.813 85.3461 59.3286 86.1612 59.7998 87.0087C60.0637 87.4844 60.3179 87.9683 60.6469 88.5801C61.1663 87.2918 60.3991 86.5564 60.1145 85.7313C59.8229 84.8854 59.3408 84.1383 58.9295 83.3232C60.1113 82.9273 60.7801 83.8993 61.5004 84.6505C62.2214 85.4025 62.9056 86.2127 63.588 86.9772C64.101 86.4916 63.9581 86.143 63.644 85.7454C63.0453 84.9875 62.4705 84.1998 61.8416 83.3664C62.6288 82.7853 63.2571 82.5529 64.0083 83.1796C64.7531 83.8005 65.5603 84.2986 66.4936 84.9585C66.5001 83.2394 65.2552 83.0028 64.6816 81.9984C64.8657 81.7735 65.0414 81.5112 65.2532 81.3078C66.2117 80.3914 66.9507 79.2235 67.3124 77.7908C67.6671 76.388 67.8686 74.9088 68.0578 73.4437C68.2954 71.6026 68.8148 69.9159 69.4077 68.2873C69.8988 68.2922 70.428 68.9289 70.6352 68.0665C70.8303 67.2538 70.0115 67.3742 69.8016 66.7674C69.857 66.4744 69.9297 66.0909 69.9812 65.817C71.3021 65.4152 72.5245 65.0433 73.9909 64.5976C73.0086 66.9467 72.0475 68.8592 70.6996 70.4264C70.0501 71.1817 69.407 71.9479 68.8007 72.7572C68.3533 73.3549 68.4202 73.5541 69.0897 74.0272C69.427 73.6379 69.7662 73.2461 70.2677 72.6676C70.2406 73.2868 70.2535 73.6329 70.2059 73.9633C69.9812 75.5297 69.7971 77.1109 69.4907 78.6491C69.0942 80.6363 68.6687 82.6243 68.1138 84.5409C67.7585 85.7686 67.2989 87.0469 66.614 87.9841C65.698 89.2375 64.5471 90.2311 63.4425 91.2421C62.6166 91.9975 61.6105 92.215 60.5967 92.4382C59.0035 92.7894 57.4477 93.3654 55.8609 93.7606C54.7551 94.0353 53.6228 94.3649 52.5027 94.3167C50.775 94.2428 49.1651 93.4825 47.6196 92.3503C46.9128 91.8323 46.5517 90.7407 45.6698 90.6063C44.665 88.9644 43.3821 87.5441 43.0178 85.3942C42.9624 85.068 42.8568 84.7543 42.7641 84.394C41.7014 85.3702 41.7014 85.3702 42.6933 88.2638C42.385 88.7212 42.0779 89.1761 41.6956 89.7438C41.3171 89.5156 40.9392 89.2873 40.5498 89.0524C41.5623 85.9438 41.4079 82.8907 40.9219 79.8153C42.7139 82.0756 44.4828 84.3069 46.17 86.4343C46.963 86.3729 46.9785 85.8881 46.9514 85.2316C46.8549 82.8974 46.8137 80.5616 46.7512 78.2291C47.3557 78.6565 47.8719 79.0218 48.3586 79.3663C48.3515 80.7309 47.4001 81.7942 47.8578 83.3905C48.8253 82.1528 48.7609 80.237 50.0219 79.1845C50.0644 80.6578 50.0682 81.8374 50.1416 83.0136C50.2131 84.1516 49.8867 85.2938 50.1925 86.5788C50.7789 85.9786 50.8188 85.2623 50.8407 84.5559C50.8793 83.3191 50.8825 82.0789 50.9192 80.8413C50.9392 80.1631 50.8903 79.441 51.355 78.8856C52.7937 81.8839 53.6003 85.039 53.8738 88.5352C54.1429 88.2929 54.3122 88.2182 54.3167 88.1244C54.43 85.7338 53.9228 83.4403 53.2836 80.8313C54.0097 81.3974 54.6868 81.6531 54.9965 82.2209C55.812 83.7183 56.4319 85.3677 56.8168 87.1324C56.9436 87.7027 57.1496 88.2464 57.3189 88.8025ZM5.44026 116.661C7.17826 119.875 9.76209 120.454 12.353 121.223C12.0756 121.786 11.9056 122.191 11.6926 122.552C11.1016 123.557 10.6099 124.769 9.31279 124.392C9.19757 124.359 9.05079 124.591 8.90596 124.661C8.54742 124.833 8.16635 125.165 7.82132 125.105C6.86156 124.938 5.9121 124.629 4.9665 124.329C4.21723 124.092 3.47633 123.805 2.73929 123.505C2.34212 123.344 1.96168 123.109 1.50529 122.873C0.799794 123.286 0.219824 123.4 -0.599611 122.827C-1.72931 122.039 -2.78628 121.075 -3.86899 120.176C-3.9649 120.096 -4.03828 119.95 -4.09364 119.817C-4.43609 118.985 -4.74635 118.131 -5.11326 117.316C-5.65976 116.102 -6.14318 114.81 -6.84353 113.748C-7.45633 112.819 -7.85801 111.855 -8.07108 110.729C-8.30152 109.515 -8.48047 108.285 -8.74825 107.084C-8.97806 106.053 -8.69354 105.338 -8.20175 104.566C-7.42287 103.344 -6.71157 102.042 -6.05885 100.704C-5.69259 99.9537 -5.50207 99.0631 -5.20918 98.1658C-4.67748 99.5711 -4.18761 100.866 -3.65076 102.285C-3.98356 102.63 -4.39296 103.023 -4.77274 103.459C-5.14545 103.887 -5.46021 104.368 -5.2259 105.292C-4.55902 104.6 -4.02733 104 -3.45636 103.467C-2.89505 102.944 -2.32473 102.477 -2.43287 101.399C-2.44832 101.248 -2.20693 101.065 -2.05179 100.853C-1.20983 102.007 -0.407782 103.053 -0.116185 104.636C-0.97746 106.095 -1.8677 107.586 -2.73284 109.1C-2.81395 109.243 -2.73541 109.534 -2.72897 109.887C-1.19438 109.034 -0.665267 107.253 0.166398 105.694C0.69681 106.701 0.88026 107.486 0.418081 108.581C-0.215967 110.082 -0.835212 111.533 -1.92114 112.592C-2.07434 112.741 -2.0872 113.117 -2.23268 113.624C-1.14224 113.31 -0.590605 112.526 -0.087229 111.789C0.441896 111.014 0.791433 110.042 1.24267 109.107C2.16832 110.659 2.42903 110.98 1.56904 113.183C1.33859 113.772 0.989703 114.282 0.725141 114.852C0.581595 115.162 0.502414 115.521 0.394272 115.858C0.476022 115.92 0.55778 115.982 0.639531 116.045C1.61603 115.314 2.00031 113.922 2.64724 112.817C3.52975 114.014 3.57223 114.175 3.08687 115.378C2.84935 115.966 2.51464 116.487 2.25973 117.065C2.16318 117.284 2.16703 117.577 2.12584 117.837C2.20244 117.892 2.27903 117.946 2.35564 118.002C2.96715 117.07 3.57867 116.137 4.18053 115.219C5.07978 116.022 4.38587 117.162 4.81072 118.141C5.00319 117.688 5.14737 117.35 5.44026 116.661ZM12.344 116.012C12.4521 116.041 12.5596 116.07 12.6678 116.1C12.7708 115.627 12.9298 115.163 12.9652 114.68C13.0591 113.4 13.1235 112.113 13.1499 110.825C13.1615 110.278 13.2078 109.902 13.8129 110.02C14.4953 111.962 14.2706 114.229 15.1492 116.163C15.4865 114.083 14.7489 112.034 14.886 109.815C15.139 109.669 15.4132 109.51 15.7704 109.304C16.3214 111.377 16.7855 113.126 17.3282 115.169C17.9185 113.877 17.4659 112.949 17.2477 112.022C17.0051 110.99 16.7405 109.966 16.3987 108.591C16.9098 108.813 17.2336 108.844 17.4344 109.06C18.2152 109.9 18.6175 111.055 19.0025 112.214C19.1215 112.573 19.1627 113.051 19.7659 112.935C19.7054 111.494 18.9992 110.291 18.6433 108.832C20.2326 109.217 21.3649 108.368 22.3562 107.208C23.1717 106.253 23.9764 105.859 25.238 106.059C24.9921 107.087 24.7836 108.133 24.492 109.139C23.9352 111.061 22.9284 112.557 21.677 113.818C20.5203 114.983 19.3674 116.157 18.259 117.393C17.5322 118.204 16.8679 119.112 15.8728 119.388C15.4582 119.504 14.9697 119.355 14.5995 119.558C13.5381 120.141 12.4541 120.027 11.3739 119.719C9.29284 119.126 7.35207 118.161 6.01896 115.835C5.69131 115.263 5.46022 114.531 5.03537 114.135C4.29704 113.444 3.82843 112.497 3.41904 111.574C2.67299 109.891 2.05181 108.11 1.50144 106.314C0.787576 103.986 0.0582511 101.694 -1.41583 99.8682C-0.637593 98.6937 0.100094 97.5806 0.770833 96.567C1.40681 97.847 1.92436 99.2175 2.68393 100.326C3.45058 101.446 4.45733 102.305 5.35852 103.278C4.30091 104.854 4.3009 104.854 4.4438 105.544C5.12227 104.918 5.74859 104.341 6.30861 103.824C6.98064 104.142 7.60117 104.435 8.34787 104.788C6.58863 105.691 5.71126 106.655 5.55999 107.929C6.77273 107.615 7.25679 106.009 8.50879 105.702C8.54484 106.297 8.69225 106.924 8.59248 107.468C8.37362 108.661 8.01637 109.807 7.74473 110.984C7.67457 111.287 7.71189 111.633 7.69 112.227C8.89823 111.084 8.69548 109.277 9.38681 108.1C11.0353 109.456 11.2207 108.967 10.6774 111.425C10.4798 112.319 10.3865 113.254 10.2455 114.17C11.4576 113.046 11.3437 111.181 12.093 109.392C12.6858 111.82 12.0582 113.948 12.344 116.012ZM27.2889 88.605C27.7266 88.4215 28.0935 88.2198 28.4791 88.1219C28.8305 88.0322 29.3107 88.3867 29.4762 87.618C28.566 86.8718 27.6983 87.2428 26.891 87.6305C26.2963 86.0044 26.387 84.4455 26.4636 82.826C26.6046 79.8502 26.4913 76.8777 24.1643 74.9104C24.1141 74.8681 24.1109 74.7328 24.0864 74.6406C25.2734 73.3922 25.3725 71.6648 24.1514 70.5384C23.3011 69.754 22.2738 69.1721 21.2625 68.8268C20.66 68.6209 20.0877 68.4201 19.5586 68.0191C17.8856 66.7508 16.2204 65.5414 14.2487 65.118C12.81 64.8093 11.4196 64.5893 10.0209 65.1139C9.66167 65.2484 9.29605 65.3604 8.9124 65.4907C8.83709 64.6748 8.92398 63.9526 9.5104 63.9169C11.0096 63.8273 12.5686 63.5733 14.0112 63.9842C15.9983 64.5494 17.95 65.5165 19.8258 66.584C22.1154 67.8872 24.4295 69.163 26.387 71.3079C28.2679 73.3698 29.5476 75.8343 30.2621 78.8001C30.425 79.4775 30.3452 80.0262 29.9577 80.4902C29.3487 81.2206 28.7713 82.0051 28.1031 82.6401C27.6641 83.0568 27.6616 83.3564 28.015 83.9881C28.6928 83.3988 29.3082 82.8634 29.986 82.274C30.6271 83.6793 31.3114 85.0489 31.8907 86.4841C32.6033 88.2489 33.1987 90.085 33.8997 91.8572C34.6599 93.7805 34.9316 95.6913 34.2029 97.6636C33.9802 98.2654 33.7626 98.8705 33.5437 99.4748C32.714 101.77 31.2116 103.055 29.3506 103.697C28.342 104.044 27.2811 104.19 26.2364 104.369C25.3648 104.517 24.4823 104.581 23.5998 104.683C24.0427 102.422 24.4624 100.281 24.9001 98.0446C25.7395 98.7684 26.5035 99.4781 27.3062 100.106C28.0832 100.712 28.8569 101.377 29.7562 101.611C29.8115 101.496 29.8662 101.381 29.9216 101.266C28.3458 99.7852 26.7707 98.3044 25.1949 96.8244C27.0565 96.6957 28.4025 98.7634 30.2724 98.4737C29.07 96.9206 27.2876 96.7588 25.9815 95.5012C26.4862 93.8527 26.5254 93.8336 27.6796 94.4089C28.2184 94.677 28.7604 94.9409 29.3127 95.1526C29.5083 95.2281 29.7388 95.1443 30.0928 95.1252C29.4157 93.5622 27.9506 94.0652 27.2689 92.9272C27.3339 92.1469 27.6847 91.9867 28.2171 92.1552C28.855 92.3577 29.4948 92.5453 30.134 92.7396C30.4868 92.8475 30.7964 92.8608 30.8312 92.1801C29.9081 91.2106 28.6458 91.4729 27.5734 90.7474C27.4878 90.0983 27.3951 89.4002 27.2889 88.605ZM-0.060827 76.09C0.363374 74.6074 0.901499 73.3167 1.09461 71.9363C1.59799 68.3304 3.31153 65.6402 4.9961 62.9266C5.37524 62.3165 5.98227 61.8675 6.55774 61.5388C7.60505 60.9394 8.02925 61.3039 7.99449 62.7432C7.95651 64.2863 7.90629 65.8427 7.70159 67.3518C7.56834 68.3337 7.27868 69.3622 6.83131 70.1616C5.67844 72.2185 5.23364 74.6157 4.81716 76.9989C4.6144 78.1577 4.33503 79.1645 3.69712 79.9639C2.76247 81.1343 2.37301 82.5861 2.19084 84.2006C2.04794 85.469 2.00031 86.8195 1.60701 87.955C1.15771 89.2524 0.92469 90.5606 0.794662 91.9435C0.727717 92.6582 0.619571 93.3679 0.497267 94.0693C-0.00417827 96.9381 -1.72737 98.6505 -3.3096 100.867C-3.58382 100.021 -3.81363 99.4723 -3.94043 98.8912C-4.30155 97.2419 -4.70515 95.595 -4.93367 93.9191C-5.20402 91.9344 -5.56322 89.919 -5.19502 87.9144C-4.90599 86.3389 -4.66137 84.7269 -4.19726 83.2369C-3.41066 80.711 -2.10973 78.5893 -0.612478 76.5075C-0.170253 77.6032 0.299655 78.5121 1.34696 78.8325C1.54007 77.262 0.373029 76.8885 -0.060827 76.09ZM63.1901 38.4594C62.8915 38.8188 62.7293 39.0114 62.569 39.2073C61.9941 39.912 61.4277 40.6292 60.8426 41.3198C60.4892 41.7365 60.0849 41.8793 59.6376 41.446C59.9395 40.7363 60.26 40.044 60.5342 39.3218C60.8117 38.5914 61.1985 37.8485 60.6585 36.727C59.9143 38.476 59.2616 40.01 58.5954 41.5747C58.2832 41.4626 58.0347 41.4244 57.8242 41.2883C57.0164 40.7653 56.9604 40.4989 57.391 39.4696C57.5983 38.9732 57.8474 38.4976 58.0006 37.9746C58.1435 37.4882 58.336 36.9296 57.7933 36.3676C57.2809 37.5712 56.7956 38.7117 56.2723 39.9419C55.8049 39.6755 55.4181 39.4547 55.0383 39.2388C55.3543 37.6808 55.9079 36.3062 54.9965 34.5522C54.8426 35.1167 54.7319 35.3989 54.6907 35.6994C54.5677 36.6033 54.515 37.5297 54.3424 38.4154C54.2781 38.7466 53.9968 39.165 53.7496 39.2397C52.896 39.4962 52.0135 39.619 51.1426 39.7925C51.2282 39.8713 51.3241 39.619 51.3911 39.355C51.7367 37.9962 52.141 36.6556 52.3965 35.2669C52.6102 34.1048 52.0933 33.518 51.1548 33.6516C50.9167 33.6856 50.674 33.7321 50.4352 33.7097C49.0332 33.5769 47.6685 33.7612 46.3309 34.2393C46.0953 34.324 45.8365 34.3165 45.4677 34.368C46.0908 32.5991 46.7455 31.1904 48.2672 30.8667C48.5304 30.8103 48.7474 30.5023 49.0055 30.3678C50.5903 29.5444 52.2723 28.9609 53.9762 29.439C55.9285 29.9868 57.8654 30.7123 59.6659 31.9998C60.5806 32.6539 61.6723 32.8954 62.6829 33.3287C63.1078 33.5113 63.5448 33.6641 63.9497 33.9056C65.4309 34.7896 66.632 36.1368 67.7025 37.6883C69.1489 39.7842 69.9606 42.1956 70.1158 45.0352C68.5355 42.7442 66.4718 41.8287 64.1441 41.3182C64.475 40.6334 64.764 40.0863 65.0105 39.5094C65.2532 38.9425 65.7077 38.4337 65.409 37.4865C64.4422 38.8977 63.7656 40.4607 62.4325 41.5215C62.6057 40.3835 63.6066 39.9162 63.1901 38.4594ZM41.1632 49.0993C39.9653 48.2518 38.8704 47.4765 37.7027 46.6506C37.6473 46.8747 37.5032 47.1303 37.554 47.3005C38.0432 48.9341 39.3641 49.3002 40.4468 50.2024C40.2112 50.7561 39.9962 51.2608 39.7123 51.929C39.18 51.5521 38.7011 51.1628 38.19 50.8665C37.7079 50.5868 37.1922 50.4042 36.6914 50.1792C36.6412 50.2987 36.5904 50.4183 36.5402 50.537C37.0139 52.1033 38.5138 52.0975 39.2914 53.0928C39.0165 55.412 38.7507 57.6515 38.4848 59.8919C37.3068 57.0198 35.4111 55.1231 33.6371 53.2272C33.6422 52.4204 33.5991 51.7439 33.6615 51.0873C33.7529 50.1269 33.7877 49.1051 34.0799 48.2426C34.8685 45.9151 35.955 43.8325 37.6782 42.4205C38.6876 41.5929 39.7613 40.8724 40.712 39.951C41.9917 38.7117 43.2392 37.3961 44.7377 36.6191C45.9511 35.9899 47.0931 34.7672 48.6032 35.5367C48.6624 35.5666 48.7789 35.5317 48.822 35.4728C49.6222 34.3621 50.5233 35.369 51.5314 35.1291C50.8864 38.3 50.1069 41.0177 48.0734 43.0455C47.9131 41.8096 48.1564 40.6342 47.5108 39.546C46.8452 40.5977 47.2057 41.7938 47.0931 42.9053C46.6489 42.8015 46.2395 42.7052 45.8327 42.6098C45.5411 41.8851 45.5462 40.8915 44.6991 40.7504C44.2974 41.0268 44.3689 41.4003 44.5227 41.8162C44.6798 42.2412 44.851 42.6679 44.9521 43.1136C45.2109 44.2575 45.1426 44.4127 44.132 45.1863C44.0393 43.3419 43.2617 42.0744 42.0696 41.1629C41.6763 41.7896 41.6241 41.9847 41.8688 42.4139C42.0599 42.75 42.3754 42.9858 42.535 43.3369C42.9161 44.1744 43.2373 45.0527 43.5759 45.8977C43.2431 46.3094 43.021 46.5842 42.7436 46.927C41.9009 45.6387 41.0493 44.4874 39.9917 43.5486C39.9724 45.3573 41.1678 46.2862 41.9267 47.6915C41.6898 48.1306 41.4291 48.6104 41.1632 49.0993ZM45.9576 84.2629C45.6531 83.9939 45.4323 83.8511 45.2643 83.6411C44.6174 82.8318 43.9807 82.0092 43.3525 81.1766C42.8961 80.5715 42.412 79.9863 42.0213 79.3173C40.9521 77.4861 40.2177 75.4334 39.6834 73.2926C39.236 71.4996 39.0931 69.6859 39.2637 67.7834C39.5141 64.9827 39.507 62.1356 39.6396 59.3117C39.7683 56.5766 40.0625 53.9071 41.1143 51.4592C42.2138 48.8984 44.0818 47.3752 45.8063 45.466C46.002 45.867 46.2511 46.155 46.2743 46.4613C46.4075 48.2169 46.459 49.97 45.9775 51.6534C45.4825 53.3841 44.8124 55.0758 44.5717 56.8738C44.2324 59.4038 43.581 61.601 42.0355 63.272C41.6493 63.6895 41.4877 64.1518 41.8913 64.7254C43.1439 64.7221 43.1253 64.7262 43.3718 66.2793C43.6711 68.1619 43.9544 70.0528 44.3412 71.9114C44.6766 73.5225 44.6772 73.8305 43.648 74.7635C43.2952 75.0831 42.8491 75.2366 42.4751 75.5247C42.3219 75.6425 42.2466 75.9165 42.0683 76.2427C44.2279 75.7148 44.3058 75.6492 44.7551 74.0662C45.8468 76.7158 46.3296 80.7433 45.9576 84.2629ZM67.1193 58.289C67.4585 58.9357 67.5969 59.2569 67.7778 59.535C68.4003 60.4895 68.8676 61.5363 68.9172 62.7731C68.9906 64.5893 68.8663 66.3524 68.3585 68.0773C67.7006 70.3118 66.8567 72.475 66.9236 75.0175C66.9494 76.0045 66.6752 77.0586 66.3482 77.9667C65.4141 80.5599 63.6523 81.8631 61.474 82.1445C58.3514 82.5479 55.5301 81.0056 52.7769 79.2559C52.5825 79.1322 52.4583 78.8259 52.2762 78.5694C52.7145 77.7285 53.2861 77.7069 53.9157 77.9286C55.9478 78.6408 57.8049 78.3909 59.3897 76.5838C59.465 76.4983 59.5976 76.4925 59.7251 76.4402C59.9021 77.0346 60.065 77.5816 60.3025 78.3776C61.0312 76.8387 60.5233 75.069 61.4225 73.8064C61.9838 74.7552 61.857 76.2726 63.3086 76.6594C62.6591 74.7909 62.1055 73.1988 61.5526 71.6076C61.644 71.5312 61.7347 71.4557 61.8261 71.3793C62.3701 71.9935 62.9147 72.6078 63.4586 73.2229C63.7032 73.4993 63.9613 73.9052 64.2767 73.4644C64.5329 73.1067 64.4364 72.758 64.1132 72.4185C63.7045 71.9894 63.3285 71.4955 62.9964 70.9709C62.8503 70.7401 62.8464 70.3666 62.7782 70.0586C63.0318 69.9947 63.3047 69.8179 63.5352 69.8893C64.0025 70.0337 64.4615 70.2736 64.8966 70.5476C65.2236 70.7534 65.4895 70.7302 65.5886 70.3276C65.6349 70.14 65.4746 69.7241 65.3208 69.6146C64.7498 69.207 64.1422 68.8833 63.4772 68.4865C63.485 68.0216 63.4933 67.5369 63.5024 67.0031C64.6835 67.0197 65.7508 67.0347 66.9075 67.0513C66.4776 66.188 66.4769 66.2005 65.8062 66.1166C65.0395 66.0203 64.2735 65.8991 63.5075 65.7887C64.4003 64.6623 65.4676 64.9238 66.5348 64.991C66.5522 64.6657 66.5657 64.4233 66.5831 64.0987C66.1911 63.9958 65.8441 63.9053 65.2912 63.76C66.6359 62.3738 67.0157 60.585 67.1193 58.289ZM46.5826 97.2485C47.5604 96.274 46.8916 94.877 47.3956 93.5879C48.4693 95.6598 47.9839 98.0147 48.7841 99.9786C49.3396 98.3127 48.7725 96.5513 49.028 94.7566C51.075 95.1003 50.7757 97.6295 51.6917 99.1544C52.262 97.8952 51.5674 96.787 51.5179 95.5834C52.132 95.5934 52.6946 95.6025 53.1303 95.6091C53.5867 96.2948 53.9511 96.8418 54.3 97.3647C55.0853 96.9372 54.5748 96.1968 54.5542 95.7951C57.0769 93.9764 59.8268 93.8261 62.4892 93.177C62.4795 93.3389 62.504 93.4792 62.4634 93.5248C60.8612 95.3053 59.2011 96.9298 57.0467 97.6345C55.6434 98.0935 54.2922 98.7933 52.934 99.4349C51.9916 99.8807 51.084 100.436 50.1468 100.898C49.1941 101.367 48.1944 101.591 47.1561 101.389C46.3103 101.225 45.4703 101.005 44.627 100.813C41.7973 100.171 39.637 97.9665 37.4922 95.7287C37.4027 95.6357 37.3551 95.478 37.3075 95.3883C38.2589 93.7307 39.1929 92.1012 40.1745 90.3905C40.4539 90.5639 40.8041 90.7814 41.2186 91.0396C40.9206 91.8398 40.6541 92.5545 40.3316 93.4186C41.7683 93.363 41.6538 91.6646 42.3554 90.9192C42.6798 90.9242 43.0351 90.9292 43.3731 90.9342C43.9865 92.9064 43.5276 94.8363 43.6447 96.8061C44.9064 95.3867 44.2106 93.2667 44.6026 91.5418C45.9048 92.2008 46.3213 93.4543 46.3921 94.999C46.4262 95.7494 46.5169 96.499 46.5826 97.2485ZM18.7636 33.2532C18.7089 33.3661 18.6536 33.4781 18.5989 33.591C18.7971 33.8732 18.9613 34.2202 19.2001 34.4261C20.6368 35.6662 22.0427 36.986 23.5509 38.0634C25.2039 39.2446 26.9619 40.1793 28.6612 41.2559C28.9264 41.4244 29.2753 41.7432 29.323 42.0478C29.4762 43.0339 29.5071 44.0458 29.5933 45.1523C29.1228 45.0817 28.7855 45.1041 28.4868 44.973C27.0912 44.362 25.695 43.747 24.3195 43.063C21.8772 41.8486 19.7949 39.9278 17.9474 37.572C17.9043 37.5173 17.9249 37.3828 17.9082 37.1985C18.1901 37.0881 18.5036 37.0109 18.7829 36.8466C19.5284 36.4074 19.5625 35.8214 18.9117 35.1109C18.3851 34.5356 17.865 33.9521 17.3372 33.3785C16.9458 32.9535 16.8422 32.4613 17.0346 31.7931C17.2953 31.8304 17.5322 31.8595 17.7678 31.9002C18.1882 31.9732 18.6793 32.4273 18.9838 31.7599C19.3275 31.0045 18.7012 30.6775 18.4167 30.2201C18.2384 29.9329 17.9996 29.7071 17.8103 29.429C17.4775 28.9393 17.2226 28.4114 17.4125 27.7573C18.0832 27.2285 18.6729 27.5398 19.2445 28.022C20.5171 29.097 21.7781 30.1935 23.0597 31.2502C23.5785 31.6785 24.1251 32.0628 24.6825 32.4023C25.8727 33.127 27.0835 33.7944 28.2718 34.524C28.5042 34.6668 28.8099 34.9606 28.8473 35.2271C29.0558 36.7245 29.162 38.2361 29.1846 40.0108C27.2168 38.8545 25.4305 37.9049 23.7182 36.7685C22.2969 35.8256 20.967 34.6518 19.585 33.6068C19.3404 33.4242 19.0385 33.3677 18.7636 33.2532ZM38.526 27.1704C38.7661 28.5425 38.7069 29.3062 38.0761 30.89C37.8488 31.4602 37.9261 31.8263 38.2003 32.2538C38.562 32.1923 38.8633 32.1409 39.1646 32.0894C39.3918 33.0706 39.3615 33.9006 38.983 34.7083C38.8536 34.9847 38.8852 35.3823 38.8279 35.7202C38.7713 36.058 38.768 36.4589 38.6174 36.7146C37.0049 39.4513 35.3332 42.1275 33.1556 44.1985C32.4778 44.8435 31.6995 45.2552 30.6947 45.1896C30.5582 43.8399 30.4243 42.5218 30.3091 41.3871C32.1224 39.1608 33.8765 37.0798 35.5605 34.9125C36.6915 33.4565 37.6667 31.8321 38.0503 29.7602C38.1385 29.2821 38.3271 28.7957 37.9718 28.3242C37.5482 29.3203 37.2566 30.4143 36.7056 31.2228C35.1099 33.5644 33.4208 35.804 31.7433 38.0535C31.3551 38.5739 30.8653 38.974 30.2853 39.5709C30.1521 37.9248 30.0799 36.5436 29.9145 35.1773C29.8083 34.3016 30.0426 33.7769 30.5351 33.1917C32.9502 30.3197 35.086 27.1638 36.3838 23.2159C36.4822 22.9154 36.6689 22.6648 36.9863 22.0671C37.1684 22.9096 37.3648 23.4218 37.3673 23.9265C37.3705 24.6345 37.2296 25.3384 37.1498 26.044C37.0326 27.0807 37.2038 27.2949 38.069 27.1978C38.2234 27.1812 38.3792 27.1795 38.526 27.1704ZM10.5519 62.2684C10.5378 62.1671 10.5229 62.0667 10.5088 61.9654C11.2638 61.3968 11.9726 60.6904 12.7823 60.2845C16.333 58.5065 19.8026 58.7414 23.2483 61.3097C25.0623 62.6619 27.0578 63.6023 28.9239 64.8474C30.4887 65.8917 31.5849 67.5834 31.9641 69.7449C32.246 71.3502 32.2756 73.0394 32.2634 74.6838C32.2563 75.6351 31.9725 76.5814 31.7536 77.5052C31.6867 77.7866 31.4214 77.985 31.229 78.2473C30.3156 76.0559 29.4562 73.9957 28.5376 71.7927C28.9213 70.9203 30.2377 70.6779 30.0375 68.9455C29.0391 69.3921 28.6735 70.7053 27.807 71.1651C26.9162 70.4172 26.9001 70.3749 27.4826 69.4759C27.7086 69.1265 28.015 68.8608 28.237 68.5081C28.5042 68.0839 28.4546 67.6938 28.0021 67.38C27.4215 68.1329 26.8698 68.8484 26.2737 69.622C25.8972 69.2809 25.5084 68.9289 25.2058 68.655C24.9831 67.536 26.2338 67.0214 25.5766 65.7356C25.0803 66.4669 24.649 67.1027 24.201 67.7627C23.7137 67.4182 23.2696 67.1036 22.8396 66.7998C23.0205 65.6941 24.2235 65.348 23.8837 63.8455C22.969 64.4523 22.4965 65.4791 21.8418 66.3723C21.5631 66.1448 21.3043 65.9348 20.9645 65.6576C21.3211 65.1471 21.6037 64.7221 21.9043 64.3195C22.2081 63.9128 22.593 63.5351 21.8618 62.8827C21.3275 63.7169 20.8074 64.5287 20.2236 65.4401C19.9938 65.309 19.6738 65.1255 19.4743 65.0118C19.1512 63.721 19.5258 62.5149 19.0417 61.3395C18.1257 62.163 18.7733 63.4371 18.4218 64.4963C15.8766 62.9848 13.2844 62.1514 10.5519 62.2684ZM67.9368 57.7976C68.8889 56.8123 70.2818 56.6687 71.0865 54.9613C69.3987 55.0725 68.4164 56.4496 67.1496 56.887C66.8393 56.2338 67.0736 55.8561 67.4219 55.5174C67.8364 55.114 68.2445 54.7006 68.6571 54.2939C68.9873 53.9677 69.2583 53.6199 68.9532 52.9683C68.0083 53.0737 67.6034 54.5454 66.3527 54.4433C66.9661 52.6694 68.5702 51.748 68.4968 49.7667C68.4138 49.6978 68.3308 49.6297 68.2477 49.5608C67.6356 50.5718 67.0234 51.582 66.4112 52.5931C66.3127 52.5582 66.2136 52.5242 66.1151 52.4893C66.0978 52.0145 66.1254 51.5306 66.054 51.0674C65.8828 49.9601 65.8725 48.7 65.4174 47.8002C64.7376 46.4572 63.7315 45.3689 62.8631 44.1745C62.6037 43.8175 62.3398 43.4664 61.8828 42.8497C63.3009 42.7691 64.3952 42.6455 65.5191 42.9127C66.5857 43.1659 67.3736 44.0483 68.2226 44.7804C69.268 45.681 70.1106 46.8813 70.547 48.3647C71.1315 50.3544 71.9716 52.1382 73.0156 53.7743C75.0697 56.9925 75.0472 60.409 74.0861 63.897C72.6275 63.4911 71.4618 64.8093 70.1203 64.4565C70.0147 62.9731 70.0134 62.9673 70.9796 62.6054C71.7546 62.3149 72.5425 62.0683 73.3053 61.7363C73.5062 61.6483 73.6349 61.3146 73.7965 61.0938C73.7527 61.0009 73.7083 60.9079 73.6645 60.8149C72.4035 61.186 71.1425 61.5579 69.8654 61.9339C69.7817 61.5579 69.7283 61.3088 69.6703 61.0615C69.3755 59.8031 69.3646 59.7491 70.3031 59.1623C70.8007 58.851 71.3652 58.7024 71.8988 58.4791C72.3887 58.2749 72.5033 57.9205 72.1692 57.2863C71.0041 57.8242 69.8814 58.3421 68.7781 58.8518C68.4833 58.4824 68.2252 58.1587 67.9368 57.7976ZM24.0066 82.5429C23.9725 82.4433 23.9377 82.3437 23.9036 82.2449C23.3397 82.3163 22.7765 82.3877 22.2287 82.4566C22.0214 81.8241 22.1315 81.5128 22.5667 81.2829C22.9664 81.0721 23.3487 80.7633 23.6732 80.4038C23.9686 80.076 24.0433 79.6269 23.6094 79.1878C22.8486 79.7165 22.0832 80.2478 21.343 80.7616C20.5371 79.7315 20.5338 79.729 21.0861 78.8475C21.2857 78.5287 21.5142 78.2398 21.7125 77.9194C21.9397 77.5525 21.9268 77.1956 21.6017 76.7947C20.9657 77.5451 20.362 78.2573 19.7865 78.9363C19.1879 78.7113 18.6632 78.3228 18.1701 78.3619C16.1045 78.5229 14.4817 79.8328 13.0289 81.5867C12.6131 81.1476 12.1509 80.6595 11.6971 80.1806C11.7659 80.0195 11.7852 79.8992 11.8438 79.8469C14.082 77.8331 16.1071 75.2831 19.1943 75.3935C19.3932 75.401 19.603 75.3304 19.7891 75.2391C21.6397 74.3393 23.0108 75.6674 24.3156 77.0504C24.725 77.4836 24.9728 78.234 25.1775 78.8939C25.5953 80.2428 25.5393 81.6581 25.3899 83.0327C25.2071 84.7177 25.417 86.3239 25.8785 87.916C26.0349 88.4547 26.2261 88.9885 26.3188 89.543C26.5113 90.6943 26.8312 91.8954 25.9101 92.8035C25.8071 92.9048 25.8334 93.192 25.762 93.3671C25.5444 93.8984 25.3906 94.5267 25.061 94.9135C24.5724 95.4871 23.9545 95.8872 23.3912 96.3587C22.2261 97.334 20.8583 97.3158 19.5277 97.3979C19.1479 97.4212 18.7456 97.0883 18.353 96.9182C19.8322 95.8084 21.2535 94.9218 21.5213 92.6823C22.1869 92.6898 22.7739 93.5273 23.2831 92.6557C21.8 91.0056 21.8 91.0055 22.0388 90.2701C22.6587 90.6096 23.2786 90.9499 23.9654 91.326C24.3291 89.3379 22.6085 89.8825 22.2911 88.7718C23.0024 88.0198 23.5818 89.054 24.2596 89.0374C24.5512 87.4163 23.0436 87.9484 22.7997 87.0054C22.7475 85.9164 22.6941 84.7908 22.6426 83.715C23.137 83.2908 23.5721 82.9173 24.0066 82.5429ZM60.4351 71.7063C60.6269 73.1357 60.307 74.1957 59.5288 75.1885C58.0386 77.0885 56.2227 77.6696 54.1673 76.9682C53.4625 76.7275 52.8999 76.837 52.2942 77.1732C51.6305 77.5417 50.9739 77.985 50.2723 78.1842C49.2655 78.4698 48.1384 78.498 47.4658 77.2919C46.6592 75.8459 45.9164 74.2854 45.4091 72.6526C44.5955 70.0329 44.2253 67.2588 43.8983 64.5113C44.9708 63.9244 45.8668 64.2423 46.6437 65.3123C47.1104 65.9556 47.6621 66.5043 48.1912 67.072C48.4429 67.3426 48.7339 67.5543 49.0029 67.7992C49.4799 68.2341 49.6885 68.7172 49.523 69.5183C49.207 71.0489 49.0242 72.6269 48.7435 74.1708C48.6444 74.7154 48.5498 75.1711 49.2347 75.5214C49.3653 75.1055 49.5282 74.7245 49.6048 74.3144C49.7715 73.4179 49.8854 72.5049 50.0393 71.6034C50.1345 71.0448 50.2646 70.4969 50.3875 69.9051C51.3312 70.5998 51.3602 71.4565 51.243 72.4468C51.1098 73.5732 50.831 74.7237 51.3389 76.1564C52.1268 74.6548 51.8005 73.0012 52.2678 71.41C53.346 72.6178 52.943 74.3725 53.5739 75.7554C54.3701 74.6382 53.8249 73.4902 53.8648 72.3098C55.2095 72.5572 55.0872 74.3485 55.8545 75.2117C56.663 74.2065 55.8017 73.2785 55.7457 72.1629C57.2539 71.6491 58.8599 72.2177 60.4351 71.7063ZM9.01605 104.757C9.38875 104.774 9.51426 104.81 9.62691 104.778C9.88568 104.707 10.3208 104.666 10.3536 104.498C10.4199 104.159 10.2925 103.731 10.1901 103.363C10.1419 103.188 9.9507 103.081 9.85286 102.915C8.97742 101.444 8.42511 99.8325 8.28414 98.057C9.77367 98.7285 11.1473 99.347 12.4534 99.9355C12.7173 101.398 12.9761 102.836 13.2355 104.273C14.2345 103.043 13.0302 101.687 13.4305 100.587C14.0337 101.181 14.633 101.772 15.3417 102.471C15.726 104.443 15.8573 104.719 16.7411 105.047C16.5622 104.228 16.3916 103.498 16.2455 102.761C16.1238 102.148 16.2332 101.747 16.6645 101.83C17.2767 102.865 17.8078 103.764 18.3356 104.657C19.0771 104.034 19.1209 103.818 18.5184 103.185C17.8824 102.517 17.4492 101.781 17.4473 100.584C18.7038 100.683 19.426 102.351 20.7199 102.404C20.6909 100.803 19.2059 100.976 18.9265 99.6425C19.3983 99.7163 19.7891 99.8159 20.1791 99.8292C20.6593 99.8467 21.1415 99.8143 21.6159 99.7454C21.6899 99.7346 21.7285 99.4142 21.7826 99.2415C21.4414 99.0382 21.1576 98.868 20.7379 98.6173C21.9139 98.1583 22.8846 97.7789 23.9493 97.3631C23.8437 100.507 23.2322 103.229 22.0723 105.721C21.4608 107.035 20.4579 108.035 19.2863 107.707C17.8522 107.306 16.6574 107.561 15.4183 108.296C14.4425 108.875 13.3913 108.865 12.3479 108.401C12.0936 108.289 11.8734 108.017 11.6172 107.937C10.3369 107.536 9.72219 106.315 9.01605 104.757ZM23.9725 73.0975C23.2181 73.2553 22.5403 73.3814 21.8689 73.5416C20.5956 73.8454 19.3346 74.3966 18.0517 74.4281C16.3298 74.4705 15.0804 75.5795 13.7691 76.642C12.653 77.5459 11.5651 78.5063 10.4335 79.3795C8.86606 80.589 6.8268 80.3333 5.29157 78.791C5.44864 78.0066 5.52973 77.169 5.78399 76.4328C6.14962 75.3736 6.23009 74.1584 6.96391 73.2885C8.57896 71.3743 10.5371 70.7692 12.6896 71.0788C14.6478 71.3602 16.5364 71.0315 18.3343 70.306C19.7189 69.7474 21.0005 69.881 22.2499 70.6048C23.0069 71.0439 24.0298 71.4274 23.9725 73.0975ZM8.95552 103.626C6.88988 103.03 5.40293 101.702 3.96747 100.299C3.46087 99.8043 3.06821 99.0846 2.69872 98.404C1.75892 96.6749 1.60701 94.6877 1.67074 92.7263C1.71644 91.3251 1.91535 89.8924 2.60347 88.7477C3.29481 89.0432 3.90052 89.3022 4.63048 89.6143C4.54487 88.0521 3.20662 88.4415 2.94206 87.33C2.99806 86.7132 3.0283 85.9927 3.13451 85.2938C3.30896 84.1475 3.439 82.9671 3.76085 81.8897C4.15608 80.5665 4.85192 80.4437 5.71834 81.2015C5.89858 82.0972 6.06594 82.831 6.1921 83.5756C6.46632 85.195 6.81522 86.8112 6.95426 88.4456C7.09781 90.1381 7.11324 91.8614 7.03278 93.5539C6.92013 95.9304 7.42674 98.1666 7.95329 100.406C8.18567 101.393 8.5487 102.335 8.95552 103.626ZM61.268 59.623C63.8615 58.4086 63.8615 58.4086 63.9034 57.1991C62.0019 58.4974 60.4628 58.8269 59.3266 58.1778C62.5188 56.1449 62.5188 56.1449 62.6153 55.2941C61.3369 55.9557 60.0495 56.6106 58.7711 57.2913C58.43 57.4722 58.1525 57.5685 57.9601 56.8273C58.2665 56.5973 58.6108 56.3716 58.9276 56.096C59.5481 55.5556 60.1738 55.0185 60.755 54.4159C61.0408 54.1196 61.0962 53.6672 60.793 53.062C59.7103 54.6682 58.262 55.3555 56.9276 56.296C57.232 54.6035 58.3843 53.8755 59.3002 52.828C58.3109 50.7237 56.7512 50.0763 54.9771 49.7874C55.2546 48.8287 55.8506 48.6236 56.3765 48.2958C57.5964 47.5371 58.8194 47.9363 60.0682 48.3232C61.3981 48.7349 62.3533 49.545 62.8921 51.2583C63.3903 52.8437 64.0373 54.3478 65.3858 55.2144C65.8145 55.49 66.166 56.3417 66.2799 56.9958C66.7646 59.7823 65.9503 62.0202 64.3198 63.6322C64.0128 63.936 63.5487 63.9891 63.1084 64.1792C62.9584 63.1051 62.8406 62.2626 62.7248 61.4375C64.0134 60.8539 64.0134 60.8539 64.0817 60.2148C63.2082 59.6885 62.1171 60.9834 61.268 59.623ZM31.3918 104.044C32.4211 109.31 30.7655 113.169 27.9783 116.453C26.7829 117.862 25.35 118.788 23.6815 119.087C22.2557 119.343 19.5631 119.126 18.7829 118.648C20.0137 116.71 21.6983 115.508 23.3539 113.949C23.2335 114.725 23.1473 115.282 23.061 115.84C24.2454 114.505 24.6651 112.7 25.1943 110.663C25.5322 111.593 25.7581 112.217 26.107 113.178C26.8325 111.104 25.4099 109.281 26.1662 107.5C27.1659 109.069 27.547 110.981 28.5106 112.451C28.967 112.101 28.8608 111.701 28.7134 111.31C28.4643 110.648 28.181 110.006 27.9493 109.336C27.6841 108.57 27.4588 107.782 27.1917 106.924C28.4404 107.183 28.8833 108.835 30.1334 109.041C30.19 108.005 29.7118 107.575 29.2019 107.111C28.7262 106.678 28.3072 106.143 27.863 105.652C28.4939 105.874 29.0198 106.261 29.5231 106.69C30.0613 107.149 30.5782 107.648 31.1073 108.132C31.4285 107.844 31.5502 107.497 31.2502 107.098C30.938 106.683 30.5833 106.319 30.2531 105.924C30.031 105.66 29.8193 105.382 29.4646 104.936C30.2016 104.595 30.7546 104.339 31.3918 104.044ZM33.144 12.2324C33.8353 13.602 34.1488 14.8322 33.881 16.2076C33.7446 16.9099 33.9396 17.3448 34.5434 17.3232C35.0803 17.3041 35.3004 17.7266 35.3725 18.2604C35.4671 18.9643 35.4787 19.6831 35.5173 20.3962C35.5598 21.1723 35.592 21.9492 35.6474 23.1122C34.7487 25.4804 30.8646 31.6022 29.704 32.3268C29.2631 30.6924 29.1801 29.8117 29.5322 29.2174C30.4939 27.5954 31.5277 26.0407 32.4552 24.3872C33.1491 23.1503 33.7484 21.8214 34.3355 20.4933C34.5782 19.9438 34.732 19.2897 34.4224 18.7244C33.5939 20.2924 32.8138 21.8737 31.9499 23.3761C31.0687 24.9093 30.1051 26.3652 29.0269 28.0959C28.7765 26.6533 28.5666 25.5551 28.4012 24.4478C28.2827 23.6559 28.452 23.0134 28.8569 22.3311C30.1102 20.2194 31.2721 18.023 31.9898 15.4879C32.2917 14.418 32.7217 13.4094 33.144 12.2324ZM47.1091 51.6667C47.1993 49.8397 47.292 47.9538 47.3885 45.9873C48.4384 45.5681 49.1626 44.5887 49.899 43.5536C50.5349 42.6596 51.3132 41.8478 52.1539 41.2866C53.364 40.4781 54.6701 40.2266 55.9826 41.3497C57.0524 42.2653 58.1905 42.9526 59.5243 43.0348C59.9974 43.0638 60.4641 43.5428 61.0003 43.8549C60.3579 44.9995 59.8094 45.9782 59.2816 46.9195C58.7074 46.8108 58.2761 46.7294 57.933 46.6647C57.429 45.8495 58.5748 44.9829 57.7116 44.2873C56.8259 45.1033 57.2179 47.1627 55.7065 47.2839C55.6839 45.9317 56.2826 44.5621 55.2269 43.0472C55.111 44.3023 55.0666 45.2801 54.9218 46.2297C54.7164 47.5719 54.4345 48.2767 54.0199 48.8345C53.7052 45.471 53.7052 45.471 52.6933 44.5754C52.3392 45.4984 52.9366 46.2272 53.0203 47.0282C53.1098 47.8849 53.2971 48.754 52.9817 49.6413C52.5678 49.6521 52.179 49.6629 51.7548 49.6737C51.4696 48.0692 51.0911 46.6057 49.9788 45.637C49.6331 46.487 49.5926 46.5543 49.8687 46.8265C50.6463 47.5944 50.7364 48.6411 50.8401 49.6687C49.5456 50.3618 48.327 51.0151 47.1091 51.6667ZM43.2559 63.3907C43.3628 63.0918 43.3885 62.93 43.4632 62.8221C44.526 61.2823 45.0898 59.4711 45.3589 57.4407C45.4761 56.555 45.767 55.6527 46.1532 54.9048C47.411 52.471 49.2649 51.1811 51.552 50.7262C52.4152 50.5544 53.1657 50.4208 53.5822 51.8634C53.8925 51.3895 54.112 51.0541 54.3231 50.732C55.5133 51.089 56.8104 50.9503 57.7702 52.403C56.8188 54.0922 55.5481 55.1007 53.9549 55.6668C53.8938 54.5412 54.6334 53.4397 53.6633 52.3474C53.1329 53.6829 53.7451 55.8121 52.0058 56.1167C51.6949 55.026 52.0772 53.7253 50.9237 52.9824C50.5575 54.4225 51.814 55.8212 50.9533 57.1136C50.1159 56.3093 50.1552 54.7546 49.0222 54.0664C48.6669 55.8353 50.1307 56.6206 50.2021 58.0815C49.9762 58.3513 49.7162 58.6626 49.4027 59.0369C49.4394 56.897 48.8787 56.4554 47.2855 56.086C46.8884 57.1004 47.8674 57.1585 48.0567 57.7727C48.2633 58.4426 48.5491 59.0768 48.786 59.691C47.4799 61.6815 45.8475 62.4269 43.2559 63.3907ZM94.059 87.1839C93.7493 86.5215 93.5479 86.016 93.2923 85.5569C92.3905 83.9366 91.4964 82.308 90.5476 80.7309C89.8472 79.568 89.0696 78.4772 88.3197 77.3625C88.0513 76.9632 87.7442 76.8345 87.4559 77.1026C89.107 80.0884 90.7272 83.0177 92.3718 85.9927C92.0442 86.6452 91.7564 87.2187 91.4848 87.76C89.7359 86.9291 89.6947 86.8701 88.9949 84.8522C88.881 84.5243 88.7175 84.2089 88.5334 83.9333C87.6264 82.5762 86.6705 81.268 85.7977 79.8784C84.9113 78.4665 84.1021 76.979 83.2229 75.4624C83.9335 75.1976 84.2502 75.4491 84.5373 76.1273C85.0812 77.4114 85.7172 78.6366 86.3332 79.8718C86.4388 80.0843 86.6351 80.2262 86.7896 80.4005C86.8488 80.3449 86.9087 80.2901 86.9679 80.2345C86.3693 78.8151 85.77 77.3957 85.0465 75.6807C86.6943 76.0783 88.0474 76.4054 89.4417 76.7416C90.0468 78.1519 90.6621 79.5862 91.2775 81.0206C91.5112 79.5871 90.5135 78.586 90.469 77.1632C91.0336 77.3301 91.535 77.4778 91.8112 77.5592C92.142 78.2332 92.3229 78.7387 92.599 79.1396C93.9289 81.0729 95.1571 83.0891 96.0924 85.2349C95.9122 85.8317 95.759 86.2974 95.6296 86.7738C95.3895 87.6612 95.3387 87.701 94.581 87.4122C94.3866 87.3366 94.1948 87.2437 94.059 87.1839ZM9.63465 88.1493C9.70159 88.0239 9.76852 87.8986 9.83482 87.7732C9.63592 87.5632 9.45698 87.3067 9.23426 87.1532C8.8004 86.8527 8.32663 86.6452 7.89921 86.3331C7.52973 86.0633 7.39905 85.6574 7.67134 85.215C8.39679 85.083 9.08942 85.8043 10.0363 85.1934C9.48466 84.8032 9.10874 84.5401 8.73539 84.272C8.23201 83.9101 7.64045 83.6511 7.2568 83.1431C6.96649 82.7588 6.78174 82.0175 6.84225 81.5004C6.91242 80.9011 7.44218 81.2987 7.78205 81.2646C8.50107 81.1924 9.21752 81.0596 9.9256 80.8977C10.3002 80.8122 10.6556 80.6122 11.0051 80.4702C11.1609 81.4157 11.2291 82.2516 11.4415 83.0285C11.811 84.3791 11.7473 85.6408 11.4228 86.9689C10.8699 89.235 10.6601 91.5808 10.9137 93.9863C11.0746 95.5137 11.4647 96.9016 12.4148 97.9881C12.5622 98.1566 12.615 98.4571 12.7798 98.8655C11.7511 98.453 10.8416 98.2347 10.0382 97.7316C8.82936 96.9754 7.75824 95.9843 7.83484 93.9656C7.87539 92.8873 7.82068 91.7991 7.8239 90.7158C7.82454 90.5847 7.91531 90.4577 7.96423 90.329C8.2951 90.4245 8.597 90.5117 8.91885 90.6055C9.0315 89.8368 8.75791 89.4641 8.30345 89.1835C7.76274 88.8499 7.625 88.3236 7.87283 87.6487C8.47405 87.8197 9.05403 87.9841 9.63465 88.1493ZM87.0143 86.646C86.4182 86.2243 85.9071 85.9878 85.5286 85.5628C85.0696 85.0464 84.7162 84.3757 84.3281 83.7623C83.9689 83.1937 83.6174 82.8268 83.1649 83.5946C83.0935 83.7158 82.9165 83.7366 82.6616 83.8702C81.5962 80.9857 80.5656 78.1942 79.4894 75.2798C79.3729 75.5529 79.2551 75.6948 79.2731 75.8077C79.7694 78.9321 80.9152 81.7577 82.1298 84.7053C81.8904 84.5733 81.761 84.5418 81.6741 84.448C79.8035 82.4309 78.7388 79.6734 77.4289 77.145C77.295 76.8868 77.3104 76.4353 77.3709 76.1115C77.4804 75.5255 77.6754 74.9685 77.846 74.3601C79.1888 74.58 80.4369 74.7851 81.5421 74.966C83.6496 78.2706 85.6631 81.4265 87.732 84.6713C87.5389 85.2017 87.3239 85.7935 87.0143 86.646ZM96.9769 64.1228C95.3013 63.0553 93.6393 61.6251 92.0886 59.9533C91.4584 59.2735 90.8984 58.6144 90.5798 57.3842C92.2051 56.7858 93.7957 56.2006 95.1745 55.6926C97.1912 57.6789 99.0741 59.5325 100.975 61.4051C100.976 61.4599 100.988 61.5628 100.979 61.6633C100.971 61.7645 100.932 61.8608 100.926 61.9621C100.847 63.2661 100.772 63.3782 99.7725 63.6397C99.5755 63.6911 99.3779 63.7459 99.1777 63.7783C98.5198 63.8862 97.86 63.9858 96.9769 64.1228ZM15.2587 139.36C15.3662 139.422 15.4737 139.484 15.5812 139.547C15.6011 140.309 15.5985 141.073 15.6475 141.834C15.6906 142.497 15.5116 142.893 15.1319 143.395C13.8296 145.114 12.6369 146.966 11.4235 148.79C11.2014 149.124 11.1454 149.547 11.6765 149.801C12.9954 148.125 13.9442 145.949 15.6803 144.368C15.791 146.542 15.8889 148.474 15.9861 150.387C14.4334 151.357 13.7917 153.602 12.1856 154.5C11.8509 153.233 13.1763 152.197 12.3189 150.96C10.8673 150.978 10.362 150.315 10.3968 148.462C10.3994 148.308 10.4238 148.156 10.4361 148.003C10.5712 146.291 10.7701 144.625 12.064 143.629C12.2255 143.504 12.3067 143.226 12.4451 143.044C13.3797 141.812 14.3202 140.588 15.2587 139.36ZM12.763 84.3193C13.5361 84.8779 13.6501 85.7744 13.7498 86.6435C14.08 89.5172 14.456 92.3752 15.4254 95.0688C15.5767 95.4896 15.7865 95.8897 15.8844 96.3263C16.1032 97.2992 16.268 98.2903 16.4682 99.3428C17.5207 98.8323 16.7366 97.3946 17.2638 96.5513C17.4299 96.6218 17.7537 96.6749 17.7666 96.777C17.8689 97.6088 18.3085 98.4447 17.838 99.337C17.3926 99.1386 17.0334 99.2058 16.8332 99.8923C16.6343 100.575 16.1592 100.959 15.5863 100.869C14.998 100.777 14.503 100.396 14.3279 99.5611C14.064 98.3044 13.3939 97.3747 12.6942 96.4666C12.4991 96.2134 12.3131 95.9113 12.2075 95.5909C11.6707 93.9656 11.4711 92.2598 11.6984 90.5664C11.9745 88.5012 12.3897 86.47 12.763 84.3193ZM56.4776 68.2092C58.0721 66.9591 58.8593 65.0765 59.1606 62.7996C59.1857 62.6112 59.2545 62.3116 59.3505 62.2817C60.3044 61.9845 60.1474 61.1154 59.848 60.0687C60.9514 60.6199 61.6723 61.3811 61.9092 62.5938C62.2227 64.1975 62.4048 65.8385 62.6205 67.468C62.6501 67.6904 62.5799 67.9602 62.495 68.1652C62.307 68.6185 62.0798 69.0443 61.7496 69.7266C61.1438 70.0312 60.3347 70.6082 59.4599 70.8339C58.5317 71.073 57.532 71.146 56.5793 70.5708C56.5458 69.8013 56.5156 69.0908 56.4776 68.2092ZM23.2413 48.2817C23.1447 47.9861 22.967 47.3644 22.7366 46.7734C22.6175 46.4679 22.4379 46.1658 22.2287 45.9516C21.4595 45.1614 20.6568 44.4243 19.8856 43.6366C19.4376 43.1784 18.9979 42.6944 18.6137 42.1557C18.4907 41.9831 18.4579 41.4485 18.5602 41.3389C18.734 41.1513 19.0803 41.0359 19.296 41.1281C19.7176 41.3099 20.1038 41.6452 20.4965 41.9341C22.9625 43.7461 25.5515 45.1581 28.2679 46.2148C28.9168 46.4671 29.2985 46.3235 29.6995 45.3797C29.892 47.3487 30.0491 48.9557 30.2267 50.7727C28.1115 48.9358 25.7034 49.5724 23.2413 48.2817ZM88.8096 75.0308C89.1939 74.5626 89.4597 74.1426 89.7951 73.8454C91.452 72.3754 93.3136 71.3975 95.2234 70.565C95.7223 70.3475 96.2765 69.9756 96.8333 70.6339C96.9363 70.7559 97.2678 70.5716 97.4931 70.5218C98.3113 70.34 99.1288 70.1549 99.9212 69.9765C99.9205 71.107 99.9199 72.0732 99.9192 73.1756C99.8491 73.2212 99.6469 73.4022 99.4204 73.4918C97.1874 74.3783 94.9544 75.2657 92.7091 76.1032C92.4246 76.2095 92.0667 76.0285 91.6238 75.9638C92.236 74.6025 93.6438 74.8341 94.1497 73.2204C93.1037 73.8762 92.2025 74.263 91.4764 74.9428C90.6377 75.7272 89.8697 75.5629 88.8096 75.0308ZM16.1006 127.464C16.0961 126.983 16.0897 126.202 16.0813 125.263C18.286 126.245 19.9082 127.922 21.5258 129.688C21.9159 128.836 21.4054 128.512 21.0475 128.124C19.4466 126.382 17.7807 124.76 15.8702 123.685C15.8174 123.15 15.7659 122.74 15.7434 122.328C15.7357 122.189 15.8007 122.047 15.8303 121.912C18.5506 122.288 22.2313 125.389 22.8389 127.85C21.2619 129.221 22.4624 130.694 22.9805 132.171C22.4746 132.406 22.0362 132.61 21.7981 132.722C19.9088 130.978 18.1418 129.347 16.1006 127.464ZM49.0197 61.3786C49.8726 60.2223 50.7029 59.0867 51.5455 57.9678C51.6498 57.8292 51.8165 57.7495 51.9672 57.6856C52.6894 57.3776 53.4117 57.0688 54.141 56.7891C55.3415 56.3276 57.1335 57.6241 57.4914 59.2336C58.1487 59.4636 58.8368 59.7134 58.746 61.0905C57.4361 61.3902 56.1455 61.8708 54.8317 61.9405C52.9443 62.041 51.0087 62.8245 49.0197 61.3786ZM28.434 33.1693C27.6545 32.7194 27.0372 32.4264 26.4668 32.0222C24.5885 30.6891 22.7231 29.3253 20.8608 27.9556C19.3706 26.8599 18.8447 25.1002 18.5918 22.8183C19.229 22.9935 19.7833 22.9735 20.1772 23.2865C21.334 24.2037 22.4032 25.3027 23.5515 26.2391C24.9683 27.3945 26.4302 28.4578 28.0703 29.7121C28.1675 30.2931 28.331 31.2046 28.4675 32.121C28.5035 32.3617 28.4552 32.6182 28.434 33.1693ZM96.7438 68.5911C96.4535 68.7853 96.3621 68.8733 96.2579 68.9123C93.1809 70.0769 90.2579 71.5918 87.864 74.3725C87.4411 74.8639 86.9377 74.8083 86.3886 74.1916C87.4005 73.242 88.3422 72.3588 89.2833 71.4756C89.2273 71.3336 89.172 71.1917 89.116 71.0506C88.9911 71.166 88.8675 71.2847 88.7407 71.3959C87.8865 72.1479 87.0085 72.8626 86.1845 73.6628C85.5846 74.2455 85.0104 74.3966 84.3332 73.8703C85.2319 70.8721 90.7059 66.8902 93.4861 67.1658C93.5826 67.7743 93.6824 68.3985 93.7822 69.0277C94.8012 69.0733 95.5569 68.0374 96.7438 68.5911ZM90.2051 65.802C89.8601 66.857 89.6412 67.1135 89.0934 67.473C88.3821 67.9411 87.6168 68.3362 87.0014 68.9596C85.8131 70.1616 84.7066 71.4922 83.5788 72.7879C83.134 73.2992 82.733 73.8986 81.9683 73.1905C82.3416 72.4584 82.7118 71.7321 83.0825 71.0049C83.0124 70.9302 82.9422 70.8563 82.872 70.7816C82.4208 71.3843 81.9039 71.9288 81.5344 72.6045C81.0832 73.4304 80.585 73.54 79.8222 73.0751C80.0095 72.5563 80.115 72.0392 80.3513 71.6524C81.2061 70.2496 82.0462 68.821 83.0079 67.541C83.6207 66.7251 84.1942 65.724 85.4134 66.0394C85.9612 66.1805 86.6087 65.6011 87.2904 65.3156C87.34 65.6518 87.3644 65.8958 87.4127 66.1341C87.6258 67.1824 87.8665 67.3269 88.6203 66.8487C89.0818 66.5541 89.5357 66.2445 90.2051 65.802ZM85.9721 58.0176C86.3268 54.4284 87.2035 51.1321 88.5334 47.9803C89.7159 48.2675 90.1575 46.8514 90.9833 46.3982C91.3638 46.829 91.7094 47.2192 92.1233 47.6882C91.1108 50.444 90.068 53.2032 89.0883 55.9989C88.7645 56.9227 88.2386 57.2581 87.32 57.3436C87.6361 56.3018 87.9174 55.3746 88.2418 54.3063C87.0464 55.2767 87.1301 57.2116 85.9721 58.0176ZM89.5125 57.9952C91.5942 61.5413 94.5482 63.4737 97.4429 65.885C96.4027 66.4287 95.5871 66.8554 94.7677 67.2837C94.3113 65.5879 94.1529 65.4468 92.7535 65.5904C92.4388 65.6227 92.1324 65.7447 91.9103 65.8029C90.0912 63.7069 87.9348 62.2609 86.5592 59.7259C86.5444 59.6977 86.5727 59.6337 86.601 59.4644C86.8186 59.3416 87.0896 59.188 87.2621 59.0909C87.9451 60.4497 89.0458 60.9801 89.8891 62.236C89.9798 60.3709 88.3912 60.165 88.2734 58.6999C88.6396 58.4924 89.0368 58.2658 89.5125 57.9952ZM15.2773 132.367C15.3984 133.429 14.7997 133.617 14.4161 133.979C13.9359 134.433 13.3823 134.767 12.9137 135.237C11.4035 136.75 10.4302 138.822 9.42993 140.851C9.06173 141.598 8.65235 142.118 7.74988 141.99C7.75953 141.545 7.71897 141.094 7.7872 140.674C7.95649 139.635 8.32791 138.657 8.04018 137.512C7.97195 137.241 8.23394 136.748 8.44636 136.492C9.86831 134.78 11.289 133.063 12.7714 131.437C13.4737 130.666 14.3118 130.092 15.1312 129.393C15.4035 131.351 15.3797 131.442 14.2403 132.273C13.5432 132.783 12.8274 133.254 12.1309 133.763C11.9146 133.921 11.7325 134.15 11.5342 134.347C11.5857 134.453 11.6372 134.56 11.688 134.666C12.8667 133.912 14.0447 133.158 15.2773 132.367ZM18.4856 68.9306C17.3031 69.6951 16.1335 69.8619 14.9606 69.9159C13.9494 69.9624 12.9265 69.798 11.9146 69.8395C10.5481 69.8951 9.18533 70.0545 7.7885 71.0099C8.08267 69.9748 8.34787 69.2394 8.4985 68.4641C8.71929 67.3269 9.30828 66.7989 10.1599 66.5474C11.7241 66.0851 13.3198 66.0618 14.8589 66.6396C16.0916 67.1011 17.3758 67.6 18.4856 68.9306ZM49.2952 62.8121C50.8838 63.3575 52.0039 64.5453 53.2346 65.4575C54.3489 66.2835 54.9462 67.7004 55.6884 68.9347C56.0264 69.4975 55.9569 70.2529 55.6228 70.8231C55.3048 71.366 54.8123 71.4374 54.307 71.2481C53.7966 71.0564 53.2668 70.8987 52.7937 70.599C51.3067 69.6594 50.1268 68.2922 49.6569 66.2303C49.4213 65.2019 49.422 64.0971 49.2952 62.8121ZM94.1626 51.079C94.086 51.0267 94.01 50.9744 93.9334 50.9213C93.0329 52.0676 92.3158 53.3866 91.7848 54.8691C91.4384 55.837 90.8224 56.0113 90.0603 55.9632C90.666 54.2325 91.2183 52.5889 91.8137 50.9728C92.4072 49.3624 92.964 47.7122 94.0957 46.4298C94.6969 47.2814 95.2118 47.0216 95.7551 46.3717C96.021 46.0537 96.4194 45.911 96.982 45.5424C96.9234 46.2986 96.9704 46.7726 96.8443 47.1494C96.1542 49.2163 95.3605 51.2276 94.7252 53.321C94.2926 54.7471 93.4558 54.9148 92.2341 54.9729C92.946 53.5352 93.5543 52.3067 94.1626 51.079ZM27.5296 27.563C27.267 27.4161 26.9979 27.3157 26.7707 27.1297C24.725 25.458 22.7121 23.7181 20.6355 22.1119C19.5618 21.281 19.3951 20.0517 19.1962 18.7402C20.0073 18.878 20.7984 18.8215 21.4614 19.1743C22.2049 19.5702 22.8261 20.3489 23.5135 20.9349C23.9583 21.3142 24.416 21.6736 24.8866 21.9949C26.595 23.162 27.9049 24.632 27.5296 27.563ZM79.3207 60.9718C79.4231 60.9818 79.5254 60.9917 79.6278 61.0017C79.6703 60.5219 79.7649 60.0413 79.7449 59.564C79.7089 58.6883 79.5795 57.8142 79.5351 56.9385C79.4128 54.5072 79.9142 52.2801 80.7858 50.0456C81.8859 51.1894 82.1537 49.4496 82.9564 49.1341C82.78 50.6216 82.6229 51.9273 82.4717 53.2339C82.2264 55.3564 81.5814 57.3925 81.7797 59.6155C81.8022 59.8695 81.6709 60.2613 81.5087 60.3908C80.6822 61.0532 79.8222 61.65 78.8328 62.373C78.78 61.3744 78.7407 60.6348 78.7015 59.8944C78.7594 59.877 78.8167 59.8604 78.8746 59.8429C79.024 60.2189 79.1727 60.595 79.3207 60.9718ZM13.4383 82.1819C14.0884 81.7087 14.68 81.2829 15.2683 80.8496C17.652 79.0932 18.0845 79.1828 20.2249 81.3609C21.7189 82.8816 21.7697 84.8248 21.7047 86.934C21.5303 86.8668 21.4312 86.8676 21.3874 86.8054C19.7157 84.4662 17.7163 83.1315 15.202 83.339C14.922 83.3622 14.624 83.2394 14.3556 83.3041C13.7119 83.4602 13.5941 82.9298 13.4383 82.1819ZM102.79 72.8759C102.623 73.3748 102.585 73.564 102.505 73.7168C101.788 75.0814 101.95 75.5504 103.222 75.8119C103.646 75.899 104.065 76.0368 104.481 76.1506C104.262 77.7028 104.179 77.7966 103.224 77.8547C102.861 77.8771 102.501 77.9501 102.141 78.0083C100.773 78.2299 99.4075 78.4598 98.0396 78.6756C97.6798 78.7321 97.3251 78.7238 97.1133 78.1294C97.7744 77.6165 98.3943 77.135 99.0142 76.6544C98.9653 76.5465 98.917 76.4394 98.8681 76.3315C98.2141 76.6669 97.5305 76.9341 96.9131 77.3525C95.9135 78.0307 95.0844 77.5085 93.9785 76.754C96.982 75.4018 99.9759 74.8656 102.79 72.8759ZM87.9425 46.3949C88.0236 46.4771 88.1047 46.5593 88.1858 46.6423C87.7494 47.6682 87.2885 48.6784 86.881 49.7227C85.947 52.1158 85.499 54.7205 85.0877 57.327C84.8733 58.6833 84.2985 59.3183 83.2016 59.398C83.2274 58.1463 83.9045 57.1336 83.6181 55.8428C83.3761 56.5235 83.1334 57.2049 82.8907 57.8856C83.0458 55.373 83.3072 52.9392 83.7964 50.5901C83.9953 49.6355 84.6879 48.8627 85.1546 48.0102C85.6052 48.2709 85.8962 48.4394 86.2167 48.6245C86.8076 47.8616 87.3747 47.1279 87.9425 46.3949ZM16.9143 150.783C17.3829 151.408 17.7781 151.858 18.0916 152.385C18.2461 152.643 18.3568 153.078 18.3047 153.373C17.9313 155.478 17.5078 157.572 16.3967 159.268C16.0852 159.744 15.688 160.129 15.2349 160.669C14.9021 159.723 14.586 159.038 14.4206 158.304C14.1554 157.127 13.9262 155.956 13.0739 155.257C14.035 154.038 14.9233 152.911 15.9809 151.569C16.0556 152.97 16.1154 154.098 16.1753 155.225C16.886 153.886 16.7006 152.368 16.9143 150.783ZM17.9011 133.285C17.9513 133.134 18.0021 132.983 18.0524 132.832C17.6764 132.566 17.3179 132.233 16.9201 132.049C16.353 131.788 16.1335 131.344 16.2165 130.627C16.2616 130.236 16.3053 129.846 16.3555 129.401C18.8589 130.544 20.5589 132.926 22.3961 135.025C22.8383 135.53 23.464 136.235 23.3494 137.02C22.7089 137.578 22.212 138.011 21.668 138.485C21.3501 138.047 20.9542 137.443 20.5087 136.904C20.091 136.399 19.6294 135.948 19.1717 135.499C18.6812 135.018 18.1586 134.589 17.6771 134.095C17.2503 133.658 16.539 133.625 16.3304 132.601C16.9355 132.864 17.4183 133.075 17.9011 133.285ZM-28.6117 89.1985C-28.6432 89.0648 -28.6741 88.9312 -28.7056 88.7967C-28.2139 88.522 -27.7285 88.2273 -27.2284 87.9766C-26.723 87.7234 -26.1237 87.5906 -26.3529 86.4899C-26.6104 86.5663 -26.8061 86.592 -26.9799 86.6809C-27.8766 87.1382 -28.7803 87.5782 -29.6564 88.0912C-30.3786 88.5137 -30.9593 88.3518 -31.5064 87.5665C-31.3983 87.4362 -31.3287 87.2968 -31.229 87.242C-30.8968 87.0619 -30.5576 86.8958 -30.2132 86.7539C-29.041 86.2683 -28.9425 85.9006 -29.6512 84.5575C-29.8032 84.2703 -29.9718 83.9964 -30.1314 83.7192C-29.4787 82.2416 -28.2776 82.6392 -27.3841 82.562C-26.4578 82.4815 -25.762 83.6594 -24.9413 84.5127C-25.5998 84.7808 -26.1134 84.99 -26.6271 85.2C-26.6194 85.2913 -26.6117 85.3826 -26.604 85.4739C-25.6545 85.7279 -24.705 85.9828 -23.7556 86.2368C-23.7401 86.3439 -23.7247 86.4518 -23.7092 86.5588C-25.1595 87.5068 -26.6052 88.4655 -28.0677 89.3836C-28.1913 89.4616 -28.4276 89.2665 -28.6117 89.1985ZM30.6792 9.20843C31.3313 9.95135 31.5946 10.7158 31.5386 11.6663C31.5116 12.127 31.4253 12.6873 31.5914 13.0401C31.8611 13.6153 31.6635 14.0137 31.5431 14.4844C30.8839 17.0626 29.5476 19.1303 28.4115 21.3483C28.3613 21.4462 28.2093 21.4578 28.0059 21.5591C27.8186 20.7788 27.6184 20.0492 27.4755 19.3038C27.4118 18.9726 27.3751 18.5592 27.4749 18.2703C28.5093 15.2837 29.5753 12.3146 30.6792 9.20843ZM15.2632 134.713C15.614 136.282 15.3649 137.742 14.5969 138.699C13.1435 140.511 11.6803 142.312 10.532 144.47C10.4425 144.637 10.3562 144.856 10.2243 144.928C9.98996 145.056 9.66746 145.238 9.48272 145.123C9.29154 145.004 9.07718 144.515 9.1216 144.267C9.2793 143.387 9.44153 142.465 9.78913 141.7C10.3273 140.514 11.0006 139.427 11.6514 138.331C12.5963 136.736 13.7794 135.506 15.2632 134.713ZM102.808 60.7419C101.021 60.331 97.3631 56.97 96.7941 55.373C97.15 55.1704 97.5124 54.9646 97.7821 54.8118C98.4638 55.3995 99.0187 55.8785 99.5742 56.3574C99.6405 56.2844 99.7068 56.2122 99.7731 56.1391C99.5568 55.7058 99.3406 55.2717 99.114 54.8177C99.7854 54.3063 100.351 54.4391 100.981 55.109C101.801 55.9823 102.706 56.7268 103.586 57.5063C104.032 57.9005 104.501 58.25 105.086 58.7215C104.174 59.3499 102.789 58.8078 102.808 60.7419ZM15.7408 92.8375C17.1319 92.5561 17.977 91.5957 18.6845 90.3622C19.3855 89.1412 19.2072 87.6081 19.4601 86.1695C21.3552 87.9882 21.2226 90.6777 20.3871 93.3721C19.7704 95.3593 18.2796 95.6739 16.6703 95.4921C16.5416 95.248 16.3691 95.0107 16.2777 94.7326C16.089 94.1623 15.9442 93.5696 15.7408 92.8375ZM-18.3562 87.4155C-18.1862 88.4489 -18.7643 89.0623 -19.2207 89.6401C-21.0681 91.9784 -23.0192 94.1615 -25.7684 95.4896C-25.4247 94.6811 -25.1962 94.1457 -24.9342 93.529C-25.406 93.1953 -25.7884 92.9247 -26.3484 92.5279C-25.5534 91.9701 -24.8827 91.5501 -24.2538 91.0487C-22.8924 89.9621 -21.5419 88.8523 -20.2081 87.7143C-19.6256 87.2179 -19.0346 87.0785 -18.3562 87.4155ZM-26.734 140.017C-26.1862 137.304 -24.9438 135.537 -24.0079 133.61C-23.1131 133.389 -22.2519 133.177 -21.1885 132.914C-21.4756 133.392 -21.6185 133.686 -21.8032 133.928C-22.6136 134.986 -23.4343 136.031 -24.257 137.075C-24.5029 137.388 -24.7456 137.688 -24.6323 138.401C-23.8656 137.648 -23.2013 137.033 -22.5711 136.366C-21.9184 135.674 -21.2985 134.933 -20.6645 134.213C-20.6677 135.485 -20.8312 136.59 -20.9986 137.693C-21.0906 138.298 -21.3352 138.692 -21.8521 138.814C-23.3951 139.176 -24.9316 139.571 -26.734 140.017ZM-14.9999 100.147C-17.0572 100.292 -18.9606 100.365 -20.8505 99.8765C-21.35 99.7479 -21.8199 99.3436 -22.2731 99C-22.3594 98.9344 -22.3446 98.5393 -22.2937 98.3318C-22.2712 98.2388 -21.9641 98.1434 -21.9236 98.2015C-21.6706 98.5617 -21.4492 98.4862 -21.1756 98.2753C-19.8354 97.2444 -18.4997 96.2151 -17.5509 94.5749C-17.3488 94.2246 -17.0778 93.939 -16.8139 93.5904C-16.5133 94.8272 -16.4991 94.8413 -16.9613 95.61C-17.276 96.1329 -17.652 96.5961 -17.9738 97.1132C-18.0981 97.3133 -18.1483 97.588 -18.2326 97.8288C-18.1702 97.8927 -18.1077 97.9566 -18.0453 98.0197C-17.493 97.3705 -16.94 96.7214 -16.3337 96.0092C-15.8934 97.3764 -15.4782 98.663 -14.9999 100.147ZM15.3578 92.1095C15.0121 89.5081 14.6929 87.1017 14.3639 84.6264C15.6082 84.643 16.783 84.2463 17.8992 85.0307C17.9964 85.342 18.0871 85.6292 18.1772 85.9172C18.9413 88.3551 18.1753 90.5025 16.2307 91.4256C15.9854 91.5426 15.7769 91.7767 15.3578 92.1095ZM21.7968 2.43088C21.9011 2.34455 22.0047 2.25906 22.109 2.17273C23.0205 2.97209 24.0028 3.67101 24.8222 4.59986C25.6242 5.50962 26.2609 6.65512 27.0024 7.74501C26.6587 9.24744 26.3033 10.8047 25.9474 12.3619C25.6165 11.9734 25.4987 11.6049 25.3989 11.2297C24.9541 9.55457 24.5209 7.8745 24.0697 6.20107C23.818 5.2689 23.4794 4.40314 22.6426 3.82707C22.5982 4.15245 22.4984 4.40314 22.5486 4.59737C22.9303 6.07988 23.3578 7.54496 23.7343 9.02914C23.8869 9.63011 23.9461 10.2659 24.0787 11.0719C23.1331 10.4295 22.4205 9.92478 22.5383 8.63734C22.5506 8.50287 22.4282 8.3518 22.4122 8.20238C22.2023 6.27993 22.0002 4.35499 21.7968 2.43088ZM18.4798 151.422C18.1547 150.975 17.8586 150.617 17.6101 150.214C17.3076 149.722 16.8583 149.217 16.8016 148.675C16.6439 147.167 16.6562 145.637 16.5899 143.792C17.5683 144.754 18.3523 145.437 19.0527 146.238C19.818 147.113 20.5692 148.033 21.2104 149.05C21.8592 150.078 21.7987 150.796 21.1679 151.925C20.5338 151.522 19.8792 151.106 19.2142 150.684C18.9516 150.947 18.7134 151.187 18.4798 151.422ZM103.346 85.542C103.261 84.6837 103.189 83.9449 103.096 82.9887C103.839 83.4079 104.454 83.754 105.144 84.1433C105.239 82.8858 104.436 82.6758 103.929 82.1943C103.345 81.639 102.678 81.2057 102.154 80.5748C101.621 79.9324 100.75 80.7599 100.33 79.5788C100.879 79.441 101.445 79.3903 101.953 79.1538C103.029 78.6507 103.958 79.0525 104.806 79.9033C105.219 80.3183 105.638 80.8189 105.883 81.3925C106.473 82.7696 107.368 84.0529 107.119 85.845C106.685 85.8641 106.281 85.9296 105.881 85.8881C105.028 85.8018 104.179 85.659 103.346 85.542ZM96.1317 52.3208C96.2418 50.0431 98.1722 46.0255 99.0033 46.2538C99.1951 46.6663 99.3753 47.0531 99.5478 47.4234C100.597 47.2291 101.127 45.5872 102.497 46.2646C102.022 46.912 101.628 47.4582 101.227 47.9953C100.254 49.2952 99.3657 50.7055 98.9228 52.4129C98.7136 53.2181 98.3879 53.463 97.8407 53.5452C97.338 53.6207 96.8301 53.6572 96.1401 53.7303C96.8217 52.4096 97.4249 51.24 98.0287 50.0705C97.9482 49.9941 97.8671 49.9186 97.7866 49.8422C97.2356 50.6673 96.6846 51.4924 96.1317 52.3208ZM102.982 55.4502C103.503 55.3589 103.872 55.4278 104.017 55.2319C104.158 55.0418 104.069 54.5794 104.083 54.1685C105.123 55.016 106.115 55.8245 107.176 56.6895C107.345 56.2213 107.454 55.9192 107.573 55.5888C107.095 55.1181 106.663 54.6923 105.983 54.0233C107.037 53.9029 107.772 53.79 108.511 53.7435C109.254 53.6971 110 53.7178 110.863 53.707C110.415 52.5217 109.718 52.4918 108.987 52.4959C108.284 52.5001 107.58 52.4503 106.612 52.4146C107.3 51.6883 107.775 51.1861 108.081 50.8624C108.902 51.0964 109.537 51.3562 110.182 51.4442C111.2 51.5829 111.888 52.2145 112.418 53.4289C111.254 54.1104 110.189 54.8168 109.069 55.3539C108.515 55.6195 108.038 55.8453 107.782 56.5741C107.695 56.8223 107.481 57.0954 107.281 57.1585C106.253 57.4847 105.219 57.7387 104.282 56.6687C103.951 56.2919 103.566 55.993 102.982 55.4502ZM16.3967 134.699C18.4418 135.851 19.9899 137.422 21.3082 139.305C21.7002 139.865 21.9648 140.273 22.5486 140.062C22.8061 140.788 23.0333 141.429 23.2483 142.035C22.5789 142.449 21.9925 142.811 21.3397 143.215C20.1437 140.79 18.1064 139.214 16.3903 137.324C16.3922 136.448 16.3942 135.688 16.3967 134.699ZM14.512 122.125C14.839 122.885 14.9259 123.523 14.2732 124.119C12.0209 126.176 10.0569 128.637 8.19853 131.232C7.85029 131.718 7.59346 132.308 7.26775 132.822C7.18407 132.954 6.95425 133.089 6.86671 133.031C6.70964 132.928 6.49208 132.658 6.50688 132.497C6.55709 131.946 6.65171 131.387 6.81135 130.874C7.59989 128.342 9.15379 126.674 10.8712 125.204C12.062 124.184 13.2626 123.181 14.512 122.125ZM14.8995 125.043C14.987 125.973 15.1113 126.682 15.0958 127.38C15.0881 127.74 14.9008 128.188 14.6774 128.413C14.0215 129.074 13.3057 129.64 12.6163 130.248C10.9246 131.74 9.31859 133.344 8.18052 135.573C8.10327 135.725 7.93075 135.797 7.66554 136.023C8.39293 133.841 8.39293 133.841 8.08137 132.619C10.4212 130.403 12.0749 127.099 14.8995 125.043ZM-17.7311 89.6957C-17.5548 90.1705 -17.2986 90.676 -17.1885 91.2222C-17.1164 91.58 -17.1853 92.0415 -17.3115 92.3818C-18.1566 94.6529 -19.7421 95.9503 -21.3661 97.3515C-21.9326 95.6008 -23.3217 96.6874 -24.1785 95.7926C-23.1994 94.9982 -22.2963 94.2628 -21.3912 93.5306C-20.8872 93.1222 -20.3974 92.6806 -19.8708 92.3229C-18.9162 91.6721 -17.9371 91.0736 -17.7311 89.6957ZM21.5187 147.548C19.9204 145.829 18.5628 144.38 17.2175 142.913C16.9774 142.651 16.6401 142.343 16.5976 142.014C16.4817 141.125 16.5004 140.211 16.4598 139.166C18.7585 140.559 20.1927 142.763 21.4884 145.117C21.7594 145.076 21.9918 145.04 22.2866 144.994C22.4437 145.824 23.2612 146.369 22.8248 147.495C22.3175 147.515 21.8 147.536 21.5187 147.548ZM-19.4022 75.4749C-18.4444 76.6652 -17.8464 77.7816 -17.5071 79.0915C-17.3056 79.8693 -16.9709 80.701 -17.0327 81.4506C-17.1479 82.8526 -17.5084 84.2131 -17.8135 85.8383C-18.7746 82.4483 -19.818 79.3729 -21.9777 76.7208C-20.8035 76.8694 -19.5419 78.0406 -19.4022 75.4749ZM0.363372 69.0377C0.460571 69.109 0.557772 69.1796 0.654971 69.251C0.53653 69.8262 0.434816 70.4081 0.295776 70.975C-0.0878719 72.5389 -0.470861 74.0812 -1.2948 75.4085C-2.21208 76.8852 -2.99933 78.493 -3.83872 80.0477C-4.11744 80.5641 -4.38265 81.092 -4.7663 81.8307C-4.92594 80.3499 -5.17699 79.1886 -4.19599 78.376C-4.00867 78.2208 -4.01253 77.7244 -3.90696 77.3965C-3.57288 76.3639 -3.35079 75.2283 -2.86222 74.3319C-1.86383 72.4982 -0.720626 70.7949 0.363372 69.0377ZM84.4864 64.3353C84.3378 64.5544 84.2052 64.7951 84.0378 64.9894C83.5061 65.6036 82.9699 66.2121 82.4214 66.8023C81.5421 67.7494 81.0021 69.2169 79.7172 69.5573C79.5615 69.5988 79.463 69.9283 79.331 70.1159C79.1373 70.3915 78.9371 70.6596 78.6165 71.1004C78.7079 69.7009 78.8482 68.5828 78.8392 67.4597C78.8257 65.8012 79.481 64.8159 80.5611 64.1419C80.7472 64.6607 80.9113 65.1189 81.1315 65.7348C82.1781 64.8798 83.1546 64.117 84.4864 64.3353ZM-23.1344 128.809C-21.3488 129.005 -19.6623 127.943 -17.9719 129.282C-18.8486 130.533 -19.688 131.472 -21.0359 131.627C-22.4186 131.785 -23.771 132.264 -25.3146 132.646C-25.005 131.576 -24.687 130.88 -24.0697 130.545C-23.4968 130.236 -23.1376 129.781 -23.1344 128.809ZM28.201 6.0915C28.8949 6.34717 28.8428 6.95976 28.9039 7.51508C28.9644 8.06791 28.9065 8.84403 29.1659 9.12127C29.713 9.70482 29.5347 10.1921 29.3403 10.7515C28.7559 12.4316 28.1675 14.1108 27.5586 15.776C27.4195 16.1561 27.1891 16.4807 26.9657 16.8949C26.2853 15.4373 25.8264 14.1432 26.7024 12.7927C26.7732 12.6839 26.7758 12.503 26.8087 12.3552C27.265 10.2991 27.7221 8.24472 28.201 6.0915ZM52.7847 63.3425C54.7049 63.0163 56.4873 62.7125 58.3572 62.3946C58.2368 64.6864 57.5294 66.3905 55.9176 67.1899C54.8935 65.9323 53.8977 64.7096 52.7847 63.3425ZM-20.4823 85.5171C-21.455 83.5274 -22.3426 81.712 -23.2432 79.8709C-23.1035 79.3015 -22.9471 78.6673 -22.7623 77.9153C-20.3858 79.6991 -19.7646 82.7671 -18.7019 85.8143C-19.4421 85.6906 -19.9957 85.5984 -20.4823 85.5171ZM99.8916 52.5017C100.289 50.5776 101.44 49.4031 102.387 48.0484C102.479 47.9164 102.661 47.8766 102.808 47.8176C103.219 47.6541 103.633 47.5022 104.045 47.347C104.429 47.2026 104.805 46.9892 105.199 46.9353C105.704 46.8656 105.985 47.3412 105.77 47.9289C105.628 48.3157 105.35 48.651 105.075 48.9175C104.029 49.936 102.925 50.874 102.458 52.5657C102.429 52.6719 102.203 52.6844 101.984 52.7748C101.886 51.2957 103.117 50.8283 103.166 49.5575C102.752 49.8563 102.407 50.2307 102.114 50.664C101.724 51.2417 101.361 51.851 101.013 52.471C100.705 53.0214 100.369 52.9724 99.8916 52.5017ZM65.0363 53.4854C64.1042 52.3034 63.5854 51.0616 63.2146 49.7418C62.9095 48.6544 62.3508 47.9803 61.5185 47.6259C61.1425 47.4657 60.7525 47.3611 60.3791 47.2341C60.7589 46.3418 61.1213 45.4893 61.4933 44.6152C63.8255 46.8813 65.6272 49.335 65.0363 53.4854ZM16.8235 120.764C16.8403 120.638 16.8564 120.511 16.8731 120.384C18.53 120.113 20.1978 120.276 21.8663 120.488C22.2371 121.553 22.9915 122.386 22.8228 123.541C22.3143 123.837 21.9023 124.077 21.6835 124.204C19.9757 122.994 18.3993 121.878 16.8235 120.764ZM20.5177 14.1399C20.9709 15.4846 21.8155 16.0541 22.7057 16.6227C23.6152 17.2045 24.4469 17.9881 25.3333 18.6364C26.2383 19.2988 26.604 20.2966 26.7108 21.6097C26.528 21.5624 26.4044 21.5707 26.3175 21.5027C24.6143 20.153 22.8994 18.8248 21.2265 17.4154C20.7997 17.0559 20.4534 16.4741 20.1701 15.9163C19.8888 15.3601 19.8554 14.7367 20.5177 14.1399ZM-27.2045 81.1053C-26.8975 79.3804 -25.8463 78.6682 -25.0134 79.5895C-23.6796 81.0654 -22.5711 82.7953 -21.8624 84.9601C-22.9941 85.1959 -23.7568 84.4961 -24.3072 83.5075C-24.743 82.7247 -25.3101 82.2865 -25.9352 81.8822C-26.3368 81.6232 -26.7456 81.3858 -27.2045 81.1053ZM100.931 81.6382C101.36 81.8847 101.62 81.9304 101.67 82.0806C101.971 82.9837 102.291 83.8918 102.474 84.8348C102.639 85.6798 101.964 86.0359 101.592 86.4908C101.457 86.656 100.907 86.4368 100.629 86.2185C100.348 85.9961 100.123 85.5893 99.9546 85.2091C99.3978 83.9524 98.8758 82.6716 98.3447 81.3983C98.2224 81.1044 98.1169 80.8006 97.9753 80.4271C99.2009 80.5881 99.9952 81.2605 100.511 82.5463C100.762 83.1721 101.156 83.7109 101.485 84.2886C101.561 84.2288 101.639 84.1699 101.715 84.1101C101.494 83.4104 101.272 82.7106 100.931 81.6382ZM94.7039 79.0749C95.7474 79.2193 96.0712 79.3804 96.5437 80.2428C97.2022 81.4439 97.8394 82.6691 98.4194 83.9308C99.0554 85.3146 98.9724 85.8068 98.0512 87.0859C97.9083 86.9216 97.7178 86.7888 97.6296 86.5871C97.1314 85.4515 96.6557 84.301 96.1774 83.1522C96.0448 82.8343 95.9122 82.5139 95.8105 82.1802C95.636 81.6116 95.5105 81.0198 95.3168 80.462C95.1578 80.0029 94.9305 79.5796 94.7039 79.0749ZM30.8872 46.4688C32.2866 46.7136 33.0861 45.256 34.2834 44.8194C33.2985 47.1104 32.6863 49.5027 32.5499 52.3299C32.1746 51.9879 31.8057 51.8277 31.7014 51.5281C31.1504 49.9476 30.8492 48.2966 30.8872 46.4688ZM25.4298 16.4683C25.3462 16.5413 25.2625 16.6143 25.1781 16.6874C24.004 15.8565 22.8306 15.0264 21.7047 14.2295C21.5065 12.7263 21.323 11.3376 21.1402 9.94803C21.229 9.89573 21.3179 9.84427 21.4067 9.79198C22.2944 11.018 23.24 12.1876 24.0491 13.49C24.6065 14.3864 24.976 15.4688 25.4298 16.4683ZM-21.2625 86.7913C-21.2445 86.9141 -21.2264 87.0361 -21.2084 87.159C-23.3211 88.8972 -25.4343 90.6345 -27.5354 92.3635C-28.0639 91.9892 -28.4977 91.6829 -28.9741 91.3459C-26.8795 89.9995 -24.8891 88.7195 -22.8576 87.413C-22.7907 87.1266 -22.705 86.7622 -22.5995 86.3131C-22.1006 86.4916 -21.6816 86.6419 -21.2625 86.7913ZM-18.734 73.9924C-17.9159 74.1451 -17.2394 74.219 -16.5815 74.4099C-16.0189 74.5726 -15.7099 75.1213 -15.5329 75.8152C-15.1641 77.2645 -15.7228 78.2946 -16.2719 79.3164C-17.07 77.5899 -17.8271 75.953 -18.734 73.9924ZM85.042 60.3684C85.1289 60.2571 85.2164 60.1459 85.3033 60.0355C86.2199 61.2001 87.1366 62.3647 88.1272 63.6239C87.7623 63.7277 87.4455 63.9634 87.2293 63.8563C85.9045 63.1964 84.4955 62.7598 83.3516 61.5819C83.2222 61.4491 83.1302 61.2557 82.9866 61.0382C83.5795 60.7809 83.9065 60.639 84.218 60.5028C84.836 61.6458 84.836 61.6458 85.6355 61.4516C85.4327 61.0822 85.2377 60.7253 85.042 60.3684ZM-18.1328 137.979C-18.026 136.035 -17.9236 134.159 -17.8187 132.282C-17.8013 131.975 -17.744 131.669 -17.7556 131.365C-17.7839 130.637 -17.4093 130.342 -16.9368 129.952C-16.6343 131.729 -16.8628 133.336 -16.9027 134.96C-16.9355 136.299 -17.1447 137.353 -18.1328 137.979ZM-19.4743 132.703C-19.3443 132.59 -19.0276 132.311 -18.6169 131.951C-18.6111 132.543 -18.5712 133.004 -18.6085 133.452C-18.7617 135.274 -18.9297 137.093 -19.1241 138.907C-19.1383 139.039 -19.4099 139.117 -19.6732 139.297C-19.8232 138.467 -20.0807 137.772 -20.0388 137.119C-19.9513 135.76 -19.7054 134.423 -19.4743 132.703ZM104.761 51.5837C104.833 51.6833 104.903 51.7829 104.975 51.8817C105.203 51.7132 105.467 51.592 105.651 51.367C106.14 50.7694 106.607 50.1419 107.059 49.4985C107.487 48.8884 107.993 48.7133 108.871 48.9092C108.172 49.5517 107.696 50.0829 107.153 50.4631C106.486 50.9296 106.035 51.5223 106.112 52.6985C105.281 52.2934 104.491 53.0322 103.752 52.1913C104.224 50.7486 105.2 50.1053 106.26 49.5542C105.76 50.2307 105.261 50.9072 104.761 51.5837ZM-9.1718 110.296C-10.3794 109.774 -11.4196 109.326 -12.6542 108.793C-11.6404 107.945 -10.644 107.887 -9.5606 107.905C-9.42929 108.709 -9.31084 109.439 -9.1718 110.296ZM47.6975 62.2692C48.6875 63.3392 48.665 64.5885 48.5845 66.1673C47.7773 65.177 47.1111 64.3602 46.3167 63.3857C46.8652 62.9416 47.2804 62.6062 47.6975 62.2692ZM37.8694 40.4067C38.4384 39.0703 38.9508 37.7746 39.5353 36.5353C39.7741 36.0298 40.2176 36.004 40.7223 36.2572C40.3747 36.937 39.9653 37.4758 39.796 38.1232C39.469 39.375 38.6502 39.8083 37.8694 40.4067ZM78.6526 54.9878C78.5882 54.9986 78.5238 55.0102 78.4588 55.021C78.3011 54.2408 78.041 53.4597 78.0243 52.6802C78.014 52.2054 78.3481 51.704 78.5869 51.2683C78.7935 50.8906 79.0999 50.6797 79.5344 50.986C79.2313 52.3631 78.9416 53.6755 78.6526 54.9878ZM81.2029 62.163C81.687 61.8268 82.115 61.5305 82.7195 61.1104C82.5631 62.1298 83.1907 63.2213 81.996 63.4172C81.781 63.0777 81.5608 62.7291 81.2029 62.163ZM78.6558 72.9996C78.5663 72.0168 79.1199 71.5138 79.5434 70.9136C79.2473 71.6084 78.9519 72.304 78.6558 72.9996ZM92.9608 78.2324C93.9701 78.3876 93.9701 78.3876 93.8324 79.3189C93.5691 78.9902 93.3309 78.6931 92.9608 78.2324ZM89.385 64.742C88.8585 65.2251 88.592 65.2467 88.5122 64.5544C88.4993 64.4415 88.5849 64.3154 88.6512 64.1178C88.8836 64.3154 89.0728 64.4764 89.385 64.742Z" fill="url(#paint0_linear_20_717)"/>
<path d="M77.4424 65.2699C76.5399 64.151 75.987 64.3129 75.416 65.6817C76.1524 65.8825 76.6899 65.3513 77.4424 65.2699Z" fill="url(#paint1_linear_20_717)"/>
<path d="M0.0111383 82.3005C0.198456 80.7475 -0.119541 80.3673 -1.80733 79.944C-1.83823 80.1656 -1.95281 80.5259 -1.8878 80.5898C-1.2943 81.17 -0.668613 81.6996 0.0111383 82.3005Z" fill="url(#paint2_linear_20_717)"/>
<path d="M4.81206 69.5789C5.33024 68.5131 5.09851 67.8142 4.78181 66.8579C4.25848 67.8748 4.4091 68.6094 4.81206 69.5789Z" fill="url(#paint3_linear_20_717)"/>
<path d="M2.68447 71.4747C2.20362 72.968 2.20363 72.968 3.29277 73.2743C3.52451 72.5032 2.8911 72.2708 2.68447 71.4747Z" fill="url(#paint4_linear_20_717)"/>
<path d="M3.29361 70.8986C3.42814 69.925 3.42814 69.925 2.9872 69.2584C2.52502 69.9125 2.52503 69.9125 3.29361 70.8986Z" fill="url(#paint5_linear_20_717)"/>
<path d="M43.3883 71.405C42.6628 72.5729 41.2332 72.3372 40.4832 73.9409C41.7011 73.9741 42.4819 73.3208 43.2615 72.7414C43.5634 72.5165 43.6837 72.04 43.3883 71.405Z" fill="url(#paint6_linear_20_717)"/>
<path d="M42.5599 69.0858C41.6993 69.5457 40.8522 69.9964 40.0102 70.4621C39.9851 70.4762 40.018 70.6497 40.0302 70.8439C40.7338 71.1909 41.427 71.078 42.0411 70.5866C42.419 70.2853 42.8657 69.8943 42.5599 69.0858Z" fill="url(#paint7_linear_20_717)"/>
<path d="M40.7665 59.5242C40.5882 60.3069 40.9448 60.5709 41.3458 60.7601C42.0816 61.1088 42.7465 60.971 43.4971 60.2106C42.4916 59.9583 41.6323 59.7425 40.7665 59.5242Z" fill="url(#paint8_linear_20_717)"/>
<path d="M43.4352 58.1114C41.6296 56.9144 41.6296 56.9144 41.1771 57.6615C42.5971 59.1382 42.9318 59.2212 43.4352 58.1114Z" fill="url(#paint9_linear_20_717)"/>
<path d="M43.7225 56.0196C43.3756 55.8361 43.0222 55.6709 42.6842 55.4643C42.3559 55.2625 42.0438 55.0177 41.7084 54.7803C41.2076 55.0426 41.167 55.4086 41.5449 55.8079C42.1667 56.4653 42.8851 56.6048 43.6324 56.452C43.6627 56.3076 43.6923 56.164 43.7225 56.0196Z" fill="url(#paint10_linear_20_717)"/>
<path d="M10.044 73.2146C9.3449 74.4265 9.4318 75.2068 10.2654 76.3465C10.6478 75.3114 10.2635 74.419 10.044 73.2146Z" fill="url(#paint11_linear_20_717)"/>
<path d="M8.21058 74.6414C7.85139 75.9213 7.95695 76.3687 8.75128 77.1216C9.1787 76.1446 8.65988 75.5104 8.21058 74.6414Z" fill="url(#paint12_linear_20_717)"/>
<path d="M13.961 72.6111C13.24 73.31 13.24 73.31 13.681 74.3576C14.268 73.9658 14.2442 73.4146 13.961 72.6111Z" fill="url(#paint13_linear_20_717)"/>
<path d="M11.546 73.7963C11.6323 74.2321 11.678 74.5251 11.7514 74.8082C11.8003 74.9958 11.8885 75.1684 12.0584 75.6009C12.2509 75.1975 12.4639 74.9576 12.4646 74.7086C12.4665 74.1201 12.1981 73.7631 11.546 73.7963Z" fill="url(#paint14_linear_20_717)"/>
<path d="M4.69073 92.3661C5.02932 91.844 5.03319 91.4314 4.48412 91.1857C4.21827 91.067 3.93052 90.9284 3.66467 90.9525C3.44195 90.9724 3.23726 91.2148 3.02484 91.3584C3.18834 91.6049 3.31772 91.9685 3.52371 92.0714C3.88611 92.2532 4.2955 92.2756 4.69073 92.3661Z" fill="url(#paint15_linear_20_717)"/>
<path d="M2.71605 94.7824C3.45696 94.8064 4.02084 94.8778 4.57442 94.8272C5.04948 94.7832 5.16727 94.393 4.9349 93.8485C3.46596 93.812 3.21943 93.8942 2.71605 94.7824Z" fill="url(#paint16_linear_20_717)"/>
<path d="M5.39404 96.0217C4.83402 96.1554 4.36991 96.2666 3.83177 96.3953C4.48835 97.4412 4.99559 97.3175 5.39404 96.0217Z" fill="url(#paint17_linear_20_717)"/>
<path d="M5.021 85.4589C4.82917 85.0082 4.63735 84.5574 4.41399 84.0328C3.90997 84.975 3.93507 85.0563 4.79699 85.654C4.87166 85.5884 4.94633 85.5237 5.021 85.4589Z" fill="url(#paint18_linear_20_717)"/>
<path d="M95.3394 59.2079C94.4118 58.67 93.5074 58.1454 92.5837 57.61C92.3481 58.0449 92.5412 58.3645 92.8083 58.6451C93.3471 59.2095 94.4832 59.4627 95.3394 59.2079Z" fill="url(#paint19_linear_20_717)"/>
<path d="M16.4411 126.998C16.8685 127.88 17.3249 128.035 18.0092 127.888C17.3165 127.123 17.3165 127.123 16.4411 126.998Z" fill="url(#paint20_linear_20_717)"/>
<defs>
<linearGradient id="paint0_linear_20_717" x1="114" y1="81" x2="-32.94" y2="81" gradientUnits="userSpaceOnUse">
<stop stop-color="#FAFAFA"/>
<stop offset="1" stop-color="#7C0406"/>
</linearGradient>
<linearGradient id="paint1_linear_20_717" x1="77.4424" y1="65.1286" x2="75.416" y2="65.1286" gradientUnits="userSpaceOnUse">
<stop stop-color="#FAFAFA"/>
<stop offset="1" stop-color="#7C0406"/>
</linearGradient>
<linearGradient id="paint2_linear_20_717" x1="0.0587158" y1="81.1223" x2="-1.90744" y2="81.1223" gradientUnits="userSpaceOnUse">
<stop stop-color="#FAFAFA"/>
<stop offset="1" stop-color="#7C0406"/>
</linearGradient>
<linearGradient id="paint3_linear_20_717" x1="5.11743" y1="68.2184" x2="4.44631" y2="68.2184" gradientUnits="userSpaceOnUse">
<stop stop-color="#FAFAFA"/>
<stop offset="1" stop-color="#7C0406"/>
</linearGradient>
<linearGradient id="paint4_linear_20_717" x1="3.34302" y1="72.3745" x2="2.37719" y2="72.3745" gradientUnits="userSpaceOnUse">
<stop stop-color="#FAFAFA"/>
<stop offset="1" stop-color="#7C0406"/>
</linearGradient>
<linearGradient id="paint5_linear_20_717" x1="3.37231" y1="70.0785" x2="2.67164" y2="70.0785" gradientUnits="userSpaceOnUse">
<stop stop-color="#FAFAFA"/>
<stop offset="1" stop-color="#7C0406"/>
</linearGradient>
<linearGradient id="paint6_linear_20_717" x1="43.5582" y1="72.6736" x2="40.4832" y2="72.6736" gradientUnits="userSpaceOnUse">
<stop stop-color="#FAFAFA"/>
<stop offset="1" stop-color="#7C0406"/>
</linearGradient>
<linearGradient id="paint7_linear_20_717" x1="42.6615" y1="70.0653" x2="40.001" y2="70.0653" gradientUnits="userSpaceOnUse">
<stop stop-color="#FAFAFA"/>
<stop offset="1" stop-color="#7C0406"/>
</linearGradient>
<linearGradient id="paint8_linear_20_717" x1="43.4971" y1="60.2329" x2="40.7193" y2="60.2329" gradientUnits="userSpaceOnUse">
<stop stop-color="#FAFAFA"/>
<stop offset="1" stop-color="#7C0406"/>
</linearGradient>
<linearGradient id="paint9_linear_20_717" x1="43.4352" y1="58.0071" x2="41.1771" y2="58.0071" gradientUnits="userSpaceOnUse">
<stop stop-color="#FAFAFA"/>
<stop offset="1" stop-color="#7C0406"/>
</linearGradient>
<linearGradient id="paint10_linear_20_717" x1="43.7225" y1="55.6443" x2="41.2927" y2="55.6443" gradientUnits="userSpaceOnUse">
<stop stop-color="#FAFAFA"/>
<stop offset="1" stop-color="#7C0406"/>
</linearGradient>
<linearGradient id="paint11_linear_20_717" x1="10.4277" y1="74.7805" x2="9.57412" y2="74.7805" gradientUnits="userSpaceOnUse">
<stop stop-color="#FAFAFA"/>
<stop offset="1" stop-color="#7C0406"/>
</linearGradient>
<linearGradient id="paint12_linear_20_717" x1="8.91064" y1="75.8815" x2="8.01377" y2="75.8815" gradientUnits="userSpaceOnUse">
<stop stop-color="#FAFAFA"/>
<stop offset="1" stop-color="#7C0406"/>
</linearGradient>
<linearGradient id="paint13_linear_20_717" x1="14.1545" y1="73.4843" x2="13.3789" y2="73.4843" gradientUnits="userSpaceOnUse">
<stop stop-color="#FAFAFA"/>
<stop offset="1" stop-color="#7C0406"/>
</linearGradient>
<linearGradient id="paint14_linear_20_717" x1="12.4646" y1="74.6975" x2="11.546" y2="74.6975" gradientUnits="userSpaceOnUse">
<stop stop-color="#FAFAFA"/>
<stop offset="1" stop-color="#7C0406"/>
</linearGradient>
<linearGradient id="paint15_linear_20_717" x1="4.92468" y1="91.6579" x2="3.02484" y2="91.6579" gradientUnits="userSpaceOnUse">
<stop stop-color="#FAFAFA"/>
<stop offset="1" stop-color="#7C0406"/>
</linearGradient>
<linearGradient id="paint16_linear_20_717" x1="5.05029" y1="94.3433" x2="2.71605" y2="94.3433" gradientUnits="userSpaceOnUse">
<stop stop-color="#FAFAFA"/>
<stop offset="1" stop-color="#7C0406"/>
</linearGradient>
<linearGradient id="paint17_linear_20_717" x1="5.39404" y1="96.5591" x2="3.83177" y2="96.5591" gradientUnits="userSpaceOnUse">
<stop stop-color="#FAFAFA"/>
<stop offset="1" stop-color="#7C0406"/>
</linearGradient>
<linearGradient id="paint18_linear_20_717" x1="5.021" y1="84.8434" x2="4.0817" y2="84.8434" gradientUnits="userSpaceOnUse">
<stop stop-color="#FAFAFA"/>
<stop offset="1" stop-color="#7C0406"/>
</linearGradient>
<linearGradient id="paint19_linear_20_717" x1="95.3394" y1="58.4585" x2="92.4776" y2="58.4585" gradientUnits="userSpaceOnUse">
<stop stop-color="#FAFAFA"/>
<stop offset="1" stop-color="#7C0406"/>
</linearGradient>
<linearGradient id="paint20_linear_20_717" x1="18.0092" y1="127.468" x2="16.4411" y2="127.468" gradientUnits="userSpaceOnUse">
<stop stop-color="#FAFAFA"/>
<stop offset="1" stop-color="#7C0406"/>
</linearGradient>
</defs>
</svg>
